<svg width="914" height="119" viewBox="0 0 914 119" fill="none" xmlns="http://www.w3.org/2000/svg">
<path d="M1.56 38L14.32 9.8H17.28L30.04 38H26.64L23.36 30.6H8.12L4.8 38H1.56ZM9.36 27.76H22.12L15.76 13.48L9.36 27.76ZM46.0416 38.44C42.7882 38.44 40.1482 36.9733 38.1216 34.04V38H35.0416V8.8H38.1216V21.48C40.2016 18.4133 42.8416 16.88 46.0416 16.88C48.6816 16.88 50.9882 17.8533 52.9616 19.8C54.9349 21.7467 55.9216 24.3467 55.9216 27.6V27.68C55.9216 30.9067 54.9349 33.5067 52.9616 35.48C50.9882 37.4533 48.6816 38.44 46.0416 38.44ZM45.4816 35.68C47.5616 35.68 49.2949 34.96 50.6816 33.52C52.0682 32.08 52.7616 30.1467 52.7616 27.72V27.64C52.7616 25.2667 52.0549 23.3467 50.6416 21.88C49.2282 20.3867 47.5082 19.64 45.4816 19.64C43.4816 19.64 41.7349 20.4 40.2416 21.92C38.7482 23.4133 38.0016 25.3067 38.0016 27.6V27.68C38.0016 30 38.7482 31.92 40.2416 33.44C41.7349 34.9333 43.4816 35.68 45.4816 35.68ZM78.7641 35.32C76.6841 37.4267 74.1107 38.48 71.0441 38.48C67.9774 38.48 65.4174 37.44 63.3641 35.36C61.3374 33.2533 60.3241 30.72 60.3241 27.76V27.68C60.3241 24.72 61.3507 22.1867 63.4041 20.08C65.4841 17.9467 68.0574 16.88 71.1241 16.88C74.1907 16.88 76.7507 17.9333 78.8041 20.04C80.8574 22.12 81.8841 24.64 81.8841 27.6V27.68C81.8841 30.64 80.8441 33.1867 78.7641 35.32ZM71.1241 35.72C73.3374 35.72 75.1507 34.9467 76.5641 33.4C78.0041 31.8533 78.7241 29.9733 78.7241 27.76V27.68C78.7241 25.44 77.9774 23.5333 76.4841 21.96C75.0174 20.3867 73.2041 19.6 71.0441 19.6C68.8574 19.6 67.0441 20.3867 65.6041 21.96C64.1907 23.5067 63.4841 25.3867 63.4841 27.6V27.68C63.4841 29.92 64.2174 31.8267 65.6841 33.4C67.1507 34.9467 68.9641 35.72 71.1241 35.72ZM95.0634 38.44C92.6101 38.44 90.6768 37.6933 89.2634 36.2C87.8501 34.68 87.1434 32.6667 87.1434 30.16V17.32H90.2234V29.4C90.2234 31.3467 90.7168 32.88 91.7034 34C92.7168 35.0933 94.1301 35.64 95.9434 35.64C97.7301 35.64 99.2101 35.04 100.383 33.84C101.557 32.64 102.143 31.08 102.143 29.16V17.32H105.183V38H102.143V34.4C100.463 37.0933 98.1034 38.44 95.0634 38.44ZM119.032 38.36C117.245 38.36 115.819 37.8933 114.752 36.96C113.712 36 113.192 34.52 113.192 32.52V20.04H110.312V17.32H113.192V11.08H116.272V17.32H122.832V20.04H116.272V32.12C116.272 34.4133 117.432 35.56 119.752 35.56C120.765 35.56 121.765 35.32 122.752 34.84V37.48C121.632 38.0667 120.392 38.36 119.032 38.36ZM151.876 38.44C144.356 38.44 139.756 34.24 139.756 26V10H145.916V25.84C145.916 30.4 148.196 32.76 151.956 32.76C155.716 32.76 157.996 30.48 157.996 26.04V10H164.156V25.8C164.156 34.28 159.396 38.44 151.876 38.44ZM177.31 38.4C174.31 38.4 170.95 37.4 168.11 35.16L170.71 31.16C173.03 32.84 175.47 33.72 177.47 33.72C179.23 33.72 180.03 33.08 180.03 32.12V32.04C180.03 30.72 177.95 30.28 175.59 29.56C172.59 28.68 169.19 27.28 169.19 23.12V23.04C169.19 18.68 172.71 16.24 177.03 16.24C179.75 16.24 182.71 17.16 185.03 18.72L182.71 22.92C180.59 21.68 178.47 20.92 176.91 20.92C175.43 20.92 174.67 21.56 174.67 22.4V22.48C174.67 23.68 176.71 24.24 179.03 25.04C182.03 26.04 185.51 27.48 185.51 31.4V31.48C185.51 36.24 181.95 38.4 177.31 38.4Z" fill="#27336E"/>
<path d="M8.38 81.24C6.38 81.24 4.70667 80.5467 3.36 79.16C2.02667 77.7733 1.36 76.0667 1.36 74.04V74C1.36 71.9867 2.03333 70.28 3.38 68.88C4.72667 67.4667 6.41333 66.76 8.44 66.76C9.62667 66.76 10.64 66.9467 11.48 67.32C12.32 67.6933 13.1267 68.2467 13.9 68.98L12.82 70.14C11.4733 68.86 10.0067 68.22 8.42 68.22C6.87333 68.22 5.58 68.7733 4.54 69.88C3.51333 70.9867 3 72.3467 3 73.96V74C3 75.6267 3.52 77 4.56 78.12C5.6 79.2267 6.88667 79.78 8.42 79.78C9.32667 79.78 10.1267 79.6133 10.82 79.28C11.5133 78.9467 12.22 78.44 12.94 77.76L13.98 78.78C13.18 79.5933 12.3467 80.2067 11.48 80.62C10.6133 81.0333 9.58 81.24 8.38 81.24ZM24.8703 79.66C23.8303 80.7133 22.5436 81.24 21.0103 81.24C19.477 81.24 18.197 80.72 17.1703 79.68C16.157 78.6267 15.6503 77.36 15.6503 75.88V75.84C15.6503 74.36 16.1636 73.0933 17.1903 72.04C18.2303 70.9733 19.517 70.44 21.0503 70.44C22.5836 70.44 23.8636 70.9667 24.8903 72.02C25.917 73.06 26.4303 74.32 26.4303 75.8V75.84C26.4303 77.32 25.9103 78.5933 24.8703 79.66ZM21.0503 79.86C22.157 79.86 23.0636 79.4733 23.7703 78.7C24.4903 77.9267 24.8503 76.9867 24.8503 75.88V75.84C24.8503 74.72 24.477 73.7667 23.7303 72.98C22.997 72.1933 22.0903 71.8 21.0103 71.8C19.917 71.8 19.0103 72.1933 18.2903 72.98C17.5836 73.7533 17.2303 74.6933 17.2303 75.8V75.84C17.2303 76.96 17.597 77.9133 18.3303 78.7C19.0636 79.4733 19.9703 79.86 21.0503 79.86ZM29.22 81V70.66H30.76V72.4C31.6267 71.0933 32.74 70.44 34.1 70.44C35.6467 70.44 36.7533 71.1267 37.42 72.5C38.3133 71.1267 39.5267 70.44 41.06 70.44C42.2467 70.44 43.18 70.8133 43.86 71.56C44.5533 72.3067 44.9 73.32 44.9 74.6V81H43.36V74.96C43.36 73.96 43.12 73.1933 42.64 72.66C42.1733 72.1133 41.52 71.84 40.68 71.84C39.8667 71.84 39.1867 72.1267 38.64 72.7C38.0933 73.2733 37.82 74.0533 37.82 75.04V81H36.3V74.92C36.3 73.96 36.06 73.2067 35.58 72.66C35.1133 72.1133 34.4667 71.84 33.64 71.84C32.8133 71.84 32.1267 72.1467 31.58 72.76C31.0333 73.3733 30.76 74.1533 30.76 75.1V81H29.22ZM48.2434 81V70.66H49.7834V72.4C50.6501 71.0933 51.7634 70.44 53.1234 70.44C54.6701 70.44 55.7768 71.1267 56.4434 72.5C57.3368 71.1267 58.5501 70.44 60.0834 70.44C61.2701 70.44 62.2034 70.8133 62.8834 71.56C63.5768 72.3067 63.9234 73.32 63.9234 74.6V81H62.3834V74.96C62.3834 73.96 62.1434 73.1933 61.6634 72.66C61.1968 72.1133 60.5434 71.84 59.7034 71.84C58.8901 71.84 58.2101 72.1267 57.6634 72.7C57.1168 73.2733 56.8434 74.0533 56.8434 75.04V81H55.3234V74.92C55.3234 73.96 55.0834 73.2067 54.6034 72.66C54.1368 72.1133 53.4901 71.84 52.6634 71.84C51.8368 71.84 51.1501 72.1467 50.6034 72.76C50.0568 73.3733 49.7834 74.1533 49.7834 75.1V81H48.2434ZM75.8469 79.66C74.8069 80.7133 73.5202 81.24 71.9869 81.24C70.4535 81.24 69.1735 80.72 68.1469 79.68C67.1335 78.6267 66.6269 77.36 66.6269 75.88V75.84C66.6269 74.36 67.1402 73.0933 68.1669 72.04C69.2069 70.9733 70.4935 70.44 72.0269 70.44C73.5602 70.44 74.8402 70.9667 75.8669 72.02C76.8935 73.06 77.4069 74.32 77.4069 75.8V75.84C77.4069 77.32 76.8869 78.5933 75.8469 79.66ZM72.0269 79.86C73.1335 79.86 74.0402 79.4733 74.7469 78.7C75.4669 77.9267 75.8269 76.9867 75.8269 75.88V75.84C75.8269 74.72 75.4535 73.7667 74.7069 72.98C73.9735 72.1933 73.0669 71.8 71.9869 71.8C70.8935 71.8 69.9869 72.1933 69.2669 72.98C68.5602 73.7533 68.2069 74.6933 68.2069 75.8V75.84C68.2069 76.96 68.5735 77.9133 69.3069 78.7C70.0402 79.4733 70.9469 79.86 72.0269 79.86ZM84.5366 81.22C83.2166 81.22 82.0632 80.7333 81.0766 79.76C80.0899 78.7867 79.5966 77.4867 79.5966 75.86V75.82C79.5966 74.2067 80.0899 72.9067 81.0766 71.92C82.0632 70.9333 83.2166 70.44 84.5366 70.44C86.1632 70.44 87.4832 71.1733 88.4966 72.64V66.4H90.0366V81H88.4966V78.92C87.4566 80.4533 86.1366 81.22 84.5366 81.22ZM84.8166 79.84C85.8166 79.84 86.6899 79.4667 87.4366 78.72C88.1832 77.96 88.5566 77 88.5566 75.84V75.8C88.5566 74.6533 88.1832 73.7067 87.4366 72.96C86.6899 72.2 85.8166 71.82 84.8166 71.82C83.7766 71.82 82.9099 72.18 82.2166 72.9C81.5232 73.62 81.1766 74.5867 81.1766 75.8V75.84C81.1766 77.0267 81.5299 77.9933 82.2366 78.74C82.9432 79.4733 83.8032 79.84 84.8166 79.84ZM102.058 79.66C101.018 80.7133 99.7311 81.24 98.1978 81.24C96.6645 81.24 95.3845 80.72 94.3578 79.68C93.3445 78.6267 92.8378 77.36 92.8378 75.88V75.84C92.8378 74.36 93.3511 73.0933 94.3778 72.04C95.4178 70.9733 96.7045 70.44 98.2378 70.44C99.7711 70.44 101.051 70.9667 102.078 72.02C103.104 73.06 103.618 74.32 103.618 75.8V75.84C103.618 77.32 103.098 78.5933 102.058 79.66ZM98.2378 79.86C99.3445 79.86 100.251 79.4733 100.958 78.7C101.678 77.9267 102.038 76.9867 102.038 75.88V75.84C102.038 74.72 101.664 73.7667 100.918 72.98C100.184 72.1933 99.2778 71.8 98.1978 71.8C97.1045 71.8 96.1978 72.1933 95.4778 72.98C94.7711 73.7533 94.4178 74.6933 94.4178 75.8V75.84C94.4178 76.96 94.7845 77.9133 95.5178 78.7C96.2511 79.4733 97.1578 79.86 98.2378 79.86ZM116.744 81.22C115.424 81.22 114.27 80.7333 113.284 79.76C112.297 78.7867 111.804 77.4867 111.804 75.86V75.82C111.804 74.2067 112.297 72.9067 113.284 71.92C114.27 70.9333 115.424 70.44 116.744 70.44C118.37 70.44 119.69 71.1733 120.704 72.64V66.4H122.244V81H120.704V78.92C119.664 80.4533 118.344 81.22 116.744 81.22ZM117.024 79.84C118.024 79.84 118.897 79.4667 119.644 78.72C120.39 77.96 120.764 77 120.764 75.84V75.8C120.764 74.6533 120.39 73.7067 119.644 72.96C118.897 72.2 118.024 71.82 117.024 71.82C115.984 71.82 115.117 72.18 114.424 72.9C113.73 73.62 113.384 74.5867 113.384 75.8V75.84C113.384 77.0267 113.737 77.9933 114.444 78.74C115.15 79.4733 116.01 79.84 117.024 79.84ZM125.725 68.4V66.7H127.485V68.4H125.725ZM125.825 81V70.66H127.365V81H125.825ZM135.519 84.24C133.772 84.24 132.205 83.76 130.819 82.8L131.519 81.6C132.732 82.48 134.059 82.92 135.499 82.92C136.659 82.92 137.572 82.6 138.239 81.96C138.919 81.3333 139.259 80.4267 139.259 79.24V78.02C138.165 79.4733 136.812 80.2 135.199 80.2C133.892 80.2 132.752 79.7533 131.779 78.86C130.819 77.9533 130.339 76.7867 130.339 75.36V75.32C130.339 73.8667 130.825 72.6933 131.799 71.8C132.772 70.8933 133.905 70.44 135.199 70.44C136.852 70.44 138.199 71.1333 139.239 72.52V70.66H140.779V79.2C140.779 80.76 140.339 81.98 139.459 82.86C138.539 83.78 137.225 84.24 135.519 84.24ZM135.499 78.84C136.512 78.84 137.399 78.5133 138.159 77.86C138.919 77.1933 139.299 76.3533 139.299 75.34V75.3C139.299 74.2733 138.919 73.4333 138.159 72.78C137.412 72.1267 136.525 71.8 135.499 71.8C134.499 71.8 133.652 72.12 132.959 72.76C132.265 73.4 131.919 74.24 131.919 75.28V75.32C131.919 76.3333 132.265 77.1733 132.959 77.84C133.665 78.5067 134.512 78.84 135.499 78.84ZM144.22 81V70.66H145.76V72.46C146.573 71.1133 147.753 70.44 149.3 70.44C150.527 70.44 151.493 70.82 152.2 71.58C152.907 72.3267 153.26 73.3267 153.26 74.58V81H151.72V74.96C151.72 73.9867 151.467 73.2267 150.96 72.68C150.467 72.12 149.767 71.84 148.86 71.84C147.967 71.84 147.227 72.14 146.64 72.74C146.053 73.34 145.76 74.12 145.76 75.08V81H144.22ZM156.584 68.4V66.7H158.344V68.4H156.584ZM156.684 81V70.66H158.224V81H156.684ZM165.218 81.2C164.471 81.2 163.711 81.0667 162.938 80.8C162.178 80.52 161.511 80.1467 160.938 79.68L161.718 78.58C162.891 79.46 164.085 79.9 165.298 79.9C165.925 79.9 166.438 79.7533 166.838 79.46C167.238 79.1533 167.438 78.7533 167.438 78.26V78.22C167.438 77.7533 167.218 77.3933 166.778 77.14C166.351 76.8867 165.711 76.64 164.858 76.4C164.338 76.2533 163.925 76.12 163.618 76C163.311 75.88 162.965 75.7133 162.578 75.5C162.191 75.2733 161.905 74.9933 161.718 74.66C161.531 74.3267 161.438 73.9333 161.438 73.48V73.44C161.438 72.56 161.765 71.8467 162.418 71.3C163.085 70.7533 163.931 70.48 164.958 70.48C166.291 70.48 167.531 70.86 168.678 71.62L167.978 72.78C166.951 72.1133 165.931 71.78 164.918 71.78C164.318 71.78 163.831 71.92 163.458 72.2C163.098 72.48 162.918 72.84 162.918 73.28V73.32C162.918 73.5067 162.971 73.68 163.078 73.84C163.185 74 163.305 74.1333 163.438 74.24C163.571 74.3467 163.778 74.46 164.058 74.58C164.351 74.7 164.585 74.7867 164.758 74.84C164.931 74.8933 165.205 74.98 165.578 75.1C165.965 75.22 166.285 75.3267 166.538 75.42C166.805 75.5133 167.098 75.6467 167.418 75.82C167.751 75.98 168.011 76.16 168.198 76.36C168.398 76.5467 168.565 76.7867 168.698 77.08C168.831 77.3733 168.898 77.7 168.898 78.06V78.1C168.898 79.06 168.551 79.82 167.858 80.38C167.165 80.9267 166.285 81.2 165.218 81.2ZM174.984 81.2C174.237 81.2 173.477 81.0667 172.704 80.8C171.944 80.52 171.277 80.1467 170.704 79.68L171.484 78.58C172.657 79.46 173.85 79.9 175.064 79.9C175.69 79.9 176.204 79.7533 176.604 79.46C177.004 79.1533 177.204 78.7533 177.204 78.26V78.22C177.204 77.7533 176.984 77.3933 176.544 77.14C176.117 76.8867 175.477 76.64 174.624 76.4C174.104 76.2533 173.69 76.12 173.384 76C173.077 75.88 172.73 75.7133 172.344 75.5C171.957 75.2733 171.67 74.9933 171.484 74.66C171.297 74.3267 171.204 73.9333 171.204 73.48V73.44C171.204 72.56 171.53 71.8467 172.184 71.3C172.85 70.7533 173.697 70.48 174.724 70.48C176.057 70.48 177.297 70.86 178.444 71.62L177.744 72.78C176.717 72.1133 175.697 71.78 174.684 71.78C174.084 71.78 173.597 71.92 173.224 72.2C172.864 72.48 172.684 72.84 172.684 73.28V73.32C172.684 73.5067 172.737 73.68 172.844 73.84C172.95 74 173.07 74.1333 173.204 74.24C173.337 74.3467 173.544 74.46 173.824 74.58C174.117 74.7 174.35 74.7867 174.524 74.84C174.697 74.8933 174.97 74.98 175.344 75.1C175.73 75.22 176.05 75.3267 176.304 75.42C176.57 75.5133 176.864 75.6467 177.184 75.82C177.517 75.98 177.777 76.16 177.964 76.36C178.164 76.5467 178.33 76.7867 178.464 77.08C178.597 77.3733 178.664 77.7 178.664 78.06V78.1C178.664 79.06 178.317 79.82 177.624 80.38C176.93 80.9267 176.05 81.2 174.984 81.2ZM181.565 68.4V66.7H183.325V68.4H181.565ZM181.665 81V70.66H183.205V81H181.665ZM186.779 81V70.66H188.319V72.4C189.185 71.0933 190.299 70.44 191.659 70.44C193.205 70.44 194.312 71.1267 194.979 72.5C195.872 71.1267 197.085 70.44 198.619 70.44C199.805 70.44 200.739 70.8133 201.419 71.56C202.112 72.3067 202.459 73.32 202.459 74.6V81H200.919V74.96C200.919 73.96 200.679 73.1933 200.199 72.66C199.732 72.1133 199.079 71.84 198.239 71.84C197.425 71.84 196.745 72.1267 196.199 72.7C195.652 73.2733 195.379 74.0533 195.379 75.04V81H193.859V74.92C193.859 73.96 193.619 73.2067 193.139 72.66C192.672 72.1133 192.025 71.84 191.199 71.84C190.372 71.84 189.685 72.1467 189.139 72.76C188.592 73.3733 188.319 74.1533 188.319 75.1V81H186.779ZM215.258 81.18C214.365 81.18 213.651 80.9467 213.118 80.48C212.598 80 212.338 79.26 212.338 78.26V72.02H210.898V70.66H212.338V67.54H213.878V70.66H217.158V72.02H213.878V78.06C213.878 79.2067 214.458 79.78 215.618 79.78C216.125 79.78 216.625 79.66 217.118 79.42V80.74C216.558 81.0333 215.938 81.18 215.258 81.18ZM223.684 81.22C222.457 81.22 221.491 80.8467 220.784 80.1C220.077 79.34 219.724 78.3333 219.724 77.08V70.66H221.264V76.7C221.264 77.6733 221.511 78.44 222.004 79C222.511 79.5467 223.217 79.82 224.124 79.82C225.017 79.82 225.757 79.52 226.344 78.92C226.931 78.32 227.224 77.54 227.224 76.58V70.66H228.744V81H227.224V79.2C226.384 80.5467 225.204 81.22 223.684 81.22ZM232.208 81V70.66H233.748V73.36C234.148 72.4667 234.715 71.7533 235.448 71.22C236.182 70.6867 237.022 70.44 237.968 70.48V72.14H237.848C236.662 72.14 235.682 72.5533 234.908 73.38C234.135 74.2067 233.748 75.3733 233.748 76.88V81H232.208ZM240.314 84.2V70.66H241.854V72.74C242.894 71.2067 244.214 70.44 245.814 70.44C247.134 70.44 248.287 70.9267 249.274 71.9C250.26 72.8733 250.754 74.1733 250.754 75.8V75.84C250.754 77.4533 250.26 78.7533 249.274 79.74C248.287 80.7267 247.134 81.22 245.814 81.22C244.187 81.22 242.867 80.4867 241.854 79.02V84.2H240.314ZM245.534 79.84C246.574 79.84 247.44 79.48 248.134 78.76C248.827 78.04 249.174 77.0733 249.174 75.86V75.82C249.174 74.6333 248.82 73.6733 248.114 72.94C247.407 72.1933 246.547 71.82 245.534 71.82C244.534 71.82 243.66 72.2 242.914 72.96C242.167 73.7067 241.794 74.6533 241.794 75.8V75.84C241.794 77 242.167 77.96 242.914 78.72C243.66 79.4667 244.534 79.84 245.534 79.84ZM253.635 68.4V66.7H255.395V68.4H253.635ZM253.735 81V70.66H255.275V81H253.735ZM262.269 81.2C261.522 81.2 260.762 81.0667 259.989 80.8C259.229 80.52 258.562 80.1467 257.989 79.68L258.769 78.58C259.942 79.46 261.136 79.9 262.349 79.9C262.976 79.9 263.489 79.7533 263.889 79.46C264.289 79.1533 264.489 78.7533 264.489 78.26V78.22C264.489 77.7533 264.269 77.3933 263.829 77.14C263.402 76.8867 262.762 76.64 261.909 76.4C261.389 76.2533 260.976 76.12 260.669 76C260.362 75.88 260.016 75.7133 259.629 75.5C259.242 75.2733 258.956 74.9933 258.769 74.66C258.582 74.3267 258.489 73.9333 258.489 73.48V73.44C258.489 72.56 258.816 71.8467 259.469 71.3C260.136 70.7533 260.982 70.48 262.009 70.48C263.342 70.48 264.582 70.86 265.729 71.62L265.029 72.78C264.002 72.1133 262.982 71.78 261.969 71.78C261.369 71.78 260.882 71.92 260.509 72.2C260.149 72.48 259.969 72.84 259.969 73.28V73.32C259.969 73.5067 260.022 73.68 260.129 73.84C260.236 74 260.356 74.1333 260.489 74.24C260.622 74.3467 260.829 74.46 261.109 74.58C261.402 74.7 261.636 74.7867 261.809 74.84C261.982 74.8933 262.256 74.98 262.629 75.1C263.016 75.22 263.336 75.3267 263.589 75.42C263.856 75.5133 264.149 75.6467 264.469 75.82C264.802 75.98 265.062 76.16 265.249 76.36C265.449 76.5467 265.616 76.7867 265.749 77.08C265.882 77.3733 265.949 77.7 265.949 78.06V78.1C265.949 79.06 265.602 79.82 264.909 80.38C264.216 80.9267 263.336 81.2 262.269 81.2ZM278.266 81.08L273.786 70.66H275.486L278.966 79.24L282.466 70.66H284.126L279.626 81.08H278.266ZM286.859 76.46C286.965 77.5133 287.359 78.3533 288.039 78.98C288.732 79.5933 289.552 79.9 290.499 79.9C291.739 79.9 292.825 79.4133 293.759 78.44L294.719 79.3C293.559 80.5933 292.139 81.24 290.459 81.24C289.005 81.24 287.779 80.74 286.779 79.74C285.792 78.7267 285.299 77.4267 285.299 75.84C285.299 74.3333 285.772 73.06 286.719 72.02C287.665 70.9667 288.845 70.44 290.259 70.44C291.739 70.44 292.912 70.96 293.779 72C294.645 73.04 295.079 74.3467 295.079 75.92C295.079 76.12 295.072 76.3 295.059 76.46H286.859ZM286.859 75.22H293.519C293.425 74.22 293.092 73.3933 292.519 72.74C291.959 72.0733 291.192 71.74 290.219 71.74C289.339 71.74 288.585 72.0667 287.959 72.72C287.332 73.3733 286.965 74.2067 286.859 75.22ZM297.915 81V66.4H299.455V81H297.915ZM309.605 81V72.02H308.185V70.68H309.605V69.78C309.605 68.6067 309.905 67.72 310.505 67.12C311.038 66.5867 311.778 66.32 312.725 66.32C313.378 66.32 313.945 66.4067 314.425 66.58V67.92C313.811 67.7467 313.311 67.66 312.925 67.66C311.725 67.66 311.125 68.3933 311.125 69.86V70.7H314.405V72.02H311.145V81H309.605ZM316.368 81V70.66H317.908V73.36C318.308 72.4667 318.875 71.7533 319.608 71.22C320.342 70.6867 321.182 70.44 322.128 70.48V72.14H322.008C320.822 72.14 319.842 72.5533 319.068 73.38C318.295 74.2067 317.908 75.3733 317.908 76.88V81H316.368ZM324.514 68.4V66.7H326.274V68.4H324.514ZM324.614 81V70.66H326.154V81H324.614ZM329.728 81V70.66H331.268V72.46C332.081 71.1133 333.261 70.44 334.808 70.44C336.034 70.44 337.001 70.82 337.708 71.58C338.414 72.3267 338.768 73.3267 338.768 74.58V81H337.228V74.96C337.228 73.9867 336.974 73.2267 336.468 72.68C335.974 72.12 335.274 71.84 334.368 71.84C333.474 71.84 332.734 72.14 332.148 72.74C331.561 73.34 331.268 74.12 331.268 75.08V81H329.728ZM346.632 84.24C344.885 84.24 343.319 83.76 341.932 82.8L342.632 81.6C343.845 82.48 345.172 82.92 346.612 82.92C347.772 82.92 348.685 82.6 349.352 81.96C350.032 81.3333 350.372 80.4267 350.372 79.24V78.02C349.279 79.4733 347.925 80.2 346.312 80.2C345.005 80.2 343.865 79.7533 342.892 78.86C341.932 77.9533 341.452 76.7867 341.452 75.36V75.32C341.452 73.8667 341.939 72.6933 342.912 71.8C343.885 70.8933 345.019 70.44 346.312 70.44C347.965 70.44 349.312 71.1333 350.352 72.52V70.66H351.892V79.2C351.892 80.76 351.452 81.98 350.572 82.86C349.652 83.78 348.339 84.24 346.632 84.24ZM346.612 78.84C347.625 78.84 348.512 78.5133 349.272 77.86C350.032 77.1933 350.412 76.3533 350.412 75.34V75.3C350.412 74.2733 350.032 73.4333 349.272 72.78C348.525 72.1267 347.639 71.8 346.612 71.8C345.612 71.8 344.765 72.12 344.072 72.76C343.379 73.4 343.032 74.24 343.032 75.28V75.32C343.032 76.3333 343.379 77.1733 344.072 77.84C344.779 78.5067 345.625 78.84 346.612 78.84ZM355.373 68.4V66.7H357.133V68.4H355.373ZM355.473 81V70.66H357.013V81H355.473ZM360.727 81V66.4H362.267V81H360.727ZM365.981 81V66.4H367.521V81H365.981ZM374.175 81.22C373.135 81.22 372.228 80.9333 371.455 80.36C370.695 79.7867 370.315 79 370.315 78V77.96C370.315 76.88 370.715 76.0467 371.515 75.46C372.315 74.8733 373.388 74.58 374.735 74.58C375.802 74.58 376.855 74.7267 377.895 75.02V74.7C377.895 73.7933 377.628 73.1 377.095 72.62C376.562 72.14 375.808 71.9 374.835 71.9C373.822 71.9 372.775 72.1467 371.695 72.64L371.235 71.38C372.515 70.7933 373.768 70.5 374.995 70.5C376.462 70.5 377.575 70.88 378.335 71.64C379.055 72.36 379.415 73.3733 379.415 74.68V81H377.895V79.46C376.975 80.6333 375.735 81.22 374.175 81.22ZM374.475 79.98C375.435 79.98 376.248 79.72 376.915 79.2C377.582 78.68 377.915 78.0133 377.915 77.2V76.24C376.902 75.9467 375.895 75.8 374.895 75.8C373.948 75.8 373.208 75.9933 372.675 76.38C372.142 76.7533 371.875 77.2533 371.875 77.88V77.92C371.875 78.5467 372.122 79.0467 372.615 79.42C373.122 79.7933 373.742 79.98 374.475 79.98ZM382.497 81V78.9H384.337V81H382.497ZM398.635 81.2C396.489 81.2 394.582 80.4533 392.915 78.96L393.895 77.8C394.642 78.48 395.389 78.98 396.135 79.3C396.895 79.62 397.749 79.78 398.695 79.78C399.629 79.78 400.382 79.56 400.955 79.12C401.529 78.6667 401.815 78.0933 401.815 77.4V77.36C401.815 76.68 401.562 76.14 401.055 75.74C400.549 75.34 399.589 74.9933 398.175 74.7C396.522 74.34 395.322 73.86 394.575 73.26C393.842 72.6467 393.475 71.78 393.475 70.66V70.62C393.475 69.5133 393.909 68.6 394.775 67.88C395.642 67.16 396.742 66.8 398.075 66.8C399.929 66.8 401.569 67.3733 402.995 68.52L402.075 69.74C400.835 68.7267 399.489 68.22 398.035 68.22C397.142 68.22 396.422 68.44 395.875 68.88C395.329 69.3067 395.055 69.84 395.055 70.48V70.52C395.055 71.2133 395.315 71.76 395.835 72.16C396.369 72.56 397.375 72.92 398.855 73.24C400.442 73.5867 401.595 74.0733 402.315 74.7C403.049 75.3133 403.415 76.1467 403.415 77.2V77.24C403.415 78.4267 402.969 79.3867 402.075 80.12C401.182 80.84 400.035 81.2 398.635 81.2ZM410.168 81.22C408.942 81.22 407.975 80.8467 407.268 80.1C406.562 79.34 406.208 78.3333 406.208 77.08V70.66H407.748V76.7C407.748 77.6733 407.995 78.44 408.488 79C408.995 79.5467 409.702 79.82 410.608 79.82C411.502 79.82 412.242 79.52 412.828 78.92C413.415 78.32 413.708 77.54 413.708 76.58V70.66H415.228V81H413.708V79.2C412.868 80.5467 411.688 81.22 410.168 81.22ZM422.113 81.2C421.366 81.2 420.606 81.0667 419.833 80.8C419.073 80.52 418.406 80.1467 417.833 79.68L418.613 78.58C419.786 79.46 420.979 79.9 422.193 79.9C422.819 79.9 423.333 79.7533 423.733 79.46C424.133 79.1533 424.333 78.7533 424.333 78.26V78.22C424.333 77.7533 424.113 77.3933 423.673 77.14C423.246 76.8867 422.606 76.64 421.753 76.4C421.233 76.2533 420.819 76.12 420.513 76C420.206 75.88 419.859 75.7133 419.473 75.5C419.086 75.2733 418.799 74.9933 418.613 74.66C418.426 74.3267 418.333 73.9333 418.333 73.48V73.44C418.333 72.56 418.659 71.8467 419.313 71.3C419.979 70.7533 420.826 70.48 421.853 70.48C423.186 70.48 424.426 70.86 425.573 71.62L424.873 72.78C423.846 72.1133 422.826 71.78 421.813 71.78C421.213 71.78 420.726 71.92 420.353 72.2C419.993 72.48 419.813 72.84 419.813 73.28V73.32C419.813 73.5067 419.866 73.68 419.973 73.84C420.079 74 420.199 74.1333 420.333 74.24C420.466 74.3467 420.673 74.46 420.953 74.58C421.246 74.7 421.479 74.7867 421.653 74.84C421.826 74.8933 422.099 74.98 422.473 75.1C422.859 75.22 423.179 75.3267 423.433 75.42C423.699 75.5133 423.993 75.6467 424.313 75.82C424.646 75.98 424.906 76.16 425.093 76.36C425.293 76.5467 425.459 76.7867 425.593 77.08C425.726 77.3733 425.793 77.7 425.793 78.06V78.1C425.793 79.06 425.446 79.82 424.753 80.38C424.059 80.9267 423.179 81.2 422.113 81.2ZM428.654 84.2V70.66H430.194V72.74C431.234 71.2067 432.554 70.44 434.154 70.44C435.474 70.44 436.627 70.9267 437.614 71.9C438.6 72.8733 439.094 74.1733 439.094 75.8V75.84C439.094 77.4533 438.6 78.7533 437.614 79.74C436.627 80.7267 435.474 81.22 434.154 81.22C432.527 81.22 431.207 80.4867 430.194 79.02V84.2H428.654ZM433.874 79.84C434.914 79.84 435.78 79.48 436.474 78.76C437.167 78.04 437.514 77.0733 437.514 75.86V75.82C437.514 74.6333 437.16 73.6733 436.454 72.94C435.747 72.1933 434.887 71.82 433.874 71.82C432.874 71.82 432 72.2 431.254 72.96C430.507 73.7067 430.134 74.6533 430.134 75.8V75.84C430.134 77 430.507 77.96 431.254 78.72C432 79.4667 432.874 79.84 433.874 79.84ZM442.855 76.46C442.962 77.5133 443.355 78.3533 444.035 78.98C444.728 79.5933 445.548 79.9 446.495 79.9C447.735 79.9 448.822 79.4133 449.755 78.44L450.715 79.3C449.555 80.5933 448.135 81.24 446.455 81.24C445.002 81.24 443.775 80.74 442.775 79.74C441.788 78.7267 441.295 77.4267 441.295 75.84C441.295 74.3333 441.768 73.06 442.715 72.02C443.662 70.9667 444.842 70.44 446.255 70.44C447.735 70.44 448.908 70.96 449.775 72C450.642 73.04 451.075 74.3467 451.075 75.92C451.075 76.12 451.068 76.3 451.055 76.46H442.855ZM442.855 75.22H449.515C449.422 74.22 449.088 73.3933 448.515 72.74C447.955 72.0733 447.188 71.74 446.215 71.74C445.335 71.74 444.582 72.0667 443.955 72.72C443.328 73.3733 442.962 74.2067 442.855 75.22ZM453.771 81V70.66H455.311V72.46C456.124 71.1133 457.304 70.44 458.851 70.44C460.077 70.44 461.044 70.82 461.751 71.58C462.457 72.3267 462.811 73.3267 462.811 74.58V81H461.271V74.96C461.271 73.9867 461.017 73.2267 460.511 72.68C460.017 72.12 459.317 71.84 458.411 71.84C457.517 71.84 456.777 72.14 456.191 72.74C455.604 73.34 455.311 74.12 455.311 75.08V81H453.771ZM470.435 81.22C469.115 81.22 467.962 80.7333 466.975 79.76C465.988 78.7867 465.495 77.4867 465.495 75.86V75.82C465.495 74.2067 465.988 72.9067 466.975 71.92C467.962 70.9333 469.115 70.44 470.435 70.44C472.062 70.44 473.382 71.1733 474.395 72.64V66.4H475.935V81H474.395V78.92C473.355 80.4533 472.035 81.22 470.435 81.22ZM470.715 79.84C471.715 79.84 472.588 79.4667 473.335 78.72C474.082 77.96 474.455 77 474.455 75.84V75.8C474.455 74.6533 474.082 73.7067 473.335 72.96C472.588 72.2 471.715 71.82 470.715 71.82C469.675 71.82 468.808 72.18 468.115 72.9C467.422 73.62 467.075 74.5867 467.075 75.8V75.84C467.075 77.0267 467.428 77.9933 468.135 78.74C468.842 79.4733 469.702 79.84 470.715 79.84ZM479.416 68.4V66.7H481.176V68.4H479.416ZM479.516 81V70.66H481.056V81H479.516ZM488.05 81.2C487.303 81.2 486.543 81.0667 485.77 80.8C485.01 80.52 484.343 80.1467 483.77 79.68L484.55 78.58C485.723 79.46 486.917 79.9 488.13 79.9C488.757 79.9 489.27 79.7533 489.67 79.46C490.07 79.1533 490.27 78.7533 490.27 78.26V78.22C490.27 77.7533 490.05 77.3933 489.61 77.14C489.183 76.8867 488.543 76.64 487.69 76.4C487.17 76.2533 486.757 76.12 486.45 76C486.143 75.88 485.797 75.7133 485.41 75.5C485.023 75.2733 484.737 74.9933 484.55 74.66C484.363 74.3267 484.27 73.9333 484.27 73.48V73.44C484.27 72.56 484.597 71.8467 485.25 71.3C485.917 70.7533 486.763 70.48 487.79 70.48C489.123 70.48 490.363 70.86 491.51 71.62L490.81 72.78C489.783 72.1133 488.763 71.78 487.75 71.78C487.15 71.78 486.663 71.92 486.29 72.2C485.93 72.48 485.75 72.84 485.75 73.28V73.32C485.75 73.5067 485.803 73.68 485.91 73.84C486.017 74 486.137 74.1333 486.27 74.24C486.403 74.3467 486.61 74.46 486.89 74.58C487.183 74.7 487.417 74.7867 487.59 74.84C487.763 74.8933 488.037 74.98 488.41 75.1C488.797 75.22 489.117 75.3267 489.37 75.42C489.637 75.5133 489.93 75.6467 490.25 75.82C490.583 75.98 490.843 76.16 491.03 76.36C491.23 76.5467 491.397 76.7867 491.53 77.08C491.663 77.3733 491.73 77.7 491.73 78.06V78.1C491.73 79.06 491.383 79.82 490.69 80.38C489.997 80.9267 489.117 81.2 488.05 81.2ZM497.816 81.2C497.069 81.2 496.309 81.0667 495.536 80.8C494.776 80.52 494.109 80.1467 493.536 79.68L494.316 78.58C495.489 79.46 496.682 79.9 497.896 79.9C498.522 79.9 499.036 79.7533 499.436 79.46C499.836 79.1533 500.036 78.7533 500.036 78.26V78.22C500.036 77.7533 499.816 77.3933 499.376 77.14C498.949 76.8867 498.309 76.64 497.456 76.4C496.936 76.2533 496.522 76.12 496.216 76C495.909 75.88 495.562 75.7133 495.176 75.5C494.789 75.2733 494.502 74.9933 494.316 74.66C494.129 74.3267 494.036 73.9333 494.036 73.48V73.44C494.036 72.56 494.362 71.8467 495.016 71.3C495.682 70.7533 496.529 70.48 497.556 70.48C498.889 70.48 500.129 70.86 501.276 71.62L500.576 72.78C499.549 72.1133 498.529 71.78 497.516 71.78C496.916 71.78 496.429 71.92 496.056 72.2C495.696 72.48 495.516 72.84 495.516 73.28V73.32C495.516 73.5067 495.569 73.68 495.676 73.84C495.782 74 495.902 74.1333 496.036 74.24C496.169 74.3467 496.376 74.46 496.656 74.58C496.949 74.7 497.182 74.7867 497.356 74.84C497.529 74.8933 497.802 74.98 498.176 75.1C498.562 75.22 498.882 75.3267 499.136 75.42C499.402 75.5133 499.696 75.6467 500.016 75.82C500.349 75.98 500.609 76.16 500.796 76.36C500.996 76.5467 501.162 76.7867 501.296 77.08C501.429 77.3733 501.496 77.7 501.496 78.06V78.1C501.496 79.06 501.149 79.82 500.456 80.38C499.762 80.9267 498.882 81.2 497.816 81.2ZM505.277 76.46C505.383 77.5133 505.777 78.3533 506.457 78.98C507.15 79.5933 507.97 79.9 508.917 79.9C510.157 79.9 511.243 79.4133 512.177 78.44L513.137 79.3C511.977 80.5933 510.557 81.24 508.877 81.24C507.423 81.24 506.197 80.74 505.197 79.74C504.21 78.7267 503.717 77.4267 503.717 75.84C503.717 74.3333 504.19 73.06 505.137 72.02C506.083 70.9667 507.263 70.44 508.677 70.44C510.157 70.44 511.33 70.96 512.197 72C513.063 73.04 513.497 74.3467 513.497 75.92C513.497 76.12 513.49 76.3 513.477 76.46H505.277ZM505.277 75.22H511.937C511.843 74.22 511.51 73.3933 510.937 72.74C510.377 72.0733 509.61 71.74 508.637 71.74C507.757 71.74 507.003 72.0667 506.377 72.72C505.75 73.3733 505.383 74.2067 505.277 75.22ZM525.609 81.2C524.862 81.2 524.102 81.0667 523.329 80.8C522.569 80.52 521.902 80.1467 521.329 79.68L522.109 78.58C523.282 79.46 524.475 79.9 525.689 79.9C526.315 79.9 526.829 79.7533 527.229 79.46C527.629 79.1533 527.829 78.7533 527.829 78.26V78.22C527.829 77.7533 527.609 77.3933 527.169 77.14C526.742 76.8867 526.102 76.64 525.249 76.4C524.729 76.2533 524.315 76.12 524.009 76C523.702 75.88 523.355 75.7133 522.969 75.5C522.582 75.2733 522.295 74.9933 522.109 74.66C521.922 74.3267 521.829 73.9333 521.829 73.48V73.44C521.829 72.56 522.155 71.8467 522.809 71.3C523.475 70.7533 524.322 70.48 525.349 70.48C526.682 70.48 527.922 70.86 529.069 71.62L528.369 72.78C527.342 72.1133 526.322 71.78 525.309 71.78C524.709 71.78 524.222 71.92 523.849 72.2C523.489 72.48 523.309 72.84 523.309 73.28V73.32C523.309 73.5067 523.362 73.68 523.469 73.84C523.575 74 523.695 74.1333 523.829 74.24C523.962 74.3467 524.169 74.46 524.449 74.58C524.742 74.7 524.975 74.7867 525.149 74.84C525.322 74.8933 525.595 74.98 525.969 75.1C526.355 75.22 526.675 75.3267 526.929 75.42C527.195 75.5133 527.489 75.6467 527.809 75.82C528.142 75.98 528.402 76.16 528.589 76.36C528.789 76.5467 528.955 76.7867 529.089 77.08C529.222 77.3733 529.289 77.7 529.289 78.06V78.1C529.289 79.06 528.942 79.82 528.249 80.38C527.555 80.9267 526.675 81.2 525.609 81.2ZM533.07 76.46C533.176 77.5133 533.57 78.3533 534.25 78.98C534.943 79.5933 535.763 79.9 536.71 79.9C537.95 79.9 539.036 79.4133 539.97 78.44L540.93 79.3C539.77 80.5933 538.35 81.24 536.67 81.24C535.216 81.24 533.99 80.74 532.99 79.74C532.003 78.7267 531.51 77.4267 531.51 75.84C531.51 74.3333 531.983 73.06 532.93 72.02C533.876 70.9667 535.056 70.44 536.47 70.44C537.95 70.44 539.123 70.96 539.99 72C540.856 73.04 541.29 74.3467 541.29 75.92C541.29 76.12 541.283 76.3 541.27 76.46H533.07ZM533.07 75.22H539.73C539.636 74.22 539.303 73.3933 538.73 72.74C538.17 72.0733 537.403 71.74 536.43 71.74C535.55 71.74 534.796 72.0667 534.17 72.72C533.543 73.3733 533.176 74.2067 533.07 75.22ZM543.986 81V70.66H545.526V72.4C546.392 71.0933 547.506 70.44 548.866 70.44C550.412 70.44 551.519 71.1267 552.186 72.5C553.079 71.1267 554.292 70.44 555.826 70.44C557.012 70.44 557.946 70.8133 558.626 71.56C559.319 72.3067 559.666 73.32 559.666 74.6V81H558.126V74.96C558.126 73.96 557.886 73.1933 557.406 72.66C556.939 72.1133 556.286 71.84 555.446 71.84C554.632 71.84 553.952 72.1267 553.406 72.7C552.859 73.2733 552.586 74.0533 552.586 75.04V81H551.066V74.92C551.066 73.96 550.826 73.2067 550.346 72.66C549.879 72.1133 549.232 71.84 548.406 71.84C547.579 71.84 546.892 72.1467 546.346 72.76C545.799 73.3733 545.526 74.1533 545.526 75.1V81H543.986ZM563.009 84.2V70.66H564.549V72.74C565.589 71.2067 566.909 70.44 568.509 70.44C569.829 70.44 570.982 70.9267 571.969 71.9C572.956 72.8733 573.449 74.1733 573.449 75.8V75.84C573.449 77.4533 572.956 78.7533 571.969 79.74C570.982 80.7267 569.829 81.22 568.509 81.22C566.882 81.22 565.562 80.4867 564.549 79.02V84.2H563.009ZM568.229 79.84C569.269 79.84 570.136 79.48 570.829 78.76C571.522 78.04 571.869 77.0733 571.869 75.86V75.82C571.869 74.6333 571.516 73.6733 570.809 72.94C570.102 72.1933 569.242 71.82 568.229 71.82C567.229 71.82 566.356 72.2 565.609 72.96C564.862 73.7067 564.489 74.6533 564.489 75.8V75.84C564.489 77 564.862 77.96 565.609 78.72C566.356 79.4667 567.229 79.84 568.229 79.84ZM577.21 76.46C577.317 77.5133 577.71 78.3533 578.39 78.98C579.084 79.5933 579.904 79.9 580.85 79.9C582.09 79.9 583.177 79.4133 584.11 78.44L585.07 79.3C583.91 80.5933 582.49 81.24 580.81 81.24C579.357 81.24 578.13 80.74 577.13 79.74C576.144 78.7267 575.65 77.4267 575.65 75.84C575.65 74.3333 576.124 73.06 577.07 72.02C578.017 70.9667 579.197 70.44 580.61 70.44C582.09 70.44 583.264 70.96 584.13 72C584.997 73.04 585.43 74.3467 585.43 75.92C585.43 76.12 585.424 76.3 585.41 76.46H577.21ZM577.21 75.22H583.87C583.777 74.22 583.444 73.3933 582.87 72.74C582.31 72.0733 581.544 71.74 580.57 71.74C579.69 71.74 578.937 72.0667 578.31 72.72C577.684 73.3733 577.317 74.2067 577.21 75.22ZM588.126 81V70.66H589.666V73.36C590.066 72.4667 590.633 71.7533 591.366 71.22C592.1 70.6867 592.94 70.44 593.886 70.48V72.14H593.766C592.58 72.14 591.6 72.5533 590.826 73.38C590.053 74.2067 589.666 75.3733 589.666 76.88V81H588.126ZM602.228 81V70.66H603.768V72.4C604.634 71.0933 605.748 70.44 607.108 70.44C608.654 70.44 609.761 71.1267 610.428 72.5C611.321 71.1267 612.534 70.44 614.068 70.44C615.254 70.44 616.188 70.8133 616.868 71.56C617.561 72.3067 617.908 73.32 617.908 74.6V81H616.368V74.96C616.368 73.96 616.128 73.1933 615.648 72.66C615.181 72.1133 614.528 71.84 613.688 71.84C612.874 71.84 612.194 72.1267 611.648 72.7C611.101 73.2733 610.828 74.0533 610.828 75.04V81H609.308V74.92C609.308 73.96 609.068 73.2067 608.588 72.66C608.121 72.1133 607.474 71.84 606.648 71.84C605.821 71.84 605.134 72.1467 604.588 72.76C604.041 73.3733 603.768 74.1533 603.768 75.1V81H602.228ZM629.831 79.66C628.791 80.7133 627.505 81.24 625.971 81.24C624.438 81.24 623.158 80.72 622.131 79.68C621.118 78.6267 620.611 77.36 620.611 75.88V75.84C620.611 74.36 621.125 73.0933 622.151 72.04C623.191 70.9733 624.478 70.44 626.011 70.44C627.545 70.44 628.825 70.9667 629.851 72.02C630.878 73.06 631.391 74.32 631.391 75.8V75.84C631.391 77.32 630.871 78.5933 629.831 79.66ZM626.011 79.86C627.118 79.86 628.025 79.4733 628.731 78.7C629.451 77.9267 629.811 76.9867 629.811 75.88V75.84C629.811 74.72 629.438 73.7667 628.691 72.98C627.958 72.1933 627.051 71.8 625.971 71.8C624.878 71.8 623.971 72.1933 623.251 72.98C622.545 73.7533 622.191 74.6933 622.191 75.8V75.84C622.191 76.96 622.558 77.9133 623.291 78.7C624.025 79.4733 624.931 79.86 626.011 79.86ZM634.321 81V66.4H635.861V81H634.321ZM640.355 76.46C640.462 77.5133 640.855 78.3533 641.535 78.98C642.228 79.5933 643.048 79.9 643.995 79.9C645.235 79.9 646.322 79.4133 647.255 78.44L648.215 79.3C647.055 80.5933 645.635 81.24 643.955 81.24C642.502 81.24 641.275 80.74 640.275 79.74C639.288 78.7267 638.795 77.4267 638.795 75.84C638.795 74.3333 639.268 73.06 640.215 72.02C641.162 70.9667 642.342 70.44 643.755 70.44C645.235 70.44 646.408 70.96 647.275 72C648.142 73.04 648.575 74.3467 648.575 75.92C648.575 76.12 648.568 76.3 648.555 76.46H640.355ZM640.355 75.22H647.015C646.922 74.22 646.588 73.3933 646.015 72.74C645.455 72.0733 644.688 71.74 643.715 71.74C642.835 71.74 642.082 72.0667 641.455 72.72C640.828 73.3733 640.462 74.2067 640.355 75.22ZM654.691 81.2C653.944 81.2 653.184 81.0667 652.411 80.8C651.651 80.52 650.984 80.1467 650.411 79.68L651.191 78.58C652.364 79.46 653.557 79.9 654.771 79.9C655.397 79.9 655.911 79.7533 656.311 79.46C656.711 79.1533 656.911 78.7533 656.911 78.26V78.22C656.911 77.7533 656.691 77.3933 656.251 77.14C655.824 76.8867 655.184 76.64 654.331 76.4C653.811 76.2533 653.397 76.12 653.091 76C652.784 75.88 652.437 75.7133 652.051 75.5C651.664 75.2733 651.377 74.9933 651.191 74.66C651.004 74.3267 650.911 73.9333 650.911 73.48V73.44C650.911 72.56 651.237 71.8467 651.891 71.3C652.557 70.7533 653.404 70.48 654.431 70.48C655.764 70.48 657.004 70.86 658.151 71.62L657.451 72.78C656.424 72.1133 655.404 71.78 654.391 71.78C653.791 71.78 653.304 71.92 652.931 72.2C652.571 72.48 652.391 72.84 652.391 73.28V73.32C652.391 73.5067 652.444 73.68 652.551 73.84C652.657 74 652.777 74.1333 652.911 74.24C653.044 74.3467 653.251 74.46 653.531 74.58C653.824 74.7 654.057 74.7867 654.231 74.84C654.404 74.8933 654.677 74.98 655.051 75.1C655.437 75.22 655.757 75.3267 656.011 75.42C656.277 75.5133 656.571 75.6467 656.891 75.82C657.224 75.98 657.484 76.16 657.671 76.36C657.871 76.5467 658.037 76.7867 658.171 77.08C658.304 77.3733 658.371 77.7 658.371 78.06V78.1C658.371 79.06 658.024 79.82 657.331 80.38C656.637 80.9267 655.757 81.2 654.691 81.2ZM664.496 81.18C663.603 81.18 662.89 80.9467 662.356 80.48C661.836 80 661.576 79.26 661.576 78.26V72.02H660.136V70.66H661.576V67.54H663.116V70.66H666.396V72.02H663.116V78.06C663.116 79.2067 663.696 79.78 664.856 79.78C665.363 79.78 665.863 79.66 666.356 79.42V80.74C665.796 81.0333 665.176 81.18 664.496 81.18ZM669.162 68.4V66.7H670.922V68.4H669.162ZM669.262 81V70.66H670.802V81H669.262ZM675.296 76.46C675.403 77.5133 675.796 78.3533 676.476 78.98C677.17 79.5933 677.99 79.9 678.936 79.9C680.176 79.9 681.263 79.4133 682.196 78.44L683.156 79.3C681.996 80.5933 680.576 81.24 678.896 81.24C677.443 81.24 676.216 80.74 675.216 79.74C674.23 78.7267 673.736 77.4267 673.736 75.84C673.736 74.3333 674.21 73.06 675.156 72.02C676.103 70.9667 677.283 70.44 678.696 70.44C680.176 70.44 681.35 70.96 682.216 72C683.083 73.04 683.516 74.3467 683.516 75.92C683.516 76.12 683.51 76.3 683.496 76.46H675.296ZM675.296 75.22H681.956C681.863 74.22 681.53 73.3933 680.956 72.74C680.396 72.0733 679.63 71.74 678.656 71.74C677.776 71.74 677.023 72.0667 676.396 72.72C675.77 73.3733 675.403 74.2067 675.296 75.22ZM696.008 81.22C694.782 81.22 693.815 80.8467 693.108 80.1C692.402 79.34 692.048 78.3333 692.048 77.08V70.66H693.588V76.7C693.588 77.6733 693.835 78.44 694.328 79C694.835 79.5467 695.542 79.82 696.448 79.82C697.342 79.82 698.082 79.52 698.668 78.92C699.255 78.32 699.548 77.54 699.548 76.58V70.66H701.068V81H699.548V79.2C698.708 80.5467 697.528 81.22 696.008 81.22ZM704.673 81V66.4H706.213V81H704.673ZM713.246 81.18C712.353 81.18 711.64 80.9467 711.106 80.48C710.586 80 710.326 79.26 710.326 78.26V72.02H708.886V70.66H710.326V67.54H711.866V70.66H715.146V72.02H711.866V78.06C711.866 79.2067 712.446 79.78 713.606 79.78C714.113 79.78 714.613 79.66 715.106 79.42V80.74C714.546 81.0333 713.926 81.18 713.246 81.18ZM717.872 81V70.66H719.412V73.36C719.812 72.4667 720.379 71.7533 721.112 71.22C721.846 70.6867 722.686 70.44 723.632 70.48V72.14H723.512C722.326 72.14 721.346 72.5533 720.572 73.38C719.799 74.2067 719.412 75.3733 719.412 76.88V81H717.872ZM726.018 68.4V66.7H727.778V68.4H726.018ZM726.118 81V70.66H727.658V81H726.118ZM735.892 81.24C734.398 81.24 733.138 80.7133 732.112 79.66C731.098 78.6067 730.592 77.3467 730.592 75.88V75.84C730.592 74.36 731.098 73.0933 732.112 72.04C733.138 70.9733 734.398 70.44 735.892 70.44C737.492 70.44 738.872 71.0533 740.032 72.28L739.012 73.36C738.025 72.32 736.978 71.8 735.872 71.8C734.832 71.8 733.952 72.1867 733.232 72.96C732.525 73.7333 732.172 74.68 732.172 75.8V75.84C732.172 76.96 732.532 77.9133 733.252 78.7C733.985 79.4733 734.892 79.86 735.972 79.86C737.118 79.86 738.172 79.3467 739.132 78.32L740.112 79.24C738.912 80.5733 737.505 81.24 735.892 81.24ZM742.698 68.4V66.7H744.458V68.4H742.698ZM742.798 81V70.66H744.338V81H742.798ZM748.831 76.46C748.938 77.5133 749.331 78.3533 750.011 78.98C750.705 79.5933 751.525 79.9 752.471 79.9C753.711 79.9 754.798 79.4133 755.731 78.44L756.691 79.3C755.531 80.5933 754.111 81.24 752.431 81.24C750.978 81.24 749.751 80.74 748.751 79.74C747.765 78.7267 747.271 77.4267 747.271 75.84C747.271 74.3333 747.745 73.06 748.691 72.02C749.638 70.9667 750.818 70.44 752.231 70.44C753.711 70.44 754.885 70.96 755.751 72C756.618 73.04 757.051 74.3467 757.051 75.92C757.051 76.12 757.045 76.3 757.031 76.46H748.831ZM748.831 75.22H755.491C755.398 74.22 755.065 73.3933 754.491 72.74C753.931 72.0733 753.165 71.74 752.191 71.74C751.311 71.74 750.558 72.0667 749.931 72.72C749.305 73.3733 748.938 74.2067 748.831 75.22ZM763.167 81.2C762.421 81.2 761.661 81.0667 760.887 80.8C760.127 80.52 759.461 80.1467 758.887 79.68L759.667 78.58C760.841 79.46 762.034 79.9 763.247 79.9C763.874 79.9 764.387 79.7533 764.787 79.46C765.187 79.1533 765.387 78.7533 765.387 78.26V78.22C765.387 77.7533 765.167 77.3933 764.727 77.14C764.301 76.8867 763.661 76.64 762.807 76.4C762.287 76.2533 761.874 76.12 761.567 76C761.261 75.88 760.914 75.7133 760.527 75.5C760.141 75.2733 759.854 74.9933 759.667 74.66C759.481 74.3267 759.387 73.9333 759.387 73.48V73.44C759.387 72.56 759.714 71.8467 760.367 71.3C761.034 70.7533 761.881 70.48 762.907 70.48C764.241 70.48 765.481 70.86 766.627 71.62L765.927 72.78C764.901 72.1133 763.881 71.78 762.867 71.78C762.267 71.78 761.781 71.92 761.407 72.2C761.047 72.48 760.867 72.84 760.867 73.28V73.32C760.867 73.5067 760.921 73.68 761.027 73.84C761.134 74 761.254 74.1333 761.387 74.24C761.521 74.3467 761.727 74.46 762.007 74.58C762.301 74.7 762.534 74.7867 762.707 74.84C762.881 74.8933 763.154 74.98 763.527 75.1C763.914 75.22 764.234 75.3267 764.487 75.42C764.754 75.5133 765.047 75.6467 765.367 75.82C765.701 75.98 765.961 76.16 766.147 76.36C766.347 76.5467 766.514 76.7867 766.647 77.08C766.781 77.3733 766.847 77.7 766.847 78.06V78.1C766.847 79.06 766.501 79.82 765.807 80.38C765.114 80.9267 764.234 81.2 763.167 81.2ZM769.528 81V78.9H771.368V81H769.528ZM780.867 81V67H786.107C787.693 67 788.96 67.4 789.907 68.2C790.867 68.9867 791.347 70.0667 791.347 71.44V71.48C791.347 72.9333 790.82 74.06 789.767 74.86C788.727 75.66 787.42 76.06 785.847 76.06H782.447V81H780.867ZM782.447 74.62H785.907C787.067 74.62 787.993 74.34 788.687 73.78C789.393 73.2067 789.747 72.46 789.747 71.54V71.5C789.747 70.5267 789.407 69.78 788.727 69.26C788.06 68.7267 787.147 68.46 785.987 68.46H782.447V74.62ZM793.966 81V66.4H795.506V72.46C796.319 71.1133 797.499 70.44 799.046 70.44C800.273 70.44 801.239 70.82 801.946 71.58C802.653 72.3267 803.006 73.3267 803.006 74.58V81H801.466V74.96C801.466 73.9867 801.213 73.2267 800.706 72.68C800.213 72.12 799.513 71.84 798.606 71.84C797.713 71.84 796.973 72.14 796.386 72.74C795.799 73.34 795.506 74.12 795.506 75.08V81H793.966ZM809.37 81.22C808.33 81.22 807.424 80.9333 806.65 80.36C805.89 79.7867 805.51 79 805.51 78V77.96C805.51 76.88 805.91 76.0467 806.71 75.46C807.51 74.8733 808.584 74.58 809.93 74.58C810.997 74.58 812.05 74.7267 813.09 75.02V74.7C813.09 73.7933 812.824 73.1 812.29 72.62C811.757 72.14 811.004 71.9 810.03 71.9C809.017 71.9 807.97 72.1467 806.89 72.64L806.43 71.38C807.71 70.7933 808.964 70.5 810.19 70.5C811.657 70.5 812.77 70.88 813.53 71.64C814.25 72.36 814.61 73.3733 814.61 74.68V81H813.09V79.46C812.17 80.6333 810.93 81.22 809.37 81.22ZM809.67 79.98C810.63 79.98 811.444 79.72 812.11 79.2C812.777 78.68 813.11 78.0133 813.11 77.2V76.24C812.097 75.9467 811.09 75.8 810.09 75.8C809.144 75.8 808.404 75.9933 807.87 76.38C807.337 76.7533 807.07 77.2533 807.07 77.88V77.92C807.07 78.5467 807.317 79.0467 807.81 79.42C808.317 79.7933 808.937 79.98 809.67 79.98ZM821.292 81.2C820.546 81.2 819.786 81.0667 819.012 80.8C818.252 80.52 817.586 80.1467 817.012 79.68L817.792 78.58C818.966 79.46 820.159 79.9 821.372 79.9C821.999 79.9 822.512 79.7533 822.912 79.46C823.312 79.1533 823.512 78.7533 823.512 78.26V78.22C823.512 77.7533 823.292 77.3933 822.852 77.14C822.426 76.8867 821.786 76.64 820.932 76.4C820.412 76.2533 819.999 76.12 819.692 76C819.386 75.88 819.039 75.7133 818.652 75.5C818.266 75.2733 817.979 74.9933 817.792 74.66C817.606 74.3267 817.512 73.9333 817.512 73.48V73.44C817.512 72.56 817.839 71.8467 818.492 71.3C819.159 70.7533 820.006 70.48 821.032 70.48C822.366 70.48 823.606 70.86 824.752 71.62L824.052 72.78C823.026 72.1133 822.006 71.78 820.992 71.78C820.392 71.78 819.906 71.92 819.532 72.2C819.172 72.48 818.992 72.84 818.992 73.28V73.32C818.992 73.5067 819.046 73.68 819.152 73.84C819.259 74 819.379 74.1333 819.512 74.24C819.646 74.3467 819.852 74.46 820.132 74.58C820.426 74.7 820.659 74.7867 820.832 74.84C821.006 74.8933 821.279 74.98 821.652 75.1C822.039 75.22 822.359 75.3267 822.612 75.42C822.879 75.5133 823.172 75.6467 823.492 75.82C823.826 75.98 824.086 76.16 824.272 76.36C824.472 76.5467 824.639 76.7867 824.772 77.08C824.906 77.3733 824.972 77.7 824.972 78.06V78.1C824.972 79.06 824.626 79.82 823.932 80.38C823.239 80.9267 822.359 81.2 821.292 81.2ZM828.753 76.46C828.86 77.5133 829.253 78.3533 829.933 78.98C830.627 79.5933 831.447 79.9 832.393 79.9C833.633 79.9 834.72 79.4133 835.653 78.44L836.613 79.3C835.453 80.5933 834.033 81.24 832.353 81.24C830.9 81.24 829.673 80.74 828.673 79.74C827.687 78.7267 827.193 77.4267 827.193 75.84C827.193 74.3333 827.667 73.06 828.613 72.02C829.56 70.9667 830.74 70.44 832.153 70.44C833.633 70.44 834.807 70.96 835.673 72C836.54 73.04 836.973 74.3467 836.973 75.92C836.973 76.12 836.967 76.3 836.953 76.46H828.753ZM828.753 75.22H835.413C835.32 74.22 834.987 73.3933 834.413 72.74C833.853 72.0733 833.087 71.74 832.113 71.74C831.233 71.74 830.48 72.0667 829.853 72.72C829.227 73.3733 828.86 74.2067 828.753 75.22ZM839.809 81V66.4H841.349V81H839.809ZM845.063 81V66.4H846.603V81H845.063ZM853.977 81.22C852.75 81.22 851.784 80.8467 851.077 80.1C850.37 79.34 850.017 78.3333 850.017 77.08V70.66H851.557V76.7C851.557 77.6733 851.804 78.44 852.297 79C852.804 79.5467 853.51 79.82 854.417 79.82C855.31 79.82 856.05 79.52 856.637 78.92C857.224 78.32 857.517 77.54 857.517 76.58V70.66H859.037V81H857.517V79.2C856.677 80.5467 855.497 81.22 853.977 81.22ZM865.921 81.2C865.175 81.2 864.415 81.0667 863.641 80.8C862.881 80.52 862.215 80.1467 861.641 79.68L862.421 78.58C863.595 79.46 864.788 79.9 866.001 79.9C866.628 79.9 867.141 79.7533 867.541 79.46C867.941 79.1533 868.141 78.7533 868.141 78.26V78.22C868.141 77.7533 867.921 77.3933 867.481 77.14C867.055 76.8867 866.415 76.64 865.561 76.4C865.041 76.2533 864.628 76.12 864.321 76C864.015 75.88 863.668 75.7133 863.281 75.5C862.895 75.2733 862.608 74.9933 862.421 74.66C862.235 74.3267 862.141 73.9333 862.141 73.48V73.44C862.141 72.56 862.468 71.8467 863.121 71.3C863.788 70.7533 864.635 70.48 865.661 70.48C866.995 70.48 868.235 70.86 869.381 71.62L868.681 72.78C867.655 72.1133 866.635 71.78 865.621 71.78C865.021 71.78 864.535 71.92 864.161 72.2C863.801 72.48 863.621 72.84 863.621 73.28V73.32C863.621 73.5067 863.675 73.68 863.781 73.84C863.888 74 864.008 74.1333 864.141 74.24C864.275 74.3467 864.481 74.46 864.761 74.58C865.055 74.7 865.288 74.7867 865.461 74.84C865.635 74.8933 865.908 74.98 866.281 75.1C866.668 75.22 866.988 75.3267 867.241 75.42C867.508 75.5133 867.801 75.6467 868.121 75.82C868.455 75.98 868.715 76.16 868.901 76.36C869.101 76.5467 869.268 76.7867 869.401 77.08C869.535 77.3733 869.601 77.7 869.601 78.06V78.1C869.601 79.06 869.255 79.82 868.561 80.38C867.868 80.9267 866.988 81.2 865.921 81.2ZM2.3 111V102.02H0.88V100.68H2.3V99.78C2.3 98.6067 2.6 97.72 3.2 97.12C3.73333 96.5867 4.47333 96.32 5.42 96.32C6.07333 96.32 6.64 96.4067 7.12 96.58V97.92C6.50667 97.7467 6.00667 97.66 5.62 97.66C4.42 97.66 3.82 98.3933 3.82 99.86V100.7H7.1V102.02H3.84V111H2.3ZM11.8508 111.22C10.8108 111.22 9.90411 110.933 9.13078 110.36C8.37078 109.787 7.99078 109 7.99078 108V107.96C7.99078 106.88 8.39078 106.047 9.19078 105.46C9.99078 104.873 11.0641 104.58 12.4108 104.58C13.4774 104.58 14.5308 104.727 15.5708 105.02V104.7C15.5708 103.793 15.3041 103.1 14.7708 102.62C14.2374 102.14 13.4841 101.9 12.5108 101.9C11.4974 101.9 10.4508 102.147 9.37078 102.64L8.91078 101.38C10.1908 100.793 11.4441 100.5 12.6708 100.5C14.1374 100.5 15.2508 100.88 16.0108 101.64C16.7308 102.36 17.0908 103.373 17.0908 104.68V111H15.5708V109.46C14.6508 110.633 13.4108 111.22 11.8508 111.22ZM12.1508 109.98C13.1108 109.98 13.9241 109.72 14.5908 109.2C15.2574 108.68 15.5908 108.013 15.5908 107.2V106.24C14.5774 105.947 13.5708 105.8 12.5708 105.8C11.6241 105.8 10.8841 105.993 10.3508 106.38C9.81745 106.753 9.55078 107.253 9.55078 107.88V107.92C9.55078 108.547 9.79745 109.047 10.2908 109.42C10.7974 109.793 11.4174 109.98 12.1508 109.98ZM24.1528 111.22C22.9261 111.22 21.9595 110.847 21.2528 110.1C20.5461 109.34 20.1928 108.333 20.1928 107.08V100.66H21.7328V106.7C21.7328 107.673 21.9795 108.44 22.4728 109C22.9795 109.547 23.6861 109.82 24.5928 109.82C25.4861 109.82 26.2261 109.52 26.8128 108.92C27.3995 108.32 27.6928 107.54 27.6928 106.58V100.66H29.2128V111H27.6928V109.2C26.8528 110.547 25.6728 111.22 24.1528 111.22ZM37.337 111.24C35.8437 111.24 34.5837 110.713 33.557 109.66C32.5437 108.607 32.037 107.347 32.037 105.88V105.84C32.037 104.36 32.5437 103.093 33.557 102.04C34.5837 100.973 35.8437 100.44 37.337 100.44C38.937 100.44 40.317 101.053 41.477 102.28L40.457 103.36C39.4704 102.32 38.4237 101.8 37.317 101.8C36.277 101.8 35.397 102.187 34.677 102.96C33.9704 103.733 33.617 104.68 33.617 105.8V105.84C33.617 106.96 33.977 107.913 34.697 108.7C35.4304 109.473 36.337 109.86 37.417 109.86C38.5637 109.86 39.617 109.347 40.577 108.32L41.557 109.24C40.357 110.573 38.9504 111.24 37.337 111.24ZM44.1428 98.4V96.7H45.9028V98.4H44.1428ZM44.2428 111V100.66H45.7828V111H44.2428ZM54.8567 111.22C53.2301 111.22 51.9101 110.487 50.8967 109.02V111H49.3567V96.4H50.8967V102.74C51.9367 101.207 53.2567 100.44 54.8567 100.44C56.1767 100.44 57.3301 100.927 58.3167 101.9C59.3034 102.873 59.7967 104.173 59.7967 105.8V105.84C59.7967 107.453 59.3034 108.753 58.3167 109.74C57.3301 110.727 56.1767 111.22 54.8567 111.22ZM54.5767 109.84C55.6167 109.84 56.4834 109.48 57.1767 108.76C57.8701 108.04 58.2167 107.073 58.2167 105.86V105.82C58.2167 104.633 57.8634 103.673 57.1567 102.94C56.4501 102.193 55.5901 101.82 54.5767 101.82C53.5767 101.82 52.7034 102.2 51.9567 102.96C51.2101 103.707 50.8367 104.653 50.8367 105.8V105.84C50.8367 107 51.2101 107.96 51.9567 108.72C52.7034 109.467 53.5767 109.84 54.5767 109.84ZM66.438 111.22C65.2113 111.22 64.2446 110.847 63.538 110.1C62.8313 109.34 62.478 108.333 62.478 107.08V100.66H64.018V106.7C64.018 107.673 64.2646 108.44 64.758 109C65.2646 109.547 65.9713 109.82 66.878 109.82C67.7713 109.82 68.5113 109.52 69.098 108.92C69.6846 108.32 69.978 107.54 69.978 106.58V100.66H71.498V111H69.978V109.2C69.138 110.547 67.958 111.22 66.438 111.22ZM78.3822 111.2C77.6355 111.2 76.8755 111.067 76.1022 110.8C75.3422 110.52 74.6755 110.147 74.1022 109.68L74.8822 108.58C76.0555 109.46 77.2489 109.9 78.4622 109.9C79.0889 109.9 79.6022 109.753 80.0022 109.46C80.4022 109.153 80.6022 108.753 80.6022 108.26V108.22C80.6022 107.753 80.3822 107.393 79.9422 107.14C79.5155 106.887 78.8755 106.64 78.0222 106.4C77.5022 106.253 77.0889 106.12 76.7822 106C76.4755 105.88 76.1289 105.713 75.7422 105.5C75.3555 105.273 75.0689 104.993 74.8822 104.66C74.6955 104.327 74.6022 103.933 74.6022 103.48V103.44C74.6022 102.56 74.9289 101.847 75.5822 101.3C76.2489 100.753 77.0955 100.48 78.1222 100.48C79.4555 100.48 80.6955 100.86 81.8422 101.62L81.1422 102.78C80.1155 102.113 79.0955 101.78 78.0822 101.78C77.4822 101.78 76.9955 101.92 76.6222 102.2C76.2622 102.48 76.0822 102.84 76.0822 103.28V103.32C76.0822 103.507 76.1355 103.68 76.2422 103.84C76.3489 104 76.4689 104.133 76.6022 104.24C76.7355 104.347 76.9422 104.46 77.2222 104.58C77.5155 104.7 77.7489 104.787 77.9222 104.84C78.0955 104.893 78.3689 104.98 78.7422 105.1C79.1289 105.22 79.4489 105.327 79.7022 105.42C79.9689 105.513 80.2622 105.647 80.5822 105.82C80.9155 105.98 81.1755 106.16 81.3622 106.36C81.5622 106.547 81.7289 106.787 81.8622 107.08C81.9955 107.373 82.0622 107.7 82.0622 108.06V108.1C82.0622 109.06 81.7155 109.82 81.0222 110.38C80.3289 110.927 79.4489 111.2 78.3822 111.2ZM90.9592 98.4V96.7H92.7192V98.4H90.9592ZM91.0592 111V100.66H92.5992V111H91.0592ZM100.513 111.22C99.1931 111.22 98.0398 110.733 97.0531 109.76C96.0665 108.787 95.5731 107.487 95.5731 105.86V105.82C95.5731 104.207 96.0665 102.907 97.0531 101.92C98.0398 100.933 99.1931 100.44 100.513 100.44C102.14 100.44 103.46 101.173 104.473 102.64V96.4H106.013V111H104.473V108.92C103.433 110.453 102.113 111.22 100.513 111.22ZM100.793 109.84C101.793 109.84 102.666 109.467 103.413 108.72C104.16 107.96 104.533 107 104.533 105.84V105.8C104.533 104.653 104.16 103.707 103.413 102.96C102.666 102.2 101.793 101.82 100.793 101.82C99.7531 101.82 98.8865 102.18 98.1931 102.9C97.4998 103.62 97.1531 104.587 97.1531 105.8V105.84C97.1531 107.027 97.5065 107.993 98.2131 108.74C98.9198 109.473 99.7798 109.84 100.793 109.84ZM116.37 106.46C116.477 107.513 116.87 108.353 117.55 108.98C118.244 109.593 119.064 109.9 120.01 109.9C121.25 109.9 122.337 109.413 123.27 108.44L124.23 109.3C123.07 110.593 121.65 111.24 119.97 111.24C118.517 111.24 117.29 110.74 116.29 109.74C115.304 108.727 114.81 107.427 114.81 105.84C114.81 104.333 115.284 103.06 116.23 102.02C117.177 100.967 118.357 100.44 119.77 100.44C121.25 100.44 122.424 100.96 123.29 102C124.157 103.04 124.59 104.347 124.59 105.92C124.59 106.12 124.584 106.3 124.57 106.46H116.37ZM116.37 105.22H123.03C122.937 104.22 122.604 103.393 122.03 102.74C121.47 102.073 120.704 101.74 119.73 101.74C118.85 101.74 118.097 102.067 117.47 102.72C116.844 103.373 116.477 104.207 116.37 105.22ZM130.706 111.2C129.96 111.2 129.2 111.067 128.426 110.8C127.666 110.52 127 110.147 126.426 109.68L127.206 108.58C128.38 109.46 129.573 109.9 130.786 109.9C131.413 109.9 131.926 109.753 132.326 109.46C132.726 109.153 132.926 108.753 132.926 108.26V108.22C132.926 107.753 132.706 107.393 132.266 107.14C131.84 106.887 131.2 106.64 130.346 106.4C129.826 106.253 129.413 106.12 129.106 106C128.8 105.88 128.453 105.713 128.066 105.5C127.68 105.273 127.393 104.993 127.206 104.66C127.02 104.327 126.926 103.933 126.926 103.48V103.44C126.926 102.56 127.253 101.847 127.906 101.3C128.573 100.753 129.42 100.48 130.446 100.48C131.78 100.48 133.02 100.86 134.166 101.62L133.466 102.78C132.44 102.113 131.42 101.78 130.406 101.78C129.806 101.78 129.32 101.92 128.946 102.2C128.586 102.48 128.406 102.84 128.406 103.28V103.32C128.406 103.507 128.46 103.68 128.566 103.84C128.673 104 128.793 104.133 128.926 104.24C129.06 104.347 129.266 104.46 129.546 104.58C129.84 104.7 130.073 104.787 130.246 104.84C130.42 104.893 130.693 104.98 131.066 105.1C131.453 105.22 131.773 105.327 132.026 105.42C132.293 105.513 132.586 105.647 132.906 105.82C133.24 105.98 133.5 106.16 133.686 106.36C133.886 106.547 134.053 106.787 134.186 107.08C134.32 107.373 134.386 107.7 134.386 108.06V108.1C134.386 109.06 134.04 109.82 133.346 110.38C132.653 110.927 131.773 111.2 130.706 111.2ZM140.512 111.18C139.619 111.18 138.905 110.947 138.372 110.48C137.852 110 137.592 109.26 137.592 108.26V102.02H136.152V100.66H137.592V97.54H139.132V100.66H142.412V102.02H139.132V108.06C139.132 109.207 139.712 109.78 140.872 109.78C141.379 109.78 141.879 109.66 142.372 109.42V110.74C141.812 111.033 141.192 111.18 140.512 111.18ZM152.054 106.46C152.161 107.513 152.554 108.353 153.234 108.98C153.927 109.593 154.747 109.9 155.694 109.9C156.934 109.9 158.021 109.413 158.954 108.44L159.914 109.3C158.754 110.593 157.334 111.24 155.654 111.24C154.201 111.24 152.974 110.74 151.974 109.74C150.987 108.727 150.494 107.427 150.494 105.84C150.494 104.333 150.967 103.06 151.914 102.02C152.861 100.967 154.041 100.44 155.454 100.44C156.934 100.44 158.107 100.96 158.974 102C159.841 103.04 160.274 104.347 160.274 105.92C160.274 106.12 160.267 106.3 160.254 106.46H152.054ZM152.054 105.22H158.714C158.621 104.22 158.287 103.393 157.714 102.74C157.154 102.073 156.387 101.74 155.414 101.74C154.534 101.74 153.781 102.067 153.154 102.72C152.527 103.373 152.161 104.207 152.054 105.22ZM166.77 111.22C165.543 111.22 164.577 110.847 163.87 110.1C163.163 109.34 162.81 108.333 162.81 107.08V100.66H164.35V106.7C164.35 107.673 164.597 108.44 165.09 109C165.597 109.547 166.303 109.82 167.21 109.82C168.103 109.82 168.843 109.52 169.43 108.92C170.017 108.32 170.31 107.54 170.31 106.58V100.66H171.83V111H170.31V109.2C169.47 110.547 168.29 111.22 166.77 111.22ZM185.95 111.24C184.457 111.24 183.197 110.713 182.17 109.66C181.157 108.607 180.65 107.347 180.65 105.88V105.84C180.65 104.36 181.157 103.093 182.17 102.04C183.197 100.973 184.457 100.44 185.95 100.44C187.55 100.44 188.93 101.053 190.09 102.28L189.07 103.36C188.084 102.32 187.037 101.8 185.93 101.8C184.89 101.8 184.01 102.187 183.29 102.96C182.584 103.733 182.23 104.68 182.23 105.8V105.84C182.23 106.96 182.59 107.913 183.31 108.7C184.044 109.473 184.95 109.86 186.03 109.86C187.177 109.86 188.23 109.347 189.19 108.32L190.17 109.24C188.97 110.573 187.564 111.24 185.95 111.24ZM201.003 109.66C199.963 110.713 198.676 111.24 197.143 111.24C195.61 111.24 194.33 110.72 193.303 109.68C192.29 108.627 191.783 107.36 191.783 105.88V105.84C191.783 104.36 192.296 103.093 193.323 102.04C194.363 100.973 195.65 100.44 197.183 100.44C198.716 100.44 199.996 100.967 201.023 102.02C202.05 103.06 202.563 104.32 202.563 105.8V105.84C202.563 107.32 202.043 108.593 201.003 109.66ZM197.183 109.86C198.29 109.86 199.196 109.473 199.903 108.7C200.623 107.927 200.983 106.987 200.983 105.88V105.84C200.983 104.72 200.61 103.767 199.863 102.98C199.13 102.193 198.223 101.8 197.143 101.8C196.05 101.8 195.143 102.193 194.423 102.98C193.716 103.753 193.363 104.693 193.363 105.8V105.84C193.363 106.96 193.73 107.913 194.463 108.7C195.196 109.473 196.103 109.86 197.183 109.86ZM205.353 111V100.66H206.893V102.4C207.759 101.093 208.873 100.44 210.233 100.44C211.779 100.44 212.886 101.127 213.553 102.5C214.446 101.127 215.659 100.44 217.193 100.44C218.379 100.44 219.313 100.813 219.993 101.56C220.686 102.307 221.033 103.32 221.033 104.6V111H219.493V104.96C219.493 103.96 219.253 103.193 218.773 102.66C218.306 102.113 217.653 101.84 216.813 101.84C215.999 101.84 215.319 102.127 214.773 102.7C214.226 103.273 213.953 104.053 213.953 105.04V111H212.433V104.92C212.433 103.96 212.193 103.207 211.713 102.66C211.246 102.113 210.599 101.84 209.773 101.84C208.946 101.84 208.259 102.147 207.713 102.76C207.166 103.373 206.893 104.153 206.893 105.1V111H205.353ZM224.376 111V100.66H225.916V102.4C226.783 101.093 227.896 100.44 229.256 100.44C230.803 100.44 231.91 101.127 232.576 102.5C233.47 101.127 234.683 100.44 236.216 100.44C237.403 100.44 238.336 100.813 239.016 101.56C239.71 102.307 240.056 103.32 240.056 104.6V111H238.516V104.96C238.516 103.96 238.276 103.193 237.796 102.66C237.33 102.113 236.676 101.84 235.836 101.84C235.023 101.84 234.343 102.127 233.796 102.7C233.25 103.273 232.976 104.053 232.976 105.04V111H231.456V104.92C231.456 103.96 231.216 103.207 230.736 102.66C230.27 102.113 229.623 101.84 228.796 101.84C227.97 101.84 227.283 102.147 226.736 102.76C226.19 103.373 225.916 104.153 225.916 105.1V111H224.376ZM251.98 109.66C250.94 110.713 249.653 111.24 248.12 111.24C246.586 111.24 245.306 110.72 244.28 109.68C243.266 108.627 242.76 107.36 242.76 105.88V105.84C242.76 104.36 243.273 103.093 244.3 102.04C245.34 100.973 246.626 100.44 248.16 100.44C249.693 100.44 250.973 100.967 252 102.02C253.026 103.06 253.54 104.32 253.54 105.8V105.84C253.54 107.32 253.02 108.593 251.98 109.66ZM248.16 109.86C249.266 109.86 250.173 109.473 250.88 108.7C251.6 107.927 251.96 106.987 251.96 105.88V105.84C251.96 104.72 251.586 103.767 250.84 102.98C250.106 102.193 249.2 101.8 248.12 101.8C247.026 101.8 246.12 102.193 245.4 102.98C244.693 103.753 244.34 104.693 244.34 105.8V105.84C244.34 106.96 244.706 107.913 245.44 108.7C246.173 109.473 247.08 109.86 248.16 109.86ZM260.669 111.22C259.349 111.22 258.196 110.733 257.209 109.76C256.223 108.787 255.729 107.487 255.729 105.86V105.82C255.729 104.207 256.223 102.907 257.209 101.92C258.196 100.933 259.349 100.44 260.669 100.44C262.296 100.44 263.616 101.173 264.629 102.64V96.4H266.169V111H264.629V108.92C263.589 110.453 262.269 111.22 260.669 111.22ZM260.949 109.84C261.949 109.84 262.823 109.467 263.569 108.72C264.316 107.96 264.689 107 264.689 105.84V105.8C264.689 104.653 264.316 103.707 263.569 102.96C262.823 102.2 261.949 101.82 260.949 101.82C259.909 101.82 259.043 102.18 258.349 102.9C257.656 103.62 257.309 104.587 257.309 105.8V105.84C257.309 107.027 257.663 107.993 258.369 108.74C259.076 109.473 259.936 109.84 260.949 109.84ZM278.191 109.66C277.151 110.713 275.864 111.24 274.331 111.24C272.797 111.24 271.517 110.72 270.491 109.68C269.477 108.627 268.971 107.36 268.971 105.88V105.84C268.971 104.36 269.484 103.093 270.511 102.04C271.551 100.973 272.837 100.44 274.371 100.44C275.904 100.44 277.184 100.967 278.211 102.02C279.237 103.06 279.751 104.32 279.751 105.8V105.84C279.751 107.32 279.231 108.593 278.191 109.66ZM274.371 109.86C275.477 109.86 276.384 109.473 277.091 108.7C277.811 107.927 278.171 106.987 278.171 105.88V105.84C278.171 104.72 277.797 103.767 277.051 102.98C276.317 102.193 275.411 101.8 274.331 101.8C273.237 101.8 272.331 102.193 271.611 102.98C270.904 103.753 270.551 104.693 270.551 105.8V105.84C270.551 106.96 270.917 107.913 271.651 108.7C272.384 109.473 273.291 109.86 274.371 109.86ZM281.97 111V108.9H283.81V111H281.97ZM293.308 111V97H303.428V98.44H294.888V103.22H302.528V104.66H294.888V109.56H303.528V111H293.308ZM309.907 111.18C309.013 111.18 308.3 110.947 307.767 110.48C307.247 110 306.987 109.26 306.987 108.26V102.02H305.547V100.66H306.987V97.54H308.527V100.66H311.807V102.02H308.527V108.06C308.527 109.207 309.107 109.78 310.267 109.78C310.773 109.78 311.273 109.66 311.767 109.42V110.74C311.207 111.033 310.587 111.18 309.907 111.18ZM314.573 98.4V96.7H316.333V98.4H314.573ZM314.673 111V100.66H316.213V111H314.673ZM322.866 111.22C321.826 111.22 320.92 110.933 320.146 110.36C319.386 109.787 319.006 109 319.006 108V107.96C319.006 106.88 319.406 106.047 320.206 105.46C321.006 104.873 322.08 104.58 323.426 104.58C324.493 104.58 325.546 104.727 326.586 105.02V104.7C326.586 103.793 326.32 103.1 325.786 102.62C325.253 102.14 324.5 101.9 323.526 101.9C322.513 101.9 321.466 102.147 320.386 102.64L319.926 101.38C321.206 100.793 322.46 100.5 323.686 100.5C325.153 100.5 326.266 100.88 327.026 101.64C327.746 102.36 328.106 103.373 328.106 104.68V111H326.586V109.46C325.666 110.633 324.426 111.22 322.866 111.22ZM323.166 109.98C324.126 109.98 324.94 109.72 325.606 109.2C326.273 108.68 326.606 108.013 326.606 107.2V106.24C325.593 105.947 324.586 105.8 323.586 105.8C322.64 105.8 321.9 105.993 321.366 106.38C320.833 106.753 320.566 107.253 320.566 107.88V107.92C320.566 108.547 320.813 109.047 321.306 109.42C321.813 109.793 322.433 109.98 323.166 109.98ZM331.368 111V100.66H332.908V102.4C333.775 101.093 334.888 100.44 336.248 100.44C337.795 100.44 338.902 101.127 339.568 102.5C340.462 101.127 341.675 100.44 343.208 100.44C344.395 100.44 345.328 100.813 346.008 101.56C346.702 102.307 347.048 103.32 347.048 104.6V111H345.508V104.96C345.508 103.96 345.268 103.193 344.788 102.66C344.322 102.113 343.668 101.84 342.828 101.84C342.015 101.84 341.335 102.127 340.788 102.7C340.242 103.273 339.968 104.053 339.968 105.04V111H338.448V104.92C338.448 103.96 338.208 103.207 337.728 102.66C337.262 102.113 336.615 101.84 335.788 101.84C334.962 101.84 334.275 102.147 333.728 102.76C333.182 103.373 332.908 104.153 332.908 105.1V111H331.368ZM356.388 114.2V100.66H357.928V102.74C358.968 101.207 360.288 100.44 361.888 100.44C363.208 100.44 364.361 100.927 365.348 101.9C366.335 102.873 366.828 104.173 366.828 105.8V105.84C366.828 107.453 366.335 108.753 365.348 109.74C364.361 110.727 363.208 111.22 361.888 111.22C360.261 111.22 358.941 110.487 357.928 109.02V114.2H356.388ZM361.608 109.84C362.648 109.84 363.515 109.48 364.208 108.76C364.901 108.04 365.248 107.073 365.248 105.86V105.82C365.248 104.633 364.895 103.673 364.188 102.94C363.481 102.193 362.621 101.82 361.608 101.82C360.608 101.82 359.735 102.2 358.988 102.96C358.241 103.707 357.868 104.653 357.868 105.8V105.84C357.868 107 358.241 107.96 358.988 108.72C359.735 109.467 360.608 109.84 361.608 109.84ZM369.669 111V96.4H371.209V102.46C372.023 101.113 373.203 100.44 374.749 100.44C375.976 100.44 376.943 100.82 377.649 101.58C378.356 102.327 378.709 103.327 378.709 104.58V111H377.169V104.96C377.169 103.987 376.916 103.227 376.409 102.68C375.916 102.12 375.216 101.84 374.309 101.84C373.416 101.84 372.676 102.14 372.089 102.74C371.503 103.34 371.209 104.12 371.209 105.08V111H369.669ZM385.073 111.22C384.033 111.22 383.127 110.933 382.353 110.36C381.593 109.787 381.213 109 381.213 108V107.96C381.213 106.88 381.613 106.047 382.413 105.46C383.213 104.873 384.287 104.58 385.633 104.58C386.7 104.58 387.753 104.727 388.793 105.02V104.7C388.793 103.793 388.527 103.1 387.993 102.62C387.46 102.14 386.707 101.9 385.733 101.9C384.72 101.9 383.673 102.147 382.593 102.64L382.133 101.38C383.413 100.793 384.667 100.5 385.893 100.5C387.36 100.5 388.473 100.88 389.233 101.64C389.953 102.36 390.313 103.373 390.313 104.68V111H388.793V109.46C387.873 110.633 386.633 111.22 385.073 111.22ZM385.373 109.98C386.333 109.98 387.147 109.72 387.813 109.2C388.48 108.68 388.813 108.013 388.813 107.2V106.24C387.8 105.947 386.793 105.8 385.793 105.8C384.847 105.8 384.107 105.993 383.573 106.38C383.04 106.753 382.773 107.253 382.773 107.88V107.92C382.773 108.547 383.02 109.047 383.513 109.42C384.02 109.793 384.64 109.98 385.373 109.98ZM393.575 111V100.66H395.115V103.36C395.515 102.467 396.082 101.753 396.815 101.22C397.549 100.687 398.389 100.44 399.335 100.48V102.14H399.215C398.029 102.14 397.049 102.553 396.275 103.38C395.502 104.207 395.115 105.373 395.115 106.88V111H393.575ZM402.152 106.46C402.258 107.513 402.652 108.353 403.332 108.98C404.025 109.593 404.845 109.9 405.792 109.9C407.032 109.9 408.118 109.413 409.052 108.44L410.012 109.3C408.852 110.593 407.432 111.24 405.752 111.24C404.298 111.24 403.072 110.74 402.072 109.74C401.085 108.727 400.592 107.427 400.592 105.84C400.592 104.333 401.065 103.06 402.012 102.02C402.958 100.967 404.138 100.44 405.552 100.44C407.032 100.44 408.205 100.96 409.072 102C409.938 103.04 410.372 104.347 410.372 105.92C410.372 106.12 410.365 106.3 410.352 106.46H402.152ZM402.152 105.22H408.812C408.718 104.22 408.385 103.393 407.812 102.74C407.252 102.073 406.485 101.74 405.512 101.74C404.632 101.74 403.878 102.067 403.252 102.72C402.625 103.373 402.258 104.207 402.152 105.22ZM416.528 111.18C415.634 111.18 414.921 110.947 414.388 110.48C413.868 110 413.608 109.26 413.608 108.26V102.02H412.168V100.66H413.608V97.54H415.148V100.66H418.428V102.02H415.148V108.06C415.148 109.207 415.728 109.78 416.888 109.78C417.394 109.78 417.894 109.66 418.388 109.42V110.74C417.828 111.033 417.208 111.18 416.528 111.18ZM421.154 111V100.66H422.694V103.36C423.094 102.467 423.66 101.753 424.394 101.22C425.127 100.687 425.967 100.44 426.914 100.48V102.14H426.794C425.607 102.14 424.627 102.553 423.854 103.38C423.08 104.207 422.694 105.373 422.694 106.88V111H421.154ZM431.831 111.22C430.791 111.22 429.885 110.933 429.111 110.36C428.351 109.787 427.971 109 427.971 108V107.96C427.971 106.88 428.371 106.047 429.171 105.46C429.971 104.873 431.045 104.58 432.391 104.58C433.458 104.58 434.511 104.727 435.551 105.02V104.7C435.551 103.793 435.285 103.1 434.751 102.62C434.218 102.14 433.465 101.9 432.491 101.9C431.478 101.9 430.431 102.147 429.351 102.64L428.891 101.38C430.171 100.793 431.425 100.5 432.651 100.5C434.118 100.5 435.231 100.88 435.991 101.64C436.711 102.36 437.071 103.373 437.071 104.68V111H435.551V109.46C434.631 110.633 433.391 111.22 431.831 111.22ZM432.131 109.98C433.091 109.98 433.905 109.72 434.571 109.2C435.238 108.68 435.571 108.013 435.571 107.2V106.24C434.558 105.947 433.551 105.8 432.551 105.8C431.605 105.8 430.865 105.993 430.331 106.38C429.798 106.753 429.531 107.253 429.531 107.88V107.92C429.531 108.547 429.778 109.047 430.271 109.42C430.778 109.793 431.398 109.98 432.131 109.98ZM446.469 111V96.4H448.009V111H446.469ZM451.623 98.4V96.7H453.383V98.4H451.623ZM451.723 111V100.66H453.263V111H451.723ZM461.417 114.24C459.671 114.24 458.104 113.76 456.717 112.8L457.417 111.6C458.631 112.48 459.957 112.92 461.397 112.92C462.557 112.92 463.471 112.6 464.137 111.96C464.817 111.333 465.157 110.427 465.157 109.24V108.02C464.064 109.473 462.711 110.2 461.097 110.2C459.791 110.2 458.651 109.753 457.677 108.86C456.717 107.953 456.237 106.787 456.237 105.36V105.32C456.237 103.867 456.724 102.693 457.697 101.8C458.671 100.893 459.804 100.44 461.097 100.44C462.751 100.44 464.097 101.133 465.137 102.52V100.66H466.677V109.2C466.677 110.76 466.237 111.98 465.357 112.86C464.437 113.78 463.124 114.24 461.417 114.24ZM461.397 108.84C462.411 108.84 463.297 108.513 464.057 107.86C464.817 107.193 465.197 106.353 465.197 105.34V105.3C465.197 104.273 464.817 103.433 464.057 102.78C463.311 102.127 462.424 101.8 461.397 101.8C460.397 101.8 459.551 102.12 458.857 102.76C458.164 103.4 457.817 104.24 457.817 105.28V105.32C457.817 106.333 458.164 107.173 458.857 107.84C459.564 108.507 460.411 108.84 461.397 108.84ZM473.918 111.22C472.692 111.22 471.725 110.847 471.018 110.1C470.312 109.34 469.958 108.333 469.958 107.08V100.66H471.498V106.7C471.498 107.673 471.745 108.44 472.238 109C472.745 109.547 473.452 109.82 474.358 109.82C475.252 109.82 475.992 109.52 476.578 108.92C477.165 108.32 477.458 107.54 477.458 106.58V100.66H478.978V111H477.458V109.2C476.618 110.547 475.438 111.22 473.918 111.22ZM482.583 111V96.4H484.123V111H482.583ZM490.777 111.22C489.737 111.22 488.83 110.933 488.057 110.36C487.297 109.787 486.917 109 486.917 108V107.96C486.917 106.88 487.317 106.047 488.117 105.46C488.917 104.873 489.99 104.58 491.337 104.58C492.403 104.58 493.457 104.727 494.497 105.02V104.7C494.497 103.793 494.23 103.1 493.697 102.62C493.163 102.14 492.41 101.9 491.437 101.9C490.423 101.9 489.377 102.147 488.297 102.64L487.837 101.38C489.117 100.793 490.37 100.5 491.597 100.5C493.063 100.5 494.177 100.88 494.937 101.64C495.657 102.36 496.017 103.373 496.017 104.68V111H494.497V109.46C493.577 110.633 492.337 111.22 490.777 111.22ZM491.077 109.98C492.037 109.98 492.85 109.72 493.517 109.2C494.183 108.68 494.517 108.013 494.517 107.2V106.24C493.503 105.947 492.497 105.8 491.497 105.8C490.55 105.8 489.81 105.993 489.277 106.38C488.743 106.753 488.477 107.253 488.477 107.88V107.92C488.477 108.547 488.723 109.047 489.217 109.42C489.723 109.793 490.343 109.98 491.077 109.98ZM508.355 111.22C507.315 111.22 506.408 110.933 505.635 110.36C504.875 109.787 504.495 109 504.495 108V107.96C504.495 106.88 504.895 106.047 505.695 105.46C506.495 104.873 507.568 104.58 508.915 104.58C509.981 104.58 511.035 104.727 512.075 105.02V104.7C512.075 103.793 511.808 103.1 511.275 102.62C510.741 102.14 509.988 101.9 509.015 101.9C508.001 101.9 506.955 102.147 505.875 102.64L505.415 101.38C506.695 100.793 507.948 100.5 509.175 100.5C510.641 100.5 511.755 100.88 512.515 101.64C513.235 102.36 513.595 103.373 513.595 104.68V111H512.075V109.46C511.155 110.633 509.915 111.22 508.355 111.22ZM508.655 109.98C509.615 109.98 510.428 109.72 511.095 109.2C511.761 108.68 512.095 108.013 512.095 107.2V106.24C511.081 105.947 510.075 105.8 509.075 105.8C508.128 105.8 507.388 105.993 506.855 106.38C506.321 106.753 506.055 107.253 506.055 107.88V107.92C506.055 108.547 506.301 109.047 506.795 109.42C507.301 109.793 507.921 109.98 508.655 109.98ZM522.893 98.4V96.7H524.653V98.4H522.893ZM522.013 114.26C521.653 114.26 521.333 114.227 521.053 114.16V112.9C521.293 112.94 521.546 112.96 521.813 112.96C522.599 112.96 522.993 112.5 522.993 111.58V100.66H524.533V111.6C524.533 112.493 524.313 113.16 523.873 113.6C523.433 114.04 522.813 114.26 522.013 114.26ZM531.907 111.22C530.68 111.22 529.713 110.847 529.007 110.1C528.3 109.34 527.947 108.333 527.947 107.08V100.66H529.487V106.7C529.487 107.673 529.733 108.44 530.227 109C530.733 109.547 531.44 109.82 532.347 109.82C533.24 109.82 533.98 109.52 534.567 108.92C535.153 108.32 535.447 107.54 535.447 106.58V100.66H536.967V111H535.447V109.2C534.607 110.547 533.427 111.22 531.907 111.22ZM543.851 111.2C543.104 111.2 542.344 111.067 541.571 110.8C540.811 110.52 540.144 110.147 539.571 109.68L540.351 108.58C541.524 109.46 542.718 109.9 543.931 109.9C544.558 109.9 545.071 109.753 545.471 109.46C545.871 109.153 546.071 108.753 546.071 108.26V108.22C546.071 107.753 545.851 107.393 545.411 107.14C544.984 106.887 544.344 106.64 543.491 106.4C542.971 106.253 542.558 106.12 542.251 106C541.944 105.88 541.598 105.713 541.211 105.5C540.824 105.273 540.538 104.993 540.351 104.66C540.164 104.327 540.071 103.933 540.071 103.48V103.44C540.071 102.56 540.398 101.847 541.051 101.3C541.718 100.753 542.564 100.48 543.591 100.48C544.924 100.48 546.164 100.86 547.311 101.62L546.611 102.78C545.584 102.113 544.564 101.78 543.551 101.78C542.951 101.78 542.464 101.92 542.091 102.2C541.731 102.48 541.551 102.84 541.551 103.28V103.32C541.551 103.507 541.604 103.68 541.711 103.84C541.818 104 541.938 104.133 542.071 104.24C542.204 104.347 542.411 104.46 542.691 104.58C542.984 104.7 543.218 104.787 543.391 104.84C543.564 104.893 543.838 104.98 544.211 105.1C544.598 105.22 544.918 105.327 545.171 105.42C545.438 105.513 545.731 105.647 546.051 105.82C546.384 105.98 546.644 106.16 546.831 106.36C547.031 106.547 547.198 106.787 547.331 107.08C547.464 107.373 547.531 107.7 547.531 108.06V108.1C547.531 109.06 547.184 109.82 546.491 110.38C545.798 110.927 544.918 111.2 543.851 111.2ZM553.657 111.18C552.763 111.18 552.05 110.947 551.517 110.48C550.997 110 550.737 109.26 550.737 108.26V102.02H549.297V100.66H550.737V97.54H552.277V100.66H555.557V102.02H552.277V108.06C552.277 109.207 552.857 109.78 554.017 109.78C554.523 109.78 555.023 109.66 555.517 109.42V110.74C554.957 111.033 554.337 111.18 553.657 111.18ZM566.57 109.66C565.53 110.713 564.243 111.24 562.71 111.24C561.176 111.24 559.896 110.72 558.87 109.68C557.856 108.627 557.35 107.36 557.35 105.88V105.84C557.35 104.36 557.863 103.093 558.89 102.04C559.93 100.973 561.216 100.44 562.75 100.44C564.283 100.44 565.563 100.967 566.59 102.02C567.616 103.06 568.13 104.32 568.13 105.8V105.84C568.13 107.32 567.61 108.593 566.57 109.66ZM562.75 109.86C563.856 109.86 564.763 109.473 565.47 108.7C566.19 107.927 566.55 106.987 566.55 105.88V105.84C566.55 104.72 566.176 103.767 565.43 102.98C564.696 102.193 563.79 101.8 562.71 101.8C561.616 101.8 560.71 102.193 559.99 102.98C559.283 103.753 558.93 104.693 558.93 105.8V105.84C558.93 106.96 559.296 107.913 560.03 108.7C560.763 109.473 561.67 109.86 562.75 109.86ZM577.835 106.46C577.942 107.513 578.335 108.353 579.015 108.98C579.709 109.593 580.529 109.9 581.475 109.9C582.715 109.9 583.802 109.413 584.735 108.44L585.695 109.3C584.535 110.593 583.115 111.24 581.435 111.24C579.982 111.24 578.755 110.74 577.755 109.74C576.769 108.727 576.275 107.427 576.275 105.84C576.275 104.333 576.749 103.06 577.695 102.02C578.642 100.967 579.822 100.44 581.235 100.44C582.715 100.44 583.889 100.96 584.755 102C585.622 103.04 586.055 104.347 586.055 105.92C586.055 106.12 586.049 106.3 586.035 106.46H577.835ZM577.835 105.22H584.495C584.402 104.22 584.069 103.393 583.495 102.74C582.935 102.073 582.169 101.74 581.195 101.74C580.315 101.74 579.562 102.067 578.935 102.72C578.309 103.373 577.942 104.207 577.835 105.22ZM588.891 111V96.4H590.431V111H588.891ZM594.925 106.46C595.032 107.513 595.425 108.353 596.105 108.98C596.798 109.593 597.618 109.9 598.565 109.9C599.805 109.9 600.892 109.413 601.825 108.44L602.785 109.3C601.625 110.593 600.205 111.24 598.525 111.24C597.072 111.24 595.845 110.74 594.845 109.74C593.858 108.727 593.365 107.427 593.365 105.84C593.365 104.333 593.838 103.06 594.785 102.02C595.732 100.967 596.912 100.44 598.325 100.44C599.805 100.44 600.978 100.96 601.845 102C602.712 103.04 603.145 104.347 603.145 105.92C603.145 106.12 603.138 106.3 603.125 106.46H594.925ZM594.925 105.22H601.585C601.492 104.22 601.158 103.393 600.585 102.74C600.025 102.073 599.258 101.74 598.285 101.74C597.405 101.74 596.652 102.067 596.025 102.72C595.398 103.373 595.032 104.207 594.925 105.22ZM605.841 111V100.66H607.381V102.4C608.248 101.093 609.361 100.44 610.721 100.44C612.268 100.44 613.374 101.127 614.041 102.5C614.934 101.127 616.148 100.44 617.681 100.44C618.868 100.44 619.801 100.813 620.481 101.56C621.174 102.307 621.521 103.32 621.521 104.6V111H619.981V104.96C619.981 103.96 619.741 103.193 619.261 102.66C618.794 102.113 618.141 101.84 617.301 101.84C616.488 101.84 615.808 102.127 615.261 102.7C614.714 103.273 614.441 104.053 614.441 105.04V111H612.921V104.92C612.921 103.96 612.681 103.207 612.201 102.66C611.734 102.113 611.088 101.84 610.261 101.84C609.434 101.84 608.748 102.147 608.201 102.76C607.654 103.373 607.381 104.153 607.381 105.1V111H605.841ZM625.785 106.46C625.891 107.513 626.285 108.353 626.965 108.98C627.658 109.593 628.478 109.9 629.425 109.9C630.665 109.9 631.751 109.413 632.685 108.44L633.645 109.3C632.485 110.593 631.065 111.24 629.385 111.24C627.931 111.24 626.705 110.74 625.705 109.74C624.718 108.727 624.225 107.427 624.225 105.84C624.225 104.333 624.698 103.06 625.645 102.02C626.591 100.967 627.771 100.44 629.185 100.44C630.665 100.44 631.838 100.96 632.705 102C633.571 103.04 634.005 104.347 634.005 105.92C634.005 106.12 633.998 106.3 633.985 106.46H625.785ZM625.785 105.22H632.445C632.351 104.22 632.018 103.393 631.445 102.74C630.885 102.073 630.118 101.74 629.145 101.74C628.265 101.74 627.511 102.067 626.885 102.72C626.258 103.373 625.891 104.207 625.785 105.22ZM636.7 111V100.66H638.24V102.46C639.054 101.113 640.234 100.44 641.78 100.44C643.007 100.44 643.974 100.82 644.68 101.58C645.387 102.327 645.74 103.327 645.74 104.58V111H644.2V104.96C644.2 103.987 643.947 103.227 643.44 102.68C642.947 102.12 642.247 101.84 641.34 101.84C640.447 101.84 639.707 102.14 639.12 102.74C638.534 103.34 638.24 104.12 638.24 105.08V111H636.7ZM652.485 111.18C651.591 111.18 650.878 110.947 650.345 110.48C649.825 110 649.565 109.26 649.565 108.26V102.02H648.125V100.66H649.565V97.54H651.105V100.66H654.385V102.02H651.105V108.06C651.105 109.207 651.685 109.78 652.845 109.78C653.351 109.78 653.851 109.66 654.345 109.42V110.74C653.785 111.033 653.165 111.18 652.485 111.18ZM660.911 111.22C659.684 111.22 658.717 110.847 658.011 110.1C657.304 109.34 656.951 108.333 656.951 107.08V100.66H658.491V106.7C658.491 107.673 658.737 108.44 659.231 109C659.737 109.547 660.444 109.82 661.351 109.82C662.244 109.82 662.984 109.52 663.571 108.92C664.157 108.32 664.451 107.54 664.451 106.58V100.66H665.971V111H664.451V109.2C663.611 110.547 662.431 111.22 660.911 111.22ZM669.435 111V100.66H670.975V102.4C671.842 101.093 672.955 100.44 674.315 100.44C675.862 100.44 676.968 101.127 677.635 102.5C678.528 101.127 679.742 100.44 681.275 100.44C682.462 100.44 683.395 100.813 684.075 101.56C684.768 102.307 685.115 103.32 685.115 104.6V111H683.575V104.96C683.575 103.96 683.335 103.193 682.855 102.66C682.388 102.113 681.735 101.84 680.895 101.84C680.082 101.84 679.402 102.127 678.855 102.7C678.308 103.273 678.035 104.053 678.035 105.04V111H676.515V104.92C676.515 103.96 676.275 103.207 675.795 102.66C675.328 102.113 674.682 101.84 673.855 101.84C673.028 101.84 672.342 102.147 671.795 102.76C671.248 103.373 670.975 104.153 670.975 105.1V111H669.435ZM687.898 113.44L687.658 112.74C688.632 112.393 689.078 111.813 688.998 111H688.278V108.9H690.118V110.7C690.118 111.5 689.938 112.113 689.578 112.54C689.232 112.967 688.672 113.267 687.898 113.44ZM699.397 98.4V96.7H701.157V98.4H699.397ZM699.497 111V100.66H701.037V111H699.497ZM704.611 111V100.66H706.151V102.46C706.964 101.113 708.144 100.44 709.691 100.44C710.917 100.44 711.884 100.82 712.591 101.58C713.297 102.327 713.651 103.327 713.651 104.58V111H712.111V104.96C712.111 103.987 711.857 103.227 711.351 102.68C710.857 102.12 710.157 101.84 709.251 101.84C708.357 101.84 707.617 102.14 707.031 102.74C706.444 103.34 706.151 104.12 706.151 105.08V111H704.611ZM726.731 111.22C725.504 111.22 724.538 110.847 723.831 110.1C723.124 109.34 722.771 108.333 722.771 107.08V100.66H724.311V106.7C724.311 107.673 724.558 108.44 725.051 109C725.558 109.547 726.264 109.82 727.171 109.82C728.064 109.82 728.804 109.52 729.391 108.92C729.978 108.32 730.271 107.54 730.271 106.58V100.66H731.791V111H730.271V109.2C729.431 110.547 728.251 111.22 726.731 111.22ZM735.395 111V96.4H736.935V111H735.395ZM743.969 111.18C743.076 111.18 742.362 110.947 741.829 110.48C741.309 110 741.049 109.26 741.049 108.26V102.02H739.609V100.66H741.049V97.54H742.589V100.66H745.869V102.02H742.589V108.06C742.589 109.207 743.169 109.78 744.329 109.78C744.836 109.78 745.336 109.66 745.829 109.42V110.74C745.269 111.033 744.649 111.18 743.969 111.18ZM748.595 111V100.66H750.135V103.36C750.535 102.467 751.102 101.753 751.835 101.22C752.568 100.687 753.408 100.44 754.355 100.48V102.14H754.235C753.048 102.14 752.068 102.553 751.295 103.38C750.522 104.207 750.135 105.373 750.135 106.88V111H748.595ZM756.74 98.4V96.7H758.5V98.4H756.74ZM756.84 111V100.66H758.38V111H756.84ZM766.614 111.24C765.121 111.24 763.861 110.713 762.834 109.66C761.821 108.607 761.314 107.347 761.314 105.88V105.84C761.314 104.36 761.821 103.093 762.834 102.04C763.861 100.973 765.121 100.44 766.614 100.44C768.214 100.44 769.594 101.053 770.754 102.28L769.734 103.36C768.748 102.32 767.701 101.8 766.594 101.8C765.554 101.8 764.674 102.187 763.954 102.96C763.248 103.733 762.894 104.68 762.894 105.8V105.84C762.894 106.96 763.254 107.913 763.974 108.7C764.708 109.473 765.614 109.86 766.694 109.86C767.841 109.86 768.894 109.347 769.854 108.32L770.834 109.24C769.634 110.573 768.228 111.24 766.614 111.24ZM773.42 98.4V96.7H775.18V98.4H773.42ZM773.52 111V100.66H775.06V111H773.52ZM779.554 106.46C779.661 107.513 780.054 108.353 780.734 108.98C781.427 109.593 782.247 109.9 783.194 109.9C784.434 109.9 785.521 109.413 786.454 108.44L787.414 109.3C786.254 110.593 784.834 111.24 783.154 111.24C781.701 111.24 780.474 110.74 779.474 109.74C778.487 108.727 777.994 107.427 777.994 105.84C777.994 104.333 778.467 103.06 779.414 102.02C780.361 100.967 781.541 100.44 782.954 100.44C784.434 100.44 785.607 100.96 786.474 102C787.341 103.04 787.774 104.347 787.774 105.92C787.774 106.12 787.767 106.3 787.754 106.46H779.554ZM779.554 105.22H786.214C786.121 104.22 785.787 103.393 785.214 102.74C784.654 102.073 783.887 101.74 782.914 101.74C782.034 101.74 781.281 102.067 780.654 102.72C780.027 103.373 779.661 104.207 779.554 105.22ZM793.89 111.2C793.143 111.2 792.383 111.067 791.61 110.8C790.85 110.52 790.183 110.147 789.61 109.68L790.39 108.58C791.563 109.46 792.757 109.9 793.97 109.9C794.597 109.9 795.11 109.753 795.51 109.46C795.91 109.153 796.11 108.753 796.11 108.26V108.22C796.11 107.753 795.89 107.393 795.45 107.14C795.023 106.887 794.383 106.64 793.53 106.4C793.01 106.253 792.597 106.12 792.29 106C791.983 105.88 791.637 105.713 791.25 105.5C790.863 105.273 790.577 104.993 790.39 104.66C790.203 104.327 790.11 103.933 790.11 103.48V103.44C790.11 102.56 790.437 101.847 791.09 101.3C791.757 100.753 792.603 100.48 793.63 100.48C794.963 100.48 796.203 100.86 797.35 101.62L796.65 102.78C795.623 102.113 794.603 101.78 793.59 101.78C792.99 101.78 792.503 101.92 792.13 102.2C791.77 102.48 791.59 102.84 791.59 103.28V103.32C791.59 103.507 791.643 103.68 791.75 103.84C791.857 104 791.977 104.133 792.11 104.24C792.243 104.347 792.45 104.46 792.73 104.58C793.023 104.7 793.257 104.787 793.43 104.84C793.603 104.893 793.877 104.98 794.25 105.1C794.637 105.22 794.957 105.327 795.21 105.42C795.477 105.513 795.77 105.647 796.09 105.82C796.423 105.98 796.683 106.16 796.87 106.36C797.07 106.547 797.237 106.787 797.37 107.08C797.503 107.373 797.57 107.7 797.57 108.06V108.1C797.57 109.06 797.223 109.82 796.53 110.38C795.837 110.927 794.957 111.2 793.89 111.2ZM807.347 106.46C807.454 107.513 807.847 108.353 808.527 108.98C809.22 109.593 810.04 109.9 810.987 109.9C812.227 109.9 813.314 109.413 814.247 108.44L815.207 109.3C814.047 110.593 812.627 111.24 810.947 111.24C809.494 111.24 808.267 110.74 807.267 109.74C806.28 108.727 805.787 107.427 805.787 105.84C805.787 104.333 806.26 103.06 807.207 102.02C808.154 100.967 809.334 100.44 810.747 100.44C812.227 100.44 813.4 100.96 814.267 102C815.134 103.04 815.567 104.347 815.567 105.92C815.567 106.12 815.56 106.3 815.547 106.46H807.347ZM807.347 105.22H814.007C813.914 104.22 813.58 103.393 813.007 102.74C812.447 102.073 811.68 101.74 810.707 101.74C809.827 101.74 809.074 102.067 808.447 102.72C807.82 103.373 807.454 104.207 807.347 105.22ZM818.263 111V100.66H819.803V103.36C820.203 102.467 820.77 101.753 821.503 101.22C822.236 100.687 823.076 100.44 824.023 100.48V102.14H823.903C822.716 102.14 821.736 102.553 820.963 103.38C820.19 104.207 819.803 105.373 819.803 106.88V111H818.263ZM828.941 111.22C827.901 111.22 826.994 110.933 826.221 110.36C825.461 109.787 825.081 109 825.081 108V107.96C825.081 106.88 825.481 106.047 826.281 105.46C827.081 104.873 828.154 104.58 829.501 104.58C830.567 104.58 831.621 104.727 832.661 105.02V104.7C832.661 103.793 832.394 103.1 831.861 102.62C831.327 102.14 830.574 101.9 829.601 101.9C828.587 101.9 827.541 102.147 826.461 102.64L826.001 101.38C827.281 100.793 828.534 100.5 829.761 100.5C831.227 100.5 832.341 100.88 833.101 101.64C833.821 102.36 834.181 103.373 834.181 104.68V111H832.661V109.46C831.741 110.633 830.501 111.22 828.941 111.22ZM829.241 109.98C830.201 109.98 831.014 109.72 831.681 109.2C832.347 108.68 832.681 108.013 832.681 107.2V106.24C831.667 105.947 830.661 105.8 829.661 105.8C828.714 105.8 827.974 105.993 827.441 106.38C826.907 106.753 826.641 107.253 826.641 107.88V107.92C826.641 108.547 826.887 109.047 827.381 109.42C827.887 109.793 828.507 109.98 829.241 109.98ZM840.805 111.18C839.912 111.18 839.198 110.947 838.665 110.48C838.145 110 837.885 109.26 837.885 108.26V102.02H836.445V100.66H837.885V97.54H839.425V100.66H842.705V102.02H839.425V108.06C839.425 109.207 840.005 109.78 841.165 109.78C841.672 109.78 842.172 109.66 842.665 109.42V110.74C842.105 111.033 841.485 111.18 840.805 111.18ZM854.887 111.08L850.407 100.66H852.107L855.587 109.24L859.087 100.66H860.747L856.247 111.08H854.887ZM865.738 111.22C864.698 111.22 863.791 110.933 863.018 110.36C862.258 109.787 861.878 109 861.878 108V107.96C861.878 106.88 862.278 106.047 863.078 105.46C863.878 104.873 864.951 104.58 866.298 104.58C867.364 104.58 868.418 104.727 869.458 105.02V104.7C869.458 103.793 869.191 103.1 868.658 102.62C868.124 102.14 867.371 101.9 866.398 101.9C865.384 101.9 864.338 102.147 863.258 102.64L862.798 101.38C864.078 100.793 865.331 100.5 866.558 100.5C868.024 100.5 869.138 100.88 869.898 101.64C870.618 102.36 870.978 103.373 870.978 104.68V111H869.458V109.46C868.538 110.633 867.298 111.22 865.738 111.22ZM866.038 109.98C866.998 109.98 867.811 109.72 868.478 109.2C869.144 108.68 869.478 108.013 869.478 107.2V106.24C868.464 105.947 867.458 105.8 866.458 105.8C865.511 105.8 864.771 105.993 864.238 106.38C863.704 106.753 863.438 107.253 863.438 107.88V107.92C863.438 108.547 863.684 109.047 864.178 109.42C864.684 109.793 865.304 109.98 866.038 109.98ZM874.24 111V100.66H875.78V103.36C876.18 102.467 876.746 101.753 877.48 101.22C878.213 100.687 879.053 100.44 880 100.48V102.14H879.88C878.693 102.14 877.713 102.553 876.94 103.38C876.166 104.207 875.78 105.373 875.78 106.88V111H874.24ZM882.385 98.4V96.7H884.145V98.4H882.385ZM882.485 111V100.66H884.025V111H882.485ZM891.399 111.22C890.172 111.22 889.206 110.847 888.499 110.1C887.792 109.34 887.439 108.333 887.439 107.08V100.66H888.979V106.7C888.979 107.673 889.226 108.44 889.719 109C890.226 109.547 890.932 109.82 891.839 109.82C892.732 109.82 893.472 109.52 894.059 108.92C894.646 108.32 894.939 107.54 894.939 106.58V100.66H896.459V111H894.939V109.2C894.099 110.547 892.919 111.22 891.399 111.22ZM903.343 111.2C902.596 111.2 901.836 111.067 901.063 110.8C900.303 110.52 899.636 110.147 899.063 109.68L899.843 108.58C901.016 109.46 902.21 109.9 903.423 109.9C904.05 109.9 904.563 109.753 904.963 109.46C905.363 109.153 905.563 108.753 905.563 108.26V108.22C905.563 107.753 905.343 107.393 904.903 107.14C904.476 106.887 903.836 106.64 902.983 106.4C902.463 106.253 902.05 106.12 901.743 106C901.436 105.88 901.09 105.713 900.703 105.5C900.316 105.273 900.03 104.993 899.843 104.66C899.656 104.327 899.563 103.933 899.563 103.48V103.44C899.563 102.56 899.89 101.847 900.543 101.3C901.21 100.753 902.056 100.48 903.083 100.48C904.416 100.48 905.656 100.86 906.803 101.62L906.103 102.78C905.076 102.113 904.056 101.78 903.043 101.78C902.443 101.78 901.956 101.92 901.583 102.2C901.223 102.48 901.043 102.84 901.043 103.28V103.32C901.043 103.507 901.096 103.68 901.203 103.84C901.31 104 901.43 104.133 901.563 104.24C901.696 104.347 901.903 104.46 902.183 104.58C902.476 104.7 902.71 104.787 902.883 104.84C903.056 104.893 903.33 104.98 903.703 105.1C904.09 105.22 904.41 105.327 904.663 105.42C904.93 105.513 905.223 105.647 905.543 105.82C905.876 105.98 906.136 106.16 906.323 106.36C906.523 106.547 906.69 106.787 906.823 107.08C906.956 107.373 907.023 107.7 907.023 108.06V108.1C907.023 109.06 906.676 109.82 905.983 110.38C905.29 110.927 904.41 111.2 903.343 111.2ZM909.704 111V108.9H911.544V111H909.704Z" fill="#393939"/>
</svg>
