<svg width="914" height="144" viewBox="0 0 914 144" fill="none" xmlns="http://www.w3.org/2000/svg">
<circle cx="547.5" cy="39.1709" r="39" fill="#E5E5E5"/>
<path d="M360.76 56.6509C356.76 56.6509 353.413 55.2642 350.72 52.4909C348.053 49.7176 346.72 46.3042 346.72 42.2509V42.1709C346.72 38.1442 348.067 34.7309 350.76 31.9309C353.453 29.1042 356.827 27.6909 360.88 27.6909C363.253 27.6909 365.28 28.0642 366.96 28.8109C368.64 29.5576 370.253 30.6642 371.8 32.1309L369.64 34.4509C366.947 31.8909 364.013 30.6109 360.84 30.6109C357.747 30.6109 355.16 31.7176 353.08 33.9309C351.027 36.1442 350 38.8642 350 42.0909V42.1709C350 45.4242 351.04 48.1709 353.12 50.4109C355.2 52.6242 357.773 53.7309 360.84 53.7309C362.653 53.7309 364.253 53.3976 365.64 52.7309C367.027 52.0642 368.44 51.0509 369.88 49.6909L371.96 51.7309C370.36 53.3576 368.693 54.5842 366.96 55.4109C365.227 56.2376 363.16 56.6509 360.76 56.6509ZM393.741 53.4909C391.661 55.5976 389.087 56.6509 386.021 56.6509C382.954 56.6509 380.394 55.6109 378.341 53.5309C376.314 51.4242 375.301 48.8909 375.301 45.9309V45.8509C375.301 42.8909 376.327 40.3576 378.381 38.2509C380.461 36.1176 383.034 35.0509 386.101 35.0509C389.167 35.0509 391.727 36.1042 393.781 38.2109C395.834 40.2909 396.861 42.8109 396.861 45.7709V45.8509C396.861 48.8109 395.821 51.3576 393.741 53.4909ZM386.101 53.8909C388.314 53.8909 390.127 53.1176 391.541 51.5709C392.981 50.0242 393.701 48.1442 393.701 45.9309V45.8509C393.701 43.6109 392.954 41.7042 391.461 40.1309C389.994 38.5576 388.181 37.7709 386.021 37.7709C383.834 37.7709 382.021 38.5576 380.581 40.1309C379.167 41.6776 378.461 43.5576 378.461 45.7709V45.8509C378.461 48.0909 379.194 49.9976 380.661 51.5709C382.127 53.1176 383.941 53.8909 386.101 53.8909ZM402.44 56.1709V35.4909H405.52V39.0909C407.147 36.3976 409.507 35.0509 412.6 35.0509C415.053 35.0509 416.987 35.8109 418.4 37.3309C419.813 38.8242 420.52 40.8242 420.52 43.3309V56.1709H417.44V44.0909C417.44 42.1442 416.933 40.6242 415.92 39.5309C414.933 38.4109 413.533 37.8509 411.72 37.8509C409.933 37.8509 408.453 38.4509 407.28 39.6509C406.107 40.8509 405.52 42.4109 405.52 44.3309V56.1709H402.44ZM434.008 56.5309C432.222 56.5309 430.795 56.0642 429.728 55.1309C428.688 54.1709 428.168 52.6909 428.168 50.6909V38.2109H425.288V35.4909H428.168V29.2509H431.248V35.4909H437.808V38.2109H431.248V50.2909C431.248 52.5842 432.408 53.7309 434.728 53.7309C435.742 53.7309 436.742 53.4909 437.728 53.0109V55.6509C436.608 56.2376 435.368 56.5309 434.008 56.5309ZM449.42 56.6109C447.34 56.6109 445.527 56.0376 443.98 54.8909C442.46 53.7442 441.7 52.1709 441.7 50.1709V50.0909C441.7 47.9309 442.5 46.2642 444.1 45.0909C445.7 43.9176 447.847 43.3309 450.54 43.3309C452.674 43.3309 454.78 43.6242 456.86 44.2109V43.5709C456.86 41.7576 456.327 40.3709 455.26 39.4109C454.194 38.4509 452.687 37.9709 450.74 37.9709C448.714 37.9709 446.62 38.4642 444.46 39.4509L443.54 36.9309C446.1 35.7576 448.607 35.1709 451.06 35.1709C453.994 35.1709 456.22 35.9309 457.74 37.4509C459.18 38.8909 459.9 40.9176 459.9 43.5309V56.1709H456.86V53.0909C455.02 55.4376 452.54 56.6109 449.42 56.6109ZM450.02 54.1309C451.94 54.1309 453.567 53.6109 454.9 52.5709C456.234 51.5309 456.9 50.1976 456.9 48.5709V46.6509C454.874 46.0642 452.86 45.7709 450.86 45.7709C448.967 45.7709 447.487 46.1576 446.42 46.9309C445.354 47.6776 444.82 48.6776 444.82 49.9309V50.0109C444.82 51.2642 445.314 52.2642 446.3 53.0109C447.314 53.7576 448.554 54.1309 450.02 54.1309ZM475.744 56.6509C472.758 56.6509 470.238 55.5976 468.184 53.4909C466.158 51.3842 465.144 48.8642 465.144 45.9309V45.8509C465.144 42.8909 466.158 40.3576 468.184 38.2509C470.238 36.1176 472.758 35.0509 475.744 35.0509C478.944 35.0509 481.704 36.2776 484.024 38.7309L481.984 40.8909C480.011 38.8109 477.918 37.7709 475.704 37.7709C473.624 37.7709 471.864 38.5442 470.424 40.0909C469.011 41.6376 468.304 43.5309 468.304 45.7709V45.8509C468.304 48.0909 469.024 49.9976 470.464 51.5709C471.931 53.1176 473.744 53.8909 475.904 53.8909C478.198 53.8909 480.304 52.8642 482.224 50.8109L484.184 52.6509C481.784 55.3176 478.971 56.6509 475.744 56.6509ZM496.196 56.5309C494.409 56.5309 492.983 56.0642 491.916 55.1309C490.876 54.1709 490.356 52.6909 490.356 50.6909V38.2109H487.476V35.4909H490.356V29.2509H493.436V35.4909H499.996V38.2109H493.436V50.2909C493.436 52.5842 494.596 53.7309 496.916 53.7309C497.929 53.7309 498.929 53.4909 499.916 53.0109V55.6509C498.796 56.2376 497.556 56.5309 496.196 56.5309ZM529.04 56.6109C521.52 56.6109 516.92 52.4109 516.92 44.1709V28.1709H523.08V44.0109C523.08 48.5709 525.36 50.9309 529.12 50.9309C532.88 50.9309 535.16 48.6509 535.16 44.2109V28.1709H541.32V43.9709C541.32 52.4509 536.56 56.6109 529.04 56.6109ZM557.554 56.5709C553.314 56.5709 549.034 55.0909 545.674 52.0909L549.314 47.7309C551.834 49.8109 554.474 51.1309 557.674 51.1309C560.194 51.1309 561.714 50.1309 561.714 48.4909V48.4109C561.714 46.8509 560.754 46.0509 556.074 44.8509C550.434 43.4109 546.794 41.8509 546.794 36.2909V36.2109C546.794 31.1309 550.874 27.7709 556.594 27.7709C560.674 27.7709 564.154 29.0509 566.994 31.3309L563.794 35.9709C561.314 34.2509 558.874 33.2109 556.514 33.2109C554.154 33.2109 552.914 34.2909 552.914 35.6509V35.7309C552.914 37.5709 554.114 38.1709 558.954 39.4109C564.634 40.8909 567.834 42.9309 567.834 47.8109V47.8909C567.834 53.4509 563.594 56.5709 557.554 56.5709Z" fill="#27336E"/>
<path d="M30.0089 105.411C28.0089 105.411 26.3356 104.718 24.9889 103.331C23.6556 101.944 22.9889 100.238 22.9889 98.2109V98.1709C22.9889 96.1576 23.6622 94.4509 25.0089 93.0509C26.3556 91.6376 28.0422 90.9309 30.0689 90.9309C31.2556 90.9309 32.2689 91.1176 33.1089 91.4909C33.9489 91.8642 34.7556 92.4176 35.5289 93.1509L34.4489 94.3109C33.1022 93.0309 31.6356 92.3909 30.0489 92.3909C28.5022 92.3909 27.2089 92.9442 26.1689 94.0509C25.1422 95.1576 24.6289 96.5176 24.6289 98.1309V98.1709C24.6289 99.7976 25.1489 101.171 26.1889 102.291C27.2289 103.398 28.5156 103.951 30.0489 103.951C30.9556 103.951 31.7556 103.784 32.4489 103.451C33.1422 103.118 33.8489 102.611 34.5689 101.931L35.6089 102.951C34.8089 103.764 33.9756 104.378 33.1089 104.791C32.2422 105.204 31.2089 105.411 30.0089 105.411ZM46.4992 103.831C45.4592 104.884 44.1726 105.411 42.6392 105.411C41.1059 105.411 39.8259 104.891 38.7992 103.851C37.7859 102.798 37.2792 101.531 37.2792 100.051V100.011C37.2792 98.5309 37.7926 97.2642 38.8192 96.2109C39.8592 95.1442 41.1459 94.6109 42.6792 94.6109C44.2126 94.6109 45.4926 95.1376 46.5192 96.1909C47.5459 97.2309 48.0592 98.4909 48.0592 99.9709V100.011C48.0592 101.491 47.5392 102.764 46.4992 103.831ZM42.6792 104.031C43.7859 104.031 44.6926 103.644 45.3992 102.871C46.1192 102.098 46.4792 101.158 46.4792 100.051V100.011C46.4792 98.8909 46.1059 97.9376 45.3592 97.1509C44.6259 96.3642 43.7192 95.9709 42.6392 95.9709C41.5459 95.9709 40.6392 96.3642 39.9192 97.1509C39.2126 97.9242 38.8592 98.8642 38.8592 99.9709V100.011C38.8592 101.131 39.2259 102.084 39.9592 102.871C40.6926 103.644 41.5992 104.031 42.6792 104.031ZM50.8489 105.171V94.8309H52.3889V96.5709C53.2556 95.2642 54.3689 94.6109 55.7289 94.6109C57.2756 94.6109 58.3822 95.2976 59.0489 96.6709C59.9422 95.2976 61.1556 94.6109 62.6889 94.6109C63.8756 94.6109 64.8089 94.9842 65.4889 95.7309C66.1822 96.4776 66.5289 97.4909 66.5289 98.7709V105.171H64.9889V99.1309C64.9889 98.1309 64.7489 97.3642 64.2689 96.8309C63.8022 96.2842 63.1489 96.0109 62.3089 96.0109C61.4956 96.0109 60.8156 96.2976 60.2689 96.8709C59.7222 97.4442 59.4489 98.2242 59.4489 99.2109V105.171H57.9289V99.0909C57.9289 98.1309 57.6889 97.3776 57.2089 96.8309C56.7422 96.2842 56.0956 96.0109 55.2689 96.0109C54.4422 96.0109 53.7556 96.3176 53.2089 96.9309C52.6622 97.5442 52.3889 98.3242 52.3889 99.2709V105.171H50.8489ZM69.8723 105.171V94.8309H71.4123V96.5709C72.279 95.2642 73.3923 94.6109 74.7523 94.6109C76.299 94.6109 77.4057 95.2976 78.0723 96.6709C78.9657 95.2976 80.179 94.6109 81.7123 94.6109C82.899 94.6109 83.8323 94.9842 84.5123 95.7309C85.2057 96.4776 85.5523 97.4909 85.5523 98.7709V105.171H84.0123V99.1309C84.0123 98.1309 83.7723 97.3642 83.2923 96.8309C82.8257 96.2842 82.1723 96.0109 81.3323 96.0109C80.519 96.0109 79.839 96.2976 79.2923 96.8709C78.7457 97.4442 78.4723 98.2242 78.4723 99.2109V105.171H76.9523V99.0909C76.9523 98.1309 76.7123 97.3776 76.2323 96.8309C75.7657 96.2842 75.119 96.0109 74.2923 96.0109C73.4657 96.0109 72.779 96.3176 72.2323 96.9309C71.6857 97.5442 71.4123 98.3242 71.4123 99.2709V105.171H69.8723ZM97.4758 103.831C96.4358 104.884 95.1491 105.411 93.6158 105.411C92.0824 105.411 90.8024 104.891 89.7758 103.851C88.7624 102.798 88.2558 101.531 88.2558 100.051V100.011C88.2558 98.5309 88.7691 97.2642 89.7958 96.2109C90.8358 95.1442 92.1224 94.6109 93.6558 94.6109C95.1891 94.6109 96.4691 95.1376 97.4958 96.1909C98.5224 97.2309 99.0358 98.4909 99.0358 99.9709V100.011C99.0358 101.491 98.5158 102.764 97.4758 103.831ZM93.6558 104.031C94.7624 104.031 95.6691 103.644 96.3758 102.871C97.0958 102.098 97.4558 101.158 97.4558 100.051V100.011C97.4558 98.8909 97.0824 97.9376 96.3358 97.1509C95.6024 96.3642 94.6958 95.9709 93.6158 95.9709C92.5224 95.9709 91.6158 96.3642 90.8958 97.1509C90.1891 97.9242 89.8358 98.8642 89.8358 99.9709V100.011C89.8358 101.131 90.2024 102.084 90.9358 102.871C91.6691 103.644 92.5758 104.031 93.6558 104.031ZM106.165 105.391C104.845 105.391 103.692 104.904 102.705 103.931C101.719 102.958 101.225 101.658 101.225 100.031V99.9909C101.225 98.3776 101.719 97.0776 102.705 96.0909C103.692 95.1042 104.845 94.6109 106.165 94.6109C107.792 94.6109 109.112 95.3442 110.125 96.8109V90.5709H111.665V105.171H110.125V103.091C109.085 104.624 107.765 105.391 106.165 105.391ZM106.445 104.011C107.445 104.011 108.319 103.638 109.065 102.891C109.812 102.131 110.185 101.171 110.185 100.011V99.9709C110.185 98.8242 109.812 97.8776 109.065 97.1309C108.319 96.3709 107.445 95.9909 106.445 95.9909C105.405 95.9909 104.539 96.3509 103.845 97.0709C103.152 97.7909 102.805 98.7576 102.805 99.9709V100.011C102.805 101.198 103.159 102.164 103.865 102.911C104.572 103.644 105.432 104.011 106.445 104.011ZM123.687 103.831C122.647 104.884 121.36 105.411 119.827 105.411C118.293 105.411 117.013 104.891 115.987 103.851C114.973 102.798 114.467 101.531 114.467 100.051V100.011C114.467 98.5309 114.98 97.2642 116.007 96.2109C117.047 95.1442 118.333 94.6109 119.867 94.6109C121.4 94.6109 122.68 95.1376 123.707 96.1909C124.733 97.2309 125.247 98.4909 125.247 99.9709V100.011C125.247 101.491 124.727 102.764 123.687 103.831ZM119.867 104.031C120.973 104.031 121.88 103.644 122.587 102.871C123.307 102.098 123.667 101.158 123.667 100.051V100.011C123.667 98.8909 123.293 97.9376 122.547 97.1509C121.813 96.3642 120.907 95.9709 119.827 95.9709C118.733 95.9709 117.827 96.3642 117.107 97.1509C116.4 97.9242 116.047 98.8642 116.047 99.9709V100.011C116.047 101.131 116.413 102.084 117.147 102.871C117.88 103.644 118.787 104.031 119.867 104.031ZM138.373 105.391C137.053 105.391 135.899 104.904 134.913 103.931C133.926 102.958 133.433 101.658 133.433 100.031V99.9909C133.433 98.3776 133.926 97.0776 134.913 96.0909C135.899 95.1042 137.053 94.6109 138.373 94.6109C139.999 94.6109 141.319 95.3442 142.333 96.8109V90.5709H143.873V105.171H142.333V103.091C141.293 104.624 139.973 105.391 138.373 105.391ZM138.653 104.011C139.653 104.011 140.526 103.638 141.273 102.891C142.019 102.131 142.393 101.171 142.393 100.011V99.9709C142.393 98.8242 142.019 97.8776 141.273 97.1309C140.526 96.3709 139.653 95.9909 138.653 95.9909C137.613 95.9909 136.746 96.3509 136.053 97.0709C135.359 97.7909 135.013 98.7576 135.013 99.9709V100.011C135.013 101.198 135.366 102.164 136.073 102.911C136.779 103.644 137.639 104.011 138.653 104.011ZM147.354 92.5709V90.8709H149.114V92.5709H147.354ZM147.454 105.171V94.8309H148.994V105.171H147.454ZM157.148 108.411C155.401 108.411 153.834 107.931 152.448 106.971L153.148 105.771C154.361 106.651 155.688 107.091 157.128 107.091C158.288 107.091 159.201 106.771 159.868 106.131C160.548 105.504 160.888 104.598 160.888 103.411V102.191C159.794 103.644 158.441 104.371 156.828 104.371C155.521 104.371 154.381 103.924 153.408 103.031C152.448 102.124 151.968 100.958 151.968 99.5309V99.4909C151.968 98.0376 152.454 96.8642 153.428 95.9709C154.401 95.0642 155.534 94.6109 156.828 94.6109C158.481 94.6109 159.828 95.3042 160.868 96.6909V94.8309H162.408V103.371C162.408 104.931 161.968 106.151 161.088 107.031C160.168 107.951 158.854 108.411 157.148 108.411ZM157.128 103.011C158.141 103.011 159.028 102.684 159.788 102.031C160.548 101.364 160.928 100.524 160.928 99.5109V99.4709C160.928 98.4442 160.548 97.6042 159.788 96.9509C159.041 96.2976 158.154 95.9709 157.128 95.9709C156.128 95.9709 155.281 96.2909 154.588 96.9309C153.894 97.5709 153.548 98.4109 153.548 99.4509V99.4909C153.548 100.504 153.894 101.344 154.588 102.011C155.294 102.678 156.141 103.011 157.128 103.011ZM165.849 105.171V94.8309H167.389V96.6309C168.202 95.2842 169.382 94.6109 170.929 94.6109C172.156 94.6109 173.122 94.9909 173.829 95.7509C174.536 96.4976 174.889 97.4976 174.889 98.7509V105.171H173.349V99.1309C173.349 98.1576 173.096 97.3976 172.589 96.8509C172.096 96.2909 171.396 96.0109 170.489 96.0109C169.596 96.0109 168.856 96.3109 168.269 96.9109C167.682 97.5109 167.389 98.2909 167.389 99.2509V105.171H165.849ZM178.213 92.5709V90.8709H179.973V92.5709H178.213ZM178.313 105.171V94.8309H179.853V105.171H178.313ZM186.847 105.371C186.1 105.371 185.34 105.238 184.567 104.971C183.807 104.691 183.14 104.318 182.567 103.851L183.347 102.751C184.52 103.631 185.714 104.071 186.927 104.071C187.554 104.071 188.067 103.924 188.467 103.631C188.867 103.324 189.067 102.924 189.067 102.431V102.391C189.067 101.924 188.847 101.564 188.407 101.311C187.98 101.058 187.34 100.811 186.487 100.571C185.967 100.424 185.554 100.291 185.247 100.171C184.94 100.051 184.594 99.8842 184.207 99.6709C183.82 99.4442 183.534 99.1642 183.347 98.8309C183.16 98.4976 183.067 98.1042 183.067 97.6509V97.6109C183.067 96.7309 183.394 96.0176 184.047 95.4709C184.714 94.9242 185.56 94.6509 186.587 94.6509C187.92 94.6509 189.16 95.0309 190.307 95.7909L189.607 96.9509C188.58 96.2842 187.56 95.9509 186.547 95.9509C185.947 95.9509 185.46 96.0909 185.087 96.3709C184.727 96.6509 184.547 97.0109 184.547 97.4509V97.4909C184.547 97.6776 184.6 97.8509 184.707 98.0109C184.814 98.1709 184.934 98.3042 185.067 98.4109C185.2 98.5176 185.407 98.6309 185.687 98.7509C185.98 98.8709 186.214 98.9576 186.387 99.0109C186.56 99.0642 186.834 99.1509 187.207 99.2709C187.594 99.3909 187.914 99.4976 188.167 99.5909C188.434 99.6842 188.727 99.8176 189.047 99.9909C189.38 100.151 189.64 100.331 189.827 100.531C190.027 100.718 190.194 100.958 190.327 101.251C190.46 101.544 190.527 101.871 190.527 102.231V102.271C190.527 103.231 190.18 103.991 189.487 104.551C188.794 105.098 187.914 105.371 186.847 105.371ZM196.613 105.371C195.866 105.371 195.106 105.238 194.333 104.971C193.573 104.691 192.906 104.318 192.333 103.851L193.113 102.751C194.286 103.631 195.479 104.071 196.693 104.071C197.319 104.071 197.833 103.924 198.233 103.631C198.633 103.324 198.833 102.924 198.833 102.431V102.391C198.833 101.924 198.613 101.564 198.173 101.311C197.746 101.058 197.106 100.811 196.253 100.571C195.733 100.424 195.319 100.291 195.013 100.171C194.706 100.051 194.359 99.8842 193.973 99.6709C193.586 99.4442 193.299 99.1642 193.113 98.8309C192.926 98.4976 192.833 98.1042 192.833 97.6509V97.6109C192.833 96.7309 193.159 96.0176 193.813 95.4709C194.479 94.9242 195.326 94.6509 196.353 94.6509C197.686 94.6509 198.926 95.0309 200.073 95.7909L199.373 96.9509C198.346 96.2842 197.326 95.9509 196.313 95.9509C195.713 95.9509 195.226 96.0909 194.853 96.3709C194.493 96.6509 194.313 97.0109 194.313 97.4509V97.4909C194.313 97.6776 194.366 97.8509 194.473 98.0109C194.579 98.1709 194.699 98.3042 194.833 98.4109C194.966 98.5176 195.173 98.6309 195.453 98.7509C195.746 98.8709 195.979 98.9576 196.153 99.0109C196.326 99.0642 196.599 99.1509 196.973 99.2709C197.359 99.3909 197.679 99.4976 197.933 99.5909C198.199 99.6842 198.493 99.8176 198.813 99.9909C199.146 100.151 199.406 100.331 199.593 100.531C199.793 100.718 199.959 100.958 200.093 101.251C200.226 101.544 200.293 101.871 200.293 102.231V102.271C200.293 103.231 199.946 103.991 199.253 104.551C198.559 105.098 197.679 105.371 196.613 105.371ZM203.194 92.5709V90.8709H204.954V92.5709H203.194ZM203.294 105.171V94.8309H204.834V105.171H203.294ZM208.408 105.171V94.8309H209.948V96.5709C210.814 95.2642 211.928 94.6109 213.288 94.6109C214.834 94.6109 215.941 95.2976 216.608 96.6709C217.501 95.2976 218.714 94.6109 220.248 94.6109C221.434 94.6109 222.368 94.9842 223.048 95.7309C223.741 96.4776 224.088 97.4909 224.088 98.7709V105.171H222.548V99.1309C222.548 98.1309 222.308 97.3642 221.828 96.8309C221.361 96.2842 220.708 96.0109 219.868 96.0109C219.054 96.0109 218.374 96.2976 217.828 96.8709C217.281 97.4442 217.008 98.2242 217.008 99.2109V105.171H215.488V99.0909C215.488 98.1309 215.248 97.3776 214.768 96.8309C214.301 96.2842 213.654 96.0109 212.828 96.0109C212.001 96.0109 211.314 96.3176 210.768 96.9309C210.221 97.5442 209.948 98.3242 209.948 99.2709V105.171H208.408ZM236.887 105.351C235.994 105.351 235.28 105.118 234.747 104.651C234.227 104.171 233.967 103.431 233.967 102.431V96.1909H232.527V94.8309H233.967V91.7109H235.507V94.8309H238.787V96.1909H235.507V102.231C235.507 103.378 236.087 103.951 237.247 103.951C237.754 103.951 238.254 103.831 238.747 103.591V104.911C238.187 105.204 237.567 105.351 236.887 105.351ZM245.313 105.391C244.086 105.391 243.12 105.018 242.413 104.271C241.706 103.511 241.353 102.504 241.353 101.251V94.8309H242.893V100.871C242.893 101.844 243.14 102.611 243.633 103.171C244.14 103.718 244.846 103.991 245.753 103.991C246.646 103.991 247.386 103.691 247.973 103.091C248.56 102.491 248.853 101.711 248.853 100.751V94.8309H250.373V105.171H248.853V103.371C248.013 104.718 246.833 105.391 245.313 105.391ZM253.837 105.171V94.8309H255.377V97.5309C255.777 96.6376 256.344 95.9242 257.077 95.3909C257.811 94.8576 258.651 94.6109 259.597 94.6509V96.3109H259.477C258.291 96.3109 257.311 96.7242 256.537 97.5509C255.764 98.3776 255.377 99.5442 255.377 101.051V105.171H253.837ZM261.943 108.371V94.8309H263.483V96.9109C264.523 95.3776 265.843 94.6109 267.443 94.6109C268.763 94.6109 269.916 95.0976 270.903 96.0709C271.889 97.0442 272.383 98.3442 272.383 99.9709V100.011C272.383 101.624 271.889 102.924 270.903 103.911C269.916 104.898 268.763 105.391 267.443 105.391C265.816 105.391 264.496 104.658 263.483 103.191V108.371H261.943ZM267.163 104.011C268.203 104.011 269.069 103.651 269.763 102.931C270.456 102.211 270.803 101.244 270.803 100.031V99.9909C270.803 98.8042 270.449 97.8442 269.743 97.1109C269.036 96.3642 268.176 95.9909 267.163 95.9909C266.163 95.9909 265.289 96.3709 264.543 97.1309C263.796 97.8776 263.423 98.8242 263.423 99.9709V100.011C263.423 101.171 263.796 102.131 264.543 102.891C265.289 103.638 266.163 104.011 267.163 104.011ZM275.264 92.5709V90.8709H277.024V92.5709H275.264ZM275.364 105.171V94.8309H276.904V105.171H275.364ZM283.898 105.371C283.151 105.371 282.391 105.238 281.618 104.971C280.858 104.691 280.191 104.318 279.618 103.851L280.398 102.751C281.571 103.631 282.764 104.071 283.978 104.071C284.604 104.071 285.118 103.924 285.518 103.631C285.918 103.324 286.118 102.924 286.118 102.431V102.391C286.118 101.924 285.898 101.564 285.458 101.311C285.031 101.058 284.391 100.811 283.538 100.571C283.018 100.424 282.604 100.291 282.298 100.171C281.991 100.051 281.644 99.8842 281.258 99.6709C280.871 99.4442 280.584 99.1642 280.398 98.8309C280.211 98.4976 280.118 98.1042 280.118 97.6509V97.6109C280.118 96.7309 280.444 96.0176 281.098 95.4709C281.764 94.9242 282.611 94.6509 283.638 94.6509C284.971 94.6509 286.211 95.0309 287.358 95.7909L286.658 96.9509C285.631 96.2842 284.611 95.9509 283.598 95.9509C282.998 95.9509 282.511 96.0909 282.138 96.3709C281.778 96.6509 281.598 97.0109 281.598 97.4509V97.4909C281.598 97.6776 281.651 97.8509 281.758 98.0109C281.864 98.1709 281.984 98.3042 282.118 98.4109C282.251 98.5176 282.458 98.6309 282.738 98.7509C283.031 98.8709 283.264 98.9576 283.438 99.0109C283.611 99.0642 283.884 99.1509 284.258 99.2709C284.644 99.3909 284.964 99.4976 285.218 99.5909C285.484 99.6842 285.778 99.8176 286.098 99.9909C286.431 100.151 286.691 100.331 286.878 100.531C287.078 100.718 287.244 100.958 287.378 101.251C287.511 101.544 287.578 101.871 287.578 102.231V102.271C287.578 103.231 287.231 103.991 286.538 104.551C285.844 105.098 284.964 105.371 283.898 105.371ZM299.895 105.251L295.415 94.8309H297.115L300.595 103.411L304.095 94.8309H305.755L301.255 105.251H299.895ZM308.488 100.631C308.594 101.684 308.988 102.524 309.668 103.151C310.361 103.764 311.181 104.071 312.128 104.071C313.368 104.071 314.454 103.584 315.388 102.611L316.348 103.471C315.188 104.764 313.768 105.411 312.088 105.411C310.634 105.411 309.408 104.911 308.408 103.911C307.421 102.898 306.928 101.598 306.928 100.011C306.928 98.5042 307.401 97.2309 308.348 96.1909C309.294 95.1376 310.474 94.6109 311.888 94.6109C313.368 94.6109 314.541 95.1309 315.408 96.1709C316.274 97.2109 316.708 98.5176 316.708 100.091C316.708 100.291 316.701 100.471 316.688 100.631H308.488ZM308.488 99.3909H315.148C315.054 98.3909 314.721 97.5642 314.148 96.9109C313.588 96.2442 312.821 95.9109 311.848 95.9109C310.968 95.9109 310.214 96.2376 309.588 96.8909C308.961 97.5442 308.594 98.3776 308.488 99.3909ZM319.544 105.171V90.5709H321.084V105.171H319.544ZM331.234 105.171V96.1909H329.814V94.8509H331.234V93.9509C331.234 92.7776 331.534 91.8909 332.134 91.2909C332.667 90.7576 333.407 90.4909 334.354 90.4909C335.007 90.4909 335.574 90.5776 336.054 90.7509V92.0909C335.44 91.9176 334.94 91.8309 334.554 91.8309C333.354 91.8309 332.754 92.5642 332.754 94.0309V94.8709H336.034V96.1909H332.774V105.171H331.234ZM337.997 105.171V94.8309H339.537V97.5309C339.937 96.6376 340.504 95.9242 341.237 95.3909C341.971 94.8576 342.811 94.6109 343.757 94.6509V96.3109H343.637C342.451 96.3109 341.471 96.7242 340.697 97.5509C339.924 98.3776 339.537 99.5442 339.537 101.051V105.171H337.997ZM346.143 92.5709V90.8709H347.903V92.5709H346.143ZM346.243 105.171V94.8309H347.783V105.171H346.243ZM351.357 105.171V94.8309H352.897V96.6309C353.71 95.2842 354.89 94.6109 356.437 94.6109C357.663 94.6109 358.63 94.9909 359.337 95.7509C360.043 96.4976 360.397 97.4976 360.397 98.7509V105.171H358.857V99.1309C358.857 98.1576 358.603 97.3976 358.097 96.8509C357.603 96.2909 356.903 96.0109 355.997 96.0109C355.103 96.0109 354.363 96.3109 353.777 96.9109C353.19 97.5109 352.897 98.2909 352.897 99.2509V105.171H351.357ZM368.261 108.411C366.514 108.411 364.948 107.931 363.561 106.971L364.261 105.771C365.474 106.651 366.801 107.091 368.241 107.091C369.401 107.091 370.314 106.771 370.981 106.131C371.661 105.504 372.001 104.598 372.001 103.411V102.191C370.908 103.644 369.554 104.371 367.941 104.371C366.634 104.371 365.494 103.924 364.521 103.031C363.561 102.124 363.081 100.958 363.081 99.5309V99.4909C363.081 98.0376 363.568 96.8642 364.541 95.9709C365.514 95.0642 366.648 94.6109 367.941 94.6109C369.594 94.6109 370.941 95.3042 371.981 96.6909V94.8309H373.521V103.371C373.521 104.931 373.081 106.151 372.201 107.031C371.281 107.951 369.968 108.411 368.261 108.411ZM368.241 103.011C369.254 103.011 370.141 102.684 370.901 102.031C371.661 101.364 372.041 100.524 372.041 99.5109V99.4709C372.041 98.4442 371.661 97.6042 370.901 96.9509C370.154 96.2976 369.268 95.9709 368.241 95.9709C367.241 95.9709 366.394 96.2909 365.701 96.9309C365.008 97.5709 364.661 98.4109 364.661 99.4509V99.4909C364.661 100.504 365.008 101.344 365.701 102.011C366.408 102.678 367.254 103.011 368.241 103.011ZM377.002 92.5709V90.8709H378.762V92.5709H377.002ZM377.102 105.171V94.8309H378.642V105.171H377.102ZM382.356 105.171V90.5709H383.896V105.171H382.356ZM387.61 105.171V90.5709H389.15V105.171H387.61ZM395.804 105.391C394.764 105.391 393.857 105.104 393.084 104.531C392.324 103.958 391.944 103.171 391.944 102.171V102.131C391.944 101.051 392.344 100.218 393.144 99.6309C393.944 99.0442 395.017 98.7509 396.364 98.7509C397.431 98.7509 398.484 98.8976 399.524 99.1909V98.8709C399.524 97.9642 399.257 97.2709 398.724 96.7909C398.191 96.3109 397.437 96.0709 396.464 96.0709C395.451 96.0709 394.404 96.3176 393.324 96.8109L392.864 95.5509C394.144 94.9642 395.397 94.6709 396.624 94.6709C398.091 94.6709 399.204 95.0509 399.964 95.8109C400.684 96.5309 401.044 97.5442 401.044 98.8509V105.171H399.524V103.631C398.604 104.804 397.364 105.391 395.804 105.391ZM396.104 104.151C397.064 104.151 397.877 103.891 398.544 103.371C399.211 102.851 399.544 102.184 399.544 101.371V100.411C398.531 100.118 397.524 99.9709 396.524 99.9709C395.577 99.9709 394.837 100.164 394.304 100.551C393.771 100.924 393.504 101.424 393.504 102.051V102.091C393.504 102.718 393.751 103.218 394.244 103.591C394.751 103.964 395.371 104.151 396.104 104.151ZM404.126 105.171V103.071H405.966V105.171H404.126ZM420.264 105.371C418.118 105.371 416.211 104.624 414.544 103.131L415.524 101.971C416.271 102.651 417.018 103.151 417.764 103.471C418.524 103.791 419.378 103.951 420.324 103.951C421.258 103.951 422.011 103.731 422.584 103.291C423.158 102.838 423.444 102.264 423.444 101.571V101.531C423.444 100.851 423.191 100.311 422.684 99.9109C422.178 99.5109 421.218 99.1642 419.804 98.8709C418.151 98.5109 416.951 98.0309 416.204 97.4309C415.471 96.8176 415.104 95.9509 415.104 94.8309V94.7909C415.104 93.6842 415.538 92.7709 416.404 92.0509C417.271 91.3309 418.371 90.9709 419.704 90.9709C421.558 90.9709 423.198 91.5442 424.624 92.6909L423.704 93.9109C422.464 92.8976 421.118 92.3909 419.664 92.3909C418.771 92.3909 418.051 92.6109 417.504 93.0509C416.958 93.4776 416.684 94.0109 416.684 94.6509V94.6909C416.684 95.3842 416.944 95.9309 417.464 96.3309C417.998 96.7309 419.004 97.0909 420.484 97.4109C422.071 97.7576 423.224 98.2442 423.944 98.8709C424.678 99.4842 425.044 100.318 425.044 101.371V101.411C425.044 102.598 424.598 103.558 423.704 104.291C422.811 105.011 421.664 105.371 420.264 105.371ZM431.797 105.391C430.571 105.391 429.604 105.018 428.897 104.271C428.191 103.511 427.837 102.504 427.837 101.251V94.8309H429.377V100.871C429.377 101.844 429.624 102.611 430.117 103.171C430.624 103.718 431.331 103.991 432.237 103.991C433.131 103.991 433.871 103.691 434.457 103.091C435.044 102.491 435.337 101.711 435.337 100.751V94.8309H436.857V105.171H435.337V103.371C434.497 104.718 433.317 105.391 431.797 105.391ZM443.742 105.371C442.995 105.371 442.235 105.238 441.462 104.971C440.702 104.691 440.035 104.318 439.462 103.851L440.242 102.751C441.415 103.631 442.608 104.071 443.822 104.071C444.448 104.071 444.962 103.924 445.362 103.631C445.762 103.324 445.962 102.924 445.962 102.431V102.391C445.962 101.924 445.742 101.564 445.302 101.311C444.875 101.058 444.235 100.811 443.382 100.571C442.862 100.424 442.448 100.291 442.142 100.171C441.835 100.051 441.488 99.8842 441.102 99.6709C440.715 99.4442 440.428 99.1642 440.242 98.8309C440.055 98.4976 439.962 98.1042 439.962 97.6509V97.6109C439.962 96.7309 440.288 96.0176 440.942 95.4709C441.608 94.9242 442.455 94.6509 443.482 94.6509C444.815 94.6509 446.055 95.0309 447.202 95.7909L446.502 96.9509C445.475 96.2842 444.455 95.9509 443.442 95.9509C442.842 95.9509 442.355 96.0909 441.982 96.3709C441.622 96.6509 441.442 97.0109 441.442 97.4509V97.4909C441.442 97.6776 441.495 97.8509 441.602 98.0109C441.708 98.1709 441.828 98.3042 441.962 98.4109C442.095 98.5176 442.302 98.6309 442.582 98.7509C442.875 98.8709 443.108 98.9576 443.282 99.0109C443.455 99.0642 443.728 99.1509 444.102 99.2709C444.488 99.3909 444.808 99.4976 445.062 99.5909C445.328 99.6842 445.622 99.8176 445.942 99.9909C446.275 100.151 446.535 100.331 446.722 100.531C446.922 100.718 447.088 100.958 447.222 101.251C447.355 101.544 447.422 101.871 447.422 102.231V102.271C447.422 103.231 447.075 103.991 446.382 104.551C445.688 105.098 444.808 105.371 443.742 105.371ZM450.283 108.371V94.8309H451.823V96.9109C452.863 95.3776 454.183 94.6109 455.783 94.6109C457.103 94.6109 458.256 95.0976 459.243 96.0709C460.229 97.0442 460.723 98.3442 460.723 99.9709V100.011C460.723 101.624 460.229 102.924 459.243 103.911C458.256 104.898 457.103 105.391 455.783 105.391C454.156 105.391 452.836 104.658 451.823 103.191V108.371H450.283ZM455.503 104.011C456.543 104.011 457.409 103.651 458.103 102.931C458.796 102.211 459.143 101.244 459.143 100.031V99.9909C459.143 98.8042 458.789 97.8442 458.083 97.1109C457.376 96.3642 456.516 95.9909 455.503 95.9909C454.503 95.9909 453.629 96.3709 452.883 97.1309C452.136 97.8776 451.763 98.8242 451.763 99.9709V100.011C451.763 101.171 452.136 102.131 452.883 102.891C453.629 103.638 454.503 104.011 455.503 104.011ZM464.484 100.631C464.59 101.684 464.984 102.524 465.664 103.151C466.357 103.764 467.177 104.071 468.124 104.071C469.364 104.071 470.45 103.584 471.384 102.611L472.344 103.471C471.184 104.764 469.764 105.411 468.084 105.411C466.63 105.411 465.404 104.911 464.404 103.911C463.417 102.898 462.924 101.598 462.924 100.011C462.924 98.5042 463.397 97.2309 464.344 96.1909C465.29 95.1376 466.47 94.6109 467.884 94.6109C469.364 94.6109 470.537 95.1309 471.404 96.1709C472.27 97.2109 472.704 98.5176 472.704 100.091C472.704 100.291 472.697 100.471 472.684 100.631H464.484ZM464.484 99.3909H471.144C471.05 98.3909 470.717 97.5642 470.144 96.9109C469.584 96.2442 468.817 95.9109 467.844 95.9109C466.964 95.9109 466.21 96.2376 465.584 96.8909C464.957 97.5442 464.59 98.3776 464.484 99.3909ZM475.4 105.171V94.8309H476.94V96.6309C477.753 95.2842 478.933 94.6109 480.48 94.6109C481.706 94.6109 482.673 94.9909 483.38 95.7509C484.086 96.4976 484.44 97.4976 484.44 98.7509V105.171H482.9V99.1309C482.9 98.1576 482.646 97.3976 482.14 96.8509C481.646 96.2909 480.946 96.0109 480.04 96.0109C479.146 96.0109 478.406 96.3109 477.82 96.9109C477.233 97.5109 476.94 98.2909 476.94 99.2509V105.171H475.4ZM492.064 105.391C490.744 105.391 489.591 104.904 488.604 103.931C487.617 102.958 487.124 101.658 487.124 100.031V99.9909C487.124 98.3776 487.617 97.0776 488.604 96.0909C489.591 95.1042 490.744 94.6109 492.064 94.6109C493.691 94.6109 495.011 95.3442 496.024 96.8109V90.5709H497.564V105.171H496.024V103.091C494.984 104.624 493.664 105.391 492.064 105.391ZM492.344 104.011C493.344 104.011 494.217 103.638 494.964 102.891C495.711 102.131 496.084 101.171 496.084 100.011V99.9709C496.084 98.8242 495.711 97.8776 494.964 97.1309C494.217 96.3709 493.344 95.9909 492.344 95.9909C491.304 95.9909 490.437 96.3509 489.744 97.0709C489.051 97.7909 488.704 98.7576 488.704 99.9709V100.011C488.704 101.198 489.057 102.164 489.764 102.911C490.471 103.644 491.331 104.011 492.344 104.011ZM501.045 92.5709V90.8709H502.805V92.5709H501.045ZM501.145 105.171V94.8309H502.685V105.171H501.145ZM509.679 105.371C508.932 105.371 508.172 105.238 507.399 104.971C506.639 104.691 505.972 104.318 505.399 103.851L506.179 102.751C507.352 103.631 508.546 104.071 509.759 104.071C510.386 104.071 510.899 103.924 511.299 103.631C511.699 103.324 511.899 102.924 511.899 102.431V102.391C511.899 101.924 511.679 101.564 511.239 101.311C510.812 101.058 510.172 100.811 509.319 100.571C508.799 100.424 508.386 100.291 508.079 100.171C507.772 100.051 507.426 99.8842 507.039 99.6709C506.652 99.4442 506.366 99.1642 506.179 98.8309C505.992 98.4976 505.899 98.1042 505.899 97.6509V97.6109C505.899 96.7309 506.226 96.0176 506.879 95.4709C507.546 94.9242 508.392 94.6509 509.419 94.6509C510.752 94.6509 511.992 95.0309 513.139 95.7909L512.439 96.9509C511.412 96.2842 510.392 95.9509 509.379 95.9509C508.779 95.9509 508.292 96.0909 507.919 96.3709C507.559 96.6509 507.379 97.0109 507.379 97.4509V97.4909C507.379 97.6776 507.432 97.8509 507.539 98.0109C507.646 98.1709 507.766 98.3042 507.899 98.4109C508.032 98.5176 508.239 98.6309 508.519 98.7509C508.812 98.8709 509.046 98.9576 509.219 99.0109C509.392 99.0642 509.666 99.1509 510.039 99.2709C510.426 99.3909 510.746 99.4976 510.999 99.5909C511.266 99.6842 511.559 99.8176 511.879 99.9909C512.212 100.151 512.472 100.331 512.659 100.531C512.859 100.718 513.026 100.958 513.159 101.251C513.292 101.544 513.359 101.871 513.359 102.231V102.271C513.359 103.231 513.012 103.991 512.319 104.551C511.626 105.098 510.746 105.371 509.679 105.371ZM519.445 105.371C518.698 105.371 517.938 105.238 517.165 104.971C516.405 104.691 515.738 104.318 515.165 103.851L515.945 102.751C517.118 103.631 518.311 104.071 519.525 104.071C520.151 104.071 520.665 103.924 521.065 103.631C521.465 103.324 521.665 102.924 521.665 102.431V102.391C521.665 101.924 521.445 101.564 521.005 101.311C520.578 101.058 519.938 100.811 519.085 100.571C518.565 100.424 518.151 100.291 517.845 100.171C517.538 100.051 517.191 99.8842 516.805 99.6709C516.418 99.4442 516.131 99.1642 515.945 98.8309C515.758 98.4976 515.665 98.1042 515.665 97.6509V97.6109C515.665 96.7309 515.991 96.0176 516.645 95.4709C517.311 94.9242 518.158 94.6509 519.185 94.6509C520.518 94.6509 521.758 95.0309 522.905 95.7909L522.205 96.9509C521.178 96.2842 520.158 95.9509 519.145 95.9509C518.545 95.9509 518.058 96.0909 517.685 96.3709C517.325 96.6509 517.145 97.0109 517.145 97.4509V97.4909C517.145 97.6776 517.198 97.8509 517.305 98.0109C517.411 98.1709 517.531 98.3042 517.665 98.4109C517.798 98.5176 518.005 98.6309 518.285 98.7509C518.578 98.8709 518.811 98.9576 518.985 99.0109C519.158 99.0642 519.431 99.1509 519.805 99.2709C520.191 99.3909 520.511 99.4976 520.765 99.5909C521.031 99.6842 521.325 99.8176 521.645 99.9909C521.978 100.151 522.238 100.331 522.425 100.531C522.625 100.718 522.791 100.958 522.925 101.251C523.058 101.544 523.125 101.871 523.125 102.231V102.271C523.125 103.231 522.778 103.991 522.085 104.551C521.391 105.098 520.511 105.371 519.445 105.371ZM526.906 100.631C527.012 101.684 527.406 102.524 528.086 103.151C528.779 103.764 529.599 104.071 530.546 104.071C531.786 104.071 532.872 103.584 533.806 102.611L534.766 103.471C533.606 104.764 532.186 105.411 530.506 105.411C529.052 105.411 527.826 104.911 526.826 103.911C525.839 102.898 525.346 101.598 525.346 100.011C525.346 98.5042 525.819 97.2309 526.766 96.1909C527.712 95.1376 528.892 94.6109 530.306 94.6109C531.786 94.6109 532.959 95.1309 533.826 96.1709C534.692 97.2109 535.126 98.5176 535.126 100.091C535.126 100.291 535.119 100.471 535.106 100.631H526.906ZM526.906 99.3909H533.566C533.472 98.3909 533.139 97.5642 532.566 96.9109C532.006 96.2442 531.239 95.9109 530.266 95.9109C529.386 95.9109 528.632 96.2376 528.006 96.8909C527.379 97.5442 527.012 98.3776 526.906 99.3909ZM547.238 105.371C546.491 105.371 545.731 105.238 544.958 104.971C544.198 104.691 543.531 104.318 542.958 103.851L543.738 102.751C544.911 103.631 546.104 104.071 547.318 104.071C547.944 104.071 548.458 103.924 548.858 103.631C549.258 103.324 549.458 102.924 549.458 102.431V102.391C549.458 101.924 549.238 101.564 548.798 101.311C548.371 101.058 547.731 100.811 546.878 100.571C546.358 100.424 545.944 100.291 545.638 100.171C545.331 100.051 544.984 99.8842 544.598 99.6709C544.211 99.4442 543.924 99.1642 543.738 98.8309C543.551 98.4976 543.458 98.1042 543.458 97.6509V97.6109C543.458 96.7309 543.784 96.0176 544.438 95.4709C545.104 94.9242 545.951 94.6509 546.978 94.6509C548.311 94.6509 549.551 95.0309 550.698 95.7909L549.998 96.9509C548.971 96.2842 547.951 95.9509 546.938 95.9509C546.338 95.9509 545.851 96.0909 545.478 96.3709C545.118 96.6509 544.938 97.0109 544.938 97.4509V97.4909C544.938 97.6776 544.991 97.8509 545.098 98.0109C545.204 98.1709 545.324 98.3042 545.458 98.4109C545.591 98.5176 545.798 98.6309 546.078 98.7509C546.371 98.8709 546.604 98.9576 546.778 99.0109C546.951 99.0642 547.224 99.1509 547.598 99.2709C547.984 99.3909 548.304 99.4976 548.558 99.5909C548.824 99.6842 549.118 99.8176 549.438 99.9909C549.771 100.151 550.031 100.331 550.218 100.531C550.418 100.718 550.584 100.958 550.718 101.251C550.851 101.544 550.918 101.871 550.918 102.231V102.271C550.918 103.231 550.571 103.991 549.878 104.551C549.184 105.098 548.304 105.371 547.238 105.371ZM554.699 100.631C554.805 101.684 555.199 102.524 555.879 103.151C556.572 103.764 557.392 104.071 558.339 104.071C559.579 104.071 560.665 103.584 561.599 102.611L562.559 103.471C561.399 104.764 559.979 105.411 558.299 105.411C556.845 105.411 555.619 104.911 554.619 103.911C553.632 102.898 553.139 101.598 553.139 100.011C553.139 98.5042 553.612 97.2309 554.559 96.1909C555.505 95.1376 556.685 94.6109 558.099 94.6109C559.579 94.6109 560.752 95.1309 561.619 96.1709C562.485 97.2109 562.919 98.5176 562.919 100.091C562.919 100.291 562.912 100.471 562.899 100.631H554.699ZM554.699 99.3909H561.359C561.265 98.3909 560.932 97.5642 560.359 96.9109C559.799 96.2442 559.032 95.9109 558.059 95.9109C557.179 95.9109 556.425 96.2376 555.799 96.8909C555.172 97.5442 554.805 98.3776 554.699 99.3909ZM565.615 105.171V94.8309H567.155V96.5709C568.021 95.2642 569.135 94.6109 570.495 94.6109C572.041 94.6109 573.148 95.2976 573.815 96.6709C574.708 95.2976 575.921 94.6109 577.455 94.6109C578.641 94.6109 579.575 94.9842 580.255 95.7309C580.948 96.4776 581.295 97.4909 581.295 98.7709V105.171H579.755V99.1309C579.755 98.1309 579.515 97.3642 579.035 96.8309C578.568 96.2842 577.915 96.0109 577.075 96.0109C576.261 96.0109 575.581 96.2976 575.035 96.8709C574.488 97.4442 574.215 98.2242 574.215 99.2109V105.171H572.695V99.0909C572.695 98.1309 572.455 97.3776 571.975 96.8309C571.508 96.2842 570.861 96.0109 570.035 96.0109C569.208 96.0109 568.521 96.3176 567.975 96.9309C567.428 97.5442 567.155 98.3242 567.155 99.2709V105.171H565.615ZM584.638 108.371V94.8309H586.178V96.9109C587.218 95.3776 588.538 94.6109 590.138 94.6109C591.458 94.6109 592.611 95.0976 593.598 96.0709C594.585 97.0442 595.078 98.3442 595.078 99.9709V100.011C595.078 101.624 594.585 102.924 593.598 103.911C592.611 104.898 591.458 105.391 590.138 105.391C588.511 105.391 587.191 104.658 586.178 103.191V108.371H584.638ZM589.858 104.011C590.898 104.011 591.765 103.651 592.458 102.931C593.151 102.211 593.498 101.244 593.498 100.031V99.9909C593.498 98.8042 593.145 97.8442 592.438 97.1109C591.731 96.3642 590.871 95.9909 589.858 95.9909C588.858 95.9909 587.985 96.3709 587.238 97.1309C586.491 97.8776 586.118 98.8242 586.118 99.9709V100.011C586.118 101.171 586.491 102.131 587.238 102.891C587.985 103.638 588.858 104.011 589.858 104.011ZM598.839 100.631C598.946 101.684 599.339 102.524 600.019 103.151C600.713 103.764 601.533 104.071 602.479 104.071C603.719 104.071 604.806 103.584 605.739 102.611L606.699 103.471C605.539 104.764 604.119 105.411 602.439 105.411C600.986 105.411 599.759 104.911 598.759 103.911C597.773 102.898 597.279 101.598 597.279 100.011C597.279 98.5042 597.753 97.2309 598.699 96.1909C599.646 95.1376 600.826 94.6109 602.239 94.6109C603.719 94.6109 604.893 95.1309 605.759 96.1709C606.626 97.2109 607.059 98.5176 607.059 100.091C607.059 100.291 607.053 100.471 607.039 100.631H598.839ZM598.839 99.3909H605.499C605.406 98.3909 605.073 97.5642 604.499 96.9109C603.939 96.2442 603.173 95.9109 602.199 95.9109C601.319 95.9109 600.566 96.2376 599.939 96.8909C599.313 97.5442 598.946 98.3776 598.839 99.3909ZM609.755 105.171V94.8309H611.295V97.5309C611.695 96.6376 612.262 95.9242 612.995 95.3909C613.728 94.8576 614.568 94.6109 615.515 94.6509V96.3109H615.395C614.208 96.3109 613.228 96.7242 612.455 97.5509C611.682 98.3776 611.295 99.5442 611.295 101.051V105.171H609.755ZM623.857 105.171V94.8309H625.397V96.5709C626.263 95.2642 627.377 94.6109 628.737 94.6109C630.283 94.6109 631.39 95.2976 632.057 96.6709C632.95 95.2976 634.163 94.6109 635.697 94.6109C636.883 94.6109 637.817 94.9842 638.497 95.7309C639.19 96.4776 639.537 97.4909 639.537 98.7709V105.171H637.997V99.1309C637.997 98.1309 637.757 97.3642 637.277 96.8309C636.81 96.2842 636.157 96.0109 635.317 96.0109C634.503 96.0109 633.823 96.2976 633.277 96.8709C632.73 97.4442 632.457 98.2242 632.457 99.2109V105.171H630.937V99.0909C630.937 98.1309 630.697 97.3776 630.217 96.8309C629.75 96.2842 629.103 96.0109 628.277 96.0109C627.45 96.0109 626.763 96.3176 626.217 96.9309C625.67 97.5442 625.397 98.3242 625.397 99.2709V105.171H623.857ZM651.46 103.831C650.42 104.884 649.133 105.411 647.6 105.411C646.067 105.411 644.787 104.891 643.76 103.851C642.747 102.798 642.24 101.531 642.24 100.051V100.011C642.24 98.5309 642.753 97.2642 643.78 96.2109C644.82 95.1442 646.107 94.6109 647.64 94.6109C649.173 94.6109 650.453 95.1376 651.48 96.1909C652.507 97.2309 653.02 98.4909 653.02 99.9709V100.011C653.02 101.491 652.5 102.764 651.46 103.831ZM647.64 104.031C648.747 104.031 649.653 103.644 650.36 102.871C651.08 102.098 651.44 101.158 651.44 100.051V100.011C651.44 98.8909 651.067 97.9376 650.32 97.1509C649.587 96.3642 648.68 95.9709 647.6 95.9709C646.507 95.9709 645.6 96.3642 644.88 97.1509C644.173 97.9242 643.82 98.8642 643.82 99.9709V100.011C643.82 101.131 644.187 102.084 644.92 102.871C645.653 103.644 646.56 104.031 647.64 104.031ZM655.95 105.171V90.5709H657.49V105.171H655.95ZM661.984 100.631C662.09 101.684 662.484 102.524 663.164 103.151C663.857 103.764 664.677 104.071 665.624 104.071C666.864 104.071 667.95 103.584 668.884 102.611L669.844 103.471C668.684 104.764 667.264 105.411 665.584 105.411C664.13 105.411 662.904 104.911 661.904 103.911C660.917 102.898 660.424 101.598 660.424 100.011C660.424 98.5042 660.897 97.2309 661.844 96.1909C662.79 95.1376 663.97 94.6109 665.384 94.6109C666.864 94.6109 668.037 95.1309 668.904 96.1709C669.77 97.2109 670.204 98.5176 670.204 100.091C670.204 100.291 670.197 100.471 670.184 100.631H661.984ZM661.984 99.3909H668.644C668.55 98.3909 668.217 97.5642 667.644 96.9109C667.084 96.2442 666.317 95.9109 665.344 95.9109C664.464 95.9109 663.71 96.2376 663.084 96.8909C662.457 97.5442 662.09 98.3776 661.984 99.3909ZM676.32 105.371C675.573 105.371 674.813 105.238 674.04 104.971C673.28 104.691 672.613 104.318 672.04 103.851L672.82 102.751C673.993 103.631 675.186 104.071 676.4 104.071C677.026 104.071 677.54 103.924 677.94 103.631C678.34 103.324 678.54 102.924 678.54 102.431V102.391C678.54 101.924 678.32 101.564 677.88 101.311C677.453 101.058 676.813 100.811 675.96 100.571C675.44 100.424 675.026 100.291 674.72 100.171C674.413 100.051 674.066 99.8842 673.68 99.6709C673.293 99.4442 673.006 99.1642 672.82 98.8309C672.633 98.4976 672.54 98.1042 672.54 97.6509V97.6109C672.54 96.7309 672.866 96.0176 673.52 95.4709C674.186 94.9242 675.033 94.6509 676.06 94.6509C677.393 94.6509 678.633 95.0309 679.78 95.7909L679.08 96.9509C678.053 96.2842 677.033 95.9509 676.02 95.9509C675.42 95.9509 674.933 96.0909 674.56 96.3709C674.2 96.6509 674.02 97.0109 674.02 97.4509V97.4909C674.02 97.6776 674.073 97.8509 674.18 98.0109C674.286 98.1709 674.406 98.3042 674.54 98.4109C674.673 98.5176 674.88 98.6309 675.16 98.7509C675.453 98.8709 675.686 98.9576 675.86 99.0109C676.033 99.0642 676.306 99.1509 676.68 99.2709C677.066 99.3909 677.386 99.4976 677.64 99.5909C677.906 99.6842 678.2 99.8176 678.52 99.9909C678.853 100.151 679.113 100.331 679.3 100.531C679.5 100.718 679.666 100.958 679.8 101.251C679.933 101.544 680 101.871 680 102.231V102.271C680 103.231 679.653 103.991 678.96 104.551C678.266 105.098 677.386 105.371 676.32 105.371ZM686.125 105.351C685.232 105.351 684.519 105.118 683.985 104.651C683.465 104.171 683.205 103.431 683.205 102.431V96.1909H681.765V94.8309H683.205V91.7109H684.745V94.8309H688.025V96.1909H684.745V102.231C684.745 103.378 685.325 103.951 686.485 103.951C686.992 103.951 687.492 103.831 687.985 103.591V104.911C687.425 105.204 686.805 105.351 686.125 105.351ZM690.791 92.5709V90.8709H692.551V92.5709H690.791ZM690.891 105.171V94.8309H692.431V105.171H690.891ZM696.925 100.631C697.032 101.684 697.425 102.524 698.105 103.151C698.798 103.764 699.618 104.071 700.565 104.071C701.805 104.071 702.892 103.584 703.825 102.611L704.785 103.471C703.625 104.764 702.205 105.411 700.525 105.411C699.072 105.411 697.845 104.911 696.845 103.911C695.858 102.898 695.365 101.598 695.365 100.011C695.365 98.5042 695.838 97.2309 696.785 96.1909C697.732 95.1376 698.912 94.6109 700.325 94.6109C701.805 94.6109 702.978 95.1309 703.845 96.1709C704.712 97.2109 705.145 98.5176 705.145 100.091C705.145 100.291 705.138 100.471 705.125 100.631H696.925ZM696.925 99.3909H703.585C703.492 98.3909 703.158 97.5642 702.585 96.9109C702.025 96.2442 701.258 95.9109 700.285 95.9109C699.405 95.9109 698.652 96.2376 698.025 96.8909C697.398 97.5442 697.032 98.3776 696.925 99.3909ZM717.637 105.391C716.411 105.391 715.444 105.018 714.737 104.271C714.031 103.511 713.677 102.504 713.677 101.251V94.8309H715.217V100.871C715.217 101.844 715.464 102.611 715.957 103.171C716.464 103.718 717.171 103.991 718.077 103.991C718.971 103.991 719.711 103.691 720.297 103.091C720.884 102.491 721.177 101.711 721.177 100.751V94.8309H722.697V105.171H721.177V103.371C720.337 104.718 719.157 105.391 717.637 105.391ZM726.301 105.171V90.5709H727.841V105.171H726.301ZM734.875 105.351C733.982 105.351 733.269 105.118 732.735 104.651C732.215 104.171 731.955 103.431 731.955 102.431V96.1909H730.515V94.8309H731.955V91.7109H733.495V94.8309H736.775V96.1909H733.495V102.231C733.495 103.378 734.075 103.951 735.235 103.951C735.742 103.951 736.242 103.831 736.735 103.591V104.911C736.175 105.204 735.555 105.351 734.875 105.351ZM739.501 105.171V94.8309H741.041V97.5309C741.441 96.6376 742.008 95.9242 742.741 95.3909C743.475 94.8576 744.315 94.6109 745.261 94.6509V96.3109H745.141C743.955 96.3109 742.975 96.7242 742.201 97.5509C741.428 98.3776 741.041 99.5442 741.041 101.051V105.171H739.501ZM747.647 92.5709V90.8709H749.407V92.5709H747.647ZM747.747 105.171V94.8309H749.287V105.171H747.747ZM757.521 105.411C756.027 105.411 754.767 104.884 753.741 103.831C752.727 102.778 752.221 101.518 752.221 100.051V100.011C752.221 98.5309 752.727 97.2642 753.741 96.2109C754.767 95.1442 756.027 94.6109 757.521 94.6109C759.121 94.6109 760.501 95.2242 761.661 96.4509L760.641 97.5309C759.654 96.4909 758.607 95.9709 757.501 95.9709C756.461 95.9709 755.581 96.3576 754.861 97.1309C754.154 97.9042 753.801 98.8509 753.801 99.9709V100.011C753.801 101.131 754.161 102.084 754.881 102.871C755.614 103.644 756.521 104.031 757.601 104.031C758.747 104.031 759.801 103.518 760.761 102.491L761.741 103.411C760.541 104.744 759.134 105.411 757.521 105.411ZM764.326 92.5709V90.8709H766.086V92.5709H764.326ZM764.426 105.171V94.8309H765.966V105.171H764.426ZM770.46 100.631C770.567 101.684 770.96 102.524 771.64 103.151C772.334 103.764 773.154 104.071 774.1 104.071C775.34 104.071 776.427 103.584 777.36 102.611L778.32 103.471C777.16 104.764 775.74 105.411 774.06 105.411C772.607 105.411 771.38 104.911 770.38 103.911C769.394 102.898 768.9 101.598 768.9 100.011C768.9 98.5042 769.374 97.2309 770.32 96.1909C771.267 95.1376 772.447 94.6109 773.86 94.6109C775.34 94.6109 776.514 95.1309 777.38 96.1709C778.247 97.2109 778.68 98.5176 778.68 100.091C778.68 100.291 778.674 100.471 778.66 100.631H770.46ZM770.46 99.3909H777.12C777.027 98.3909 776.694 97.5642 776.12 96.9109C775.56 96.2442 774.794 95.9109 773.82 95.9109C772.94 95.9109 772.187 96.2376 771.56 96.8909C770.934 97.5442 770.567 98.3776 770.46 99.3909ZM784.796 105.371C784.05 105.371 783.29 105.238 782.516 104.971C781.756 104.691 781.09 104.318 780.516 103.851L781.296 102.751C782.47 103.631 783.663 104.071 784.876 104.071C785.503 104.071 786.016 103.924 786.416 103.631C786.816 103.324 787.016 102.924 787.016 102.431V102.391C787.016 101.924 786.796 101.564 786.356 101.311C785.93 101.058 785.29 100.811 784.436 100.571C783.916 100.424 783.503 100.291 783.196 100.171C782.89 100.051 782.543 99.8842 782.156 99.6709C781.77 99.4442 781.483 99.1642 781.296 98.8309C781.11 98.4976 781.016 98.1042 781.016 97.6509V97.6109C781.016 96.7309 781.343 96.0176 781.996 95.4709C782.663 94.9242 783.51 94.6509 784.536 94.6509C785.87 94.6509 787.11 95.0309 788.256 95.7909L787.556 96.9509C786.53 96.2842 785.51 95.9509 784.496 95.9509C783.896 95.9509 783.41 96.0909 783.036 96.3709C782.676 96.6509 782.496 97.0109 782.496 97.4509V97.4909C782.496 97.6776 782.55 97.8509 782.656 98.0109C782.763 98.1709 782.883 98.3042 783.016 98.4109C783.15 98.5176 783.356 98.6309 783.636 98.7509C783.93 98.8709 784.163 98.9576 784.336 99.0109C784.51 99.0642 784.783 99.1509 785.156 99.2709C785.543 99.3909 785.863 99.4976 786.116 99.5909C786.383 99.6842 786.676 99.8176 786.996 99.9909C787.33 100.151 787.59 100.331 787.776 100.531C787.976 100.718 788.143 100.958 788.276 101.251C788.41 101.544 788.476 101.871 788.476 102.231V102.271C788.476 103.231 788.13 103.991 787.436 104.551C786.743 105.098 785.863 105.371 784.796 105.371ZM791.157 105.171V103.071H792.997V105.171H791.157ZM802.496 105.171V91.1709H807.736C809.322 91.1709 810.589 91.5709 811.536 92.3709C812.496 93.1576 812.976 94.2376 812.976 95.6109V95.6509C812.976 97.1042 812.449 98.2309 811.396 99.0309C810.356 99.8309 809.049 100.231 807.476 100.231H804.076V105.171H802.496ZM804.076 98.7909H807.536C808.696 98.7909 809.622 98.5109 810.316 97.9509C811.022 97.3776 811.376 96.6309 811.376 95.7109V95.6709C811.376 94.6976 811.036 93.9509 810.356 93.4309C809.689 92.8976 808.776 92.6309 807.616 92.6309H804.076V98.7909ZM815.595 105.171V90.5709H817.135V96.6309C817.948 95.2842 819.128 94.6109 820.675 94.6109C821.902 94.6109 822.868 94.9909 823.575 95.7509C824.282 96.4976 824.635 97.4976 824.635 98.7509V105.171H823.095V99.1309C823.095 98.1576 822.842 97.3976 822.335 96.8509C821.842 96.2909 821.142 96.0109 820.235 96.0109C819.342 96.0109 818.602 96.3109 818.015 96.9109C817.428 97.5109 817.135 98.2909 817.135 99.2509V105.171H815.595ZM830.999 105.391C829.959 105.391 829.053 105.104 828.279 104.531C827.519 103.958 827.139 103.171 827.139 102.171V102.131C827.139 101.051 827.539 100.218 828.339 99.6309C829.139 99.0442 830.213 98.7509 831.559 98.7509C832.626 98.7509 833.679 98.8976 834.719 99.1909V98.8709C834.719 97.9642 834.453 97.2709 833.919 96.7909C833.386 96.3109 832.633 96.0709 831.659 96.0709C830.646 96.0709 829.599 96.3176 828.519 96.8109L828.059 95.5509C829.339 94.9642 830.593 94.6709 831.819 94.6709C833.286 94.6709 834.399 95.0509 835.159 95.8109C835.879 96.5309 836.239 97.5442 836.239 98.8509V105.171H834.719V103.631C833.799 104.804 832.559 105.391 830.999 105.391ZM831.299 104.151C832.259 104.151 833.073 103.891 833.739 103.371C834.406 102.851 834.739 102.184 834.739 101.371V100.411C833.726 100.118 832.719 99.9709 831.719 99.9709C830.773 99.9709 830.033 100.164 829.499 100.551C828.966 100.924 828.699 101.424 828.699 102.051V102.091C828.699 102.718 828.946 103.218 829.439 103.591C829.946 103.964 830.566 104.151 831.299 104.151ZM842.921 105.371C842.175 105.371 841.415 105.238 840.641 104.971C839.881 104.691 839.215 104.318 838.641 103.851L839.421 102.751C840.595 103.631 841.788 104.071 843.001 104.071C843.628 104.071 844.141 103.924 844.541 103.631C844.941 103.324 845.141 102.924 845.141 102.431V102.391C845.141 101.924 844.921 101.564 844.481 101.311C844.055 101.058 843.415 100.811 842.561 100.571C842.041 100.424 841.628 100.291 841.321 100.171C841.015 100.051 840.668 99.8842 840.281 99.6709C839.895 99.4442 839.608 99.1642 839.421 98.8309C839.235 98.4976 839.141 98.1042 839.141 97.6509V97.6109C839.141 96.7309 839.468 96.0176 840.121 95.4709C840.788 94.9242 841.635 94.6509 842.661 94.6509C843.995 94.6509 845.235 95.0309 846.381 95.7909L845.681 96.9509C844.655 96.2842 843.635 95.9509 842.621 95.9509C842.021 95.9509 841.535 96.0909 841.161 96.3709C840.801 96.6509 840.621 97.0109 840.621 97.4509V97.4909C840.621 97.6776 840.675 97.8509 840.781 98.0109C840.888 98.1709 841.008 98.3042 841.141 98.4109C841.275 98.5176 841.481 98.6309 841.761 98.7509C842.055 98.8709 842.288 98.9576 842.461 99.0109C842.635 99.0642 842.908 99.1509 843.281 99.2709C843.668 99.3909 843.988 99.4976 844.241 99.5909C844.508 99.6842 844.801 99.8176 845.121 99.9909C845.455 100.151 845.715 100.331 845.901 100.531C846.101 100.718 846.268 100.958 846.401 101.251C846.535 101.544 846.601 101.871 846.601 102.231V102.271C846.601 103.231 846.255 103.991 845.561 104.551C844.868 105.098 843.988 105.371 842.921 105.371ZM850.382 100.631C850.489 101.684 850.882 102.524 851.562 103.151C852.256 103.764 853.076 104.071 854.022 104.071C855.262 104.071 856.349 103.584 857.282 102.611L858.242 103.471C857.082 104.764 855.662 105.411 853.982 105.411C852.529 105.411 851.302 104.911 850.302 103.911C849.316 102.898 848.822 101.598 848.822 100.011C848.822 98.5042 849.296 97.2309 850.242 96.1909C851.189 95.1376 852.369 94.6109 853.782 94.6109C855.262 94.6109 856.436 95.1309 857.302 96.1709C858.169 97.2109 858.602 98.5176 858.602 100.091C858.602 100.291 858.596 100.471 858.582 100.631H850.382ZM850.382 99.3909H857.042C856.949 98.3909 856.616 97.5642 856.042 96.9109C855.482 96.2442 854.716 95.9109 853.742 95.9109C852.862 95.9109 852.109 96.2376 851.482 96.8909C850.856 97.5442 850.489 98.3776 850.382 99.3909ZM861.438 105.171V90.5709H862.978V105.171H861.438ZM866.692 105.171V90.5709H868.232V105.171H866.692ZM875.606 105.391C874.379 105.391 873.413 105.018 872.706 104.271C871.999 103.511 871.646 102.504 871.646 101.251V94.8309H873.186V100.871C873.186 101.844 873.433 102.611 873.926 103.171C874.433 103.718 875.139 103.991 876.046 103.991C876.939 103.991 877.679 103.691 878.266 103.091C878.853 102.491 879.146 101.711 879.146 100.751V94.8309H880.666V105.171H879.146V103.371C878.306 104.718 877.126 105.391 875.606 105.391ZM887.55 105.371C886.803 105.371 886.043 105.238 885.27 104.971C884.51 104.691 883.843 104.318 883.27 103.851L884.05 102.751C885.223 103.631 886.417 104.071 887.63 104.071C888.257 104.071 888.77 103.924 889.17 103.631C889.57 103.324 889.77 102.924 889.77 102.431V102.391C889.77 101.924 889.55 101.564 889.11 101.311C888.683 101.058 888.043 100.811 887.19 100.571C886.67 100.424 886.257 100.291 885.95 100.171C885.643 100.051 885.297 99.8842 884.91 99.6709C884.523 99.4442 884.237 99.1642 884.05 98.8309C883.863 98.4976 883.77 98.1042 883.77 97.6509V97.6109C883.77 96.7309 884.097 96.0176 884.75 95.4709C885.417 94.9242 886.263 94.6509 887.29 94.6509C888.623 94.6509 889.863 95.0309 891.01 95.7909L890.31 96.9509C889.283 96.2842 888.263 95.9509 887.25 95.9509C886.65 95.9509 886.163 96.0909 885.79 96.3709C885.43 96.6509 885.25 97.0109 885.25 97.4509V97.4909C885.25 97.6776 885.303 97.8509 885.41 98.0109C885.517 98.1709 885.637 98.3042 885.77 98.4109C885.903 98.5176 886.11 98.6309 886.39 98.7509C886.683 98.8709 886.917 98.9576 887.09 99.0109C887.263 99.0642 887.537 99.1509 887.91 99.2709C888.297 99.3909 888.617 99.4976 888.87 99.5909C889.137 99.6842 889.43 99.8176 889.75 99.9909C890.083 100.151 890.343 100.331 890.53 100.531C890.73 100.718 890.897 100.958 891.03 101.251C891.163 101.544 891.23 101.871 891.23 102.231V102.271C891.23 103.231 890.883 103.991 890.19 104.551C889.497 105.098 888.617 105.371 887.55 105.371ZM2.7668 135.171V126.191H1.3468V124.851H2.7668V123.951C2.7668 122.778 3.0668 121.891 3.6668 121.291C4.20013 120.758 4.94013 120.491 5.8868 120.491C6.54013 120.491 7.1068 120.578 7.5868 120.751V122.091C6.97346 121.918 6.47346 121.831 6.0868 121.831C4.8868 121.831 4.2868 122.564 4.2868 124.031V124.871H7.5668V126.191H4.3068V135.171H2.7668ZM12.3176 135.391C11.2776 135.391 10.3709 135.104 9.59758 134.531C8.83758 133.958 8.45758 133.171 8.45758 132.171V132.131C8.45758 131.051 8.85758 130.218 9.65758 129.631C10.4576 129.044 11.5309 128.751 12.8776 128.751C13.9442 128.751 14.9976 128.898 16.0376 129.191V128.871C16.0376 127.964 15.7709 127.271 15.2376 126.791C14.7042 126.311 13.9509 126.071 12.9776 126.071C11.9642 126.071 10.9176 126.318 9.83758 126.811L9.37758 125.551C10.6576 124.964 11.9109 124.671 13.1376 124.671C14.6042 124.671 15.7176 125.051 16.4776 125.811C17.1976 126.531 17.5576 127.544 17.5576 128.851V135.171H16.0376V133.631C15.1176 134.804 13.8776 135.391 12.3176 135.391ZM12.6176 134.151C13.5776 134.151 14.3909 133.891 15.0576 133.371C15.7242 132.851 16.0576 132.184 16.0576 131.371V130.411C15.0442 130.118 14.0376 129.971 13.0376 129.971C12.0909 129.971 11.3509 130.164 10.8176 130.551C10.2842 130.924 10.0176 131.424 10.0176 132.051V132.091C10.0176 132.718 10.2642 133.218 10.7576 133.591C11.2642 133.964 11.8842 134.151 12.6176 134.151ZM24.6196 135.391C23.3929 135.391 22.4263 135.018 21.7196 134.271C21.0129 133.511 20.6596 132.504 20.6596 131.251V124.831H22.1996V130.871C22.1996 131.844 22.4463 132.611 22.9396 133.171C23.4463 133.718 24.1529 133.991 25.0596 133.991C25.9529 133.991 26.6929 133.691 27.2796 133.091C27.8663 132.491 28.1596 131.711 28.1596 130.751V124.831H29.6796V135.171H28.1596V133.371C27.3196 134.718 26.1396 135.391 24.6196 135.391ZM37.8038 135.411C36.3105 135.411 35.0505 134.884 34.0238 133.831C33.0105 132.778 32.5038 131.518 32.5038 130.051V130.011C32.5038 128.531 33.0105 127.264 34.0238 126.211C35.0505 125.144 36.3105 124.611 37.8038 124.611C39.4038 124.611 40.7838 125.224 41.9438 126.451L40.9238 127.531C39.9372 126.491 38.8905 125.971 37.7838 125.971C36.7438 125.971 35.8638 126.358 35.1438 127.131C34.4372 127.904 34.0838 128.851 34.0838 129.971V130.011C34.0838 131.131 34.4438 132.084 35.1638 132.871C35.8972 133.644 36.8038 134.031 37.8838 134.031C39.0305 134.031 40.0838 133.518 41.0438 132.491L42.0238 133.411C40.8238 134.744 39.4172 135.411 37.8038 135.411ZM44.6096 122.571V120.871H46.3696V122.571H44.6096ZM44.7096 135.171V124.831H46.2496V135.171H44.7096ZM55.3235 135.391C53.6968 135.391 52.3768 134.658 51.3635 133.191V135.171H49.8235V120.571H51.3635V126.911C52.4035 125.378 53.7235 124.611 55.3235 124.611C56.6435 124.611 57.7968 125.098 58.7835 126.071C59.7702 127.044 60.2635 128.344 60.2635 129.971V130.011C60.2635 131.624 59.7702 132.924 58.7835 133.911C57.7968 134.898 56.6435 135.391 55.3235 135.391ZM55.0435 134.011C56.0835 134.011 56.9502 133.651 57.6435 132.931C58.3368 132.211 58.6835 131.244 58.6835 130.031V129.991C58.6835 128.804 58.3302 127.844 57.6235 127.111C56.9168 126.364 56.0568 125.991 55.0435 125.991C54.0435 125.991 53.1702 126.371 52.4235 127.131C51.6768 127.878 51.3035 128.824 51.3035 129.971V130.011C51.3035 131.171 51.6768 132.131 52.4235 132.891C53.1702 133.638 54.0435 134.011 55.0435 134.011ZM66.9048 135.391C65.6781 135.391 64.7114 135.018 64.0048 134.271C63.2981 133.511 62.9448 132.504 62.9448 131.251V124.831H64.4848V130.871C64.4848 131.844 64.7314 132.611 65.2248 133.171C65.7314 133.718 66.4381 133.991 67.3448 133.991C68.2381 133.991 68.9781 133.691 69.5648 133.091C70.1514 132.491 70.4448 131.711 70.4448 130.751V124.831H71.9648V135.171H70.4448V133.371C69.6048 134.718 68.4248 135.391 66.9048 135.391ZM78.849 135.371C78.1023 135.371 77.3423 135.238 76.569 134.971C75.809 134.691 75.1423 134.318 74.569 133.851L75.349 132.751C76.5223 133.631 77.7157 134.071 78.929 134.071C79.5557 134.071 80.069 133.924 80.469 133.631C80.869 133.324 81.069 132.924 81.069 132.431V132.391C81.069 131.924 80.849 131.564 80.409 131.311C79.9823 131.058 79.3423 130.811 78.489 130.571C77.969 130.424 77.5557 130.291 77.249 130.171C76.9423 130.051 76.5957 129.884 76.209 129.671C75.8223 129.444 75.5357 129.164 75.349 128.831C75.1623 128.498 75.069 128.104 75.069 127.651V127.611C75.069 126.731 75.3957 126.018 76.049 125.471C76.7157 124.924 77.5623 124.651 78.589 124.651C79.9223 124.651 81.1623 125.031 82.309 125.791L81.609 126.951C80.5823 126.284 79.5623 125.951 78.549 125.951C77.949 125.951 77.4623 126.091 77.089 126.371C76.729 126.651 76.549 127.011 76.549 127.451V127.491C76.549 127.678 76.6023 127.851 76.709 128.011C76.8157 128.171 76.9357 128.304 77.069 128.411C77.2023 128.518 77.409 128.631 77.689 128.751C77.9823 128.871 78.2157 128.958 78.389 129.011C78.5623 129.064 78.8357 129.151 79.209 129.271C79.5957 129.391 79.9157 129.498 80.169 129.591C80.4357 129.684 80.729 129.818 81.049 129.991C81.3823 130.151 81.6423 130.331 81.829 130.531C82.029 130.718 82.1957 130.958 82.329 131.251C82.4623 131.544 82.529 131.871 82.529 132.231V132.271C82.529 133.231 82.1823 133.991 81.489 134.551C80.7957 135.098 79.9157 135.371 78.849 135.371ZM91.426 122.571V120.871H93.186V122.571H91.426ZM91.526 135.171V124.831H93.066V135.171H91.526ZM100.98 135.391C99.6599 135.391 98.5066 134.904 97.5199 133.931C96.5333 132.958 96.0399 131.658 96.0399 130.031V129.991C96.0399 128.378 96.5333 127.078 97.5199 126.091C98.5066 125.104 99.6599 124.611 100.98 124.611C102.607 124.611 103.927 125.344 104.94 126.811V120.571H106.48V135.171H104.94V133.091C103.9 134.624 102.58 135.391 100.98 135.391ZM101.26 134.011C102.26 134.011 103.133 133.638 103.88 132.891C104.627 132.131 105 131.171 105 130.011V129.971C105 128.824 104.627 127.878 103.88 127.131C103.133 126.371 102.26 125.991 101.26 125.991C100.22 125.991 99.3533 126.351 98.6599 127.071C97.9666 127.791 97.6199 128.758 97.6199 129.971V130.011C97.6199 131.198 97.9733 132.164 98.6799 132.911C99.3866 133.644 100.247 134.011 101.26 134.011ZM116.837 130.631C116.944 131.684 117.337 132.524 118.017 133.151C118.711 133.764 119.531 134.071 120.477 134.071C121.717 134.071 122.804 133.584 123.737 132.611L124.697 133.471C123.537 134.764 122.117 135.411 120.437 135.411C118.984 135.411 117.757 134.911 116.757 133.911C115.771 132.898 115.277 131.598 115.277 130.011C115.277 128.504 115.751 127.231 116.697 126.191C117.644 125.138 118.824 124.611 120.237 124.611C121.717 124.611 122.891 125.131 123.757 126.171C124.624 127.211 125.057 128.518 125.057 130.091C125.057 130.291 125.051 130.471 125.037 130.631H116.837ZM116.837 129.391H123.497C123.404 128.391 123.071 127.564 122.497 126.911C121.937 126.244 121.171 125.911 120.197 125.911C119.317 125.911 118.564 126.238 117.937 126.891C117.311 127.544 116.944 128.378 116.837 129.391ZM131.173 135.371C130.427 135.371 129.667 135.238 128.893 134.971C128.133 134.691 127.467 134.318 126.893 133.851L127.673 132.751C128.847 133.631 130.04 134.071 131.253 134.071C131.88 134.071 132.393 133.924 132.793 133.631C133.193 133.324 133.393 132.924 133.393 132.431V132.391C133.393 131.924 133.173 131.564 132.733 131.311C132.307 131.058 131.667 130.811 130.813 130.571C130.293 130.424 129.88 130.291 129.573 130.171C129.267 130.051 128.92 129.884 128.533 129.671C128.147 129.444 127.86 129.164 127.673 128.831C127.487 128.498 127.393 128.104 127.393 127.651V127.611C127.393 126.731 127.72 126.018 128.373 125.471C129.04 124.924 129.887 124.651 130.913 124.651C132.247 124.651 133.487 125.031 134.633 125.791L133.933 126.951C132.907 126.284 131.887 125.951 130.873 125.951C130.273 125.951 129.787 126.091 129.413 126.371C129.053 126.651 128.873 127.011 128.873 127.451V127.491C128.873 127.678 128.927 127.851 129.033 128.011C129.14 128.171 129.26 128.304 129.393 128.411C129.527 128.518 129.733 128.631 130.013 128.751C130.307 128.871 130.54 128.958 130.713 129.011C130.887 129.064 131.16 129.151 131.533 129.271C131.92 129.391 132.24 129.498 132.493 129.591C132.76 129.684 133.053 129.818 133.373 129.991C133.707 130.151 133.967 130.331 134.153 130.531C134.353 130.718 134.52 130.958 134.653 131.251C134.787 131.544 134.853 131.871 134.853 132.231V132.271C134.853 133.231 134.507 133.991 133.813 134.551C133.12 135.098 132.24 135.371 131.173 135.371ZM140.979 135.351C140.085 135.351 139.372 135.118 138.839 134.651C138.319 134.171 138.059 133.431 138.059 132.431V126.191H136.619V124.831H138.059V121.711H139.599V124.831H142.879V126.191H139.599V132.231C139.599 133.378 140.179 133.951 141.339 133.951C141.845 133.951 142.345 133.831 142.839 133.591V134.911C142.279 135.204 141.659 135.351 140.979 135.351ZM152.521 130.631C152.628 131.684 153.021 132.524 153.701 133.151C154.394 133.764 155.214 134.071 156.161 134.071C157.401 134.071 158.488 133.584 159.421 132.611L160.381 133.471C159.221 134.764 157.801 135.411 156.121 135.411C154.668 135.411 153.441 134.911 152.441 133.911C151.454 132.898 150.961 131.598 150.961 130.011C150.961 128.504 151.434 127.231 152.381 126.191C153.328 125.138 154.508 124.611 155.921 124.611C157.401 124.611 158.574 125.131 159.441 126.171C160.308 127.211 160.741 128.518 160.741 130.091C160.741 130.291 160.734 130.471 160.721 130.631H152.521ZM152.521 129.391H159.181C159.088 128.391 158.754 127.564 158.181 126.911C157.621 126.244 156.854 125.911 155.881 125.911C155.001 125.911 154.248 126.238 153.621 126.891C152.994 127.544 152.628 128.378 152.521 129.391ZM167.237 135.391C166.01 135.391 165.043 135.018 164.337 134.271C163.63 133.511 163.277 132.504 163.277 131.251V124.831H164.817V130.871C164.817 131.844 165.063 132.611 165.557 133.171C166.063 133.718 166.77 133.991 167.677 133.991C168.57 133.991 169.31 133.691 169.897 133.091C170.483 132.491 170.777 131.711 170.777 130.751V124.831H172.297V135.171H170.777V133.371C169.937 134.718 168.757 135.391 167.237 135.391ZM186.417 135.411C184.924 135.411 183.664 134.884 182.637 133.831C181.624 132.778 181.117 131.518 181.117 130.051V130.011C181.117 128.531 181.624 127.264 182.637 126.211C183.664 125.144 184.924 124.611 186.417 124.611C188.017 124.611 189.397 125.224 190.557 126.451L189.537 127.531C188.55 126.491 187.504 125.971 186.397 125.971C185.357 125.971 184.477 126.358 183.757 127.131C183.05 127.904 182.697 128.851 182.697 129.971V130.011C182.697 131.131 183.057 132.084 183.777 132.871C184.51 133.644 185.417 134.031 186.497 134.031C187.644 134.031 188.697 133.518 189.657 132.491L190.637 133.411C189.437 134.744 188.03 135.411 186.417 135.411ZM201.47 133.831C200.43 134.884 199.143 135.411 197.61 135.411C196.077 135.411 194.797 134.891 193.77 133.851C192.757 132.798 192.25 131.531 192.25 130.051V130.011C192.25 128.531 192.763 127.264 193.79 126.211C194.83 125.144 196.117 124.611 197.65 124.611C199.183 124.611 200.463 125.138 201.49 126.191C202.517 127.231 203.03 128.491 203.03 129.971V130.011C203.03 131.491 202.51 132.764 201.47 133.831ZM197.65 134.031C198.757 134.031 199.663 133.644 200.37 132.871C201.09 132.098 201.45 131.158 201.45 130.051V130.011C201.45 128.891 201.077 127.938 200.33 127.151C199.597 126.364 198.69 125.971 197.61 125.971C196.517 125.971 195.61 126.364 194.89 127.151C194.183 127.924 193.83 128.864 193.83 129.971V130.011C193.83 131.131 194.197 132.084 194.93 132.871C195.663 133.644 196.57 134.031 197.65 134.031ZM205.82 135.171V124.831H207.36V126.571C208.226 125.264 209.34 124.611 210.7 124.611C212.246 124.611 213.353 125.298 214.02 126.671C214.913 125.298 216.126 124.611 217.66 124.611C218.846 124.611 219.78 124.984 220.46 125.731C221.153 126.478 221.5 127.491 221.5 128.771V135.171H219.96V129.131C219.96 128.131 219.72 127.364 219.24 126.831C218.773 126.284 218.12 126.011 217.28 126.011C216.466 126.011 215.786 126.298 215.24 126.871C214.693 127.444 214.42 128.224 214.42 129.211V135.171H212.9V129.091C212.9 128.131 212.66 127.378 212.18 126.831C211.713 126.284 211.066 126.011 210.24 126.011C209.413 126.011 208.726 126.318 208.18 126.931C207.633 127.544 207.36 128.324 207.36 129.271V135.171H205.82ZM224.843 135.171V124.831H226.383V126.571C227.25 125.264 228.363 124.611 229.723 124.611C231.27 124.611 232.376 125.298 233.043 126.671C233.936 125.298 235.15 124.611 236.683 124.611C237.87 124.611 238.803 124.984 239.483 125.731C240.176 126.478 240.523 127.491 240.523 128.771V135.171H238.983V129.131C238.983 128.131 238.743 127.364 238.263 126.831C237.796 126.284 237.143 126.011 236.303 126.011C235.49 126.011 234.81 126.298 234.263 126.871C233.716 127.444 233.443 128.224 233.443 129.211V135.171H231.923V129.091C231.923 128.131 231.683 127.378 231.203 126.831C230.736 126.284 230.09 126.011 229.263 126.011C228.436 126.011 227.75 126.318 227.203 126.931C226.656 127.544 226.383 128.324 226.383 129.271V135.171H224.843ZM252.446 133.831C251.406 134.884 250.12 135.411 248.586 135.411C247.053 135.411 245.773 134.891 244.746 133.851C243.733 132.798 243.226 131.531 243.226 130.051V130.011C243.226 128.531 243.74 127.264 244.766 126.211C245.806 125.144 247.093 124.611 248.626 124.611C250.16 124.611 251.44 125.138 252.466 126.191C253.493 127.231 254.006 128.491 254.006 129.971V130.011C254.006 131.491 253.486 132.764 252.446 133.831ZM248.626 134.031C249.733 134.031 250.64 133.644 251.346 132.871C252.066 132.098 252.426 131.158 252.426 130.051V130.011C252.426 128.891 252.053 127.938 251.306 127.151C250.573 126.364 249.666 125.971 248.586 125.971C247.493 125.971 246.586 126.364 245.866 127.151C245.16 127.924 244.806 128.864 244.806 129.971V130.011C244.806 131.131 245.173 132.084 245.906 132.871C246.64 133.644 247.546 134.031 248.626 134.031ZM261.136 135.391C259.816 135.391 258.663 134.904 257.676 133.931C256.69 132.958 256.196 131.658 256.196 130.031V129.991C256.196 128.378 256.69 127.078 257.676 126.091C258.663 125.104 259.816 124.611 261.136 124.611C262.763 124.611 264.083 125.344 265.096 126.811V120.571H266.636V135.171H265.096V133.091C264.056 134.624 262.736 135.391 261.136 135.391ZM261.416 134.011C262.416 134.011 263.29 133.638 264.036 132.891C264.783 132.131 265.156 131.171 265.156 130.011V129.971C265.156 128.824 264.783 127.878 264.036 127.131C263.29 126.371 262.416 125.991 261.416 125.991C260.376 125.991 259.51 126.351 258.816 127.071C258.123 127.791 257.776 128.758 257.776 129.971V130.011C257.776 131.198 258.13 132.164 258.836 132.911C259.543 133.644 260.403 134.011 261.416 134.011ZM278.657 133.831C277.617 134.884 276.331 135.411 274.797 135.411C273.264 135.411 271.984 134.891 270.957 133.851C269.944 132.798 269.437 131.531 269.437 130.051V130.011C269.437 128.531 269.951 127.264 270.977 126.211C272.017 125.144 273.304 124.611 274.837 124.611C276.371 124.611 277.651 125.138 278.677 126.191C279.704 127.231 280.217 128.491 280.217 129.971V130.011C280.217 131.491 279.697 132.764 278.657 133.831ZM274.837 134.031C275.944 134.031 276.851 133.644 277.557 132.871C278.277 132.098 278.637 131.158 278.637 130.051V130.011C278.637 128.891 278.264 127.938 277.517 127.151C276.784 126.364 275.877 125.971 274.797 125.971C273.704 125.971 272.797 126.364 272.077 127.151C271.371 127.924 271.017 128.864 271.017 129.971V130.011C271.017 131.131 271.384 132.084 272.117 132.871C272.851 133.644 273.757 134.031 274.837 134.031ZM282.436 135.171V133.071H284.276V135.171H282.436ZM293.775 135.171V121.171H303.895V122.611H295.355V127.391H302.995V128.831H295.355V133.731H303.995V135.171H293.775ZM310.373 135.351C309.48 135.351 308.767 135.118 308.233 134.651C307.713 134.171 307.453 133.431 307.453 132.431V126.191H306.013V124.831H307.453V121.711H308.993V124.831H312.273V126.191H308.993V132.231C308.993 133.378 309.573 133.951 310.733 133.951C311.24 133.951 311.74 133.831 312.233 133.591V134.911C311.673 135.204 311.053 135.351 310.373 135.351ZM315.039 122.571V120.871H316.799V122.571H315.039ZM315.139 135.171V124.831H316.679V135.171H315.139ZM323.333 135.391C322.293 135.391 321.387 135.104 320.613 134.531C319.853 133.958 319.473 133.171 319.473 132.171V132.131C319.473 131.051 319.873 130.218 320.673 129.631C321.473 129.044 322.547 128.751 323.893 128.751C324.96 128.751 326.013 128.898 327.053 129.191V128.871C327.053 127.964 326.787 127.271 326.253 126.791C325.72 126.311 324.967 126.071 323.993 126.071C322.98 126.071 321.933 126.318 320.853 126.811L320.393 125.551C321.673 124.964 322.927 124.671 324.153 124.671C325.62 124.671 326.733 125.051 327.493 125.811C328.213 126.531 328.573 127.544 328.573 128.851V135.171H327.053V133.631C326.133 134.804 324.893 135.391 323.333 135.391ZM323.633 134.151C324.593 134.151 325.407 133.891 326.073 133.371C326.74 132.851 327.073 132.184 327.073 131.371V130.411C326.06 130.118 325.053 129.971 324.053 129.971C323.107 129.971 322.367 130.164 321.833 130.551C321.3 130.924 321.033 131.424 321.033 132.051V132.091C321.033 132.718 321.28 133.218 321.773 133.591C322.28 133.964 322.9 134.151 323.633 134.151ZM331.835 135.171V124.831H333.375V126.571C334.242 125.264 335.355 124.611 336.715 124.611C338.262 124.611 339.369 125.298 340.035 126.671C340.929 125.298 342.142 124.611 343.675 124.611C344.862 124.611 345.795 124.984 346.475 125.731C347.169 126.478 347.515 127.491 347.515 128.771V135.171H345.975V129.131C345.975 128.131 345.735 127.364 345.255 126.831C344.789 126.284 344.135 126.011 343.295 126.011C342.482 126.011 341.802 126.298 341.255 126.871C340.709 127.444 340.435 128.224 340.435 129.211V135.171H338.915V129.091C338.915 128.131 338.675 127.378 338.195 126.831C337.729 126.284 337.082 126.011 336.255 126.011C335.429 126.011 334.742 126.318 334.195 126.931C333.649 127.544 333.375 128.324 333.375 129.271V135.171H331.835ZM356.855 138.371V124.831H358.395V126.911C359.435 125.378 360.755 124.611 362.355 124.611C363.675 124.611 364.828 125.098 365.815 126.071C366.801 127.044 367.295 128.344 367.295 129.971V130.011C367.295 131.624 366.801 132.924 365.815 133.911C364.828 134.898 363.675 135.391 362.355 135.391C360.728 135.391 359.408 134.658 358.395 133.191V138.371H356.855ZM362.075 134.011C363.115 134.011 363.981 133.651 364.675 132.931C365.368 132.211 365.715 131.244 365.715 130.031V129.991C365.715 128.804 365.361 127.844 364.655 127.111C363.948 126.364 363.088 125.991 362.075 125.991C361.075 125.991 360.201 126.371 359.455 127.131C358.708 127.878 358.335 128.824 358.335 129.971V130.011C358.335 131.171 358.708 132.131 359.455 132.891C360.201 133.638 361.075 134.011 362.075 134.011ZM370.136 135.171V120.571H371.676V126.631C372.489 125.284 373.669 124.611 375.216 124.611C376.443 124.611 377.409 124.991 378.116 125.751C378.823 126.498 379.176 127.498 379.176 128.751V135.171H377.636V129.131C377.636 128.158 377.383 127.398 376.876 126.851C376.383 126.291 375.683 126.011 374.776 126.011C373.883 126.011 373.143 126.311 372.556 126.911C371.969 127.511 371.676 128.291 371.676 129.251V135.171H370.136ZM385.54 135.391C384.5 135.391 383.594 135.104 382.82 134.531C382.06 133.958 381.68 133.171 381.68 132.171V132.131C381.68 131.051 382.08 130.218 382.88 129.631C383.68 129.044 384.754 128.751 386.1 128.751C387.167 128.751 388.22 128.898 389.26 129.191V128.871C389.26 127.964 388.994 127.271 388.46 126.791C387.927 126.311 387.174 126.071 386.2 126.071C385.187 126.071 384.14 126.318 383.06 126.811L382.6 125.551C383.88 124.964 385.134 124.671 386.36 124.671C387.827 124.671 388.94 125.051 389.7 125.811C390.42 126.531 390.78 127.544 390.78 128.851V135.171H389.26V133.631C388.34 134.804 387.1 135.391 385.54 135.391ZM385.84 134.151C386.8 134.151 387.614 133.891 388.28 133.371C388.947 132.851 389.28 132.184 389.28 131.371V130.411C388.267 130.118 387.26 129.971 386.26 129.971C385.314 129.971 384.574 130.164 384.04 130.551C383.507 130.924 383.24 131.424 383.24 132.051V132.091C383.24 132.718 383.487 133.218 383.98 133.591C384.487 133.964 385.107 134.151 385.84 134.151ZM394.042 135.171V124.831H395.582V127.531C395.982 126.638 396.549 125.924 397.282 125.391C398.016 124.858 398.856 124.611 399.802 124.651V126.311H399.682C398.496 126.311 397.516 126.724 396.742 127.551C395.969 128.378 395.582 129.544 395.582 131.051V135.171H394.042ZM402.619 130.631C402.725 131.684 403.119 132.524 403.799 133.151C404.492 133.764 405.312 134.071 406.259 134.071C407.499 134.071 408.585 133.584 409.519 132.611L410.479 133.471C409.319 134.764 407.899 135.411 406.219 135.411C404.765 135.411 403.539 134.911 402.539 133.911C401.552 132.898 401.059 131.598 401.059 130.011C401.059 128.504 401.532 127.231 402.479 126.191C403.425 125.138 404.605 124.611 406.019 124.611C407.499 124.611 408.672 125.131 409.539 126.171C410.405 127.211 410.839 128.518 410.839 130.091C410.839 130.291 410.832 130.471 410.819 130.631H402.619ZM402.619 129.391H409.279C409.185 128.391 408.852 127.564 408.279 126.911C407.719 126.244 406.952 125.911 405.979 125.911C405.099 125.911 404.345 126.238 403.719 126.891C403.092 127.544 402.725 128.378 402.619 129.391ZM416.994 135.351C416.101 135.351 415.388 135.118 414.854 134.651C414.334 134.171 414.074 133.431 414.074 132.431V126.191H412.634V124.831H414.074V121.711H415.614V124.831H418.894V126.191H415.614V132.231C415.614 133.378 416.194 133.951 417.354 133.951C417.861 133.951 418.361 133.831 418.854 133.591V134.911C418.294 135.204 417.674 135.351 416.994 135.351ZM421.62 135.171V124.831H423.16V127.531C423.56 126.638 424.127 125.924 424.86 125.391C425.594 124.858 426.434 124.611 427.38 124.651V126.311H427.26C426.074 126.311 425.094 126.724 424.32 127.551C423.547 128.378 423.16 129.544 423.16 131.051V135.171H421.62ZM432.298 135.391C431.258 135.391 430.351 135.104 429.578 134.531C428.818 133.958 428.438 133.171 428.438 132.171V132.131C428.438 131.051 428.838 130.218 429.638 129.631C430.438 129.044 431.511 128.751 432.858 128.751C433.925 128.751 434.978 128.898 436.018 129.191V128.871C436.018 127.964 435.751 127.271 435.218 126.791C434.685 126.311 433.931 126.071 432.958 126.071C431.945 126.071 430.898 126.318 429.818 126.811L429.358 125.551C430.638 124.964 431.891 124.671 433.118 124.671C434.585 124.671 435.698 125.051 436.458 125.811C437.178 126.531 437.538 127.544 437.538 128.851V135.171H436.018V133.631C435.098 134.804 433.858 135.391 432.298 135.391ZM432.598 134.151C433.558 134.151 434.371 133.891 435.038 133.371C435.705 132.851 436.038 132.184 436.038 131.371V130.411C435.025 130.118 434.018 129.971 433.018 129.971C432.071 129.971 431.331 130.164 430.798 130.551C430.265 130.924 429.998 131.424 429.998 132.051V132.091C429.998 132.718 430.245 133.218 430.738 133.591C431.245 133.964 431.865 134.151 432.598 134.151ZM446.936 135.171V120.571H448.476V135.171H446.936ZM452.09 122.571V120.871H453.85V122.571H452.09ZM452.19 135.171V124.831H453.73V135.171H452.19ZM461.884 138.411C460.137 138.411 458.571 137.931 457.184 136.971L457.884 135.771C459.097 136.651 460.424 137.091 461.864 137.091C463.024 137.091 463.937 136.771 464.604 136.131C465.284 135.504 465.624 134.598 465.624 133.411V132.191C464.531 133.644 463.177 134.371 461.564 134.371C460.257 134.371 459.117 133.924 458.144 133.031C457.184 132.124 456.704 130.958 456.704 129.531V129.491C456.704 128.038 457.191 126.864 458.164 125.971C459.137 125.064 460.271 124.611 461.564 124.611C463.217 124.611 464.564 125.304 465.604 126.691V124.831H467.144V133.371C467.144 134.931 466.704 136.151 465.824 137.031C464.904 137.951 463.591 138.411 461.884 138.411ZM461.864 133.011C462.877 133.011 463.764 132.684 464.524 132.031C465.284 131.364 465.664 130.524 465.664 129.511V129.471C465.664 128.444 465.284 127.604 464.524 126.951C463.777 126.298 462.891 125.971 461.864 125.971C460.864 125.971 460.017 126.291 459.324 126.931C458.631 127.571 458.284 128.411 458.284 129.451V129.491C458.284 130.504 458.631 131.344 459.324 132.011C460.031 132.678 460.877 133.011 461.864 133.011ZM474.385 135.391C473.159 135.391 472.192 135.018 471.485 134.271C470.779 133.511 470.425 132.504 470.425 131.251V124.831H471.965V130.871C471.965 131.844 472.212 132.611 472.705 133.171C473.212 133.718 473.919 133.991 474.825 133.991C475.719 133.991 476.459 133.691 477.045 133.091C477.632 132.491 477.925 131.711 477.925 130.751V124.831H479.445V135.171H477.925V133.371C477.085 134.718 475.905 135.391 474.385 135.391ZM483.049 135.171V120.571H484.589V135.171H483.049ZM491.243 135.391C490.203 135.391 489.297 135.104 488.523 134.531C487.763 133.958 487.383 133.171 487.383 132.171V132.131C487.383 131.051 487.783 130.218 488.583 129.631C489.383 129.044 490.457 128.751 491.803 128.751C492.87 128.751 493.923 128.898 494.963 129.191V128.871C494.963 127.964 494.697 127.271 494.163 126.791C493.63 126.311 492.877 126.071 491.903 126.071C490.89 126.071 489.843 126.318 488.763 126.811L488.303 125.551C489.583 124.964 490.837 124.671 492.063 124.671C493.53 124.671 494.643 125.051 495.403 125.811C496.123 126.531 496.483 127.544 496.483 128.851V135.171H494.963V133.631C494.043 134.804 492.803 135.391 491.243 135.391ZM491.543 134.151C492.503 134.151 493.317 133.891 493.983 133.371C494.65 132.851 494.983 132.184 494.983 131.371V130.411C493.97 130.118 492.963 129.971 491.963 129.971C491.017 129.971 490.277 130.164 489.743 130.551C489.21 130.924 488.943 131.424 488.943 132.051V132.091C488.943 132.718 489.19 133.218 489.683 133.591C490.19 133.964 490.81 134.151 491.543 134.151ZM508.821 135.391C507.781 135.391 506.875 135.104 506.101 134.531C505.341 133.958 504.961 133.171 504.961 132.171V132.131C504.961 131.051 505.361 130.218 506.161 129.631C506.961 129.044 508.035 128.751 509.381 128.751C510.448 128.751 511.501 128.898 512.541 129.191V128.871C512.541 127.964 512.275 127.271 511.741 126.791C511.208 126.311 510.455 126.071 509.481 126.071C508.468 126.071 507.421 126.318 506.341 126.811L505.881 125.551C507.161 124.964 508.415 124.671 509.641 124.671C511.108 124.671 512.221 125.051 512.981 125.811C513.701 126.531 514.061 127.544 514.061 128.851V135.171H512.541V133.631C511.621 134.804 510.381 135.391 508.821 135.391ZM509.121 134.151C510.081 134.151 510.895 133.891 511.561 133.371C512.228 132.851 512.561 132.184 512.561 131.371V130.411C511.548 130.118 510.541 129.971 509.541 129.971C508.595 129.971 507.855 130.164 507.321 130.551C506.788 130.924 506.521 131.424 506.521 132.051V132.091C506.521 132.718 506.768 133.218 507.261 133.591C507.768 133.964 508.388 134.151 509.121 134.151ZM523.36 122.571V120.871H525.12V122.571H523.36ZM522.48 138.431C522.12 138.431 521.8 138.398 521.52 138.331V137.071C521.76 137.111 522.013 137.131 522.28 137.131C523.066 137.131 523.46 136.671 523.46 135.751V124.831H525V135.771C525 136.664 524.78 137.331 524.34 137.771C523.9 138.211 523.28 138.431 522.48 138.431ZM532.374 135.391C531.147 135.391 530.18 135.018 529.474 134.271C528.767 133.511 528.414 132.504 528.414 131.251V124.831H529.954V130.871C529.954 131.844 530.2 132.611 530.694 133.171C531.2 133.718 531.907 133.991 532.814 133.991C533.707 133.991 534.447 133.691 535.034 133.091C535.62 132.491 535.914 131.711 535.914 130.751V124.831H537.434V135.171H535.914V133.371C535.074 134.718 533.894 135.391 532.374 135.391ZM544.318 135.371C543.571 135.371 542.811 135.238 542.038 134.971C541.278 134.691 540.611 134.318 540.038 133.851L540.818 132.751C541.991 133.631 543.184 134.071 544.398 134.071C545.024 134.071 545.538 133.924 545.938 133.631C546.338 133.324 546.538 132.924 546.538 132.431V132.391C546.538 131.924 546.318 131.564 545.878 131.311C545.451 131.058 544.811 130.811 543.958 130.571C543.438 130.424 543.024 130.291 542.718 130.171C542.411 130.051 542.064 129.884 541.678 129.671C541.291 129.444 541.004 129.164 540.818 128.831C540.631 128.498 540.538 128.104 540.538 127.651V127.611C540.538 126.731 540.864 126.018 541.518 125.471C542.184 124.924 543.031 124.651 544.058 124.651C545.391 124.651 546.631 125.031 547.778 125.791L547.078 126.951C546.051 126.284 545.031 125.951 544.018 125.951C543.418 125.951 542.931 126.091 542.558 126.371C542.198 126.651 542.018 127.011 542.018 127.451V127.491C542.018 127.678 542.071 127.851 542.178 128.011C542.284 128.171 542.404 128.304 542.538 128.411C542.671 128.518 542.878 128.631 543.158 128.751C543.451 128.871 543.684 128.958 543.858 129.011C544.031 129.064 544.304 129.151 544.678 129.271C545.064 129.391 545.384 129.498 545.638 129.591C545.904 129.684 546.198 129.818 546.518 129.991C546.851 130.151 547.111 130.331 547.298 130.531C547.498 130.718 547.664 130.958 547.798 131.251C547.931 131.544 547.998 131.871 547.998 132.231V132.271C547.998 133.231 547.651 133.991 546.958 134.551C546.264 135.098 545.384 135.371 544.318 135.371ZM554.123 135.351C553.23 135.351 552.517 135.118 551.983 134.651C551.463 134.171 551.203 133.431 551.203 132.431V126.191H549.763V124.831H551.203V121.711H552.743V124.831H556.023V126.191H552.743V132.231C552.743 133.378 553.323 133.951 554.483 133.951C554.99 133.951 555.49 133.831 555.983 133.591V134.911C555.423 135.204 554.803 135.351 554.123 135.351ZM567.036 133.831C565.996 134.884 564.71 135.411 563.176 135.411C561.643 135.411 560.363 134.891 559.336 133.851C558.323 132.798 557.816 131.531 557.816 130.051V130.011C557.816 128.531 558.33 127.264 559.356 126.211C560.396 125.144 561.683 124.611 563.216 124.611C564.75 124.611 566.03 125.138 567.056 126.191C568.083 127.231 568.596 128.491 568.596 129.971V130.011C568.596 131.491 568.076 132.764 567.036 133.831ZM563.216 134.031C564.323 134.031 565.23 133.644 565.936 132.871C566.656 132.098 567.016 131.158 567.016 130.051V130.011C567.016 128.891 566.643 127.938 565.896 127.151C565.163 126.364 564.256 125.971 563.176 125.971C562.083 125.971 561.176 126.364 560.456 127.151C559.75 127.924 559.396 128.864 559.396 129.971V130.011C559.396 131.131 559.763 132.084 560.496 132.871C561.23 133.644 562.136 134.031 563.216 134.031ZM578.302 130.631C578.409 131.684 578.802 132.524 579.482 133.151C580.175 133.764 580.995 134.071 581.942 134.071C583.182 134.071 584.269 133.584 585.202 132.611L586.162 133.471C585.002 134.764 583.582 135.411 581.902 135.411C580.449 135.411 579.222 134.911 578.222 133.911C577.235 132.898 576.742 131.598 576.742 130.011C576.742 128.504 577.215 127.231 578.162 126.191C579.109 125.138 580.289 124.611 581.702 124.611C583.182 124.611 584.355 125.131 585.222 126.171C586.089 127.211 586.522 128.518 586.522 130.091C586.522 130.291 586.515 130.471 586.502 130.631H578.302ZM578.302 129.391H584.962C584.869 128.391 584.535 127.564 583.962 126.911C583.402 126.244 582.635 125.911 581.662 125.911C580.782 125.911 580.029 126.238 579.402 126.891C578.775 127.544 578.409 128.378 578.302 129.391ZM589.358 135.171V120.571H590.898V135.171H589.358ZM595.392 130.631C595.499 131.684 595.892 132.524 596.572 133.151C597.265 133.764 598.085 134.071 599.032 134.071C600.272 134.071 601.359 133.584 602.292 132.611L603.252 133.471C602.092 134.764 600.672 135.411 598.992 135.411C597.539 135.411 596.312 134.911 595.312 133.911C594.325 132.898 593.832 131.598 593.832 130.011C593.832 128.504 594.305 127.231 595.252 126.191C596.199 125.138 597.379 124.611 598.792 124.611C600.272 124.611 601.445 125.131 602.312 126.171C603.179 127.211 603.612 128.518 603.612 130.091C603.612 130.291 603.605 130.471 603.592 130.631H595.392ZM595.392 129.391H602.052C601.959 128.391 601.625 127.564 601.052 126.911C600.492 126.244 599.725 125.911 598.752 125.911C597.872 125.911 597.119 126.238 596.492 126.891C595.865 127.544 595.499 128.378 595.392 129.391ZM606.308 135.171V124.831H607.848V126.571C608.715 125.264 609.828 124.611 611.188 124.611C612.735 124.611 613.841 125.298 614.508 126.671C615.401 125.298 616.615 124.611 618.148 124.611C619.335 124.611 620.268 124.984 620.948 125.731C621.641 126.478 621.988 127.491 621.988 128.771V135.171H620.448V129.131C620.448 128.131 620.208 127.364 619.728 126.831C619.261 126.284 618.608 126.011 617.768 126.011C616.955 126.011 616.275 126.298 615.728 126.871C615.181 127.444 614.908 128.224 614.908 129.211V135.171H613.388V129.091C613.388 128.131 613.148 127.378 612.668 126.831C612.201 126.284 611.555 126.011 610.728 126.011C609.901 126.011 609.215 126.318 608.668 126.931C608.121 127.544 607.848 128.324 607.848 129.271V135.171H606.308ZM626.251 130.631C626.358 131.684 626.751 132.524 627.431 133.151C628.125 133.764 628.945 134.071 629.891 134.071C631.131 134.071 632.218 133.584 633.151 132.611L634.111 133.471C632.951 134.764 631.531 135.411 629.851 135.411C628.398 135.411 627.171 134.911 626.171 133.911C625.185 132.898 624.691 131.598 624.691 130.011C624.691 128.504 625.165 127.231 626.111 126.191C627.058 125.138 628.238 124.611 629.651 124.611C631.131 124.611 632.305 125.131 633.171 126.171C634.038 127.211 634.471 128.518 634.471 130.091C634.471 130.291 634.465 130.471 634.451 130.631H626.251ZM626.251 129.391H632.911C632.818 128.391 632.485 127.564 631.911 126.911C631.351 126.244 630.585 125.911 629.611 125.911C628.731 125.911 627.978 126.238 627.351 126.891C626.725 127.544 626.358 128.378 626.251 129.391ZM637.167 135.171V124.831H638.707V126.631C639.521 125.284 640.701 124.611 642.247 124.611C643.474 124.611 644.441 124.991 645.147 125.751C645.854 126.498 646.207 127.498 646.207 128.751V135.171H644.667V129.131C644.667 128.158 644.414 127.398 643.907 126.851C643.414 126.291 642.714 126.011 641.807 126.011C640.914 126.011 640.174 126.311 639.587 126.911C639.001 127.511 638.707 128.291 638.707 129.251V135.171H637.167ZM652.951 135.351C652.058 135.351 651.345 135.118 650.811 134.651C650.291 134.171 650.031 133.431 650.031 132.431V126.191H648.591V124.831H650.031V121.711H651.571V124.831H654.851V126.191H651.571V132.231C651.571 133.378 652.151 133.951 653.311 133.951C653.818 133.951 654.318 133.831 654.811 133.591V134.911C654.251 135.204 653.631 135.351 652.951 135.351ZM661.377 135.391C660.151 135.391 659.184 135.018 658.477 134.271C657.771 133.511 657.417 132.504 657.417 131.251V124.831H658.957V130.871C658.957 131.844 659.204 132.611 659.697 133.171C660.204 133.718 660.911 133.991 661.817 133.991C662.711 133.991 663.451 133.691 664.037 133.091C664.624 132.491 664.917 131.711 664.917 130.751V124.831H666.437V135.171H664.917V133.371C664.077 134.718 662.897 135.391 661.377 135.391ZM669.902 135.171V124.831H671.442V126.571C672.308 125.264 673.422 124.611 674.782 124.611C676.328 124.611 677.435 125.298 678.102 126.671C678.995 125.298 680.208 124.611 681.742 124.611C682.928 124.611 683.862 124.984 684.542 125.731C685.235 126.478 685.582 127.491 685.582 128.771V135.171H684.042V129.131C684.042 128.131 683.802 127.364 683.322 126.831C682.855 126.284 682.202 126.011 681.362 126.011C680.548 126.011 679.868 126.298 679.322 126.871C678.775 127.444 678.502 128.224 678.502 129.211V135.171H676.982V129.091C676.982 128.131 676.742 127.378 676.262 126.831C675.795 126.284 675.148 126.011 674.322 126.011C673.495 126.011 672.808 126.318 672.262 126.931C671.715 127.544 671.442 128.324 671.442 129.271V135.171H669.902ZM688.365 137.611L688.125 136.911C689.098 136.564 689.545 135.984 689.465 135.171H688.745V133.071H690.585V134.871C690.585 135.671 690.405 136.284 690.045 136.711C689.698 137.138 689.138 137.438 688.365 137.611ZM699.864 122.571V120.871H701.624V122.571H699.864ZM699.964 135.171V124.831H701.504V135.171H699.964ZM705.077 135.171V124.831H706.617V126.631C707.431 125.284 708.611 124.611 710.157 124.611C711.384 124.611 712.351 124.991 713.057 125.751C713.764 126.498 714.117 127.498 714.117 128.751V135.171H712.577V129.131C712.577 128.158 712.324 127.398 711.817 126.851C711.324 126.291 710.624 126.011 709.717 126.011C708.824 126.011 708.084 126.311 707.497 126.911C706.911 127.511 706.617 128.291 706.617 129.251V135.171H705.077ZM727.198 135.391C725.971 135.391 725.004 135.018 724.298 134.271C723.591 133.511 723.238 132.504 723.238 131.251V124.831H724.778V130.871C724.778 131.844 725.024 132.611 725.518 133.171C726.024 133.718 726.731 133.991 727.638 133.991C728.531 133.991 729.271 133.691 729.858 133.091C730.444 132.491 730.738 131.711 730.738 130.751V124.831H732.258V135.171H730.738V133.371C729.898 134.718 728.718 135.391 727.198 135.391ZM735.862 135.171V120.571H737.402V135.171H735.862ZM744.436 135.351C743.543 135.351 742.829 135.118 742.296 134.651C741.776 134.171 741.516 133.431 741.516 132.431V126.191H740.076V124.831H741.516V121.711H743.056V124.831H746.336V126.191H743.056V132.231C743.056 133.378 743.636 133.951 744.796 133.951C745.303 133.951 745.803 133.831 746.296 133.591V134.911C745.736 135.204 745.116 135.351 744.436 135.351ZM749.062 135.171V124.831H750.602V127.531C751.002 126.638 751.568 125.924 752.302 125.391C753.035 124.858 753.875 124.611 754.822 124.651V126.311H754.702C753.515 126.311 752.535 126.724 751.762 127.551C750.988 128.378 750.602 129.544 750.602 131.051V135.171H749.062ZM757.207 122.571V120.871H758.967V122.571H757.207ZM757.307 135.171V124.831H758.847V135.171H757.307ZM767.081 135.411C765.588 135.411 764.328 134.884 763.301 133.831C762.288 132.778 761.781 131.518 761.781 130.051V130.011C761.781 128.531 762.288 127.264 763.301 126.211C764.328 125.144 765.588 124.611 767.081 124.611C768.681 124.611 770.061 125.224 771.221 126.451L770.201 127.531C769.215 126.491 768.168 125.971 767.061 125.971C766.021 125.971 765.141 126.358 764.421 127.131C763.715 127.904 763.361 128.851 763.361 129.971V130.011C763.361 131.131 763.721 132.084 764.441 132.871C765.175 133.644 766.081 134.031 767.161 134.031C768.308 134.031 769.361 133.518 770.321 132.491L771.301 133.411C770.101 134.744 768.695 135.411 767.081 135.411ZM773.887 122.571V120.871H775.647V122.571H773.887ZM773.987 135.171V124.831H775.527V135.171H773.987ZM780.021 130.631C780.128 131.684 780.521 132.524 781.201 133.151C781.894 133.764 782.714 134.071 783.661 134.071C784.901 134.071 785.988 133.584 786.921 132.611L787.881 133.471C786.721 134.764 785.301 135.411 783.621 135.411C782.168 135.411 780.941 134.911 779.941 133.911C778.954 132.898 778.461 131.598 778.461 130.011C778.461 128.504 778.934 127.231 779.881 126.191C780.828 125.138 782.008 124.611 783.421 124.611C784.901 124.611 786.074 125.131 786.941 126.171C787.808 127.211 788.241 128.518 788.241 130.091C788.241 130.291 788.234 130.471 788.221 130.631H780.021ZM780.021 129.391H786.681C786.588 128.391 786.254 127.564 785.681 126.911C785.121 126.244 784.354 125.911 783.381 125.911C782.501 125.911 781.748 126.238 781.121 126.891C780.494 127.544 780.128 128.378 780.021 129.391ZM794.357 135.371C793.61 135.371 792.85 135.238 792.077 134.971C791.317 134.691 790.65 134.318 790.077 133.851L790.857 132.751C792.03 133.631 793.223 134.071 794.437 134.071C795.063 134.071 795.577 133.924 795.977 133.631C796.377 133.324 796.577 132.924 796.577 132.431V132.391C796.577 131.924 796.357 131.564 795.917 131.311C795.49 131.058 794.85 130.811 793.997 130.571C793.477 130.424 793.063 130.291 792.757 130.171C792.45 130.051 792.103 129.884 791.717 129.671C791.33 129.444 791.043 129.164 790.857 128.831C790.67 128.498 790.577 128.104 790.577 127.651V127.611C790.577 126.731 790.903 126.018 791.557 125.471C792.223 124.924 793.07 124.651 794.097 124.651C795.43 124.651 796.67 125.031 797.817 125.791L797.117 126.951C796.09 126.284 795.07 125.951 794.057 125.951C793.457 125.951 792.97 126.091 792.597 126.371C792.237 126.651 792.057 127.011 792.057 127.451V127.491C792.057 127.678 792.11 127.851 792.217 128.011C792.323 128.171 792.443 128.304 792.577 128.411C792.71 128.518 792.917 128.631 793.197 128.751C793.49 128.871 793.723 128.958 793.897 129.011C794.07 129.064 794.343 129.151 794.717 129.271C795.103 129.391 795.423 129.498 795.677 129.591C795.943 129.684 796.237 129.818 796.557 129.991C796.89 130.151 797.15 130.331 797.337 130.531C797.537 130.718 797.703 130.958 797.837 131.251C797.97 131.544 798.037 131.871 798.037 132.231V132.271C798.037 133.231 797.69 133.991 796.997 134.551C796.303 135.098 795.423 135.371 794.357 135.371ZM807.814 130.631C807.92 131.684 808.314 132.524 808.994 133.151C809.687 133.764 810.507 134.071 811.454 134.071C812.694 134.071 813.78 133.584 814.714 132.611L815.674 133.471C814.514 134.764 813.094 135.411 811.414 135.411C809.96 135.411 808.734 134.911 807.734 133.911C806.747 132.898 806.254 131.598 806.254 130.011C806.254 128.504 806.727 127.231 807.674 126.191C808.62 125.138 809.8 124.611 811.214 124.611C812.694 124.611 813.867 125.131 814.734 126.171C815.6 127.211 816.034 128.518 816.034 130.091C816.034 130.291 816.027 130.471 816.014 130.631H807.814ZM807.814 129.391H814.474C814.38 128.391 814.047 127.564 813.474 126.911C812.914 126.244 812.147 125.911 811.174 125.911C810.294 125.911 809.54 126.238 808.914 126.891C808.287 127.544 807.92 128.378 807.814 129.391ZM818.73 135.171V124.831H820.27V127.531C820.67 126.638 821.236 125.924 821.97 125.391C822.703 124.858 823.543 124.611 824.49 124.651V126.311H824.37C823.183 126.311 822.203 126.724 821.43 127.551C820.656 128.378 820.27 129.544 820.27 131.051V135.171H818.73ZM829.407 135.391C828.367 135.391 827.461 135.104 826.687 134.531C825.927 133.958 825.547 133.171 825.547 132.171V132.131C825.547 131.051 825.947 130.218 826.747 129.631C827.547 129.044 828.621 128.751 829.967 128.751C831.034 128.751 832.087 128.898 833.127 129.191V128.871C833.127 127.964 832.861 127.271 832.327 126.791C831.794 126.311 831.041 126.071 830.067 126.071C829.054 126.071 828.007 126.318 826.927 126.811L826.467 125.551C827.747 124.964 829.001 124.671 830.227 124.671C831.694 124.671 832.807 125.051 833.567 125.811C834.287 126.531 834.647 127.544 834.647 128.851V135.171H833.127V133.631C832.207 134.804 830.967 135.391 829.407 135.391ZM829.707 134.151C830.667 134.151 831.481 133.891 832.147 133.371C832.814 132.851 833.147 132.184 833.147 131.371V130.411C832.134 130.118 831.127 129.971 830.127 129.971C829.181 129.971 828.441 130.164 827.907 130.551C827.374 130.924 827.107 131.424 827.107 132.051V132.091C827.107 132.718 827.354 133.218 827.847 133.591C828.354 133.964 828.974 134.151 829.707 134.151ZM841.272 135.351C840.378 135.351 839.665 135.118 839.132 134.651C838.612 134.171 838.352 133.431 838.352 132.431V126.191H836.912V124.831H838.352V121.711H839.892V124.831H843.172V126.191H839.892V132.231C839.892 133.378 840.472 133.951 841.632 133.951C842.138 133.951 842.638 133.831 843.132 133.591V134.911C842.572 135.204 841.952 135.351 841.272 135.351ZM855.354 135.251L850.874 124.831H852.574L856.054 133.411L859.554 124.831H861.214L856.714 135.251H855.354ZM866.204 135.391C865.164 135.391 864.258 135.104 863.484 134.531C862.724 133.958 862.344 133.171 862.344 132.171V132.131C862.344 131.051 862.744 130.218 863.544 129.631C864.344 129.044 865.418 128.751 866.764 128.751C867.831 128.751 868.884 128.898 869.924 129.191V128.871C869.924 127.964 869.658 127.271 869.124 126.791C868.591 126.311 867.838 126.071 866.864 126.071C865.851 126.071 864.804 126.318 863.724 126.811L863.264 125.551C864.544 124.964 865.798 124.671 867.024 124.671C868.491 124.671 869.604 125.051 870.364 125.811C871.084 126.531 871.444 127.544 871.444 128.851V135.171H869.924V133.631C869.004 134.804 867.764 135.391 866.204 135.391ZM866.504 134.151C867.464 134.151 868.278 133.891 868.944 133.371C869.611 132.851 869.944 132.184 869.944 131.371V130.411C868.931 130.118 867.924 129.971 866.924 129.971C865.978 129.971 865.238 130.164 864.704 130.551C864.171 130.924 863.904 131.424 863.904 132.051V132.091C863.904 132.718 864.151 133.218 864.644 133.591C865.151 133.964 865.771 134.151 866.504 134.151ZM874.706 135.171V124.831H876.246V127.531C876.646 126.638 877.213 125.924 877.946 125.391C878.68 124.858 879.52 124.611 880.466 124.651V126.311H880.346C879.16 126.311 878.18 126.724 877.406 127.551C876.633 128.378 876.246 129.544 876.246 131.051V135.171H874.706ZM882.852 122.571V120.871H884.612V122.571H882.852ZM882.952 135.171V124.831H884.492V135.171H882.952ZM891.866 135.391C890.639 135.391 889.672 135.018 888.966 134.271C888.259 133.511 887.906 132.504 887.906 131.251V124.831H889.446V130.871C889.446 131.844 889.692 132.611 890.186 133.171C890.692 133.718 891.399 133.991 892.306 133.991C893.199 133.991 893.939 133.691 894.526 133.091C895.112 132.491 895.406 131.711 895.406 130.751V124.831H896.926V135.171H895.406V133.371C894.566 134.718 893.386 135.391 891.866 135.391ZM903.81 135.371C903.063 135.371 902.303 135.238 901.53 134.971C900.77 134.691 900.103 134.318 899.53 133.851L900.31 132.751C901.483 133.631 902.677 134.071 903.89 134.071C904.517 134.071 905.03 133.924 905.43 133.631C905.83 133.324 906.03 132.924 906.03 132.431V132.391C906.03 131.924 905.81 131.564 905.37 131.311C904.943 131.058 904.303 130.811 903.45 130.571C902.93 130.424 902.517 130.291 902.21 130.171C901.903 130.051 901.557 129.884 901.17 129.671C900.783 129.444 900.497 129.164 900.31 128.831C900.123 128.498 900.03 128.104 900.03 127.651V127.611C900.03 126.731 900.357 126.018 901.01 125.471C901.677 124.924 902.523 124.651 903.55 124.651C904.883 124.651 906.123 125.031 907.27 125.791L906.57 126.951C905.543 126.284 904.523 125.951 903.51 125.951C902.91 125.951 902.423 126.091 902.05 126.371C901.69 126.651 901.51 127.011 901.51 127.451V127.491C901.51 127.678 901.563 127.851 901.67 128.011C901.777 128.171 901.897 128.304 902.03 128.411C902.163 128.518 902.37 128.631 902.65 128.751C902.943 128.871 903.177 128.958 903.35 129.011C903.523 129.064 903.797 129.151 904.17 129.271C904.557 129.391 904.877 129.498 905.13 129.591C905.397 129.684 905.69 129.818 906.01 129.991C906.343 130.151 906.603 130.331 906.79 130.531C906.99 130.718 907.157 130.958 907.29 131.251C907.423 131.544 907.49 131.871 907.49 132.231V132.271C907.49 133.231 907.143 133.991 906.45 134.551C905.757 135.098 904.877 135.371 903.81 135.371ZM910.171 135.171V133.071H912.011V135.171H910.171Z" fill="#393939"/>
</svg>
