<svg width="27" height="26" viewBox="0 0 27 26" fill="none" xmlns="http://www.w3.org/2000/svg">
<path d="M26.0061 6.5279L20.2408 0.763907C20.0491 0.572188 19.8216 0.420105 19.5711 0.316345C19.3206 0.212585 19.0522 0.15918 18.7811 0.15918C18.51 0.15918 18.2416 0.212585 17.9911 0.316345C17.7406 0.420105 17.5131 0.572188 17.3214 0.763907L1.41364 16.6717C1.22114 16.8626 1.06852 17.09 0.964649 17.3405C0.86078 17.5909 0.807738 17.8596 0.808604 18.1307V23.896C0.808604 24.4434 1.02607 24.9684 1.41316 25.3555C1.80026 25.7426 2.32527 25.9601 2.8727 25.9601H24.5457C24.8195 25.9601 25.082 25.8514 25.2755 25.6578C25.4691 25.4643 25.5778 25.2018 25.5778 24.9281C25.5778 24.6543 25.4691 24.3918 25.2755 24.1983C25.082 24.0047 24.8195 23.896 24.5457 23.896H11.5574L26.0061 9.44731C26.1978 9.25564 26.3499 9.02807 26.4537 8.77761C26.5574 8.52715 26.6108 8.25871 26.6108 7.98761C26.6108 7.71651 26.5574 7.44806 26.4537 7.1976C26.3499 6.94714 26.1978 6.71958 26.0061 6.5279ZM21.4496 11.0844L15.6856 5.31911L18.7817 2.22297L24.5457 7.98825L21.4496 11.0844Z" fill="#5569C8"/>
</svg>
