<svg width="231" height="69" viewBox="0 0 231 69" fill="none" xmlns="http://www.w3.org/2000/svg">
<rect y="0.130859" width="230.667" height="68" rx="34" fill="#27336E"/>
<path d="M35.994 41.6309V24.8309H48.45V27.4709H38.946V31.8389H47.37V34.4789H38.946V38.9909H48.57V41.6309H35.994ZM50.6321 41.6309L55.2881 35.1989L50.8001 28.9589H53.9681L56.8961 33.1349L59.8241 28.9589H62.9201L58.4321 35.1269L63.1121 41.6309H59.9441L56.8241 37.1909L53.7281 41.6309H50.6321ZM65.658 45.4709V28.9589H68.562V31.0709C69.498 29.7509 70.818 28.6949 72.858 28.6949C75.858 28.6949 78.762 31.0709 78.762 35.2709V35.3189C78.762 39.5189 75.882 41.8949 72.858 41.8949C70.77 41.8949 69.45 40.8389 68.562 39.6629V45.4709H65.658ZM72.186 39.3749C74.178 39.3749 75.81 37.8149 75.81 35.3189V35.2709C75.81 32.8229 74.154 31.2149 72.186 31.2149C70.218 31.2149 68.49 32.8469 68.49 35.2709V35.3189C68.49 37.7669 70.218 39.3749 72.186 39.3749ZM81.9041 41.6309V24.1109H84.8081V41.6309H81.9041ZM94.6273 41.9189C90.7633 41.9189 87.9073 38.9669 87.9073 35.3669V35.3189C87.9073 31.6949 90.7873 28.6949 94.6753 28.6949C98.5633 28.6949 101.419 31.6469 101.419 35.2709V35.3189C101.419 38.9189 98.5393 41.9189 94.6273 41.9189ZM94.6753 39.3989C97.0273 39.3989 98.5153 37.5509 98.5153 35.3669V35.3189C98.5153 33.0869 96.9073 31.2389 94.6273 31.2389C92.2993 31.2389 90.8113 33.0629 90.8113 35.2709V35.3189C90.8113 37.5269 92.4193 39.3989 94.6753 39.3989ZM104.377 41.6309V28.9589H107.281V31.8149C108.073 29.9189 109.537 28.6229 111.769 28.7189V31.7909H111.601C109.057 31.7909 107.281 33.4469 107.281 36.8069V41.6309H104.377ZM119.677 41.9189C116.005 41.9189 113.173 39.2549 113.173 35.3429V35.2949C113.173 31.6709 115.741 28.6949 119.365 28.6949C123.397 28.6949 125.437 31.8629 125.437 35.5109C125.437 35.7749 125.413 36.0389 125.389 36.3269H116.077C116.389 38.3909 117.853 39.5429 119.725 39.5429C121.141 39.5429 122.149 39.0149 123.157 38.0309L124.861 39.5429C123.661 40.9829 122.005 41.9189 119.677 41.9189ZM116.053 34.4069H122.557C122.365 32.5349 121.261 31.0709 119.341 31.0709C117.565 31.0709 116.317 32.4389 116.053 34.4069ZM135.549 41.6309V28.9589H138.453V30.8789C139.269 29.7509 140.373 28.6949 142.317 28.6949C144.141 28.6949 145.413 29.5829 146.085 30.9269C147.117 29.5829 148.461 28.6949 150.381 28.6949C153.141 28.6949 154.821 30.4469 154.821 33.5429V41.6309H151.917V34.4309C151.917 32.4149 150.981 31.3349 149.349 31.3349C147.765 31.3349 146.637 32.4389 146.637 34.4789V41.6309H143.733V34.4069C143.733 32.4389 142.773 31.3349 141.165 31.3349C139.557 31.3349 138.453 32.5349 138.453 34.5029V41.6309H135.549ZM164.377 41.9189C160.513 41.9189 157.657 38.9669 157.657 35.3669V35.3189C157.657 31.6949 160.537 28.6949 164.425 28.6949C168.313 28.6949 171.169 31.6469 171.169 35.2709V35.3189C171.169 38.9189 168.289 41.9189 164.377 41.9189ZM164.425 39.3989C166.777 39.3989 168.265 37.5509 168.265 35.3669V35.3189C168.265 33.0869 166.657 31.2389 164.377 31.2389C162.049 31.2389 160.561 33.0629 160.561 35.2709V35.3189C160.561 37.5269 162.169 39.3989 164.425 39.3989ZM174.127 41.6309V28.9589H177.031V31.8149C177.823 29.9189 179.287 28.6229 181.519 28.7189V31.7909H181.351C178.807 31.7909 177.031 33.4469 177.031 36.8069V41.6309H174.127ZM189.427 41.9189C185.755 41.9189 182.923 39.2549 182.923 35.3429V35.2949C182.923 31.6709 185.491 28.6949 189.115 28.6949C193.147 28.6949 195.187 31.8629 195.187 35.5109C195.187 35.7749 195.163 36.0389 195.139 36.3269H185.827C186.139 38.3909 187.603 39.5429 189.475 39.5429C190.891 39.5429 191.899 39.0149 192.907 38.0309L194.611 39.5429C193.411 40.9829 191.755 41.9189 189.427 41.9189ZM185.803 34.4069H192.307C192.115 32.5349 191.011 31.0709 189.091 31.0709C187.315 31.0709 186.067 32.4389 185.803 34.4069Z" fill="white"/>
</svg>
