<svg width="914" height="143" viewBox="0 0 914 143" fill="none" xmlns="http://www.w3.org/2000/svg">
<circle cx="179.863" cy="39.8691" r="39" fill="#E2E7FF"/>
<path d="M176.46 56V28H196.58V30.92H179.62V40.92H194.78V43.8H179.62V56H176.46ZM202.19 56V35.32H205.27V40.72C206.07 38.9333 207.203 37.5067 208.67 36.44C210.137 35.3733 211.817 34.88 213.71 34.96V38.28H213.47C211.097 38.28 209.137 39.1067 207.59 40.76C206.043 42.4133 205.27 44.7467 205.27 47.76V56H202.19ZM219.342 46.92C219.556 49.0267 220.343 50.7067 221.703 51.96C223.089 53.1867 224.729 53.8 226.623 53.8C229.103 53.8 231.276 52.8267 233.143 50.88L235.063 52.6C232.743 55.1867 229.903 56.48 226.543 56.48C223.636 56.48 221.183 55.48 219.183 53.48C217.209 51.4533 216.223 48.8533 216.223 45.68C216.223 42.6667 217.169 40.12 219.062 38.04C220.956 35.9333 223.316 34.88 226.143 34.88C229.103 34.88 231.449 35.92 233.183 38C234.916 40.08 235.783 42.6933 235.783 45.84C235.783 46.24 235.769 46.6 235.743 46.92H219.342ZM219.342 44.44H232.663C232.476 42.44 231.809 40.7867 230.663 39.48C229.543 38.1467 228.009 37.48 226.063 37.48C224.303 37.48 222.796 38.1333 221.543 39.44C220.289 40.7467 219.556 42.4133 219.342 44.44ZM257.774 62.4V51.84C255.694 54.9067 253.054 56.44 249.854 56.44C247.214 56.44 244.908 55.4667 242.934 53.52C240.961 51.5733 239.974 48.9733 239.974 45.72V45.64C239.974 42.4133 240.961 39.8133 242.934 37.84C244.908 35.8667 247.214 34.88 249.854 34.88C253.108 34.88 255.748 36.3467 257.774 39.28V35.32H260.854V62.4H257.774ZM250.414 53.68C252.414 53.68 254.161 52.9333 255.654 51.44C257.148 49.92 257.894 48 257.894 45.68V45.6C257.894 43.3067 257.148 41.4133 255.654 39.92C254.161 38.4 252.414 37.64 250.414 37.64C248.334 37.64 246.601 38.36 245.214 39.8C243.828 41.24 243.134 43.1733 243.134 45.6V45.68C243.134 48.0533 243.841 49.9867 245.254 51.48C246.668 52.9467 248.388 53.68 250.414 53.68ZM275.337 56.44C272.884 56.44 270.95 55.6933 269.537 54.2C268.124 52.68 267.417 50.6667 267.417 48.16V35.32H270.497V47.4C270.497 49.3467 270.99 50.88 271.977 52C272.99 53.0933 274.404 53.64 276.217 53.64C278.004 53.64 279.484 53.04 280.657 51.84C281.83 50.64 282.417 49.08 282.417 47.16V35.32H285.457V56H282.417V52.4C280.737 55.0933 278.377 56.44 275.337 56.44ZM294.225 46.92C294.439 49.0267 295.225 50.7067 296.585 51.96C297.972 53.1867 299.612 53.8 301.505 53.8C303.985 53.8 306.159 52.8267 308.025 50.88L309.945 52.6C307.625 55.1867 304.785 56.48 301.425 56.48C298.519 56.48 296.065 55.48 294.065 53.48C292.092 51.4533 291.105 48.8533 291.105 45.68C291.105 42.6667 292.052 40.12 293.945 38.04C295.839 35.9333 298.199 34.88 301.025 34.88C303.985 34.88 306.332 35.92 308.065 38C309.799 40.08 310.665 42.6933 310.665 45.84C310.665 46.24 310.652 46.6 310.625 46.92H294.225ZM294.225 44.44H307.545C307.359 42.44 306.692 40.7867 305.545 39.48C304.425 38.1467 302.892 37.48 300.945 37.48C299.185 37.48 297.679 38.1333 296.425 39.44C295.172 40.7467 294.439 42.4133 294.225 44.44ZM316.057 56V35.32H319.137V38.92C320.764 36.2267 323.124 34.88 326.217 34.88C328.671 34.88 330.604 35.64 332.017 37.16C333.431 38.6533 334.137 40.6533 334.137 43.16V56H331.057V43.92C331.057 41.9733 330.551 40.4533 329.537 39.36C328.551 38.24 327.151 37.68 325.337 37.68C323.551 37.68 322.071 38.28 320.897 39.48C319.724 40.68 319.137 42.24 319.137 44.16V56H316.057ZM347.626 56.36C345.839 56.36 344.412 55.8933 343.346 54.96C342.306 54 341.786 52.52 341.786 50.52V38.04H338.906V35.32H341.786V29.08H344.866V35.32H351.426V38.04H344.866V50.12C344.866 52.4133 346.026 53.56 348.346 53.56C349.359 53.56 350.359 53.32 351.346 52.84V55.48C350.226 56.0667 348.986 56.36 347.626 56.36ZM357.158 56V26.8H360.238V56H357.158ZM370.585 62.52C369.092 62.52 367.625 62.1733 366.185 61.48L367.225 59.04C368.212 59.5467 369.292 59.8 370.465 59.8C371.399 59.8 372.185 59.5067 372.825 58.92C373.465 58.36 374.092 57.36 374.705 55.92L365.305 35.32H368.705L376.225 52.56L382.865 35.32H386.145L377.465 56.68C376.585 58.7867 375.612 60.28 374.545 61.16C373.479 62.0667 372.159 62.52 370.585 62.52ZM400.53 56L412.53 27.8H418.21L430.21 56H423.77L421.21 49.72H409.37L406.81 56H400.53ZM411.57 44.28H419.01L415.29 35.2L411.57 44.28ZM441.412 56.4C438.412 56.4 435.052 55.4 432.212 53.16L434.812 49.16C437.132 50.84 439.572 51.72 441.572 51.72C443.332 51.72 444.132 51.08 444.132 50.12V50.04C444.132 48.72 442.052 48.28 439.692 47.56C436.692 46.68 433.292 45.28 433.292 41.12V41.04C433.292 36.68 436.812 34.24 441.132 34.24C443.852 34.24 446.812 35.16 449.132 36.72L446.812 40.92C444.692 39.68 442.572 38.92 441.012 38.92C439.532 38.92 438.772 39.56 438.772 40.4V40.48C438.772 41.68 440.812 42.24 443.132 43.04C446.132 44.04 449.612 45.48 449.612 49.4V49.48C449.612 54.24 446.052 56.4 441.412 56.4ZM453.97 56V26.8H460.05V42.36L467.17 34.56H474.45L466.29 43L474.73 56H467.77L462.17 47.24L460.05 49.48V56H453.97ZM486.786 56.48C480.346 56.48 475.586 51.96 475.586 45.4V45.32C475.586 39.2 479.946 34.16 486.186 34.16C493.346 34.16 496.626 39.72 496.626 45.8C496.626 46.28 496.586 46.84 496.546 47.4H481.626C482.226 50.16 484.146 51.6 486.866 51.6C488.906 51.6 490.386 50.96 492.066 49.4L495.546 52.48C493.546 54.96 490.666 56.48 486.786 56.48ZM481.546 43.6H490.706C490.346 40.88 488.746 39.04 486.186 39.04C483.666 39.04 482.026 40.84 481.546 43.6ZM509.958 56.4C504.958 56.4 500.198 52.48 500.198 45.32V45.24C500.198 38.08 504.878 34.16 509.958 34.16C513.198 34.16 515.198 35.64 516.638 37.36V26.8H522.718V56H516.638V52.92C515.158 54.92 513.118 56.4 509.958 56.4ZM511.518 51.24C514.358 51.24 516.718 48.88 516.718 45.32V45.24C516.718 41.68 514.358 39.32 511.518 39.32C508.678 39.32 506.278 41.64 506.278 45.24V45.32C506.278 48.88 508.678 51.24 511.518 51.24ZM569.702 52.48L565.782 56.84L562.702 54.08C560.342 55.6 557.502 56.48 554.382 56.48C545.742 56.48 539.542 50.04 539.542 42.08V42C539.542 34.04 545.822 27.52 554.462 27.52C563.102 27.52 569.302 33.96 569.302 41.92V42C569.302 44.96 568.382 47.72 566.822 50.04L569.702 52.48ZM554.462 50.8C555.822 50.8 557.062 50.56 558.142 50.04L553.582 46.16L557.502 41.76L562.102 45.92C562.582 44.8 562.862 43.48 562.862 42.08V42C562.862 37.2 559.342 33.2 554.382 33.2C549.422 33.2 545.982 37.12 545.982 41.92V42C545.982 46.8 549.502 50.8 554.462 50.8ZM581.246 56.4C576.646 56.4 573.966 53.36 573.966 48.44V34.56H580.046V46.52C580.046 49.4 581.406 50.88 583.726 50.88C586.046 50.88 587.526 49.4 587.526 46.52V34.56H593.606V56H587.526V52.96C586.126 54.76 584.326 56.4 581.246 56.4ZM609.208 56.48C602.768 56.48 598.008 51.96 598.008 45.4V45.32C598.008 39.2 602.368 34.16 608.608 34.16C615.768 34.16 619.048 39.72 619.048 45.8C619.048 46.28 619.008 46.84 618.968 47.4H604.048C604.648 50.16 606.568 51.6 609.288 51.6C611.328 51.6 612.808 50.96 614.488 49.4L617.968 52.48C615.968 54.96 613.088 56.48 609.208 56.48ZM603.968 43.6H613.128C612.768 40.88 611.168 39.04 608.608 39.04C606.088 39.04 604.448 40.84 603.968 43.6ZM631.099 56.4C628.099 56.4 624.739 55.4 621.899 53.16L624.499 49.16C626.819 50.84 629.259 51.72 631.259 51.72C633.019 51.72 633.819 51.08 633.819 50.12V50.04C633.819 48.72 631.739 48.28 629.379 47.56C626.379 46.68 622.979 45.28 622.979 41.12V41.04C622.979 36.68 626.499 34.24 630.819 34.24C633.539 34.24 636.499 35.16 638.819 36.72L636.499 40.92C634.379 39.68 632.259 38.92 630.699 38.92C629.219 38.92 628.459 39.56 628.459 40.4V40.48C628.459 41.68 630.499 42.24 632.819 43.04C635.819 44.04 639.299 45.48 639.299 49.4V49.48C639.299 54.24 635.739 56.4 631.099 56.4ZM650.507 56.36C646.787 56.36 644.267 54.88 644.267 49.92V39.76H641.707V34.56H644.267V29.08H650.347V34.56H655.387V39.76H650.347V48.92C650.347 50.32 650.947 51 652.307 51C653.427 51 654.427 50.72 655.307 50.24V55.12C654.027 55.88 652.547 56.36 650.507 56.36ZM659.988 32.2V26.8H666.388V32.2H659.988ZM660.148 56V34.56H666.228V56H660.148ZM682.459 56.48C675.819 56.48 670.899 51.56 670.899 45.4V45.32C670.899 39.16 675.859 34.16 682.539 34.16C689.179 34.16 694.099 39.08 694.099 45.24V45.32C694.099 51.48 689.139 56.48 682.459 56.48ZM682.539 51.24C686.019 51.24 688.099 48.56 688.099 45.4V45.32C688.099 42.16 685.819 39.4 682.459 39.4C678.979 39.4 676.899 42.08 676.899 45.24V45.32C676.899 48.48 679.179 51.24 682.539 51.24ZM698.501 56V34.56H704.581V37.6C705.981 35.8 707.781 34.16 710.861 34.16C715.461 34.16 718.141 37.2 718.141 42.12V56H712.061V44.04C712.061 41.16 710.701 39.68 708.381 39.68C706.061 39.68 704.581 41.16 704.581 44.04V56H698.501ZM730.943 56.4C727.943 56.4 724.583 55.4 721.743 53.16L724.343 49.16C726.663 50.84 729.103 51.72 731.103 51.72C732.863 51.72 733.663 51.08 733.663 50.12V50.04C733.663 48.72 731.583 48.28 729.223 47.56C726.223 46.68 722.823 45.28 722.823 41.12V41.04C722.823 36.68 726.343 34.24 730.663 34.24C733.383 34.24 736.343 35.16 738.663 36.72L736.343 40.92C734.223 39.68 732.103 38.92 730.543 38.92C729.063 38.92 728.303 39.56 728.303 40.4V40.48C728.303 41.68 730.343 42.24 732.663 43.04C735.663 44.04 739.143 45.48 739.143 49.4V49.48C739.143 54.24 735.583 56.4 730.943 56.4Z" fill="#27336E"/>
<path d="M30.0089 105.24C28.0089 105.24 26.3356 104.547 24.9889 103.16C23.6556 101.773 22.9889 100.067 22.9889 98.04V98C22.9889 95.9867 23.6622 94.28 25.0089 92.88C26.3556 91.4667 28.0422 90.76 30.0689 90.76C31.2556 90.76 32.2689 90.9467 33.1089 91.32C33.9489 91.6933 34.7556 92.2467 35.5289 92.98L34.4489 94.14C33.1022 92.86 31.6356 92.22 30.0489 92.22C28.5022 92.22 27.2089 92.7733 26.1689 93.88C25.1422 94.9867 24.6289 96.3467 24.6289 97.96V98C24.6289 99.6267 25.1489 101 26.1889 102.12C27.2289 103.227 28.5156 103.78 30.0489 103.78C30.9556 103.78 31.7556 103.613 32.4489 103.28C33.1422 102.947 33.8489 102.44 34.5689 101.76L35.6089 102.78C34.8089 103.593 33.9756 104.207 33.1089 104.62C32.2422 105.033 31.2089 105.24 30.0089 105.24ZM46.4992 103.66C45.4592 104.713 44.1726 105.24 42.6392 105.24C41.1059 105.24 39.8259 104.72 38.7992 103.68C37.7859 102.627 37.2792 101.36 37.2792 99.88V99.84C37.2792 98.36 37.7926 97.0933 38.8192 96.04C39.8592 94.9733 41.1459 94.44 42.6792 94.44C44.2126 94.44 45.4926 94.9667 46.5192 96.02C47.5459 97.06 48.0592 98.32 48.0592 99.8V99.84C48.0592 101.32 47.5392 102.593 46.4992 103.66ZM42.6792 103.86C43.7859 103.86 44.6926 103.473 45.3992 102.7C46.1192 101.927 46.4792 100.987 46.4792 99.88V99.84C46.4792 98.72 46.1059 97.7667 45.3592 96.98C44.6259 96.1933 43.7192 95.8 42.6392 95.8C41.5459 95.8 40.6392 96.1933 39.9192 96.98C39.2126 97.7533 38.8592 98.6933 38.8592 99.8V99.84C38.8592 100.96 39.2259 101.913 39.9592 102.7C40.6926 103.473 41.5992 103.86 42.6792 103.86ZM50.8489 105V94.66H52.3889V96.4C53.2556 95.0933 54.3689 94.44 55.7289 94.44C57.2756 94.44 58.3822 95.1267 59.0489 96.5C59.9422 95.1267 61.1556 94.44 62.6889 94.44C63.8756 94.44 64.8089 94.8133 65.4889 95.56C66.1822 96.3067 66.5289 97.32 66.5289 98.6V105H64.9889V98.96C64.9889 97.96 64.7489 97.1933 64.2689 96.66C63.8022 96.1133 63.1489 95.84 62.3089 95.84C61.4956 95.84 60.8156 96.1267 60.2689 96.7C59.7222 97.2733 59.4489 98.0533 59.4489 99.04V105H57.9289V98.92C57.9289 97.96 57.6889 97.2067 57.2089 96.66C56.7422 96.1133 56.0956 95.84 55.2689 95.84C54.4422 95.84 53.7556 96.1467 53.2089 96.76C52.6622 97.3733 52.3889 98.1533 52.3889 99.1V105H50.8489ZM69.8723 105V94.66H71.4123V96.4C72.279 95.0933 73.3923 94.44 74.7523 94.44C76.299 94.44 77.4057 95.1267 78.0723 96.5C78.9657 95.1267 80.179 94.44 81.7123 94.44C82.899 94.44 83.8323 94.8133 84.5123 95.56C85.2057 96.3067 85.5523 97.32 85.5523 98.6V105H84.0123V98.96C84.0123 97.96 83.7723 97.1933 83.2923 96.66C82.8257 96.1133 82.1723 95.84 81.3323 95.84C80.519 95.84 79.839 96.1267 79.2923 96.7C78.7457 97.2733 78.4723 98.0533 78.4723 99.04V105H76.9523V98.92C76.9523 97.96 76.7123 97.2067 76.2323 96.66C75.7657 96.1133 75.119 95.84 74.2923 95.84C73.4657 95.84 72.779 96.1467 72.2323 96.76C71.6857 97.3733 71.4123 98.1533 71.4123 99.1V105H69.8723ZM97.4758 103.66C96.4358 104.713 95.1491 105.24 93.6158 105.24C92.0824 105.24 90.8024 104.72 89.7758 103.68C88.7624 102.627 88.2558 101.36 88.2558 99.88V99.84C88.2558 98.36 88.7691 97.0933 89.7958 96.04C90.8358 94.9733 92.1224 94.44 93.6558 94.44C95.1891 94.44 96.4691 94.9667 97.4958 96.02C98.5224 97.06 99.0358 98.32 99.0358 99.8V99.84C99.0358 101.32 98.5158 102.593 97.4758 103.66ZM93.6558 103.86C94.7624 103.86 95.6691 103.473 96.3758 102.7C97.0958 101.927 97.4558 100.987 97.4558 99.88V99.84C97.4558 98.72 97.0824 97.7667 96.3358 96.98C95.6024 96.1933 94.6958 95.8 93.6158 95.8C92.5224 95.8 91.6158 96.1933 90.8958 96.98C90.1891 97.7533 89.8358 98.6933 89.8358 99.8V99.84C89.8358 100.96 90.2024 101.913 90.9358 102.7C91.6691 103.473 92.5758 103.86 93.6558 103.86ZM106.165 105.22C104.845 105.22 103.692 104.733 102.705 103.76C101.719 102.787 101.225 101.487 101.225 99.86V99.82C101.225 98.2067 101.719 96.9067 102.705 95.92C103.692 94.9333 104.845 94.44 106.165 94.44C107.792 94.44 109.112 95.1733 110.125 96.64V90.4H111.665V105H110.125V102.92C109.085 104.453 107.765 105.22 106.165 105.22ZM106.445 103.84C107.445 103.84 108.319 103.467 109.065 102.72C109.812 101.96 110.185 101 110.185 99.84V99.8C110.185 98.6533 109.812 97.7067 109.065 96.96C108.319 96.2 107.445 95.82 106.445 95.82C105.405 95.82 104.539 96.18 103.845 96.9C103.152 97.62 102.805 98.5867 102.805 99.8V99.84C102.805 101.027 103.159 101.993 103.865 102.74C104.572 103.473 105.432 103.84 106.445 103.84ZM123.687 103.66C122.647 104.713 121.36 105.24 119.827 105.24C118.293 105.24 117.013 104.72 115.987 103.68C114.973 102.627 114.467 101.36 114.467 99.88V99.84C114.467 98.36 114.98 97.0933 116.007 96.04C117.047 94.9733 118.333 94.44 119.867 94.44C121.4 94.44 122.68 94.9667 123.707 96.02C124.733 97.06 125.247 98.32 125.247 99.8V99.84C125.247 101.32 124.727 102.593 123.687 103.66ZM119.867 103.86C120.973 103.86 121.88 103.473 122.587 102.7C123.307 101.927 123.667 100.987 123.667 99.88V99.84C123.667 98.72 123.293 97.7667 122.547 96.98C121.813 96.1933 120.907 95.8 119.827 95.8C118.733 95.8 117.827 96.1933 117.107 96.98C116.4 97.7533 116.047 98.6933 116.047 99.8V99.84C116.047 100.96 116.413 101.913 117.147 102.7C117.88 103.473 118.787 103.86 119.867 103.86ZM138.373 105.22C137.053 105.22 135.899 104.733 134.913 103.76C133.926 102.787 133.433 101.487 133.433 99.86V99.82C133.433 98.2067 133.926 96.9067 134.913 95.92C135.899 94.9333 137.053 94.44 138.373 94.44C139.999 94.44 141.319 95.1733 142.333 96.64V90.4H143.873V105H142.333V102.92C141.293 104.453 139.973 105.22 138.373 105.22ZM138.653 103.84C139.653 103.84 140.526 103.467 141.273 102.72C142.019 101.96 142.393 101 142.393 99.84V99.8C142.393 98.6533 142.019 97.7067 141.273 96.96C140.526 96.2 139.653 95.82 138.653 95.82C137.613 95.82 136.746 96.18 136.053 96.9C135.359 97.62 135.013 98.5867 135.013 99.8V99.84C135.013 101.027 135.366 101.993 136.073 102.74C136.779 103.473 137.639 103.84 138.653 103.84ZM147.354 92.4V90.7H149.114V92.4H147.354ZM147.454 105V94.66H148.994V105H147.454ZM157.148 108.24C155.401 108.24 153.834 107.76 152.448 106.8L153.148 105.6C154.361 106.48 155.688 106.92 157.128 106.92C158.288 106.92 159.201 106.6 159.868 105.96C160.548 105.333 160.888 104.427 160.888 103.24V102.02C159.794 103.473 158.441 104.2 156.828 104.2C155.521 104.2 154.381 103.753 153.408 102.86C152.448 101.953 151.968 100.787 151.968 99.36V99.32C151.968 97.8667 152.454 96.6933 153.428 95.8C154.401 94.8933 155.534 94.44 156.828 94.44C158.481 94.44 159.828 95.1333 160.868 96.52V94.66H162.408V103.2C162.408 104.76 161.968 105.98 161.088 106.86C160.168 107.78 158.854 108.24 157.148 108.24ZM157.128 102.84C158.141 102.84 159.028 102.513 159.788 101.86C160.548 101.193 160.928 100.353 160.928 99.34V99.3C160.928 98.2733 160.548 97.4333 159.788 96.78C159.041 96.1267 158.154 95.8 157.128 95.8C156.128 95.8 155.281 96.12 154.588 96.76C153.894 97.4 153.548 98.24 153.548 99.28V99.32C153.548 100.333 153.894 101.173 154.588 101.84C155.294 102.507 156.141 102.84 157.128 102.84ZM165.849 105V94.66H167.389V96.46C168.202 95.1133 169.382 94.44 170.929 94.44C172.156 94.44 173.122 94.82 173.829 95.58C174.536 96.3267 174.889 97.3267 174.889 98.58V105H173.349V98.96C173.349 97.9867 173.096 97.2267 172.589 96.68C172.096 96.12 171.396 95.84 170.489 95.84C169.596 95.84 168.856 96.14 168.269 96.74C167.682 97.34 167.389 98.12 167.389 99.08V105H165.849ZM178.213 92.4V90.7H179.973V92.4H178.213ZM178.313 105V94.66H179.853V105H178.313ZM186.847 105.2C186.1 105.2 185.34 105.067 184.567 104.8C183.807 104.52 183.14 104.147 182.567 103.68L183.347 102.58C184.52 103.46 185.714 103.9 186.927 103.9C187.554 103.9 188.067 103.753 188.467 103.46C188.867 103.153 189.067 102.753 189.067 102.26V102.22C189.067 101.753 188.847 101.393 188.407 101.14C187.98 100.887 187.34 100.64 186.487 100.4C185.967 100.253 185.554 100.12 185.247 100C184.94 99.88 184.594 99.7133 184.207 99.5C183.82 99.2733 183.534 98.9933 183.347 98.66C183.16 98.3267 183.067 97.9333 183.067 97.48V97.44C183.067 96.56 183.394 95.8467 184.047 95.3C184.714 94.7533 185.56 94.48 186.587 94.48C187.92 94.48 189.16 94.86 190.307 95.62L189.607 96.78C188.58 96.1133 187.56 95.78 186.547 95.78C185.947 95.78 185.46 95.92 185.087 96.2C184.727 96.48 184.547 96.84 184.547 97.28V97.32C184.547 97.5067 184.6 97.68 184.707 97.84C184.814 98 184.934 98.1333 185.067 98.24C185.2 98.3467 185.407 98.46 185.687 98.58C185.98 98.7 186.214 98.7867 186.387 98.84C186.56 98.8933 186.834 98.98 187.207 99.1C187.594 99.22 187.914 99.3267 188.167 99.42C188.434 99.5133 188.727 99.6467 189.047 99.82C189.38 99.98 189.64 100.16 189.827 100.36C190.027 100.547 190.194 100.787 190.327 101.08C190.46 101.373 190.527 101.7 190.527 102.06V102.1C190.527 103.06 190.18 103.82 189.487 104.38C188.794 104.927 187.914 105.2 186.847 105.2ZM196.613 105.2C195.866 105.2 195.106 105.067 194.333 104.8C193.573 104.52 192.906 104.147 192.333 103.68L193.113 102.58C194.286 103.46 195.479 103.9 196.693 103.9C197.319 103.9 197.833 103.753 198.233 103.46C198.633 103.153 198.833 102.753 198.833 102.26V102.22C198.833 101.753 198.613 101.393 198.173 101.14C197.746 100.887 197.106 100.64 196.253 100.4C195.733 100.253 195.319 100.12 195.013 100C194.706 99.88 194.359 99.7133 193.973 99.5C193.586 99.2733 193.299 98.9933 193.113 98.66C192.926 98.3267 192.833 97.9333 192.833 97.48V97.44C192.833 96.56 193.159 95.8467 193.813 95.3C194.479 94.7533 195.326 94.48 196.353 94.48C197.686 94.48 198.926 94.86 200.073 95.62L199.373 96.78C198.346 96.1133 197.326 95.78 196.313 95.78C195.713 95.78 195.226 95.92 194.853 96.2C194.493 96.48 194.313 96.84 194.313 97.28V97.32C194.313 97.5067 194.366 97.68 194.473 97.84C194.579 98 194.699 98.1333 194.833 98.24C194.966 98.3467 195.173 98.46 195.453 98.58C195.746 98.7 195.979 98.7867 196.153 98.84C196.326 98.8933 196.599 98.98 196.973 99.1C197.359 99.22 197.679 99.3267 197.933 99.42C198.199 99.5133 198.493 99.6467 198.813 99.82C199.146 99.98 199.406 100.16 199.593 100.36C199.793 100.547 199.959 100.787 200.093 101.08C200.226 101.373 200.293 101.7 200.293 102.06V102.1C200.293 103.06 199.946 103.82 199.253 104.38C198.559 104.927 197.679 105.2 196.613 105.2ZM203.194 92.4V90.7H204.954V92.4H203.194ZM203.294 105V94.66H204.834V105H203.294ZM208.408 105V94.66H209.948V96.4C210.814 95.0933 211.928 94.44 213.288 94.44C214.834 94.44 215.941 95.1267 216.608 96.5C217.501 95.1267 218.714 94.44 220.248 94.44C221.434 94.44 222.368 94.8133 223.048 95.56C223.741 96.3067 224.088 97.32 224.088 98.6V105H222.548V98.96C222.548 97.96 222.308 97.1933 221.828 96.66C221.361 96.1133 220.708 95.84 219.868 95.84C219.054 95.84 218.374 96.1267 217.828 96.7C217.281 97.2733 217.008 98.0533 217.008 99.04V105H215.488V98.92C215.488 97.96 215.248 97.2067 214.768 96.66C214.301 96.1133 213.654 95.84 212.828 95.84C212.001 95.84 211.314 96.1467 210.768 96.76C210.221 97.3733 209.948 98.1533 209.948 99.1V105H208.408ZM236.887 105.18C235.994 105.18 235.28 104.947 234.747 104.48C234.227 104 233.967 103.26 233.967 102.26V96.02H232.527V94.66H233.967V91.54H235.507V94.66H238.787V96.02H235.507V102.06C235.507 103.207 236.087 103.78 237.247 103.78C237.754 103.78 238.254 103.66 238.747 103.42V104.74C238.187 105.033 237.567 105.18 236.887 105.18ZM245.313 105.22C244.086 105.22 243.12 104.847 242.413 104.1C241.706 103.34 241.353 102.333 241.353 101.08V94.66H242.893V100.7C242.893 101.673 243.14 102.44 243.633 103C244.14 103.547 244.846 103.82 245.753 103.82C246.646 103.82 247.386 103.52 247.973 102.92C248.56 102.32 248.853 101.54 248.853 100.58V94.66H250.373V105H248.853V103.2C248.013 104.547 246.833 105.22 245.313 105.22ZM253.837 105V94.66H255.377V97.36C255.777 96.4667 256.344 95.7533 257.077 95.22C257.811 94.6867 258.651 94.44 259.597 94.48V96.14H259.477C258.291 96.14 257.311 96.5533 256.537 97.38C255.764 98.2067 255.377 99.3733 255.377 100.88V105H253.837ZM261.943 108.2V94.66H263.483V96.74C264.523 95.2067 265.843 94.44 267.443 94.44C268.763 94.44 269.916 94.9267 270.903 95.9C271.889 96.8733 272.383 98.1733 272.383 99.8V99.84C272.383 101.453 271.889 102.753 270.903 103.74C269.916 104.727 268.763 105.22 267.443 105.22C265.816 105.22 264.496 104.487 263.483 103.02V108.2H261.943ZM267.163 103.84C268.203 103.84 269.069 103.48 269.763 102.76C270.456 102.04 270.803 101.073 270.803 99.86V99.82C270.803 98.6333 270.449 97.6733 269.743 96.94C269.036 96.1933 268.176 95.82 267.163 95.82C266.163 95.82 265.289 96.2 264.543 96.96C263.796 97.7067 263.423 98.6533 263.423 99.8V99.84C263.423 101 263.796 101.96 264.543 102.72C265.289 103.467 266.163 103.84 267.163 103.84ZM275.264 92.4V90.7H277.024V92.4H275.264ZM275.364 105V94.66H276.904V105H275.364ZM283.898 105.2C283.151 105.2 282.391 105.067 281.618 104.8C280.858 104.52 280.191 104.147 279.618 103.68L280.398 102.58C281.571 103.46 282.764 103.9 283.978 103.9C284.604 103.9 285.118 103.753 285.518 103.46C285.918 103.153 286.118 102.753 286.118 102.26V102.22C286.118 101.753 285.898 101.393 285.458 101.14C285.031 100.887 284.391 100.64 283.538 100.4C283.018 100.253 282.604 100.12 282.298 100C281.991 99.88 281.644 99.7133 281.258 99.5C280.871 99.2733 280.584 98.9933 280.398 98.66C280.211 98.3267 280.118 97.9333 280.118 97.48V97.44C280.118 96.56 280.444 95.8467 281.098 95.3C281.764 94.7533 282.611 94.48 283.638 94.48C284.971 94.48 286.211 94.86 287.358 95.62L286.658 96.78C285.631 96.1133 284.611 95.78 283.598 95.78C282.998 95.78 282.511 95.92 282.138 96.2C281.778 96.48 281.598 96.84 281.598 97.28V97.32C281.598 97.5067 281.651 97.68 281.758 97.84C281.864 98 281.984 98.1333 282.118 98.24C282.251 98.3467 282.458 98.46 282.738 98.58C283.031 98.7 283.264 98.7867 283.438 98.84C283.611 98.8933 283.884 98.98 284.258 99.1C284.644 99.22 284.964 99.3267 285.218 99.42C285.484 99.5133 285.778 99.6467 286.098 99.82C286.431 99.98 286.691 100.16 286.878 100.36C287.078 100.547 287.244 100.787 287.378 101.08C287.511 101.373 287.578 101.7 287.578 102.06V102.1C287.578 103.06 287.231 103.82 286.538 104.38C285.844 104.927 284.964 105.2 283.898 105.2ZM299.895 105.08L295.415 94.66H297.115L300.595 103.24L304.095 94.66H305.755L301.255 105.08H299.895ZM308.488 100.46C308.594 101.513 308.988 102.353 309.668 102.98C310.361 103.593 311.181 103.9 312.128 103.9C313.368 103.9 314.454 103.413 315.388 102.44L316.348 103.3C315.188 104.593 313.768 105.24 312.088 105.24C310.634 105.24 309.408 104.74 308.408 103.74C307.421 102.727 306.928 101.427 306.928 99.84C306.928 98.3333 307.401 97.06 308.348 96.02C309.294 94.9667 310.474 94.44 311.888 94.44C313.368 94.44 314.541 94.96 315.408 96C316.274 97.04 316.708 98.3467 316.708 99.92C316.708 100.12 316.701 100.3 316.688 100.46H308.488ZM308.488 99.22H315.148C315.054 98.22 314.721 97.3933 314.148 96.74C313.588 96.0733 312.821 95.74 311.848 95.74C310.968 95.74 310.214 96.0667 309.588 96.72C308.961 97.3733 308.594 98.2067 308.488 99.22ZM319.544 105V90.4H321.084V105H319.544ZM331.234 105V96.02H329.814V94.68H331.234V93.78C331.234 92.6067 331.534 91.72 332.134 91.12C332.667 90.5867 333.407 90.32 334.354 90.32C335.007 90.32 335.574 90.4067 336.054 90.58V91.92C335.44 91.7467 334.94 91.66 334.554 91.66C333.354 91.66 332.754 92.3933 332.754 93.86V94.7H336.034V96.02H332.774V105H331.234ZM337.997 105V94.66H339.537V97.36C339.937 96.4667 340.504 95.7533 341.237 95.22C341.971 94.6867 342.811 94.44 343.757 94.48V96.14H343.637C342.451 96.14 341.471 96.5533 340.697 97.38C339.924 98.2067 339.537 99.3733 339.537 100.88V105H337.997ZM346.143 92.4V90.7H347.903V92.4H346.143ZM346.243 105V94.66H347.783V105H346.243ZM351.357 105V94.66H352.897V96.46C353.71 95.1133 354.89 94.44 356.437 94.44C357.663 94.44 358.63 94.82 359.337 95.58C360.043 96.3267 360.397 97.3267 360.397 98.58V105H358.857V98.96C358.857 97.9867 358.603 97.2267 358.097 96.68C357.603 96.12 356.903 95.84 355.997 95.84C355.103 95.84 354.363 96.14 353.777 96.74C353.19 97.34 352.897 98.12 352.897 99.08V105H351.357ZM368.261 108.24C366.514 108.24 364.948 107.76 363.561 106.8L364.261 105.6C365.474 106.48 366.801 106.92 368.241 106.92C369.401 106.92 370.314 106.6 370.981 105.96C371.661 105.333 372.001 104.427 372.001 103.24V102.02C370.908 103.473 369.554 104.2 367.941 104.2C366.634 104.2 365.494 103.753 364.521 102.86C363.561 101.953 363.081 100.787 363.081 99.36V99.32C363.081 97.8667 363.568 96.6933 364.541 95.8C365.514 94.8933 366.648 94.44 367.941 94.44C369.594 94.44 370.941 95.1333 371.981 96.52V94.66H373.521V103.2C373.521 104.76 373.081 105.98 372.201 106.86C371.281 107.78 369.968 108.24 368.261 108.24ZM368.241 102.84C369.254 102.84 370.141 102.513 370.901 101.86C371.661 101.193 372.041 100.353 372.041 99.34V99.3C372.041 98.2733 371.661 97.4333 370.901 96.78C370.154 96.1267 369.268 95.8 368.241 95.8C367.241 95.8 366.394 96.12 365.701 96.76C365.008 97.4 364.661 98.24 364.661 99.28V99.32C364.661 100.333 365.008 101.173 365.701 101.84C366.408 102.507 367.254 102.84 368.241 102.84ZM377.002 92.4V90.7H378.762V92.4H377.002ZM377.102 105V94.66H378.642V105H377.102ZM382.356 105V90.4H383.896V105H382.356ZM387.61 105V90.4H389.15V105H387.61ZM395.804 105.22C394.764 105.22 393.857 104.933 393.084 104.36C392.324 103.787 391.944 103 391.944 102V101.96C391.944 100.88 392.344 100.047 393.144 99.46C393.944 98.8733 395.017 98.58 396.364 98.58C397.431 98.58 398.484 98.7267 399.524 99.02V98.7C399.524 97.7933 399.257 97.1 398.724 96.62C398.191 96.14 397.437 95.9 396.464 95.9C395.451 95.9 394.404 96.1467 393.324 96.64L392.864 95.38C394.144 94.7933 395.397 94.5 396.624 94.5C398.091 94.5 399.204 94.88 399.964 95.64C400.684 96.36 401.044 97.3733 401.044 98.68V105H399.524V103.46C398.604 104.633 397.364 105.22 395.804 105.22ZM396.104 103.98C397.064 103.98 397.877 103.72 398.544 103.2C399.211 102.68 399.544 102.013 399.544 101.2V100.24C398.531 99.9467 397.524 99.8 396.524 99.8C395.577 99.8 394.837 99.9933 394.304 100.38C393.771 100.753 393.504 101.253 393.504 101.88V101.92C393.504 102.547 393.751 103.047 394.244 103.42C394.751 103.793 395.371 103.98 396.104 103.98ZM404.126 105V102.9H405.966V105H404.126ZM420.264 105.2C418.118 105.2 416.211 104.453 414.544 102.96L415.524 101.8C416.271 102.48 417.018 102.98 417.764 103.3C418.524 103.62 419.378 103.78 420.324 103.78C421.258 103.78 422.011 103.56 422.584 103.12C423.158 102.667 423.444 102.093 423.444 101.4V101.36C423.444 100.68 423.191 100.14 422.684 99.74C422.178 99.34 421.218 98.9933 419.804 98.7C418.151 98.34 416.951 97.86 416.204 97.26C415.471 96.6467 415.104 95.78 415.104 94.66V94.62C415.104 93.5133 415.538 92.6 416.404 91.88C417.271 91.16 418.371 90.8 419.704 90.8C421.558 90.8 423.198 91.3733 424.624 92.52L423.704 93.74C422.464 92.7267 421.118 92.22 419.664 92.22C418.771 92.22 418.051 92.44 417.504 92.88C416.958 93.3067 416.684 93.84 416.684 94.48V94.52C416.684 95.2133 416.944 95.76 417.464 96.16C417.998 96.56 419.004 96.92 420.484 97.24C422.071 97.5867 423.224 98.0733 423.944 98.7C424.678 99.3133 425.044 100.147 425.044 101.2V101.24C425.044 102.427 424.598 103.387 423.704 104.12C422.811 104.84 421.664 105.2 420.264 105.2ZM431.797 105.22C430.571 105.22 429.604 104.847 428.897 104.1C428.191 103.34 427.837 102.333 427.837 101.08V94.66H429.377V100.7C429.377 101.673 429.624 102.44 430.117 103C430.624 103.547 431.331 103.82 432.237 103.82C433.131 103.82 433.871 103.52 434.457 102.92C435.044 102.32 435.337 101.54 435.337 100.58V94.66H436.857V105H435.337V103.2C434.497 104.547 433.317 105.22 431.797 105.22ZM443.742 105.2C442.995 105.2 442.235 105.067 441.462 104.8C440.702 104.52 440.035 104.147 439.462 103.68L440.242 102.58C441.415 103.46 442.608 103.9 443.822 103.9C444.448 103.9 444.962 103.753 445.362 103.46C445.762 103.153 445.962 102.753 445.962 102.26V102.22C445.962 101.753 445.742 101.393 445.302 101.14C444.875 100.887 444.235 100.64 443.382 100.4C442.862 100.253 442.448 100.12 442.142 100C441.835 99.88 441.488 99.7133 441.102 99.5C440.715 99.2733 440.428 98.9933 440.242 98.66C440.055 98.3267 439.962 97.9333 439.962 97.48V97.44C439.962 96.56 440.288 95.8467 440.942 95.3C441.608 94.7533 442.455 94.48 443.482 94.48C444.815 94.48 446.055 94.86 447.202 95.62L446.502 96.78C445.475 96.1133 444.455 95.78 443.442 95.78C442.842 95.78 442.355 95.92 441.982 96.2C441.622 96.48 441.442 96.84 441.442 97.28V97.32C441.442 97.5067 441.495 97.68 441.602 97.84C441.708 98 441.828 98.1333 441.962 98.24C442.095 98.3467 442.302 98.46 442.582 98.58C442.875 98.7 443.108 98.7867 443.282 98.84C443.455 98.8933 443.728 98.98 444.102 99.1C444.488 99.22 444.808 99.3267 445.062 99.42C445.328 99.5133 445.622 99.6467 445.942 99.82C446.275 99.98 446.535 100.16 446.722 100.36C446.922 100.547 447.088 100.787 447.222 101.08C447.355 101.373 447.422 101.7 447.422 102.06V102.1C447.422 103.06 447.075 103.82 446.382 104.38C445.688 104.927 444.808 105.2 443.742 105.2ZM450.283 108.2V94.66H451.823V96.74C452.863 95.2067 454.183 94.44 455.783 94.44C457.103 94.44 458.256 94.9267 459.243 95.9C460.229 96.8733 460.723 98.1733 460.723 99.8V99.84C460.723 101.453 460.229 102.753 459.243 103.74C458.256 104.727 457.103 105.22 455.783 105.22C454.156 105.22 452.836 104.487 451.823 103.02V108.2H450.283ZM455.503 103.84C456.543 103.84 457.409 103.48 458.103 102.76C458.796 102.04 459.143 101.073 459.143 99.86V99.82C459.143 98.6333 458.789 97.6733 458.083 96.94C457.376 96.1933 456.516 95.82 455.503 95.82C454.503 95.82 453.629 96.2 452.883 96.96C452.136 97.7067 451.763 98.6533 451.763 99.8V99.84C451.763 101 452.136 101.96 452.883 102.72C453.629 103.467 454.503 103.84 455.503 103.84ZM464.484 100.46C464.59 101.513 464.984 102.353 465.664 102.98C466.357 103.593 467.177 103.9 468.124 103.9C469.364 103.9 470.45 103.413 471.384 102.44L472.344 103.3C471.184 104.593 469.764 105.24 468.084 105.24C466.63 105.24 465.404 104.74 464.404 103.74C463.417 102.727 462.924 101.427 462.924 99.84C462.924 98.3333 463.397 97.06 464.344 96.02C465.29 94.9667 466.47 94.44 467.884 94.44C469.364 94.44 470.537 94.96 471.404 96C472.27 97.04 472.704 98.3467 472.704 99.92C472.704 100.12 472.697 100.3 472.684 100.46H464.484ZM464.484 99.22H471.144C471.05 98.22 470.717 97.3933 470.144 96.74C469.584 96.0733 468.817 95.74 467.844 95.74C466.964 95.74 466.21 96.0667 465.584 96.72C464.957 97.3733 464.59 98.2067 464.484 99.22ZM475.4 105V94.66H476.94V96.46C477.753 95.1133 478.933 94.44 480.48 94.44C481.706 94.44 482.673 94.82 483.38 95.58C484.086 96.3267 484.44 97.3267 484.44 98.58V105H482.9V98.96C482.9 97.9867 482.646 97.2267 482.14 96.68C481.646 96.12 480.946 95.84 480.04 95.84C479.146 95.84 478.406 96.14 477.82 96.74C477.233 97.34 476.94 98.12 476.94 99.08V105H475.4ZM492.064 105.22C490.744 105.22 489.591 104.733 488.604 103.76C487.617 102.787 487.124 101.487 487.124 99.86V99.82C487.124 98.2067 487.617 96.9067 488.604 95.92C489.591 94.9333 490.744 94.44 492.064 94.44C493.691 94.44 495.011 95.1733 496.024 96.64V90.4H497.564V105H496.024V102.92C494.984 104.453 493.664 105.22 492.064 105.22ZM492.344 103.84C493.344 103.84 494.217 103.467 494.964 102.72C495.711 101.96 496.084 101 496.084 99.84V99.8C496.084 98.6533 495.711 97.7067 494.964 96.96C494.217 96.2 493.344 95.82 492.344 95.82C491.304 95.82 490.437 96.18 489.744 96.9C489.051 97.62 488.704 98.5867 488.704 99.8V99.84C488.704 101.027 489.057 101.993 489.764 102.74C490.471 103.473 491.331 103.84 492.344 103.84ZM501.045 92.4V90.7H502.805V92.4H501.045ZM501.145 105V94.66H502.685V105H501.145ZM509.679 105.2C508.932 105.2 508.172 105.067 507.399 104.8C506.639 104.52 505.972 104.147 505.399 103.68L506.179 102.58C507.352 103.46 508.546 103.9 509.759 103.9C510.386 103.9 510.899 103.753 511.299 103.46C511.699 103.153 511.899 102.753 511.899 102.26V102.22C511.899 101.753 511.679 101.393 511.239 101.14C510.812 100.887 510.172 100.64 509.319 100.4C508.799 100.253 508.386 100.12 508.079 100C507.772 99.88 507.426 99.7133 507.039 99.5C506.652 99.2733 506.366 98.9933 506.179 98.66C505.992 98.3267 505.899 97.9333 505.899 97.48V97.44C505.899 96.56 506.226 95.8467 506.879 95.3C507.546 94.7533 508.392 94.48 509.419 94.48C510.752 94.48 511.992 94.86 513.139 95.62L512.439 96.78C511.412 96.1133 510.392 95.78 509.379 95.78C508.779 95.78 508.292 95.92 507.919 96.2C507.559 96.48 507.379 96.84 507.379 97.28V97.32C507.379 97.5067 507.432 97.68 507.539 97.84C507.646 98 507.766 98.1333 507.899 98.24C508.032 98.3467 508.239 98.46 508.519 98.58C508.812 98.7 509.046 98.7867 509.219 98.84C509.392 98.8933 509.666 98.98 510.039 99.1C510.426 99.22 510.746 99.3267 510.999 99.42C511.266 99.5133 511.559 99.6467 511.879 99.82C512.212 99.98 512.472 100.16 512.659 100.36C512.859 100.547 513.026 100.787 513.159 101.08C513.292 101.373 513.359 101.7 513.359 102.06V102.1C513.359 103.06 513.012 103.82 512.319 104.38C511.626 104.927 510.746 105.2 509.679 105.2ZM519.445 105.2C518.698 105.2 517.938 105.067 517.165 104.8C516.405 104.52 515.738 104.147 515.165 103.68L515.945 102.58C517.118 103.46 518.311 103.9 519.525 103.9C520.151 103.9 520.665 103.753 521.065 103.46C521.465 103.153 521.665 102.753 521.665 102.26V102.22C521.665 101.753 521.445 101.393 521.005 101.14C520.578 100.887 519.938 100.64 519.085 100.4C518.565 100.253 518.151 100.12 517.845 100C517.538 99.88 517.191 99.7133 516.805 99.5C516.418 99.2733 516.131 98.9933 515.945 98.66C515.758 98.3267 515.665 97.9333 515.665 97.48V97.44C515.665 96.56 515.991 95.8467 516.645 95.3C517.311 94.7533 518.158 94.48 519.185 94.48C520.518 94.48 521.758 94.86 522.905 95.62L522.205 96.78C521.178 96.1133 520.158 95.78 519.145 95.78C518.545 95.78 518.058 95.92 517.685 96.2C517.325 96.48 517.145 96.84 517.145 97.28V97.32C517.145 97.5067 517.198 97.68 517.305 97.84C517.411 98 517.531 98.1333 517.665 98.24C517.798 98.3467 518.005 98.46 518.285 98.58C518.578 98.7 518.811 98.7867 518.985 98.84C519.158 98.8933 519.431 98.98 519.805 99.1C520.191 99.22 520.511 99.3267 520.765 99.42C521.031 99.5133 521.325 99.6467 521.645 99.82C521.978 99.98 522.238 100.16 522.425 100.36C522.625 100.547 522.791 100.787 522.925 101.08C523.058 101.373 523.125 101.7 523.125 102.06V102.1C523.125 103.06 522.778 103.82 522.085 104.38C521.391 104.927 520.511 105.2 519.445 105.2ZM526.906 100.46C527.012 101.513 527.406 102.353 528.086 102.98C528.779 103.593 529.599 103.9 530.546 103.9C531.786 103.9 532.872 103.413 533.806 102.44L534.766 103.3C533.606 104.593 532.186 105.24 530.506 105.24C529.052 105.24 527.826 104.74 526.826 103.74C525.839 102.727 525.346 101.427 525.346 99.84C525.346 98.3333 525.819 97.06 526.766 96.02C527.712 94.9667 528.892 94.44 530.306 94.44C531.786 94.44 532.959 94.96 533.826 96C534.692 97.04 535.126 98.3467 535.126 99.92C535.126 100.12 535.119 100.3 535.106 100.46H526.906ZM526.906 99.22H533.566C533.472 98.22 533.139 97.3933 532.566 96.74C532.006 96.0733 531.239 95.74 530.266 95.74C529.386 95.74 528.632 96.0667 528.006 96.72C527.379 97.3733 527.012 98.2067 526.906 99.22ZM547.238 105.2C546.491 105.2 545.731 105.067 544.958 104.8C544.198 104.52 543.531 104.147 542.958 103.68L543.738 102.58C544.911 103.46 546.104 103.9 547.318 103.9C547.944 103.9 548.458 103.753 548.858 103.46C549.258 103.153 549.458 102.753 549.458 102.26V102.22C549.458 101.753 549.238 101.393 548.798 101.14C548.371 100.887 547.731 100.64 546.878 100.4C546.358 100.253 545.944 100.12 545.638 100C545.331 99.88 544.984 99.7133 544.598 99.5C544.211 99.2733 543.924 98.9933 543.738 98.66C543.551 98.3267 543.458 97.9333 543.458 97.48V97.44C543.458 96.56 543.784 95.8467 544.438 95.3C545.104 94.7533 545.951 94.48 546.978 94.48C548.311 94.48 549.551 94.86 550.698 95.62L549.998 96.78C548.971 96.1133 547.951 95.78 546.938 95.78C546.338 95.78 545.851 95.92 545.478 96.2C545.118 96.48 544.938 96.84 544.938 97.28V97.32C544.938 97.5067 544.991 97.68 545.098 97.84C545.204 98 545.324 98.1333 545.458 98.24C545.591 98.3467 545.798 98.46 546.078 98.58C546.371 98.7 546.604 98.7867 546.778 98.84C546.951 98.8933 547.224 98.98 547.598 99.1C547.984 99.22 548.304 99.3267 548.558 99.42C548.824 99.5133 549.118 99.6467 549.438 99.82C549.771 99.98 550.031 100.16 550.218 100.36C550.418 100.547 550.584 100.787 550.718 101.08C550.851 101.373 550.918 101.7 550.918 102.06V102.1C550.918 103.06 550.571 103.82 549.878 104.38C549.184 104.927 548.304 105.2 547.238 105.2ZM554.699 100.46C554.805 101.513 555.199 102.353 555.879 102.98C556.572 103.593 557.392 103.9 558.339 103.9C559.579 103.9 560.665 103.413 561.599 102.44L562.559 103.3C561.399 104.593 559.979 105.24 558.299 105.24C556.845 105.24 555.619 104.74 554.619 103.74C553.632 102.727 553.139 101.427 553.139 99.84C553.139 98.3333 553.612 97.06 554.559 96.02C555.505 94.9667 556.685 94.44 558.099 94.44C559.579 94.44 560.752 94.96 561.619 96C562.485 97.04 562.919 98.3467 562.919 99.92C562.919 100.12 562.912 100.3 562.899 100.46H554.699ZM554.699 99.22H561.359C561.265 98.22 560.932 97.3933 560.359 96.74C559.799 96.0733 559.032 95.74 558.059 95.74C557.179 95.74 556.425 96.0667 555.799 96.72C555.172 97.3733 554.805 98.2067 554.699 99.22ZM565.615 105V94.66H567.155V96.4C568.021 95.0933 569.135 94.44 570.495 94.44C572.041 94.44 573.148 95.1267 573.815 96.5C574.708 95.1267 575.921 94.44 577.455 94.44C578.641 94.44 579.575 94.8133 580.255 95.56C580.948 96.3067 581.295 97.32 581.295 98.6V105H579.755V98.96C579.755 97.96 579.515 97.1933 579.035 96.66C578.568 96.1133 577.915 95.84 577.075 95.84C576.261 95.84 575.581 96.1267 575.035 96.7C574.488 97.2733 574.215 98.0533 574.215 99.04V105H572.695V98.92C572.695 97.96 572.455 97.2067 571.975 96.66C571.508 96.1133 570.861 95.84 570.035 95.84C569.208 95.84 568.521 96.1467 567.975 96.76C567.428 97.3733 567.155 98.1533 567.155 99.1V105H565.615ZM584.638 108.2V94.66H586.178V96.74C587.218 95.2067 588.538 94.44 590.138 94.44C591.458 94.44 592.611 94.9267 593.598 95.9C594.585 96.8733 595.078 98.1733 595.078 99.8V99.84C595.078 101.453 594.585 102.753 593.598 103.74C592.611 104.727 591.458 105.22 590.138 105.22C588.511 105.22 587.191 104.487 586.178 103.02V108.2H584.638ZM589.858 103.84C590.898 103.84 591.765 103.48 592.458 102.76C593.151 102.04 593.498 101.073 593.498 99.86V99.82C593.498 98.6333 593.145 97.6733 592.438 96.94C591.731 96.1933 590.871 95.82 589.858 95.82C588.858 95.82 587.985 96.2 587.238 96.96C586.491 97.7067 586.118 98.6533 586.118 99.8V99.84C586.118 101 586.491 101.96 587.238 102.72C587.985 103.467 588.858 103.84 589.858 103.84ZM598.839 100.46C598.946 101.513 599.339 102.353 600.019 102.98C600.713 103.593 601.533 103.9 602.479 103.9C603.719 103.9 604.806 103.413 605.739 102.44L606.699 103.3C605.539 104.593 604.119 105.24 602.439 105.24C600.986 105.24 599.759 104.74 598.759 103.74C597.773 102.727 597.279 101.427 597.279 99.84C597.279 98.3333 597.753 97.06 598.699 96.02C599.646 94.9667 600.826 94.44 602.239 94.44C603.719 94.44 604.893 94.96 605.759 96C606.626 97.04 607.059 98.3467 607.059 99.92C607.059 100.12 607.053 100.3 607.039 100.46H598.839ZM598.839 99.22H605.499C605.406 98.22 605.073 97.3933 604.499 96.74C603.939 96.0733 603.173 95.74 602.199 95.74C601.319 95.74 600.566 96.0667 599.939 96.72C599.313 97.3733 598.946 98.2067 598.839 99.22ZM609.755 105V94.66H611.295V97.36C611.695 96.4667 612.262 95.7533 612.995 95.22C613.728 94.6867 614.568 94.44 615.515 94.48V96.14H615.395C614.208 96.14 613.228 96.5533 612.455 97.38C611.682 98.2067 611.295 99.3733 611.295 100.88V105H609.755ZM623.857 105V94.66H625.397V96.4C626.263 95.0933 627.377 94.44 628.737 94.44C630.283 94.44 631.39 95.1267 632.057 96.5C632.95 95.1267 634.163 94.44 635.697 94.44C636.883 94.44 637.817 94.8133 638.497 95.56C639.19 96.3067 639.537 97.32 639.537 98.6V105H637.997V98.96C637.997 97.96 637.757 97.1933 637.277 96.66C636.81 96.1133 636.157 95.84 635.317 95.84C634.503 95.84 633.823 96.1267 633.277 96.7C632.73 97.2733 632.457 98.0533 632.457 99.04V105H630.937V98.92C630.937 97.96 630.697 97.2067 630.217 96.66C629.75 96.1133 629.103 95.84 628.277 95.84C627.45 95.84 626.763 96.1467 626.217 96.76C625.67 97.3733 625.397 98.1533 625.397 99.1V105H623.857ZM651.46 103.66C650.42 104.713 649.133 105.24 647.6 105.24C646.067 105.24 644.787 104.72 643.76 103.68C642.747 102.627 642.24 101.36 642.24 99.88V99.84C642.24 98.36 642.753 97.0933 643.78 96.04C644.82 94.9733 646.107 94.44 647.64 94.44C649.173 94.44 650.453 94.9667 651.48 96.02C652.507 97.06 653.02 98.32 653.02 99.8V99.84C653.02 101.32 652.5 102.593 651.46 103.66ZM647.64 103.86C648.747 103.86 649.653 103.473 650.36 102.7C651.08 101.927 651.44 100.987 651.44 99.88V99.84C651.44 98.72 651.067 97.7667 650.32 96.98C649.587 96.1933 648.68 95.8 647.6 95.8C646.507 95.8 645.6 96.1933 644.88 96.98C644.173 97.7533 643.82 98.6933 643.82 99.8V99.84C643.82 100.96 644.187 101.913 644.92 102.7C645.653 103.473 646.56 103.86 647.64 103.86ZM655.95 105V90.4H657.49V105H655.95ZM661.984 100.46C662.09 101.513 662.484 102.353 663.164 102.98C663.857 103.593 664.677 103.9 665.624 103.9C666.864 103.9 667.95 103.413 668.884 102.44L669.844 103.3C668.684 104.593 667.264 105.24 665.584 105.24C664.13 105.24 662.904 104.74 661.904 103.74C660.917 102.727 660.424 101.427 660.424 99.84C660.424 98.3333 660.897 97.06 661.844 96.02C662.79 94.9667 663.97 94.44 665.384 94.44C666.864 94.44 668.037 94.96 668.904 96C669.77 97.04 670.204 98.3467 670.204 99.92C670.204 100.12 670.197 100.3 670.184 100.46H661.984ZM661.984 99.22H668.644C668.55 98.22 668.217 97.3933 667.644 96.74C667.084 96.0733 666.317 95.74 665.344 95.74C664.464 95.74 663.71 96.0667 663.084 96.72C662.457 97.3733 662.09 98.2067 661.984 99.22ZM676.32 105.2C675.573 105.2 674.813 105.067 674.04 104.8C673.28 104.52 672.613 104.147 672.04 103.68L672.82 102.58C673.993 103.46 675.186 103.9 676.4 103.9C677.026 103.9 677.54 103.753 677.94 103.46C678.34 103.153 678.54 102.753 678.54 102.26V102.22C678.54 101.753 678.32 101.393 677.88 101.14C677.453 100.887 676.813 100.64 675.96 100.4C675.44 100.253 675.026 100.12 674.72 100C674.413 99.88 674.066 99.7133 673.68 99.5C673.293 99.2733 673.006 98.9933 672.82 98.66C672.633 98.3267 672.54 97.9333 672.54 97.48V97.44C672.54 96.56 672.866 95.8467 673.52 95.3C674.186 94.7533 675.033 94.48 676.06 94.48C677.393 94.48 678.633 94.86 679.78 95.62L679.08 96.78C678.053 96.1133 677.033 95.78 676.02 95.78C675.42 95.78 674.933 95.92 674.56 96.2C674.2 96.48 674.02 96.84 674.02 97.28V97.32C674.02 97.5067 674.073 97.68 674.18 97.84C674.286 98 674.406 98.1333 674.54 98.24C674.673 98.3467 674.88 98.46 675.16 98.58C675.453 98.7 675.686 98.7867 675.86 98.84C676.033 98.8933 676.306 98.98 676.68 99.1C677.066 99.22 677.386 99.3267 677.64 99.42C677.906 99.5133 678.2 99.6467 678.52 99.82C678.853 99.98 679.113 100.16 679.3 100.36C679.5 100.547 679.666 100.787 679.8 101.08C679.933 101.373 680 101.7 680 102.06V102.1C680 103.06 679.653 103.82 678.96 104.38C678.266 104.927 677.386 105.2 676.32 105.2ZM686.125 105.18C685.232 105.18 684.519 104.947 683.985 104.48C683.465 104 683.205 103.26 683.205 102.26V96.02H681.765V94.66H683.205V91.54H684.745V94.66H688.025V96.02H684.745V102.06C684.745 103.207 685.325 103.78 686.485 103.78C686.992 103.78 687.492 103.66 687.985 103.42V104.74C687.425 105.033 686.805 105.18 686.125 105.18ZM690.791 92.4V90.7H692.551V92.4H690.791ZM690.891 105V94.66H692.431V105H690.891ZM696.925 100.46C697.032 101.513 697.425 102.353 698.105 102.98C698.798 103.593 699.618 103.9 700.565 103.9C701.805 103.9 702.892 103.413 703.825 102.44L704.785 103.3C703.625 104.593 702.205 105.24 700.525 105.24C699.072 105.24 697.845 104.74 696.845 103.74C695.858 102.727 695.365 101.427 695.365 99.84C695.365 98.3333 695.838 97.06 696.785 96.02C697.732 94.9667 698.912 94.44 700.325 94.44C701.805 94.44 702.978 94.96 703.845 96C704.712 97.04 705.145 98.3467 705.145 99.92C705.145 100.12 705.138 100.3 705.125 100.46H696.925ZM696.925 99.22H703.585C703.492 98.22 703.158 97.3933 702.585 96.74C702.025 96.0733 701.258 95.74 700.285 95.74C699.405 95.74 698.652 96.0667 698.025 96.72C697.398 97.3733 697.032 98.2067 696.925 99.22ZM717.637 105.22C716.411 105.22 715.444 104.847 714.737 104.1C714.031 103.34 713.677 102.333 713.677 101.08V94.66H715.217V100.7C715.217 101.673 715.464 102.44 715.957 103C716.464 103.547 717.171 103.82 718.077 103.82C718.971 103.82 719.711 103.52 720.297 102.92C720.884 102.32 721.177 101.54 721.177 100.58V94.66H722.697V105H721.177V103.2C720.337 104.547 719.157 105.22 717.637 105.22ZM726.301 105V90.4H727.841V105H726.301ZM734.875 105.18C733.982 105.18 733.269 104.947 732.735 104.48C732.215 104 731.955 103.26 731.955 102.26V96.02H730.515V94.66H731.955V91.54H733.495V94.66H736.775V96.02H733.495V102.06C733.495 103.207 734.075 103.78 735.235 103.78C735.742 103.78 736.242 103.66 736.735 103.42V104.74C736.175 105.033 735.555 105.18 734.875 105.18ZM739.501 105V94.66H741.041V97.36C741.441 96.4667 742.008 95.7533 742.741 95.22C743.475 94.6867 744.315 94.44 745.261 94.48V96.14H745.141C743.955 96.14 742.975 96.5533 742.201 97.38C741.428 98.2067 741.041 99.3733 741.041 100.88V105H739.501ZM747.647 92.4V90.7H749.407V92.4H747.647ZM747.747 105V94.66H749.287V105H747.747ZM757.521 105.24C756.027 105.24 754.767 104.713 753.741 103.66C752.727 102.607 752.221 101.347 752.221 99.88V99.84C752.221 98.36 752.727 97.0933 753.741 96.04C754.767 94.9733 756.027 94.44 757.521 94.44C759.121 94.44 760.501 95.0533 761.661 96.28L760.641 97.36C759.654 96.32 758.607 95.8 757.501 95.8C756.461 95.8 755.581 96.1867 754.861 96.96C754.154 97.7333 753.801 98.68 753.801 99.8V99.84C753.801 100.96 754.161 101.913 754.881 102.7C755.614 103.473 756.521 103.86 757.601 103.86C758.747 103.86 759.801 103.347 760.761 102.32L761.741 103.24C760.541 104.573 759.134 105.24 757.521 105.24ZM764.326 92.4V90.7H766.086V92.4H764.326ZM764.426 105V94.66H765.966V105H764.426ZM770.46 100.46C770.567 101.513 770.96 102.353 771.64 102.98C772.334 103.593 773.154 103.9 774.1 103.9C775.34 103.9 776.427 103.413 777.36 102.44L778.32 103.3C777.16 104.593 775.74 105.24 774.06 105.24C772.607 105.24 771.38 104.74 770.38 103.74C769.394 102.727 768.9 101.427 768.9 99.84C768.9 98.3333 769.374 97.06 770.32 96.02C771.267 94.9667 772.447 94.44 773.86 94.44C775.34 94.44 776.514 94.96 777.38 96C778.247 97.04 778.68 98.3467 778.68 99.92C778.68 100.12 778.674 100.3 778.66 100.46H770.46ZM770.46 99.22H777.12C777.027 98.22 776.694 97.3933 776.12 96.74C775.56 96.0733 774.794 95.74 773.82 95.74C772.94 95.74 772.187 96.0667 771.56 96.72C770.934 97.3733 770.567 98.2067 770.46 99.22ZM784.796 105.2C784.05 105.2 783.29 105.067 782.516 104.8C781.756 104.52 781.09 104.147 780.516 103.68L781.296 102.58C782.47 103.46 783.663 103.9 784.876 103.9C785.503 103.9 786.016 103.753 786.416 103.46C786.816 103.153 787.016 102.753 787.016 102.26V102.22C787.016 101.753 786.796 101.393 786.356 101.14C785.93 100.887 785.29 100.64 784.436 100.4C783.916 100.253 783.503 100.12 783.196 100C782.89 99.88 782.543 99.7133 782.156 99.5C781.77 99.2733 781.483 98.9933 781.296 98.66C781.11 98.3267 781.016 97.9333 781.016 97.48V97.44C781.016 96.56 781.343 95.8467 781.996 95.3C782.663 94.7533 783.51 94.48 784.536 94.48C785.87 94.48 787.11 94.86 788.256 95.62L787.556 96.78C786.53 96.1133 785.51 95.78 784.496 95.78C783.896 95.78 783.41 95.92 783.036 96.2C782.676 96.48 782.496 96.84 782.496 97.28V97.32C782.496 97.5067 782.55 97.68 782.656 97.84C782.763 98 782.883 98.1333 783.016 98.24C783.15 98.3467 783.356 98.46 783.636 98.58C783.93 98.7 784.163 98.7867 784.336 98.84C784.51 98.8933 784.783 98.98 785.156 99.1C785.543 99.22 785.863 99.3267 786.116 99.42C786.383 99.5133 786.676 99.6467 786.996 99.82C787.33 99.98 787.59 100.16 787.776 100.36C787.976 100.547 788.143 100.787 788.276 101.08C788.41 101.373 788.476 101.7 788.476 102.06V102.1C788.476 103.06 788.13 103.82 787.436 104.38C786.743 104.927 785.863 105.2 784.796 105.2ZM791.157 105V102.9H792.997V105H791.157ZM802.496 105V91H807.736C809.322 91 810.589 91.4 811.536 92.2C812.496 92.9867 812.976 94.0667 812.976 95.44V95.48C812.976 96.9333 812.449 98.06 811.396 98.86C810.356 99.66 809.049 100.06 807.476 100.06H804.076V105H802.496ZM804.076 98.62H807.536C808.696 98.62 809.622 98.34 810.316 97.78C811.022 97.2067 811.376 96.46 811.376 95.54V95.5C811.376 94.5267 811.036 93.78 810.356 93.26C809.689 92.7267 808.776 92.46 807.616 92.46H804.076V98.62ZM815.595 105V90.4H817.135V96.46C817.948 95.1133 819.128 94.44 820.675 94.44C821.902 94.44 822.868 94.82 823.575 95.58C824.282 96.3267 824.635 97.3267 824.635 98.58V105H823.095V98.96C823.095 97.9867 822.842 97.2267 822.335 96.68C821.842 96.12 821.142 95.84 820.235 95.84C819.342 95.84 818.602 96.14 818.015 96.74C817.428 97.34 817.135 98.12 817.135 99.08V105H815.595ZM830.999 105.22C829.959 105.22 829.053 104.933 828.279 104.36C827.519 103.787 827.139 103 827.139 102V101.96C827.139 100.88 827.539 100.047 828.339 99.46C829.139 98.8733 830.213 98.58 831.559 98.58C832.626 98.58 833.679 98.7267 834.719 99.02V98.7C834.719 97.7933 834.453 97.1 833.919 96.62C833.386 96.14 832.633 95.9 831.659 95.9C830.646 95.9 829.599 96.1467 828.519 96.64L828.059 95.38C829.339 94.7933 830.593 94.5 831.819 94.5C833.286 94.5 834.399 94.88 835.159 95.64C835.879 96.36 836.239 97.3733 836.239 98.68V105H834.719V103.46C833.799 104.633 832.559 105.22 830.999 105.22ZM831.299 103.98C832.259 103.98 833.073 103.72 833.739 103.2C834.406 102.68 834.739 102.013 834.739 101.2V100.24C833.726 99.9467 832.719 99.8 831.719 99.8C830.773 99.8 830.033 99.9933 829.499 100.38C828.966 100.753 828.699 101.253 828.699 101.88V101.92C828.699 102.547 828.946 103.047 829.439 103.42C829.946 103.793 830.566 103.98 831.299 103.98ZM842.921 105.2C842.175 105.2 841.415 105.067 840.641 104.8C839.881 104.52 839.215 104.147 838.641 103.68L839.421 102.58C840.595 103.46 841.788 103.9 843.001 103.9C843.628 103.9 844.141 103.753 844.541 103.46C844.941 103.153 845.141 102.753 845.141 102.26V102.22C845.141 101.753 844.921 101.393 844.481 101.14C844.055 100.887 843.415 100.64 842.561 100.4C842.041 100.253 841.628 100.12 841.321 100C841.015 99.88 840.668 99.7133 840.281 99.5C839.895 99.2733 839.608 98.9933 839.421 98.66C839.235 98.3267 839.141 97.9333 839.141 97.48V97.44C839.141 96.56 839.468 95.8467 840.121 95.3C840.788 94.7533 841.635 94.48 842.661 94.48C843.995 94.48 845.235 94.86 846.381 95.62L845.681 96.78C844.655 96.1133 843.635 95.78 842.621 95.78C842.021 95.78 841.535 95.92 841.161 96.2C840.801 96.48 840.621 96.84 840.621 97.28V97.32C840.621 97.5067 840.675 97.68 840.781 97.84C840.888 98 841.008 98.1333 841.141 98.24C841.275 98.3467 841.481 98.46 841.761 98.58C842.055 98.7 842.288 98.7867 842.461 98.84C842.635 98.8933 842.908 98.98 843.281 99.1C843.668 99.22 843.988 99.3267 844.241 99.42C844.508 99.5133 844.801 99.6467 845.121 99.82C845.455 99.98 845.715 100.16 845.901 100.36C846.101 100.547 846.268 100.787 846.401 101.08C846.535 101.373 846.601 101.7 846.601 102.06V102.1C846.601 103.06 846.255 103.82 845.561 104.38C844.868 104.927 843.988 105.2 842.921 105.2ZM850.382 100.46C850.489 101.513 850.882 102.353 851.562 102.98C852.256 103.593 853.076 103.9 854.022 103.9C855.262 103.9 856.349 103.413 857.282 102.44L858.242 103.3C857.082 104.593 855.662 105.24 853.982 105.24C852.529 105.24 851.302 104.74 850.302 103.74C849.316 102.727 848.822 101.427 848.822 99.84C848.822 98.3333 849.296 97.06 850.242 96.02C851.189 94.9667 852.369 94.44 853.782 94.44C855.262 94.44 856.436 94.96 857.302 96C858.169 97.04 858.602 98.3467 858.602 99.92C858.602 100.12 858.596 100.3 858.582 100.46H850.382ZM850.382 99.22H857.042C856.949 98.22 856.616 97.3933 856.042 96.74C855.482 96.0733 854.716 95.74 853.742 95.74C852.862 95.74 852.109 96.0667 851.482 96.72C850.856 97.3733 850.489 98.2067 850.382 99.22ZM861.438 105V90.4H862.978V105H861.438ZM866.692 105V90.4H868.232V105H866.692ZM875.606 105.22C874.379 105.22 873.413 104.847 872.706 104.1C871.999 103.34 871.646 102.333 871.646 101.08V94.66H873.186V100.7C873.186 101.673 873.433 102.44 873.926 103C874.433 103.547 875.139 103.82 876.046 103.82C876.939 103.82 877.679 103.52 878.266 102.92C878.853 102.32 879.146 101.54 879.146 100.58V94.66H880.666V105H879.146V103.2C878.306 104.547 877.126 105.22 875.606 105.22ZM887.55 105.2C886.803 105.2 886.043 105.067 885.27 104.8C884.51 104.52 883.843 104.147 883.27 103.68L884.05 102.58C885.223 103.46 886.417 103.9 887.63 103.9C888.257 103.9 888.77 103.753 889.17 103.46C889.57 103.153 889.77 102.753 889.77 102.26V102.22C889.77 101.753 889.55 101.393 889.11 101.14C888.683 100.887 888.043 100.64 887.19 100.4C886.67 100.253 886.257 100.12 885.95 100C885.643 99.88 885.297 99.7133 884.91 99.5C884.523 99.2733 884.237 98.9933 884.05 98.66C883.863 98.3267 883.77 97.9333 883.77 97.48V97.44C883.77 96.56 884.097 95.8467 884.75 95.3C885.417 94.7533 886.263 94.48 887.29 94.48C888.623 94.48 889.863 94.86 891.01 95.62L890.31 96.78C889.283 96.1133 888.263 95.78 887.25 95.78C886.65 95.78 886.163 95.92 885.79 96.2C885.43 96.48 885.25 96.84 885.25 97.28V97.32C885.25 97.5067 885.303 97.68 885.41 97.84C885.517 98 885.637 98.1333 885.77 98.24C885.903 98.3467 886.11 98.46 886.39 98.58C886.683 98.7 886.917 98.7867 887.09 98.84C887.263 98.8933 887.537 98.98 887.91 99.1C888.297 99.22 888.617 99.3267 888.87 99.42C889.137 99.5133 889.43 99.6467 889.75 99.82C890.083 99.98 890.343 100.16 890.53 100.36C890.73 100.547 890.897 100.787 891.03 101.08C891.163 101.373 891.23 101.7 891.23 102.06V102.1C891.23 103.06 890.883 103.82 890.19 104.38C889.497 104.927 888.617 105.2 887.55 105.2ZM2.7668 135V126.02H1.3468V124.68H2.7668V123.78C2.7668 122.607 3.0668 121.72 3.6668 121.12C4.20013 120.587 4.94013 120.32 5.8868 120.32C6.54013 120.32 7.1068 120.407 7.5868 120.58V121.92C6.97346 121.747 6.47346 121.66 6.0868 121.66C4.8868 121.66 4.2868 122.393 4.2868 123.86V124.7H7.5668V126.02H4.3068V135H2.7668ZM12.3176 135.22C11.2776 135.22 10.3709 134.933 9.59758 134.36C8.83758 133.787 8.45758 133 8.45758 132V131.96C8.45758 130.88 8.85758 130.047 9.65758 129.46C10.4576 128.873 11.5309 128.58 12.8776 128.58C13.9442 128.58 14.9976 128.727 16.0376 129.02V128.7C16.0376 127.793 15.7709 127.1 15.2376 126.62C14.7042 126.14 13.9509 125.9 12.9776 125.9C11.9642 125.9 10.9176 126.147 9.83758 126.64L9.37758 125.38C10.6576 124.793 11.9109 124.5 13.1376 124.5C14.6042 124.5 15.7176 124.88 16.4776 125.64C17.1976 126.36 17.5576 127.373 17.5576 128.68V135H16.0376V133.46C15.1176 134.633 13.8776 135.22 12.3176 135.22ZM12.6176 133.98C13.5776 133.98 14.3909 133.72 15.0576 133.2C15.7242 132.68 16.0576 132.013 16.0576 131.2V130.24C15.0442 129.947 14.0376 129.8 13.0376 129.8C12.0909 129.8 11.3509 129.993 10.8176 130.38C10.2842 130.753 10.0176 131.253 10.0176 131.88V131.92C10.0176 132.547 10.2642 133.047 10.7576 133.42C11.2642 133.793 11.8842 133.98 12.6176 133.98ZM24.6196 135.22C23.3929 135.22 22.4263 134.847 21.7196 134.1C21.0129 133.34 20.6596 132.333 20.6596 131.08V124.66H22.1996V130.7C22.1996 131.673 22.4463 132.44 22.9396 133C23.4463 133.547 24.1529 133.82 25.0596 133.82C25.9529 133.82 26.6929 133.52 27.2796 132.92C27.8663 132.32 28.1596 131.54 28.1596 130.58V124.66H29.6796V135H28.1596V133.2C27.3196 134.547 26.1396 135.22 24.6196 135.22ZM37.8038 135.24C36.3105 135.24 35.0505 134.713 34.0238 133.66C33.0105 132.607 32.5038 131.347 32.5038 129.88V129.84C32.5038 128.36 33.0105 127.093 34.0238 126.04C35.0505 124.973 36.3105 124.44 37.8038 124.44C39.4038 124.44 40.7838 125.053 41.9438 126.28L40.9238 127.36C39.9372 126.32 38.8905 125.8 37.7838 125.8C36.7438 125.8 35.8638 126.187 35.1438 126.96C34.4372 127.733 34.0838 128.68 34.0838 129.8V129.84C34.0838 130.96 34.4438 131.913 35.1638 132.7C35.8972 133.473 36.8038 133.86 37.8838 133.86C39.0305 133.86 40.0838 133.347 41.0438 132.32L42.0238 133.24C40.8238 134.573 39.4172 135.24 37.8038 135.24ZM44.6096 122.4V120.7H46.3696V122.4H44.6096ZM44.7096 135V124.66H46.2496V135H44.7096ZM55.3235 135.22C53.6968 135.22 52.3768 134.487 51.3635 133.02V135H49.8235V120.4H51.3635V126.74C52.4035 125.207 53.7235 124.44 55.3235 124.44C56.6435 124.44 57.7968 124.927 58.7835 125.9C59.7702 126.873 60.2635 128.173 60.2635 129.8V129.84C60.2635 131.453 59.7702 132.753 58.7835 133.74C57.7968 134.727 56.6435 135.22 55.3235 135.22ZM55.0435 133.84C56.0835 133.84 56.9502 133.48 57.6435 132.76C58.3368 132.04 58.6835 131.073 58.6835 129.86V129.82C58.6835 128.633 58.3302 127.673 57.6235 126.94C56.9168 126.193 56.0568 125.82 55.0435 125.82C54.0435 125.82 53.1702 126.2 52.4235 126.96C51.6768 127.707 51.3035 128.653 51.3035 129.8V129.84C51.3035 131 51.6768 131.96 52.4235 132.72C53.1702 133.467 54.0435 133.84 55.0435 133.84ZM66.9048 135.22C65.6781 135.22 64.7114 134.847 64.0048 134.1C63.2981 133.34 62.9448 132.333 62.9448 131.08V124.66H64.4848V130.7C64.4848 131.673 64.7314 132.44 65.2248 133C65.7314 133.547 66.4381 133.82 67.3448 133.82C68.2381 133.82 68.9781 133.52 69.5648 132.92C70.1514 132.32 70.4448 131.54 70.4448 130.58V124.66H71.9648V135H70.4448V133.2C69.6048 134.547 68.4248 135.22 66.9048 135.22ZM78.849 135.2C78.1023 135.2 77.3423 135.067 76.569 134.8C75.809 134.52 75.1423 134.147 74.569 133.68L75.349 132.58C76.5223 133.46 77.7157 133.9 78.929 133.9C79.5557 133.9 80.069 133.753 80.469 133.46C80.869 133.153 81.069 132.753 81.069 132.26V132.22C81.069 131.753 80.849 131.393 80.409 131.14C79.9823 130.887 79.3423 130.64 78.489 130.4C77.969 130.253 77.5557 130.12 77.249 130C76.9423 129.88 76.5957 129.713 76.209 129.5C75.8223 129.273 75.5357 128.993 75.349 128.66C75.1623 128.327 75.069 127.933 75.069 127.48V127.44C75.069 126.56 75.3957 125.847 76.049 125.3C76.7157 124.753 77.5623 124.48 78.589 124.48C79.9223 124.48 81.1623 124.86 82.309 125.62L81.609 126.78C80.5823 126.113 79.5623 125.78 78.549 125.78C77.949 125.78 77.4623 125.92 77.089 126.2C76.729 126.48 76.549 126.84 76.549 127.28V127.32C76.549 127.507 76.6023 127.68 76.709 127.84C76.8157 128 76.9357 128.133 77.069 128.24C77.2023 128.347 77.409 128.46 77.689 128.58C77.9823 128.7 78.2157 128.787 78.389 128.84C78.5623 128.893 78.8357 128.98 79.209 129.1C79.5957 129.22 79.9157 129.327 80.169 129.42C80.4357 129.513 80.729 129.647 81.049 129.82C81.3823 129.98 81.6423 130.16 81.829 130.36C82.029 130.547 82.1957 130.787 82.329 131.08C82.4623 131.373 82.529 131.7 82.529 132.06V132.1C82.529 133.06 82.1823 133.82 81.489 134.38C80.7957 134.927 79.9157 135.2 78.849 135.2ZM91.426 122.4V120.7H93.186V122.4H91.426ZM91.526 135V124.66H93.066V135H91.526ZM100.98 135.22C99.6599 135.22 98.5066 134.733 97.5199 133.76C96.5333 132.787 96.0399 131.487 96.0399 129.86V129.82C96.0399 128.207 96.5333 126.907 97.5199 125.92C98.5066 124.933 99.6599 124.44 100.98 124.44C102.607 124.44 103.927 125.173 104.94 126.64V120.4H106.48V135H104.94V132.92C103.9 134.453 102.58 135.22 100.98 135.22ZM101.26 133.84C102.26 133.84 103.133 133.467 103.88 132.72C104.627 131.96 105 131 105 129.84V129.8C105 128.653 104.627 127.707 103.88 126.96C103.133 126.2 102.26 125.82 101.26 125.82C100.22 125.82 99.3533 126.18 98.6599 126.9C97.9666 127.62 97.6199 128.587 97.6199 129.8V129.84C97.6199 131.027 97.9733 131.993 98.6799 132.74C99.3866 133.473 100.247 133.84 101.26 133.84ZM116.837 130.46C116.944 131.513 117.337 132.353 118.017 132.98C118.711 133.593 119.531 133.9 120.477 133.9C121.717 133.9 122.804 133.413 123.737 132.44L124.697 133.3C123.537 134.593 122.117 135.24 120.437 135.24C118.984 135.24 117.757 134.74 116.757 133.74C115.771 132.727 115.277 131.427 115.277 129.84C115.277 128.333 115.751 127.06 116.697 126.02C117.644 124.967 118.824 124.44 120.237 124.44C121.717 124.44 122.891 124.96 123.757 126C124.624 127.04 125.057 128.347 125.057 129.92C125.057 130.12 125.051 130.3 125.037 130.46H116.837ZM116.837 129.22H123.497C123.404 128.22 123.071 127.393 122.497 126.74C121.937 126.073 121.171 125.74 120.197 125.74C119.317 125.74 118.564 126.067 117.937 126.72C117.311 127.373 116.944 128.207 116.837 129.22ZM131.173 135.2C130.427 135.2 129.667 135.067 128.893 134.8C128.133 134.52 127.467 134.147 126.893 133.68L127.673 132.58C128.847 133.46 130.04 133.9 131.253 133.9C131.88 133.9 132.393 133.753 132.793 133.46C133.193 133.153 133.393 132.753 133.393 132.26V132.22C133.393 131.753 133.173 131.393 132.733 131.14C132.307 130.887 131.667 130.64 130.813 130.4C130.293 130.253 129.88 130.12 129.573 130C129.267 129.88 128.92 129.713 128.533 129.5C128.147 129.273 127.86 128.993 127.673 128.66C127.487 128.327 127.393 127.933 127.393 127.48V127.44C127.393 126.56 127.72 125.847 128.373 125.3C129.04 124.753 129.887 124.48 130.913 124.48C132.247 124.48 133.487 124.86 134.633 125.62L133.933 126.78C132.907 126.113 131.887 125.78 130.873 125.78C130.273 125.78 129.787 125.92 129.413 126.2C129.053 126.48 128.873 126.84 128.873 127.28V127.32C128.873 127.507 128.927 127.68 129.033 127.84C129.14 128 129.26 128.133 129.393 128.24C129.527 128.347 129.733 128.46 130.013 128.58C130.307 128.7 130.54 128.787 130.713 128.84C130.887 128.893 131.16 128.98 131.533 129.1C131.92 129.22 132.24 129.327 132.493 129.42C132.76 129.513 133.053 129.647 133.373 129.82C133.707 129.98 133.967 130.16 134.153 130.36C134.353 130.547 134.52 130.787 134.653 131.08C134.787 131.373 134.853 131.7 134.853 132.06V132.1C134.853 133.06 134.507 133.82 133.813 134.38C133.12 134.927 132.24 135.2 131.173 135.2ZM140.979 135.18C140.085 135.18 139.372 134.947 138.839 134.48C138.319 134 138.059 133.26 138.059 132.26V126.02H136.619V124.66H138.059V121.54H139.599V124.66H142.879V126.02H139.599V132.06C139.599 133.207 140.179 133.78 141.339 133.78C141.845 133.78 142.345 133.66 142.839 133.42V134.74C142.279 135.033 141.659 135.18 140.979 135.18ZM152.521 130.46C152.628 131.513 153.021 132.353 153.701 132.98C154.394 133.593 155.214 133.9 156.161 133.9C157.401 133.9 158.488 133.413 159.421 132.44L160.381 133.3C159.221 134.593 157.801 135.24 156.121 135.24C154.668 135.24 153.441 134.74 152.441 133.74C151.454 132.727 150.961 131.427 150.961 129.84C150.961 128.333 151.434 127.06 152.381 126.02C153.328 124.967 154.508 124.44 155.921 124.44C157.401 124.44 158.574 124.96 159.441 126C160.308 127.04 160.741 128.347 160.741 129.92C160.741 130.12 160.734 130.3 160.721 130.46H152.521ZM152.521 129.22H159.181C159.088 128.22 158.754 127.393 158.181 126.74C157.621 126.073 156.854 125.74 155.881 125.74C155.001 125.74 154.248 126.067 153.621 126.72C152.994 127.373 152.628 128.207 152.521 129.22ZM167.237 135.22C166.01 135.22 165.043 134.847 164.337 134.1C163.63 133.34 163.277 132.333 163.277 131.08V124.66H164.817V130.7C164.817 131.673 165.063 132.44 165.557 133C166.063 133.547 166.77 133.82 167.677 133.82C168.57 133.82 169.31 133.52 169.897 132.92C170.483 132.32 170.777 131.54 170.777 130.58V124.66H172.297V135H170.777V133.2C169.937 134.547 168.757 135.22 167.237 135.22ZM186.417 135.24C184.924 135.24 183.664 134.713 182.637 133.66C181.624 132.607 181.117 131.347 181.117 129.88V129.84C181.117 128.36 181.624 127.093 182.637 126.04C183.664 124.973 184.924 124.44 186.417 124.44C188.017 124.44 189.397 125.053 190.557 126.28L189.537 127.36C188.55 126.32 187.504 125.8 186.397 125.8C185.357 125.8 184.477 126.187 183.757 126.96C183.05 127.733 182.697 128.68 182.697 129.8V129.84C182.697 130.96 183.057 131.913 183.777 132.7C184.51 133.473 185.417 133.86 186.497 133.86C187.644 133.86 188.697 133.347 189.657 132.32L190.637 133.24C189.437 134.573 188.03 135.24 186.417 135.24ZM201.47 133.66C200.43 134.713 199.143 135.24 197.61 135.24C196.077 135.24 194.797 134.72 193.77 133.68C192.757 132.627 192.25 131.36 192.25 129.88V129.84C192.25 128.36 192.763 127.093 193.79 126.04C194.83 124.973 196.117 124.44 197.65 124.44C199.183 124.44 200.463 124.967 201.49 126.02C202.517 127.06 203.03 128.32 203.03 129.8V129.84C203.03 131.32 202.51 132.593 201.47 133.66ZM197.65 133.86C198.757 133.86 199.663 133.473 200.37 132.7C201.09 131.927 201.45 130.987 201.45 129.88V129.84C201.45 128.72 201.077 127.767 200.33 126.98C199.597 126.193 198.69 125.8 197.61 125.8C196.517 125.8 195.61 126.193 194.89 126.98C194.183 127.753 193.83 128.693 193.83 129.8V129.84C193.83 130.96 194.197 131.913 194.93 132.7C195.663 133.473 196.57 133.86 197.65 133.86ZM205.82 135V124.66H207.36V126.4C208.226 125.093 209.34 124.44 210.7 124.44C212.246 124.44 213.353 125.127 214.02 126.5C214.913 125.127 216.126 124.44 217.66 124.44C218.846 124.44 219.78 124.813 220.46 125.56C221.153 126.307 221.5 127.32 221.5 128.6V135H219.96V128.96C219.96 127.96 219.72 127.193 219.24 126.66C218.773 126.113 218.12 125.84 217.28 125.84C216.466 125.84 215.786 126.127 215.24 126.7C214.693 127.273 214.42 128.053 214.42 129.04V135H212.9V128.92C212.9 127.96 212.66 127.207 212.18 126.66C211.713 126.113 211.066 125.84 210.24 125.84C209.413 125.84 208.726 126.147 208.18 126.76C207.633 127.373 207.36 128.153 207.36 129.1V135H205.82ZM224.843 135V124.66H226.383V126.4C227.25 125.093 228.363 124.44 229.723 124.44C231.27 124.44 232.376 125.127 233.043 126.5C233.936 125.127 235.15 124.44 236.683 124.44C237.87 124.44 238.803 124.813 239.483 125.56C240.176 126.307 240.523 127.32 240.523 128.6V135H238.983V128.96C238.983 127.96 238.743 127.193 238.263 126.66C237.796 126.113 237.143 125.84 236.303 125.84C235.49 125.84 234.81 126.127 234.263 126.7C233.716 127.273 233.443 128.053 233.443 129.04V135H231.923V128.92C231.923 127.96 231.683 127.207 231.203 126.66C230.736 126.113 230.09 125.84 229.263 125.84C228.436 125.84 227.75 126.147 227.203 126.76C226.656 127.373 226.383 128.153 226.383 129.1V135H224.843ZM252.446 133.66C251.406 134.713 250.12 135.24 248.586 135.24C247.053 135.24 245.773 134.72 244.746 133.68C243.733 132.627 243.226 131.36 243.226 129.88V129.84C243.226 128.36 243.74 127.093 244.766 126.04C245.806 124.973 247.093 124.44 248.626 124.44C250.16 124.44 251.44 124.967 252.466 126.02C253.493 127.06 254.006 128.32 254.006 129.8V129.84C254.006 131.32 253.486 132.593 252.446 133.66ZM248.626 133.86C249.733 133.86 250.64 133.473 251.346 132.7C252.066 131.927 252.426 130.987 252.426 129.88V129.84C252.426 128.72 252.053 127.767 251.306 126.98C250.573 126.193 249.666 125.8 248.586 125.8C247.493 125.8 246.586 126.193 245.866 126.98C245.16 127.753 244.806 128.693 244.806 129.8V129.84C244.806 130.96 245.173 131.913 245.906 132.7C246.64 133.473 247.546 133.86 248.626 133.86ZM261.136 135.22C259.816 135.22 258.663 134.733 257.676 133.76C256.69 132.787 256.196 131.487 256.196 129.86V129.82C256.196 128.207 256.69 126.907 257.676 125.92C258.663 124.933 259.816 124.44 261.136 124.44C262.763 124.44 264.083 125.173 265.096 126.64V120.4H266.636V135H265.096V132.92C264.056 134.453 262.736 135.22 261.136 135.22ZM261.416 133.84C262.416 133.84 263.29 133.467 264.036 132.72C264.783 131.96 265.156 131 265.156 129.84V129.8C265.156 128.653 264.783 127.707 264.036 126.96C263.29 126.2 262.416 125.82 261.416 125.82C260.376 125.82 259.51 126.18 258.816 126.9C258.123 127.62 257.776 128.587 257.776 129.8V129.84C257.776 131.027 258.13 131.993 258.836 132.74C259.543 133.473 260.403 133.84 261.416 133.84ZM278.657 133.66C277.617 134.713 276.331 135.24 274.797 135.24C273.264 135.24 271.984 134.72 270.957 133.68C269.944 132.627 269.437 131.36 269.437 129.88V129.84C269.437 128.36 269.951 127.093 270.977 126.04C272.017 124.973 273.304 124.44 274.837 124.44C276.371 124.44 277.651 124.967 278.677 126.02C279.704 127.06 280.217 128.32 280.217 129.8V129.84C280.217 131.32 279.697 132.593 278.657 133.66ZM274.837 133.86C275.944 133.86 276.851 133.473 277.557 132.7C278.277 131.927 278.637 130.987 278.637 129.88V129.84C278.637 128.72 278.264 127.767 277.517 126.98C276.784 126.193 275.877 125.8 274.797 125.8C273.704 125.8 272.797 126.193 272.077 126.98C271.371 127.753 271.017 128.693 271.017 129.8V129.84C271.017 130.96 271.384 131.913 272.117 132.7C272.851 133.473 273.757 133.86 274.837 133.86ZM282.436 135V132.9H284.276V135H282.436ZM293.775 135V121H303.895V122.44H295.355V127.22H302.995V128.66H295.355V133.56H303.995V135H293.775ZM310.373 135.18C309.48 135.18 308.767 134.947 308.233 134.48C307.713 134 307.453 133.26 307.453 132.26V126.02H306.013V124.66H307.453V121.54H308.993V124.66H312.273V126.02H308.993V132.06C308.993 133.207 309.573 133.78 310.733 133.78C311.24 133.78 311.74 133.66 312.233 133.42V134.74C311.673 135.033 311.053 135.18 310.373 135.18ZM315.039 122.4V120.7H316.799V122.4H315.039ZM315.139 135V124.66H316.679V135H315.139ZM323.333 135.22C322.293 135.22 321.387 134.933 320.613 134.36C319.853 133.787 319.473 133 319.473 132V131.96C319.473 130.88 319.873 130.047 320.673 129.46C321.473 128.873 322.547 128.58 323.893 128.58C324.96 128.58 326.013 128.727 327.053 129.02V128.7C327.053 127.793 326.787 127.1 326.253 126.62C325.72 126.14 324.967 125.9 323.993 125.9C322.98 125.9 321.933 126.147 320.853 126.64L320.393 125.38C321.673 124.793 322.927 124.5 324.153 124.5C325.62 124.5 326.733 124.88 327.493 125.64C328.213 126.36 328.573 127.373 328.573 128.68V135H327.053V133.46C326.133 134.633 324.893 135.22 323.333 135.22ZM323.633 133.98C324.593 133.98 325.407 133.72 326.073 133.2C326.74 132.68 327.073 132.013 327.073 131.2V130.24C326.06 129.947 325.053 129.8 324.053 129.8C323.107 129.8 322.367 129.993 321.833 130.38C321.3 130.753 321.033 131.253 321.033 131.88V131.92C321.033 132.547 321.28 133.047 321.773 133.42C322.28 133.793 322.9 133.98 323.633 133.98ZM331.835 135V124.66H333.375V126.4C334.242 125.093 335.355 124.44 336.715 124.44C338.262 124.44 339.369 125.127 340.035 126.5C340.929 125.127 342.142 124.44 343.675 124.44C344.862 124.44 345.795 124.813 346.475 125.56C347.169 126.307 347.515 127.32 347.515 128.6V135H345.975V128.96C345.975 127.96 345.735 127.193 345.255 126.66C344.789 126.113 344.135 125.84 343.295 125.84C342.482 125.84 341.802 126.127 341.255 126.7C340.709 127.273 340.435 128.053 340.435 129.04V135H338.915V128.92C338.915 127.96 338.675 127.207 338.195 126.66C337.729 126.113 337.082 125.84 336.255 125.84C335.429 125.84 334.742 126.147 334.195 126.76C333.649 127.373 333.375 128.153 333.375 129.1V135H331.835ZM356.855 138.2V124.66H358.395V126.74C359.435 125.207 360.755 124.44 362.355 124.44C363.675 124.44 364.828 124.927 365.815 125.9C366.801 126.873 367.295 128.173 367.295 129.8V129.84C367.295 131.453 366.801 132.753 365.815 133.74C364.828 134.727 363.675 135.22 362.355 135.22C360.728 135.22 359.408 134.487 358.395 133.02V138.2H356.855ZM362.075 133.84C363.115 133.84 363.981 133.48 364.675 132.76C365.368 132.04 365.715 131.073 365.715 129.86V129.82C365.715 128.633 365.361 127.673 364.655 126.94C363.948 126.193 363.088 125.82 362.075 125.82C361.075 125.82 360.201 126.2 359.455 126.96C358.708 127.707 358.335 128.653 358.335 129.8V129.84C358.335 131 358.708 131.96 359.455 132.72C360.201 133.467 361.075 133.84 362.075 133.84ZM370.136 135V120.4H371.676V126.46C372.489 125.113 373.669 124.44 375.216 124.44C376.443 124.44 377.409 124.82 378.116 125.58C378.823 126.327 379.176 127.327 379.176 128.58V135H377.636V128.96C377.636 127.987 377.383 127.227 376.876 126.68C376.383 126.12 375.683 125.84 374.776 125.84C373.883 125.84 373.143 126.14 372.556 126.74C371.969 127.34 371.676 128.12 371.676 129.08V135H370.136ZM385.54 135.22C384.5 135.22 383.594 134.933 382.82 134.36C382.06 133.787 381.68 133 381.68 132V131.96C381.68 130.88 382.08 130.047 382.88 129.46C383.68 128.873 384.754 128.58 386.1 128.58C387.167 128.58 388.22 128.727 389.26 129.02V128.7C389.26 127.793 388.994 127.1 388.46 126.62C387.927 126.14 387.174 125.9 386.2 125.9C385.187 125.9 384.14 126.147 383.06 126.64L382.6 125.38C383.88 124.793 385.134 124.5 386.36 124.5C387.827 124.5 388.94 124.88 389.7 125.64C390.42 126.36 390.78 127.373 390.78 128.68V135H389.26V133.46C388.34 134.633 387.1 135.22 385.54 135.22ZM385.84 133.98C386.8 133.98 387.614 133.72 388.28 133.2C388.947 132.68 389.28 132.013 389.28 131.2V130.24C388.267 129.947 387.26 129.8 386.26 129.8C385.314 129.8 384.574 129.993 384.04 130.38C383.507 130.753 383.24 131.253 383.24 131.88V131.92C383.24 132.547 383.487 133.047 383.98 133.42C384.487 133.793 385.107 133.98 385.84 133.98ZM394.042 135V124.66H395.582V127.36C395.982 126.467 396.549 125.753 397.282 125.22C398.016 124.687 398.856 124.44 399.802 124.48V126.14H399.682C398.496 126.14 397.516 126.553 396.742 127.38C395.969 128.207 395.582 129.373 395.582 130.88V135H394.042ZM402.619 130.46C402.725 131.513 403.119 132.353 403.799 132.98C404.492 133.593 405.312 133.9 406.259 133.9C407.499 133.9 408.585 133.413 409.519 132.44L410.479 133.3C409.319 134.593 407.899 135.24 406.219 135.24C404.765 135.24 403.539 134.74 402.539 133.74C401.552 132.727 401.059 131.427 401.059 129.84C401.059 128.333 401.532 127.06 402.479 126.02C403.425 124.967 404.605 124.44 406.019 124.44C407.499 124.44 408.672 124.96 409.539 126C410.405 127.04 410.839 128.347 410.839 129.92C410.839 130.12 410.832 130.3 410.819 130.46H402.619ZM402.619 129.22H409.279C409.185 128.22 408.852 127.393 408.279 126.74C407.719 126.073 406.952 125.74 405.979 125.74C405.099 125.74 404.345 126.067 403.719 126.72C403.092 127.373 402.725 128.207 402.619 129.22ZM416.994 135.18C416.101 135.18 415.388 134.947 414.854 134.48C414.334 134 414.074 133.26 414.074 132.26V126.02H412.634V124.66H414.074V121.54H415.614V124.66H418.894V126.02H415.614V132.06C415.614 133.207 416.194 133.78 417.354 133.78C417.861 133.78 418.361 133.66 418.854 133.42V134.74C418.294 135.033 417.674 135.18 416.994 135.18ZM421.62 135V124.66H423.16V127.36C423.56 126.467 424.127 125.753 424.86 125.22C425.594 124.687 426.434 124.44 427.38 124.48V126.14H427.26C426.074 126.14 425.094 126.553 424.32 127.38C423.547 128.207 423.16 129.373 423.16 130.88V135H421.62ZM432.298 135.22C431.258 135.22 430.351 134.933 429.578 134.36C428.818 133.787 428.438 133 428.438 132V131.96C428.438 130.88 428.838 130.047 429.638 129.46C430.438 128.873 431.511 128.58 432.858 128.58C433.925 128.58 434.978 128.727 436.018 129.02V128.7C436.018 127.793 435.751 127.1 435.218 126.62C434.685 126.14 433.931 125.9 432.958 125.9C431.945 125.9 430.898 126.147 429.818 126.64L429.358 125.38C430.638 124.793 431.891 124.5 433.118 124.5C434.585 124.5 435.698 124.88 436.458 125.64C437.178 126.36 437.538 127.373 437.538 128.68V135H436.018V133.46C435.098 134.633 433.858 135.22 432.298 135.22ZM432.598 133.98C433.558 133.98 434.371 133.72 435.038 133.2C435.705 132.68 436.038 132.013 436.038 131.2V130.24C435.025 129.947 434.018 129.8 433.018 129.8C432.071 129.8 431.331 129.993 430.798 130.38C430.265 130.753 429.998 131.253 429.998 131.88V131.92C429.998 132.547 430.245 133.047 430.738 133.42C431.245 133.793 431.865 133.98 432.598 133.98ZM446.936 135V120.4H448.476V135H446.936ZM452.09 122.4V120.7H453.85V122.4H452.09ZM452.19 135V124.66H453.73V135H452.19ZM461.884 138.24C460.137 138.24 458.571 137.76 457.184 136.8L457.884 135.6C459.097 136.48 460.424 136.92 461.864 136.92C463.024 136.92 463.937 136.6 464.604 135.96C465.284 135.333 465.624 134.427 465.624 133.24V132.02C464.531 133.473 463.177 134.2 461.564 134.2C460.257 134.2 459.117 133.753 458.144 132.86C457.184 131.953 456.704 130.787 456.704 129.36V129.32C456.704 127.867 457.191 126.693 458.164 125.8C459.137 124.893 460.271 124.44 461.564 124.44C463.217 124.44 464.564 125.133 465.604 126.52V124.66H467.144V133.2C467.144 134.76 466.704 135.98 465.824 136.86C464.904 137.78 463.591 138.24 461.884 138.24ZM461.864 132.84C462.877 132.84 463.764 132.513 464.524 131.86C465.284 131.193 465.664 130.353 465.664 129.34V129.3C465.664 128.273 465.284 127.433 464.524 126.78C463.777 126.127 462.891 125.8 461.864 125.8C460.864 125.8 460.017 126.12 459.324 126.76C458.631 127.4 458.284 128.24 458.284 129.28V129.32C458.284 130.333 458.631 131.173 459.324 131.84C460.031 132.507 460.877 132.84 461.864 132.84ZM474.385 135.22C473.159 135.22 472.192 134.847 471.485 134.1C470.779 133.34 470.425 132.333 470.425 131.08V124.66H471.965V130.7C471.965 131.673 472.212 132.44 472.705 133C473.212 133.547 473.919 133.82 474.825 133.82C475.719 133.82 476.459 133.52 477.045 132.92C477.632 132.32 477.925 131.54 477.925 130.58V124.66H479.445V135H477.925V133.2C477.085 134.547 475.905 135.22 474.385 135.22ZM483.049 135V120.4H484.589V135H483.049ZM491.243 135.22C490.203 135.22 489.297 134.933 488.523 134.36C487.763 133.787 487.383 133 487.383 132V131.96C487.383 130.88 487.783 130.047 488.583 129.46C489.383 128.873 490.457 128.58 491.803 128.58C492.87 128.58 493.923 128.727 494.963 129.02V128.7C494.963 127.793 494.697 127.1 494.163 126.62C493.63 126.14 492.877 125.9 491.903 125.9C490.89 125.9 489.843 126.147 488.763 126.64L488.303 125.38C489.583 124.793 490.837 124.5 492.063 124.5C493.53 124.5 494.643 124.88 495.403 125.64C496.123 126.36 496.483 127.373 496.483 128.68V135H494.963V133.46C494.043 134.633 492.803 135.22 491.243 135.22ZM491.543 133.98C492.503 133.98 493.317 133.72 493.983 133.2C494.65 132.68 494.983 132.013 494.983 131.2V130.24C493.97 129.947 492.963 129.8 491.963 129.8C491.017 129.8 490.277 129.993 489.743 130.38C489.21 130.753 488.943 131.253 488.943 131.88V131.92C488.943 132.547 489.19 133.047 489.683 133.42C490.19 133.793 490.81 133.98 491.543 133.98ZM508.821 135.22C507.781 135.22 506.875 134.933 506.101 134.36C505.341 133.787 504.961 133 504.961 132V131.96C504.961 130.88 505.361 130.047 506.161 129.46C506.961 128.873 508.035 128.58 509.381 128.58C510.448 128.58 511.501 128.727 512.541 129.02V128.7C512.541 127.793 512.275 127.1 511.741 126.62C511.208 126.14 510.455 125.9 509.481 125.9C508.468 125.9 507.421 126.147 506.341 126.64L505.881 125.38C507.161 124.793 508.415 124.5 509.641 124.5C511.108 124.5 512.221 124.88 512.981 125.64C513.701 126.36 514.061 127.373 514.061 128.68V135H512.541V133.46C511.621 134.633 510.381 135.22 508.821 135.22ZM509.121 133.98C510.081 133.98 510.895 133.72 511.561 133.2C512.228 132.68 512.561 132.013 512.561 131.2V130.24C511.548 129.947 510.541 129.8 509.541 129.8C508.595 129.8 507.855 129.993 507.321 130.38C506.788 130.753 506.521 131.253 506.521 131.88V131.92C506.521 132.547 506.768 133.047 507.261 133.42C507.768 133.793 508.388 133.98 509.121 133.98ZM523.36 122.4V120.7H525.12V122.4H523.36ZM522.48 138.26C522.12 138.26 521.8 138.227 521.52 138.16V136.9C521.76 136.94 522.013 136.96 522.28 136.96C523.066 136.96 523.46 136.5 523.46 135.58V124.66H525V135.6C525 136.493 524.78 137.16 524.34 137.6C523.9 138.04 523.28 138.26 522.48 138.26ZM532.374 135.22C531.147 135.22 530.18 134.847 529.474 134.1C528.767 133.34 528.414 132.333 528.414 131.08V124.66H529.954V130.7C529.954 131.673 530.2 132.44 530.694 133C531.2 133.547 531.907 133.82 532.814 133.82C533.707 133.82 534.447 133.52 535.034 132.92C535.62 132.32 535.914 131.54 535.914 130.58V124.66H537.434V135H535.914V133.2C535.074 134.547 533.894 135.22 532.374 135.22ZM544.318 135.2C543.571 135.2 542.811 135.067 542.038 134.8C541.278 134.52 540.611 134.147 540.038 133.68L540.818 132.58C541.991 133.46 543.184 133.9 544.398 133.9C545.024 133.9 545.538 133.753 545.938 133.46C546.338 133.153 546.538 132.753 546.538 132.26V132.22C546.538 131.753 546.318 131.393 545.878 131.14C545.451 130.887 544.811 130.64 543.958 130.4C543.438 130.253 543.024 130.12 542.718 130C542.411 129.88 542.064 129.713 541.678 129.5C541.291 129.273 541.004 128.993 540.818 128.66C540.631 128.327 540.538 127.933 540.538 127.48V127.44C540.538 126.56 540.864 125.847 541.518 125.3C542.184 124.753 543.031 124.48 544.058 124.48C545.391 124.48 546.631 124.86 547.778 125.62L547.078 126.78C546.051 126.113 545.031 125.78 544.018 125.78C543.418 125.78 542.931 125.92 542.558 126.2C542.198 126.48 542.018 126.84 542.018 127.28V127.32C542.018 127.507 542.071 127.68 542.178 127.84C542.284 128 542.404 128.133 542.538 128.24C542.671 128.347 542.878 128.46 543.158 128.58C543.451 128.7 543.684 128.787 543.858 128.84C544.031 128.893 544.304 128.98 544.678 129.1C545.064 129.22 545.384 129.327 545.638 129.42C545.904 129.513 546.198 129.647 546.518 129.82C546.851 129.98 547.111 130.16 547.298 130.36C547.498 130.547 547.664 130.787 547.798 131.08C547.931 131.373 547.998 131.7 547.998 132.06V132.1C547.998 133.06 547.651 133.82 546.958 134.38C546.264 134.927 545.384 135.2 544.318 135.2ZM554.123 135.18C553.23 135.18 552.517 134.947 551.983 134.48C551.463 134 551.203 133.26 551.203 132.26V126.02H549.763V124.66H551.203V121.54H552.743V124.66H556.023V126.02H552.743V132.06C552.743 133.207 553.323 133.78 554.483 133.78C554.99 133.78 555.49 133.66 555.983 133.42V134.74C555.423 135.033 554.803 135.18 554.123 135.18ZM567.036 133.66C565.996 134.713 564.71 135.24 563.176 135.24C561.643 135.24 560.363 134.72 559.336 133.68C558.323 132.627 557.816 131.36 557.816 129.88V129.84C557.816 128.36 558.33 127.093 559.356 126.04C560.396 124.973 561.683 124.44 563.216 124.44C564.75 124.44 566.03 124.967 567.056 126.02C568.083 127.06 568.596 128.32 568.596 129.8V129.84C568.596 131.32 568.076 132.593 567.036 133.66ZM563.216 133.86C564.323 133.86 565.23 133.473 565.936 132.7C566.656 131.927 567.016 130.987 567.016 129.88V129.84C567.016 128.72 566.643 127.767 565.896 126.98C565.163 126.193 564.256 125.8 563.176 125.8C562.083 125.8 561.176 126.193 560.456 126.98C559.75 127.753 559.396 128.693 559.396 129.8V129.84C559.396 130.96 559.763 131.913 560.496 132.7C561.23 133.473 562.136 133.86 563.216 133.86ZM578.302 130.46C578.409 131.513 578.802 132.353 579.482 132.98C580.175 133.593 580.995 133.9 581.942 133.9C583.182 133.9 584.269 133.413 585.202 132.44L586.162 133.3C585.002 134.593 583.582 135.24 581.902 135.24C580.449 135.24 579.222 134.74 578.222 133.74C577.235 132.727 576.742 131.427 576.742 129.84C576.742 128.333 577.215 127.06 578.162 126.02C579.109 124.967 580.289 124.44 581.702 124.44C583.182 124.44 584.355 124.96 585.222 126C586.089 127.04 586.522 128.347 586.522 129.92C586.522 130.12 586.515 130.3 586.502 130.46H578.302ZM578.302 129.22H584.962C584.869 128.22 584.535 127.393 583.962 126.74C583.402 126.073 582.635 125.74 581.662 125.74C580.782 125.74 580.029 126.067 579.402 126.72C578.775 127.373 578.409 128.207 578.302 129.22ZM589.358 135V120.4H590.898V135H589.358ZM595.392 130.46C595.499 131.513 595.892 132.353 596.572 132.98C597.265 133.593 598.085 133.9 599.032 133.9C600.272 133.9 601.359 133.413 602.292 132.44L603.252 133.3C602.092 134.593 600.672 135.24 598.992 135.24C597.539 135.24 596.312 134.74 595.312 133.74C594.325 132.727 593.832 131.427 593.832 129.84C593.832 128.333 594.305 127.06 595.252 126.02C596.199 124.967 597.379 124.44 598.792 124.44C600.272 124.44 601.445 124.96 602.312 126C603.179 127.04 603.612 128.347 603.612 129.92C603.612 130.12 603.605 130.3 603.592 130.46H595.392ZM595.392 129.22H602.052C601.959 128.22 601.625 127.393 601.052 126.74C600.492 126.073 599.725 125.74 598.752 125.74C597.872 125.74 597.119 126.067 596.492 126.72C595.865 127.373 595.499 128.207 595.392 129.22ZM606.308 135V124.66H607.848V126.4C608.715 125.093 609.828 124.44 611.188 124.44C612.735 124.44 613.841 125.127 614.508 126.5C615.401 125.127 616.615 124.44 618.148 124.44C619.335 124.44 620.268 124.813 620.948 125.56C621.641 126.307 621.988 127.32 621.988 128.6V135H620.448V128.96C620.448 127.96 620.208 127.193 619.728 126.66C619.261 126.113 618.608 125.84 617.768 125.84C616.955 125.84 616.275 126.127 615.728 126.7C615.181 127.273 614.908 128.053 614.908 129.04V135H613.388V128.92C613.388 127.96 613.148 127.207 612.668 126.66C612.201 126.113 611.555 125.84 610.728 125.84C609.901 125.84 609.215 126.147 608.668 126.76C608.121 127.373 607.848 128.153 607.848 129.1V135H606.308ZM626.251 130.46C626.358 131.513 626.751 132.353 627.431 132.98C628.125 133.593 628.945 133.9 629.891 133.9C631.131 133.9 632.218 133.413 633.151 132.44L634.111 133.3C632.951 134.593 631.531 135.24 629.851 135.24C628.398 135.24 627.171 134.74 626.171 133.74C625.185 132.727 624.691 131.427 624.691 129.84C624.691 128.333 625.165 127.06 626.111 126.02C627.058 124.967 628.238 124.44 629.651 124.44C631.131 124.44 632.305 124.96 633.171 126C634.038 127.04 634.471 128.347 634.471 129.92C634.471 130.12 634.465 130.3 634.451 130.46H626.251ZM626.251 129.22H632.911C632.818 128.22 632.485 127.393 631.911 126.74C631.351 126.073 630.585 125.74 629.611 125.74C628.731 125.74 627.978 126.067 627.351 126.72C626.725 127.373 626.358 128.207 626.251 129.22ZM637.167 135V124.66H638.707V126.46C639.521 125.113 640.701 124.44 642.247 124.44C643.474 124.44 644.441 124.82 645.147 125.58C645.854 126.327 646.207 127.327 646.207 128.58V135H644.667V128.96C644.667 127.987 644.414 127.227 643.907 126.68C643.414 126.12 642.714 125.84 641.807 125.84C640.914 125.84 640.174 126.14 639.587 126.74C639.001 127.34 638.707 128.12 638.707 129.08V135H637.167ZM652.951 135.18C652.058 135.18 651.345 134.947 650.811 134.48C650.291 134 650.031 133.26 650.031 132.26V126.02H648.591V124.66H650.031V121.54H651.571V124.66H654.851V126.02H651.571V132.06C651.571 133.207 652.151 133.78 653.311 133.78C653.818 133.78 654.318 133.66 654.811 133.42V134.74C654.251 135.033 653.631 135.18 652.951 135.18ZM661.377 135.22C660.151 135.22 659.184 134.847 658.477 134.1C657.771 133.34 657.417 132.333 657.417 131.08V124.66H658.957V130.7C658.957 131.673 659.204 132.44 659.697 133C660.204 133.547 660.911 133.82 661.817 133.82C662.711 133.82 663.451 133.52 664.037 132.92C664.624 132.32 664.917 131.54 664.917 130.58V124.66H666.437V135H664.917V133.2C664.077 134.547 662.897 135.22 661.377 135.22ZM669.902 135V124.66H671.442V126.4C672.308 125.093 673.422 124.44 674.782 124.44C676.328 124.44 677.435 125.127 678.102 126.5C678.995 125.127 680.208 124.44 681.742 124.44C682.928 124.44 683.862 124.813 684.542 125.56C685.235 126.307 685.582 127.32 685.582 128.6V135H684.042V128.96C684.042 127.96 683.802 127.193 683.322 126.66C682.855 126.113 682.202 125.84 681.362 125.84C680.548 125.84 679.868 126.127 679.322 126.7C678.775 127.273 678.502 128.053 678.502 129.04V135H676.982V128.92C676.982 127.96 676.742 127.207 676.262 126.66C675.795 126.113 675.148 125.84 674.322 125.84C673.495 125.84 672.808 126.147 672.262 126.76C671.715 127.373 671.442 128.153 671.442 129.1V135H669.902ZM688.365 137.44L688.125 136.74C689.098 136.393 689.545 135.813 689.465 135H688.745V132.9H690.585V134.7C690.585 135.5 690.405 136.113 690.045 136.54C689.698 136.967 689.138 137.267 688.365 137.44ZM699.864 122.4V120.7H701.624V122.4H699.864ZM699.964 135V124.66H701.504V135H699.964ZM705.077 135V124.66H706.617V126.46C707.431 125.113 708.611 124.44 710.157 124.44C711.384 124.44 712.351 124.82 713.057 125.58C713.764 126.327 714.117 127.327 714.117 128.58V135H712.577V128.96C712.577 127.987 712.324 127.227 711.817 126.68C711.324 126.12 710.624 125.84 709.717 125.84C708.824 125.84 708.084 126.14 707.497 126.74C706.911 127.34 706.617 128.12 706.617 129.08V135H705.077ZM727.198 135.22C725.971 135.22 725.004 134.847 724.298 134.1C723.591 133.34 723.238 132.333 723.238 131.08V124.66H724.778V130.7C724.778 131.673 725.024 132.44 725.518 133C726.024 133.547 726.731 133.82 727.638 133.82C728.531 133.82 729.271 133.52 729.858 132.92C730.444 132.32 730.738 131.54 730.738 130.58V124.66H732.258V135H730.738V133.2C729.898 134.547 728.718 135.22 727.198 135.22ZM735.862 135V120.4H737.402V135H735.862ZM744.436 135.18C743.543 135.18 742.829 134.947 742.296 134.48C741.776 134 741.516 133.26 741.516 132.26V126.02H740.076V124.66H741.516V121.54H743.056V124.66H746.336V126.02H743.056V132.06C743.056 133.207 743.636 133.78 744.796 133.78C745.303 133.78 745.803 133.66 746.296 133.42V134.74C745.736 135.033 745.116 135.18 744.436 135.18ZM749.062 135V124.66H750.602V127.36C751.002 126.467 751.568 125.753 752.302 125.22C753.035 124.687 753.875 124.44 754.822 124.48V126.14H754.702C753.515 126.14 752.535 126.553 751.762 127.38C750.988 128.207 750.602 129.373 750.602 130.88V135H749.062ZM757.207 122.4V120.7H758.967V122.4H757.207ZM757.307 135V124.66H758.847V135H757.307ZM767.081 135.24C765.588 135.24 764.328 134.713 763.301 133.66C762.288 132.607 761.781 131.347 761.781 129.88V129.84C761.781 128.36 762.288 127.093 763.301 126.04C764.328 124.973 765.588 124.44 767.081 124.44C768.681 124.44 770.061 125.053 771.221 126.28L770.201 127.36C769.215 126.32 768.168 125.8 767.061 125.8C766.021 125.8 765.141 126.187 764.421 126.96C763.715 127.733 763.361 128.68 763.361 129.8V129.84C763.361 130.96 763.721 131.913 764.441 132.7C765.175 133.473 766.081 133.86 767.161 133.86C768.308 133.86 769.361 133.347 770.321 132.32L771.301 133.24C770.101 134.573 768.695 135.24 767.081 135.24ZM773.887 122.4V120.7H775.647V122.4H773.887ZM773.987 135V124.66H775.527V135H773.987ZM780.021 130.46C780.128 131.513 780.521 132.353 781.201 132.98C781.894 133.593 782.714 133.9 783.661 133.9C784.901 133.9 785.988 133.413 786.921 132.44L787.881 133.3C786.721 134.593 785.301 135.24 783.621 135.24C782.168 135.24 780.941 134.74 779.941 133.74C778.954 132.727 778.461 131.427 778.461 129.84C778.461 128.333 778.934 127.06 779.881 126.02C780.828 124.967 782.008 124.44 783.421 124.44C784.901 124.44 786.074 124.96 786.941 126C787.808 127.04 788.241 128.347 788.241 129.92C788.241 130.12 788.234 130.3 788.221 130.46H780.021ZM780.021 129.22H786.681C786.588 128.22 786.254 127.393 785.681 126.74C785.121 126.073 784.354 125.74 783.381 125.74C782.501 125.74 781.748 126.067 781.121 126.72C780.494 127.373 780.128 128.207 780.021 129.22ZM794.357 135.2C793.61 135.2 792.85 135.067 792.077 134.8C791.317 134.52 790.65 134.147 790.077 133.68L790.857 132.58C792.03 133.46 793.223 133.9 794.437 133.9C795.063 133.9 795.577 133.753 795.977 133.46C796.377 133.153 796.577 132.753 796.577 132.26V132.22C796.577 131.753 796.357 131.393 795.917 131.14C795.49 130.887 794.85 130.64 793.997 130.4C793.477 130.253 793.063 130.12 792.757 130C792.45 129.88 792.103 129.713 791.717 129.5C791.33 129.273 791.043 128.993 790.857 128.66C790.67 128.327 790.577 127.933 790.577 127.48V127.44C790.577 126.56 790.903 125.847 791.557 125.3C792.223 124.753 793.07 124.48 794.097 124.48C795.43 124.48 796.67 124.86 797.817 125.62L797.117 126.78C796.09 126.113 795.07 125.78 794.057 125.78C793.457 125.78 792.97 125.92 792.597 126.2C792.237 126.48 792.057 126.84 792.057 127.28V127.32C792.057 127.507 792.11 127.68 792.217 127.84C792.323 128 792.443 128.133 792.577 128.24C792.71 128.347 792.917 128.46 793.197 128.58C793.49 128.7 793.723 128.787 793.897 128.84C794.07 128.893 794.343 128.98 794.717 129.1C795.103 129.22 795.423 129.327 795.677 129.42C795.943 129.513 796.237 129.647 796.557 129.82C796.89 129.98 797.15 130.16 797.337 130.36C797.537 130.547 797.703 130.787 797.837 131.08C797.97 131.373 798.037 131.7 798.037 132.06V132.1C798.037 133.06 797.69 133.82 796.997 134.38C796.303 134.927 795.423 135.2 794.357 135.2ZM807.814 130.46C807.92 131.513 808.314 132.353 808.994 132.98C809.687 133.593 810.507 133.9 811.454 133.9C812.694 133.9 813.78 133.413 814.714 132.44L815.674 133.3C814.514 134.593 813.094 135.24 811.414 135.24C809.96 135.24 808.734 134.74 807.734 133.74C806.747 132.727 806.254 131.427 806.254 129.84C806.254 128.333 806.727 127.06 807.674 126.02C808.62 124.967 809.8 124.44 811.214 124.44C812.694 124.44 813.867 124.96 814.734 126C815.6 127.04 816.034 128.347 816.034 129.92C816.034 130.12 816.027 130.3 816.014 130.46H807.814ZM807.814 129.22H814.474C814.38 128.22 814.047 127.393 813.474 126.74C812.914 126.073 812.147 125.74 811.174 125.74C810.294 125.74 809.54 126.067 808.914 126.72C808.287 127.373 807.92 128.207 807.814 129.22ZM818.73 135V124.66H820.27V127.36C820.67 126.467 821.236 125.753 821.97 125.22C822.703 124.687 823.543 124.44 824.49 124.48V126.14H824.37C823.183 126.14 822.203 126.553 821.43 127.38C820.656 128.207 820.27 129.373 820.27 130.88V135H818.73ZM829.407 135.22C828.367 135.22 827.461 134.933 826.687 134.36C825.927 133.787 825.547 133 825.547 132V131.96C825.547 130.88 825.947 130.047 826.747 129.46C827.547 128.873 828.621 128.58 829.967 128.58C831.034 128.58 832.087 128.727 833.127 129.02V128.7C833.127 127.793 832.861 127.1 832.327 126.62C831.794 126.14 831.041 125.9 830.067 125.9C829.054 125.9 828.007 126.147 826.927 126.64L826.467 125.38C827.747 124.793 829.001 124.5 830.227 124.5C831.694 124.5 832.807 124.88 833.567 125.64C834.287 126.36 834.647 127.373 834.647 128.68V135H833.127V133.46C832.207 134.633 830.967 135.22 829.407 135.22ZM829.707 133.98C830.667 133.98 831.481 133.72 832.147 133.2C832.814 132.68 833.147 132.013 833.147 131.2V130.24C832.134 129.947 831.127 129.8 830.127 129.8C829.181 129.8 828.441 129.993 827.907 130.38C827.374 130.753 827.107 131.253 827.107 131.88V131.92C827.107 132.547 827.354 133.047 827.847 133.42C828.354 133.793 828.974 133.98 829.707 133.98ZM841.272 135.18C840.378 135.18 839.665 134.947 839.132 134.48C838.612 134 838.352 133.26 838.352 132.26V126.02H836.912V124.66H838.352V121.54H839.892V124.66H843.172V126.02H839.892V132.06C839.892 133.207 840.472 133.78 841.632 133.78C842.138 133.78 842.638 133.66 843.132 133.42V134.74C842.572 135.033 841.952 135.18 841.272 135.18ZM855.354 135.08L850.874 124.66H852.574L856.054 133.24L859.554 124.66H861.214L856.714 135.08H855.354ZM866.204 135.22C865.164 135.22 864.258 134.933 863.484 134.36C862.724 133.787 862.344 133 862.344 132V131.96C862.344 130.88 862.744 130.047 863.544 129.46C864.344 128.873 865.418 128.58 866.764 128.58C867.831 128.58 868.884 128.727 869.924 129.02V128.7C869.924 127.793 869.658 127.1 869.124 126.62C868.591 126.14 867.838 125.9 866.864 125.9C865.851 125.9 864.804 126.147 863.724 126.64L863.264 125.38C864.544 124.793 865.798 124.5 867.024 124.5C868.491 124.5 869.604 124.88 870.364 125.64C871.084 126.36 871.444 127.373 871.444 128.68V135H869.924V133.46C869.004 134.633 867.764 135.22 866.204 135.22ZM866.504 133.98C867.464 133.98 868.278 133.72 868.944 133.2C869.611 132.68 869.944 132.013 869.944 131.2V130.24C868.931 129.947 867.924 129.8 866.924 129.8C865.978 129.8 865.238 129.993 864.704 130.38C864.171 130.753 863.904 131.253 863.904 131.88V131.92C863.904 132.547 864.151 133.047 864.644 133.42C865.151 133.793 865.771 133.98 866.504 133.98ZM874.706 135V124.66H876.246V127.36C876.646 126.467 877.213 125.753 877.946 125.22C878.68 124.687 879.52 124.44 880.466 124.48V126.14H880.346C879.16 126.14 878.18 126.553 877.406 127.38C876.633 128.207 876.246 129.373 876.246 130.88V135H874.706ZM882.852 122.4V120.7H884.612V122.4H882.852ZM882.952 135V124.66H884.492V135H882.952ZM891.866 135.22C890.639 135.22 889.672 134.847 888.966 134.1C888.259 133.34 887.906 132.333 887.906 131.08V124.66H889.446V130.7C889.446 131.673 889.692 132.44 890.186 133C890.692 133.547 891.399 133.82 892.306 133.82C893.199 133.82 893.939 133.52 894.526 132.92C895.112 132.32 895.406 131.54 895.406 130.58V124.66H896.926V135H895.406V133.2C894.566 134.547 893.386 135.22 891.866 135.22ZM903.81 135.2C903.063 135.2 902.303 135.067 901.53 134.8C900.77 134.52 900.103 134.147 899.53 133.68L900.31 132.58C901.483 133.46 902.677 133.9 903.89 133.9C904.517 133.9 905.03 133.753 905.43 133.46C905.83 133.153 906.03 132.753 906.03 132.26V132.22C906.03 131.753 905.81 131.393 905.37 131.14C904.943 130.887 904.303 130.64 903.45 130.4C902.93 130.253 902.517 130.12 902.21 130C901.903 129.88 901.557 129.713 901.17 129.5C900.783 129.273 900.497 128.993 900.31 128.66C900.123 128.327 900.03 127.933 900.03 127.48V127.44C900.03 126.56 900.357 125.847 901.01 125.3C901.677 124.753 902.523 124.48 903.55 124.48C904.883 124.48 906.123 124.86 907.27 125.62L906.57 126.78C905.543 126.113 904.523 125.78 903.51 125.78C902.91 125.78 902.423 125.92 902.05 126.2C901.69 126.48 901.51 126.84 901.51 127.28V127.32C901.51 127.507 901.563 127.68 901.67 127.84C901.777 128 901.897 128.133 902.03 128.24C902.163 128.347 902.37 128.46 902.65 128.58C902.943 128.7 903.177 128.787 903.35 128.84C903.523 128.893 903.797 128.98 904.17 129.1C904.557 129.22 904.877 129.327 905.13 129.42C905.397 129.513 905.69 129.647 906.01 129.82C906.343 129.98 906.603 130.16 906.79 130.36C906.99 130.547 907.157 130.787 907.29 131.08C907.423 131.373 907.49 131.7 907.49 132.06V132.1C907.49 133.06 907.143 133.82 906.45 134.38C905.757 134.927 904.877 135.2 903.81 135.2ZM910.171 135V132.9H912.011V135H910.171Z" fill="#393939"/>
</svg>
