<svg width="991" height="119" viewBox="0 0 991 119" fill="none" xmlns="http://www.w3.org/2000/svg">
<g clip-path="url(#clip0_930_1833)">
<path d="M42.6074 25.25H7.88867" stroke="#27336E" stroke-width="2.71103" stroke-linecap="round" stroke-linejoin="round"/>
<path d="M22.0918 11.0469L7.88867 25.25L22.0918 39.4531" stroke="#27336E" stroke-width="2.71103" stroke-linecap="round" stroke-linejoin="round"/>
</g>
<path d="M80.46 38V10H100.58V12.92H83.62V22.92H98.78V25.8H83.62V38H80.46ZM106.19 38V17.32H109.27V22.72C110.07 20.9333 111.203 19.5067 112.67 18.44C114.137 17.3733 115.817 16.88 117.71 16.96V20.28H117.47C115.097 20.28 113.137 21.1067 111.59 22.76C110.043 24.4133 109.27 26.7467 109.27 29.76V38H106.19ZM123.342 28.92C123.556 31.0267 124.343 32.7067 125.703 33.96C127.089 35.1867 128.729 35.8 130.623 35.8C133.103 35.8 135.276 34.8267 137.143 32.88L139.063 34.6C136.743 37.1867 133.903 38.48 130.543 38.48C127.636 38.48 125.183 37.48 123.183 35.48C121.209 33.4533 120.223 30.8533 120.223 27.68C120.223 24.6667 121.169 22.12 123.062 20.04C124.956 17.9333 127.316 16.88 130.143 16.88C133.103 16.88 135.449 17.92 137.183 20C138.916 22.08 139.783 24.6933 139.783 27.84C139.783 28.24 139.769 28.6 139.743 28.92H123.342ZM123.342 26.44H136.663C136.476 24.44 135.809 22.7867 134.663 21.48C133.543 20.1467 132.009 19.48 130.063 19.48C128.303 19.48 126.796 20.1333 125.543 21.44C124.289 22.7467 123.556 24.4133 123.342 26.44ZM161.774 44.4V33.84C159.694 36.9067 157.054 38.44 153.854 38.44C151.214 38.44 148.908 37.4667 146.934 35.52C144.961 33.5733 143.974 30.9733 143.974 27.72V27.64C143.974 24.4133 144.961 21.8133 146.934 19.84C148.908 17.8667 151.214 16.88 153.854 16.88C157.108 16.88 159.748 18.3467 161.774 21.28V17.32H164.854V44.4H161.774ZM154.414 35.68C156.414 35.68 158.161 34.9333 159.654 33.44C161.148 31.92 161.894 30 161.894 27.68V27.6C161.894 25.3067 161.148 23.4133 159.654 21.92C158.161 20.4 156.414 19.64 154.414 19.64C152.334 19.64 150.601 20.36 149.214 21.8C147.828 23.24 147.134 25.1733 147.134 27.6V27.68C147.134 30.0533 147.841 31.9867 149.254 33.48C150.668 34.9467 152.388 35.68 154.414 35.68ZM179.337 38.44C176.884 38.44 174.95 37.6933 173.537 36.2C172.124 34.68 171.417 32.6667 171.417 30.16V17.32H174.497V29.4C174.497 31.3467 174.99 32.88 175.977 34C176.99 35.0933 178.404 35.64 180.217 35.64C182.004 35.64 183.484 35.04 184.657 33.84C185.83 32.64 186.417 31.08 186.417 29.16V17.32H189.457V38H186.417V34.4C184.737 37.0933 182.377 38.44 179.337 38.44ZM198.225 28.92C198.439 31.0267 199.225 32.7067 200.585 33.96C201.972 35.1867 203.612 35.8 205.505 35.8C207.985 35.8 210.159 34.8267 212.025 32.88L213.945 34.6C211.625 37.1867 208.785 38.48 205.425 38.48C202.519 38.48 200.065 37.48 198.065 35.48C196.092 33.4533 195.105 30.8533 195.105 27.68C195.105 24.6667 196.052 22.12 197.945 20.04C199.839 17.9333 202.199 16.88 205.025 16.88C207.985 16.88 210.332 17.92 212.065 20C213.799 22.08 214.665 24.6933 214.665 27.84C214.665 28.24 214.652 28.6 214.625 28.92H198.225ZM198.225 26.44H211.545C211.359 24.44 210.692 22.7867 209.545 21.48C208.425 20.1467 206.892 19.48 204.945 19.48C203.185 19.48 201.679 20.1333 200.425 21.44C199.172 22.7467 198.439 24.4133 198.225 26.44ZM220.057 38V17.32H223.137V20.92C224.764 18.2267 227.124 16.88 230.217 16.88C232.671 16.88 234.604 17.64 236.017 19.16C237.431 20.6533 238.137 22.6533 238.137 25.16V38H235.057V25.92C235.057 23.9733 234.551 22.4533 233.537 21.36C232.551 20.24 231.151 19.68 229.337 19.68C227.551 19.68 226.071 20.28 224.897 21.48C223.724 22.68 223.137 24.24 223.137 26.16V38H220.057ZM251.626 38.36C249.839 38.36 248.412 37.8933 247.346 36.96C246.306 36 245.786 34.52 245.786 32.52V20.04H242.906V17.32H245.786V11.08H248.866V17.32H255.426V20.04H248.866V32.12C248.866 34.4133 250.026 35.56 252.346 35.56C253.359 35.56 254.359 35.32 255.346 34.84V37.48C254.226 38.0667 252.986 38.36 251.626 38.36ZM261.158 38V8.8H264.238V38H261.158ZM274.585 44.52C273.092 44.52 271.625 44.1733 270.185 43.48L271.225 41.04C272.212 41.5467 273.292 41.8 274.465 41.8C275.399 41.8 276.185 41.5067 276.825 40.92C277.465 40.36 278.092 39.36 278.705 37.92L269.305 17.32H272.705L280.225 34.56L286.865 17.32H290.145L281.465 38.68C280.585 40.7867 279.612 42.28 278.545 43.16C277.479 44.0667 276.159 44.52 274.585 44.52ZM304.53 38L316.53 9.8H322.21L334.21 38H327.77L325.21 31.72H313.37L310.81 38H304.53ZM315.57 26.28H323.01L319.29 17.2L315.57 26.28ZM345.412 38.4C342.412 38.4 339.052 37.4 336.212 35.16L338.812 31.16C341.132 32.84 343.572 33.72 345.572 33.72C347.332 33.72 348.132 33.08 348.132 32.12V32.04C348.132 30.72 346.052 30.28 343.692 29.56C340.692 28.68 337.292 27.28 337.292 23.12V23.04C337.292 18.68 340.812 16.24 345.132 16.24C347.852 16.24 350.812 17.16 353.132 18.72L350.812 22.92C348.692 21.68 346.572 20.92 345.012 20.92C343.532 20.92 342.772 21.56 342.772 22.4V22.48C342.772 23.68 344.812 24.24 347.132 25.04C350.132 26.04 353.612 27.48 353.612 31.4V31.48C353.612 36.24 350.052 38.4 345.412 38.4ZM357.97 38V8.8H364.05V24.36L371.17 16.56H378.45L370.29 25L378.73 38H371.77L366.17 29.24L364.05 31.48V38H357.97ZM390.786 38.48C384.346 38.48 379.586 33.96 379.586 27.4V27.32C379.586 21.2 383.946 16.16 390.186 16.16C397.346 16.16 400.626 21.72 400.626 27.8C400.626 28.28 400.586 28.84 400.546 29.4H385.626C386.226 32.16 388.146 33.6 390.866 33.6C392.906 33.6 394.386 32.96 396.066 31.4L399.546 34.48C397.546 36.96 394.666 38.48 390.786 38.48ZM385.546 25.6H394.706C394.346 22.88 392.746 21.04 390.186 21.04C387.666 21.04 386.026 22.84 385.546 25.6ZM413.958 38.4C408.958 38.4 404.198 34.48 404.198 27.32V27.24C404.198 20.08 408.878 16.16 413.958 16.16C417.198 16.16 419.198 17.64 420.638 19.36V8.8H426.718V38H420.638V34.92C419.158 36.92 417.118 38.4 413.958 38.4ZM415.518 33.24C418.358 33.24 420.718 30.88 420.718 27.32V27.24C420.718 23.68 418.358 21.32 415.518 21.32C412.678 21.32 410.278 23.64 410.278 27.24V27.32C410.278 30.88 412.678 33.24 415.518 33.24ZM473.702 34.48L469.782 38.84L466.702 36.08C464.342 37.6 461.502 38.48 458.382 38.48C449.742 38.48 443.542 32.04 443.542 24.08V24C443.542 16.04 449.822 9.52 458.462 9.52C467.102 9.52 473.302 15.96 473.302 23.92V24C473.302 26.96 472.382 29.72 470.822 32.04L473.702 34.48ZM458.462 32.8C459.822 32.8 461.062 32.56 462.142 32.04L457.582 28.16L461.502 23.76L466.102 27.92C466.582 26.8 466.862 25.48 466.862 24.08V24C466.862 19.2 463.342 15.2 458.382 15.2C453.422 15.2 449.982 19.12 449.982 23.92V24C449.982 28.8 453.502 32.8 458.462 32.8ZM485.246 38.4C480.646 38.4 477.966 35.36 477.966 30.44V16.56H484.046V28.52C484.046 31.4 485.406 32.88 487.726 32.88C490.046 32.88 491.526 31.4 491.526 28.52V16.56H497.606V38H491.526V34.96C490.126 36.76 488.326 38.4 485.246 38.4ZM513.208 38.48C506.768 38.48 502.008 33.96 502.008 27.4V27.32C502.008 21.2 506.368 16.16 512.608 16.16C519.768 16.16 523.048 21.72 523.048 27.8C523.048 28.28 523.008 28.84 522.968 29.4H508.048C508.648 32.16 510.568 33.6 513.288 33.6C515.328 33.6 516.808 32.96 518.488 31.4L521.968 34.48C519.968 36.96 517.088 38.48 513.208 38.48ZM507.968 25.6H517.128C516.768 22.88 515.168 21.04 512.608 21.04C510.088 21.04 508.448 22.84 507.968 25.6ZM535.099 38.4C532.099 38.4 528.739 37.4 525.899 35.16L528.499 31.16C530.819 32.84 533.259 33.72 535.259 33.72C537.019 33.72 537.819 33.08 537.819 32.12V32.04C537.819 30.72 535.739 30.28 533.379 29.56C530.379 28.68 526.979 27.28 526.979 23.12V23.04C526.979 18.68 530.499 16.24 534.819 16.24C537.539 16.24 540.499 17.16 542.819 18.72L540.499 22.92C538.379 21.68 536.259 20.92 534.699 20.92C533.219 20.92 532.459 21.56 532.459 22.4V22.48C532.459 23.68 534.499 24.24 536.819 25.04C539.819 26.04 543.299 27.48 543.299 31.4V31.48C543.299 36.24 539.739 38.4 535.099 38.4ZM554.507 38.36C550.787 38.36 548.267 36.88 548.267 31.92V21.76H545.707V16.56H548.267V11.08H554.347V16.56H559.387V21.76H554.347V30.92C554.347 32.32 554.947 33 556.307 33C557.427 33 558.427 32.72 559.307 32.24V37.12C558.027 37.88 556.547 38.36 554.507 38.36ZM563.988 14.2V8.8H570.388V14.2H563.988ZM564.148 38V16.56H570.228V38H564.148ZM586.459 38.48C579.819 38.48 574.899 33.56 574.899 27.4V27.32C574.899 21.16 579.859 16.16 586.539 16.16C593.179 16.16 598.099 21.08 598.099 27.24V27.32C598.099 33.48 593.139 38.48 586.459 38.48ZM586.539 33.24C590.019 33.24 592.099 30.56 592.099 27.4V27.32C592.099 24.16 589.819 21.4 586.459 21.4C582.979 21.4 580.899 24.08 580.899 27.24V27.32C580.899 30.48 583.179 33.24 586.539 33.24ZM602.501 38V16.56H608.581V19.6C609.981 17.8 611.781 16.16 614.861 16.16C619.461 16.16 622.141 19.2 622.141 24.12V38H616.061V26.04C616.061 23.16 614.701 21.68 612.381 21.68C610.061 21.68 608.581 23.16 608.581 26.04V38H602.501ZM634.943 38.4C631.943 38.4 628.583 37.4 625.743 35.16L628.343 31.16C630.663 32.84 633.103 33.72 635.103 33.72C636.863 33.72 637.663 33.08 637.663 32.12V32.04C637.663 30.72 635.583 30.28 633.223 29.56C630.223 28.68 626.823 27.28 626.823 23.12V23.04C626.823 18.68 630.343 16.24 634.663 16.24C637.383 16.24 640.343 17.16 642.663 18.72L640.343 22.92C638.223 21.68 636.103 20.92 634.543 20.92C633.063 20.92 632.303 21.56 632.303 22.4V22.48C632.303 23.68 634.343 24.24 636.663 25.04C639.663 26.04 643.143 27.48 643.143 31.4V31.48C643.143 36.24 639.583 38.4 634.943 38.4Z" fill="#27336E"/>
<path d="M84.88 81.24C82.88 81.24 81.2067 80.5467 79.86 79.16C78.5267 77.7733 77.86 76.0667 77.86 74.04V74C77.86 71.9867 78.5333 70.28 79.88 68.88C81.2267 67.4667 82.9133 66.76 84.94 66.76C86.1267 66.76 87.14 66.9467 87.98 67.32C88.82 67.6933 89.6267 68.2467 90.4 68.98L89.32 70.14C87.9733 68.86 86.5067 68.22 84.92 68.22C83.3733 68.22 82.08 68.7733 81.04 69.88C80.0133 70.9867 79.5 72.3467 79.5 73.96V74C79.5 75.6267 80.02 77 81.06 78.12C82.1 79.2267 83.3867 79.78 84.92 79.78C85.8267 79.78 86.6267 79.6133 87.32 79.28C88.0133 78.9467 88.72 78.44 89.44 77.76L90.48 78.78C89.68 79.5933 88.8467 80.2067 87.98 80.62C87.1133 81.0333 86.08 81.24 84.88 81.24ZM101.37 79.66C100.33 80.7133 99.0436 81.24 97.5103 81.24C95.977 81.24 94.697 80.72 93.6703 79.68C92.657 78.6267 92.1503 77.36 92.1503 75.88V75.84C92.1503 74.36 92.6636 73.0933 93.6903 72.04C94.7303 70.9733 96.017 70.44 97.5503 70.44C99.0836 70.44 100.364 70.9667 101.39 72.02C102.417 73.06 102.93 74.32 102.93 75.8V75.84C102.93 77.32 102.41 78.5933 101.37 79.66ZM97.5503 79.86C98.657 79.86 99.5636 79.4733 100.27 78.7C100.99 77.9267 101.35 76.9867 101.35 75.88V75.84C101.35 74.72 100.977 73.7667 100.23 72.98C99.497 72.1933 98.5903 71.8 97.5103 71.8C96.417 71.8 95.5103 72.1933 94.7903 72.98C94.0836 73.7533 93.7303 74.6933 93.7303 75.8V75.84C93.7303 76.96 94.097 77.9133 94.8303 78.7C95.5636 79.4733 96.4703 79.86 97.5503 79.86ZM105.72 81V70.66H107.26V72.4C108.127 71.0933 109.24 70.44 110.6 70.44C112.147 70.44 113.253 71.1267 113.92 72.5C114.813 71.1267 116.027 70.44 117.56 70.44C118.747 70.44 119.68 70.8133 120.36 71.56C121.053 72.3067 121.4 73.32 121.4 74.6V81H119.86V74.96C119.86 73.96 119.62 73.1933 119.14 72.66C118.673 72.1133 118.02 71.84 117.18 71.84C116.367 71.84 115.687 72.1267 115.14 72.7C114.593 73.2733 114.32 74.0533 114.32 75.04V81H112.8V74.92C112.8 73.96 112.56 73.2067 112.08 72.66C111.613 72.1133 110.967 71.84 110.14 71.84C109.313 71.84 108.627 72.1467 108.08 72.76C107.533 73.3733 107.26 74.1533 107.26 75.1V81H105.72ZM124.743 81V70.66H126.283V72.4C127.15 71.0933 128.263 70.44 129.623 70.44C131.17 70.44 132.277 71.1267 132.943 72.5C133.837 71.1267 135.05 70.44 136.583 70.44C137.77 70.44 138.703 70.8133 139.383 71.56C140.077 72.3067 140.423 73.32 140.423 74.6V81H138.883V74.96C138.883 73.96 138.643 73.1933 138.163 72.66C137.697 72.1133 137.043 71.84 136.203 71.84C135.39 71.84 134.71 72.1267 134.163 72.7C133.617 73.2733 133.343 74.0533 133.343 75.04V81H131.823V74.92C131.823 73.96 131.583 73.2067 131.103 72.66C130.637 72.1133 129.99 71.84 129.163 71.84C128.337 71.84 127.65 72.1467 127.103 72.76C126.557 73.3733 126.283 74.1533 126.283 75.1V81H124.743ZM152.347 79.66C151.307 80.7133 150.02 81.24 148.487 81.24C146.954 81.24 145.674 80.72 144.647 79.68C143.634 78.6267 143.127 77.36 143.127 75.88V75.84C143.127 74.36 143.64 73.0933 144.667 72.04C145.707 70.9733 146.994 70.44 148.527 70.44C150.06 70.44 151.34 70.9667 152.367 72.02C153.394 73.06 153.907 74.32 153.907 75.8V75.84C153.907 77.32 153.387 78.5933 152.347 79.66ZM148.527 79.86C149.634 79.86 150.54 79.4733 151.247 78.7C151.967 77.9267 152.327 76.9867 152.327 75.88V75.84C152.327 74.72 151.954 73.7667 151.207 72.98C150.474 72.1933 149.567 71.8 148.487 71.8C147.394 71.8 146.487 72.1933 145.767 72.98C145.06 73.7533 144.707 74.6933 144.707 75.8V75.84C144.707 76.96 145.074 77.9133 145.807 78.7C146.54 79.4733 147.447 79.86 148.527 79.86ZM161.037 81.22C159.717 81.22 158.563 80.7333 157.577 79.76C156.59 78.7867 156.097 77.4867 156.097 75.86V75.82C156.097 74.2067 156.59 72.9067 157.577 71.92C158.563 70.9333 159.717 70.44 161.037 70.44C162.663 70.44 163.983 71.1733 164.997 72.64V66.4H166.537V81H164.997V78.92C163.957 80.4533 162.637 81.22 161.037 81.22ZM161.317 79.84C162.317 79.84 163.19 79.4667 163.937 78.72C164.683 77.96 165.057 77 165.057 75.84V75.8C165.057 74.6533 164.683 73.7067 163.937 72.96C163.19 72.2 162.317 71.82 161.317 71.82C160.277 71.82 159.41 72.18 158.717 72.9C158.023 73.62 157.677 74.5867 157.677 75.8V75.84C157.677 77.0267 158.03 77.9933 158.737 78.74C159.443 79.4733 160.303 79.84 161.317 79.84ZM178.558 79.66C177.518 80.7133 176.231 81.24 174.698 81.24C173.164 81.24 171.884 80.72 170.858 79.68C169.844 78.6267 169.338 77.36 169.338 75.88V75.84C169.338 74.36 169.851 73.0933 170.878 72.04C171.918 70.9733 173.204 70.44 174.738 70.44C176.271 70.44 177.551 70.9667 178.578 72.02C179.604 73.06 180.118 74.32 180.118 75.8V75.84C180.118 77.32 179.598 78.5933 178.558 79.66ZM174.738 79.86C175.844 79.86 176.751 79.4733 177.458 78.7C178.178 77.9267 178.538 76.9867 178.538 75.88V75.84C178.538 74.72 178.164 73.7667 177.418 72.98C176.684 72.1933 175.778 71.8 174.698 71.8C173.604 71.8 172.698 72.1933 171.978 72.98C171.271 73.7533 170.918 74.6933 170.918 75.8V75.84C170.918 76.96 171.284 77.9133 172.018 78.7C172.751 79.4733 173.658 79.86 174.738 79.86ZM193.244 81.22C191.924 81.22 190.77 80.7333 189.784 79.76C188.797 78.7867 188.304 77.4867 188.304 75.86V75.82C188.304 74.2067 188.797 72.9067 189.784 71.92C190.77 70.9333 191.924 70.44 193.244 70.44C194.87 70.44 196.19 71.1733 197.204 72.64V66.4H198.744V81H197.204V78.92C196.164 80.4533 194.844 81.22 193.244 81.22ZM193.524 79.84C194.524 79.84 195.397 79.4667 196.144 78.72C196.89 77.96 197.264 77 197.264 75.84V75.8C197.264 74.6533 196.89 73.7067 196.144 72.96C195.397 72.2 194.524 71.82 193.524 71.82C192.484 71.82 191.617 72.18 190.924 72.9C190.23 73.62 189.884 74.5867 189.884 75.8V75.84C189.884 77.0267 190.237 77.9933 190.944 78.74C191.65 79.4733 192.51 79.84 193.524 79.84ZM202.225 68.4V66.7H203.985V68.4H202.225ZM202.325 81V70.66H203.865V81H202.325ZM212.019 84.24C210.272 84.24 208.705 83.76 207.319 82.8L208.019 81.6C209.232 82.48 210.559 82.92 211.999 82.92C213.159 82.92 214.072 82.6 214.739 81.96C215.419 81.3333 215.759 80.4267 215.759 79.24V78.02C214.665 79.4733 213.312 80.2 211.699 80.2C210.392 80.2 209.252 79.7533 208.279 78.86C207.319 77.9533 206.839 76.7867 206.839 75.36V75.32C206.839 73.8667 207.325 72.6933 208.299 71.8C209.272 70.8933 210.405 70.44 211.699 70.44C213.352 70.44 214.699 71.1333 215.739 72.52V70.66H217.279V79.2C217.279 80.76 216.839 81.98 215.959 82.86C215.039 83.78 213.725 84.24 212.019 84.24ZM211.999 78.84C213.012 78.84 213.899 78.5133 214.659 77.86C215.419 77.1933 215.799 76.3533 215.799 75.34V75.3C215.799 74.2733 215.419 73.4333 214.659 72.78C213.912 72.1267 213.025 71.8 211.999 71.8C210.999 71.8 210.152 72.12 209.459 72.76C208.765 73.4 208.419 74.24 208.419 75.28V75.32C208.419 76.3333 208.765 77.1733 209.459 77.84C210.165 78.5067 211.012 78.84 211.999 78.84ZM220.72 81V70.66H222.26V72.46C223.073 71.1133 224.253 70.44 225.8 70.44C227.027 70.44 227.993 70.82 228.7 71.58C229.407 72.3267 229.76 73.3267 229.76 74.58V81H228.22V74.96C228.22 73.9867 227.967 73.2267 227.46 72.68C226.967 72.12 226.267 71.84 225.36 71.84C224.467 71.84 223.727 72.14 223.14 72.74C222.553 73.34 222.26 74.12 222.26 75.08V81H220.72ZM233.084 68.4V66.7H234.844V68.4H233.084ZM233.184 81V70.66H234.724V81H233.184ZM241.718 81.2C240.971 81.2 240.211 81.0667 239.438 80.8C238.678 80.52 238.011 80.1467 237.438 79.68L238.218 78.58C239.391 79.46 240.585 79.9 241.798 79.9C242.425 79.9 242.938 79.7533 243.338 79.46C243.738 79.1533 243.938 78.7533 243.938 78.26V78.22C243.938 77.7533 243.718 77.3933 243.278 77.14C242.851 76.8867 242.211 76.64 241.358 76.4C240.838 76.2533 240.425 76.12 240.118 76C239.811 75.88 239.465 75.7133 239.078 75.5C238.691 75.2733 238.405 74.9933 238.218 74.66C238.031 74.3267 237.938 73.9333 237.938 73.48V73.44C237.938 72.56 238.265 71.8467 238.918 71.3C239.585 70.7533 240.431 70.48 241.458 70.48C242.791 70.48 244.031 70.86 245.178 71.62L244.478 72.78C243.451 72.1133 242.431 71.78 241.418 71.78C240.818 71.78 240.331 71.92 239.958 72.2C239.598 72.48 239.418 72.84 239.418 73.28V73.32C239.418 73.5067 239.471 73.68 239.578 73.84C239.685 74 239.805 74.1333 239.938 74.24C240.071 74.3467 240.278 74.46 240.558 74.58C240.851 74.7 241.085 74.7867 241.258 74.84C241.431 74.8933 241.705 74.98 242.078 75.1C242.465 75.22 242.785 75.3267 243.038 75.42C243.305 75.5133 243.598 75.6467 243.918 75.82C244.251 75.98 244.511 76.16 244.698 76.36C244.898 76.5467 245.065 76.7867 245.198 77.08C245.331 77.3733 245.398 77.7 245.398 78.06V78.1C245.398 79.06 245.051 79.82 244.358 80.38C243.665 80.9267 242.785 81.2 241.718 81.2ZM251.484 81.2C250.737 81.2 249.977 81.0667 249.204 80.8C248.444 80.52 247.777 80.1467 247.204 79.68L247.984 78.58C249.157 79.46 250.35 79.9 251.564 79.9C252.19 79.9 252.704 79.7533 253.104 79.46C253.504 79.1533 253.704 78.7533 253.704 78.26V78.22C253.704 77.7533 253.484 77.3933 253.044 77.14C252.617 76.8867 251.977 76.64 251.124 76.4C250.604 76.2533 250.19 76.12 249.884 76C249.577 75.88 249.23 75.7133 248.844 75.5C248.457 75.2733 248.17 74.9933 247.984 74.66C247.797 74.3267 247.704 73.9333 247.704 73.48V73.44C247.704 72.56 248.03 71.8467 248.684 71.3C249.35 70.7533 250.197 70.48 251.224 70.48C252.557 70.48 253.797 70.86 254.944 71.62L254.244 72.78C253.217 72.1133 252.197 71.78 251.184 71.78C250.584 71.78 250.097 71.92 249.724 72.2C249.364 72.48 249.184 72.84 249.184 73.28V73.32C249.184 73.5067 249.237 73.68 249.344 73.84C249.45 74 249.57 74.1333 249.704 74.24C249.837 74.3467 250.044 74.46 250.324 74.58C250.617 74.7 250.85 74.7867 251.024 74.84C251.197 74.8933 251.47 74.98 251.844 75.1C252.23 75.22 252.55 75.3267 252.804 75.42C253.07 75.5133 253.364 75.6467 253.684 75.82C254.017 75.98 254.277 76.16 254.464 76.36C254.664 76.5467 254.83 76.7867 254.964 77.08C255.097 77.3733 255.164 77.7 255.164 78.06V78.1C255.164 79.06 254.817 79.82 254.124 80.38C253.43 80.9267 252.55 81.2 251.484 81.2ZM258.065 68.4V66.7H259.825V68.4H258.065ZM258.165 81V70.66H259.705V81H258.165ZM263.279 81V70.66H264.819V72.4C265.685 71.0933 266.799 70.44 268.159 70.44C269.705 70.44 270.812 71.1267 271.479 72.5C272.372 71.1267 273.585 70.44 275.119 70.44C276.305 70.44 277.239 70.8133 277.919 71.56C278.612 72.3067 278.959 73.32 278.959 74.6V81H277.419V74.96C277.419 73.96 277.179 73.1933 276.699 72.66C276.232 72.1133 275.579 71.84 274.739 71.84C273.925 71.84 273.245 72.1267 272.699 72.7C272.152 73.2733 271.879 74.0533 271.879 75.04V81H270.359V74.92C270.359 73.96 270.119 73.2067 269.639 72.66C269.172 72.1133 268.525 71.84 267.699 71.84C266.872 71.84 266.185 72.1467 265.639 72.76C265.092 73.3733 264.819 74.1533 264.819 75.1V81H263.279ZM291.758 81.18C290.865 81.18 290.151 80.9467 289.618 80.48C289.098 80 288.838 79.26 288.838 78.26V72.02H287.398V70.66H288.838V67.54H290.378V70.66H293.658V72.02H290.378V78.06C290.378 79.2067 290.958 79.78 292.118 79.78C292.625 79.78 293.125 79.66 293.618 79.42V80.74C293.058 81.0333 292.438 81.18 291.758 81.18ZM300.184 81.22C298.957 81.22 297.991 80.8467 297.284 80.1C296.577 79.34 296.224 78.3333 296.224 77.08V70.66H297.764V76.7C297.764 77.6733 298.011 78.44 298.504 79C299.011 79.5467 299.717 79.82 300.624 79.82C301.517 79.82 302.257 79.52 302.844 78.92C303.431 78.32 303.724 77.54 303.724 76.58V70.66H305.244V81H303.724V79.2C302.884 80.5467 301.704 81.22 300.184 81.22ZM308.708 81V70.66H310.248V73.36C310.648 72.4667 311.215 71.7533 311.948 71.22C312.682 70.6867 313.522 70.44 314.468 70.48V72.14H314.348C313.162 72.14 312.182 72.5533 311.408 73.38C310.635 74.2067 310.248 75.3733 310.248 76.88V81H308.708ZM316.814 84.2V70.66H318.354V72.74C319.394 71.2067 320.714 70.44 322.314 70.44C323.634 70.44 324.787 70.9267 325.774 71.9C326.76 72.8733 327.254 74.1733 327.254 75.8V75.84C327.254 77.4533 326.76 78.7533 325.774 79.74C324.787 80.7267 323.634 81.22 322.314 81.22C320.687 81.22 319.367 80.4867 318.354 79.02V84.2H316.814ZM322.034 79.84C323.074 79.84 323.94 79.48 324.634 78.76C325.327 78.04 325.674 77.0733 325.674 75.86V75.82C325.674 74.6333 325.32 73.6733 324.614 72.94C323.907 72.1933 323.047 71.82 322.034 71.82C321.034 71.82 320.16 72.2 319.414 72.96C318.667 73.7067 318.294 74.6533 318.294 75.8V75.84C318.294 77 318.667 77.96 319.414 78.72C320.16 79.4667 321.034 79.84 322.034 79.84ZM330.135 68.4V66.7H331.895V68.4H330.135ZM330.235 81V70.66H331.775V81H330.235ZM338.769 81.2C338.022 81.2 337.262 81.0667 336.489 80.8C335.729 80.52 335.062 80.1467 334.489 79.68L335.269 78.58C336.442 79.46 337.636 79.9 338.849 79.9C339.476 79.9 339.989 79.7533 340.389 79.46C340.789 79.1533 340.989 78.7533 340.989 78.26V78.22C340.989 77.7533 340.769 77.3933 340.329 77.14C339.902 76.8867 339.262 76.64 338.409 76.4C337.889 76.2533 337.476 76.12 337.169 76C336.862 75.88 336.516 75.7133 336.129 75.5C335.742 75.2733 335.456 74.9933 335.269 74.66C335.082 74.3267 334.989 73.9333 334.989 73.48V73.44C334.989 72.56 335.316 71.8467 335.969 71.3C336.636 70.7533 337.482 70.48 338.509 70.48C339.842 70.48 341.082 70.86 342.229 71.62L341.529 72.78C340.502 72.1133 339.482 71.78 338.469 71.78C337.869 71.78 337.382 71.92 337.009 72.2C336.649 72.48 336.469 72.84 336.469 73.28V73.32C336.469 73.5067 336.522 73.68 336.629 73.84C336.736 74 336.856 74.1333 336.989 74.24C337.122 74.3467 337.329 74.46 337.609 74.58C337.902 74.7 338.136 74.7867 338.309 74.84C338.482 74.8933 338.756 74.98 339.129 75.1C339.516 75.22 339.836 75.3267 340.089 75.42C340.356 75.5133 340.649 75.6467 340.969 75.82C341.302 75.98 341.562 76.16 341.749 76.36C341.949 76.5467 342.116 76.7867 342.249 77.08C342.382 77.3733 342.449 77.7 342.449 78.06V78.1C342.449 79.06 342.102 79.82 341.409 80.38C340.716 80.9267 339.836 81.2 338.769 81.2ZM354.766 81.08L350.286 70.66H351.986L355.466 79.24L358.966 70.66H360.626L356.126 81.08H354.766ZM363.359 76.46C363.465 77.5133 363.859 78.3533 364.539 78.98C365.232 79.5933 366.052 79.9 366.999 79.9C368.239 79.9 369.325 79.4133 370.259 78.44L371.219 79.3C370.059 80.5933 368.639 81.24 366.959 81.24C365.505 81.24 364.279 80.74 363.279 79.74C362.292 78.7267 361.799 77.4267 361.799 75.84C361.799 74.3333 362.272 73.06 363.219 72.02C364.165 70.9667 365.345 70.44 366.759 70.44C368.239 70.44 369.412 70.96 370.279 72C371.145 73.04 371.579 74.3467 371.579 75.92C371.579 76.12 371.572 76.3 371.559 76.46H363.359ZM363.359 75.22H370.019C369.925 74.22 369.592 73.3933 369.019 72.74C368.459 72.0733 367.692 71.74 366.719 71.74C365.839 71.74 365.085 72.0667 364.459 72.72C363.832 73.3733 363.465 74.2067 363.359 75.22ZM374.415 81V66.4H375.955V81H374.415ZM386.105 81V72.02H384.685V70.68H386.105V69.78C386.105 68.6067 386.405 67.72 387.005 67.12C387.538 66.5867 388.278 66.32 389.225 66.32C389.878 66.32 390.445 66.4067 390.925 66.58V67.92C390.311 67.7467 389.811 67.66 389.425 67.66C388.225 67.66 387.625 68.3933 387.625 69.86V70.7H390.905V72.02H387.645V81H386.105ZM392.868 81V70.66H394.408V73.36C394.808 72.4667 395.375 71.7533 396.108 71.22C396.842 70.6867 397.682 70.44 398.628 70.48V72.14H398.508C397.322 72.14 396.342 72.5533 395.568 73.38C394.795 74.2067 394.408 75.3733 394.408 76.88V81H392.868ZM401.014 68.4V66.7H402.774V68.4H401.014ZM401.114 81V70.66H402.654V81H401.114ZM406.228 81V70.66H407.768V72.46C408.581 71.1133 409.761 70.44 411.308 70.44C412.534 70.44 413.501 70.82 414.208 71.58C414.914 72.3267 415.268 73.3267 415.268 74.58V81H413.728V74.96C413.728 73.9867 413.474 73.2267 412.968 72.68C412.474 72.12 411.774 71.84 410.868 71.84C409.974 71.84 409.234 72.14 408.648 72.74C408.061 73.34 407.768 74.12 407.768 75.08V81H406.228ZM423.132 84.24C421.385 84.24 419.819 83.76 418.432 82.8L419.132 81.6C420.345 82.48 421.672 82.92 423.112 82.92C424.272 82.92 425.185 82.6 425.852 81.96C426.532 81.3333 426.872 80.4267 426.872 79.24V78.02C425.779 79.4733 424.425 80.2 422.812 80.2C421.505 80.2 420.365 79.7533 419.392 78.86C418.432 77.9533 417.952 76.7867 417.952 75.36V75.32C417.952 73.8667 418.439 72.6933 419.412 71.8C420.385 70.8933 421.519 70.44 422.812 70.44C424.465 70.44 425.812 71.1333 426.852 72.52V70.66H428.392V79.2C428.392 80.76 427.952 81.98 427.072 82.86C426.152 83.78 424.839 84.24 423.132 84.24ZM423.112 78.84C424.125 78.84 425.012 78.5133 425.772 77.86C426.532 77.1933 426.912 76.3533 426.912 75.34V75.3C426.912 74.2733 426.532 73.4333 425.772 72.78C425.025 72.1267 424.139 71.8 423.112 71.8C422.112 71.8 421.265 72.12 420.572 72.76C419.879 73.4 419.532 74.24 419.532 75.28V75.32C419.532 76.3333 419.879 77.1733 420.572 77.84C421.279 78.5067 422.125 78.84 423.112 78.84ZM431.873 68.4V66.7H433.633V68.4H431.873ZM431.973 81V70.66H433.513V81H431.973ZM437.227 81V66.4H438.767V81H437.227ZM442.481 81V66.4H444.021V81H442.481ZM450.675 81.22C449.635 81.22 448.728 80.9333 447.955 80.36C447.195 79.7867 446.815 79 446.815 78V77.96C446.815 76.88 447.215 76.0467 448.015 75.46C448.815 74.8733 449.888 74.58 451.235 74.58C452.302 74.58 453.355 74.7267 454.395 75.02V74.7C454.395 73.7933 454.128 73.1 453.595 72.62C453.062 72.14 452.308 71.9 451.335 71.9C450.322 71.9 449.275 72.1467 448.195 72.64L447.735 71.38C449.015 70.7933 450.268 70.5 451.495 70.5C452.962 70.5 454.075 70.88 454.835 71.64C455.555 72.36 455.915 73.3733 455.915 74.68V81H454.395V79.46C453.475 80.6333 452.235 81.22 450.675 81.22ZM450.975 79.98C451.935 79.98 452.748 79.72 453.415 79.2C454.082 78.68 454.415 78.0133 454.415 77.2V76.24C453.402 75.9467 452.395 75.8 451.395 75.8C450.448 75.8 449.708 75.9933 449.175 76.38C448.642 76.7533 448.375 77.2533 448.375 77.88V77.92C448.375 78.5467 448.622 79.0467 449.115 79.42C449.622 79.7933 450.242 79.98 450.975 79.98ZM458.997 81V78.9H460.837V81H458.997ZM475.135 81.2C472.989 81.2 471.082 80.4533 469.415 78.96L470.395 77.8C471.142 78.48 471.889 78.98 472.635 79.3C473.395 79.62 474.249 79.78 475.195 79.78C476.129 79.78 476.882 79.56 477.455 79.12C478.029 78.6667 478.315 78.0933 478.315 77.4V77.36C478.315 76.68 478.062 76.14 477.555 75.74C477.049 75.34 476.089 74.9933 474.675 74.7C473.022 74.34 471.822 73.86 471.075 73.26C470.342 72.6467 469.975 71.78 469.975 70.66V70.62C469.975 69.5133 470.409 68.6 471.275 67.88C472.142 67.16 473.242 66.8 474.575 66.8C476.429 66.8 478.069 67.3733 479.495 68.52L478.575 69.74C477.335 68.7267 475.989 68.22 474.535 68.22C473.642 68.22 472.922 68.44 472.375 68.88C471.829 69.3067 471.555 69.84 471.555 70.48V70.52C471.555 71.2133 471.815 71.76 472.335 72.16C472.869 72.56 473.875 72.92 475.355 73.24C476.942 73.5867 478.095 74.0733 478.815 74.7C479.549 75.3133 479.915 76.1467 479.915 77.2V77.24C479.915 78.4267 479.469 79.3867 478.575 80.12C477.682 80.84 476.535 81.2 475.135 81.2ZM486.668 81.22C485.442 81.22 484.475 80.8467 483.768 80.1C483.062 79.34 482.708 78.3333 482.708 77.08V70.66H484.248V76.7C484.248 77.6733 484.495 78.44 484.988 79C485.495 79.5467 486.202 79.82 487.108 79.82C488.002 79.82 488.742 79.52 489.328 78.92C489.915 78.32 490.208 77.54 490.208 76.58V70.66H491.728V81H490.208V79.2C489.368 80.5467 488.188 81.22 486.668 81.22ZM498.613 81.2C497.866 81.2 497.106 81.0667 496.333 80.8C495.573 80.52 494.906 80.1467 494.333 79.68L495.113 78.58C496.286 79.46 497.479 79.9 498.693 79.9C499.319 79.9 499.833 79.7533 500.233 79.46C500.633 79.1533 500.833 78.7533 500.833 78.26V78.22C500.833 77.7533 500.613 77.3933 500.173 77.14C499.746 76.8867 499.106 76.64 498.253 76.4C497.733 76.2533 497.319 76.12 497.013 76C496.706 75.88 496.359 75.7133 495.973 75.5C495.586 75.2733 495.299 74.9933 495.113 74.66C494.926 74.3267 494.833 73.9333 494.833 73.48V73.44C494.833 72.56 495.159 71.8467 495.813 71.3C496.479 70.7533 497.326 70.48 498.353 70.48C499.686 70.48 500.926 70.86 502.073 71.62L501.373 72.78C500.346 72.1133 499.326 71.78 498.313 71.78C497.713 71.78 497.226 71.92 496.853 72.2C496.493 72.48 496.313 72.84 496.313 73.28V73.32C496.313 73.5067 496.366 73.68 496.473 73.84C496.579 74 496.699 74.1333 496.833 74.24C496.966 74.3467 497.173 74.46 497.453 74.58C497.746 74.7 497.979 74.7867 498.153 74.84C498.326 74.8933 498.599 74.98 498.973 75.1C499.359 75.22 499.679 75.3267 499.933 75.42C500.199 75.5133 500.493 75.6467 500.813 75.82C501.146 75.98 501.406 76.16 501.593 76.36C501.793 76.5467 501.959 76.7867 502.093 77.08C502.226 77.3733 502.293 77.7 502.293 78.06V78.1C502.293 79.06 501.946 79.82 501.253 80.38C500.559 80.9267 499.679 81.2 498.613 81.2ZM505.154 84.2V70.66H506.694V72.74C507.734 71.2067 509.054 70.44 510.654 70.44C511.974 70.44 513.127 70.9267 514.114 71.9C515.1 72.8733 515.594 74.1733 515.594 75.8V75.84C515.594 77.4533 515.1 78.7533 514.114 79.74C513.127 80.7267 511.974 81.22 510.654 81.22C509.027 81.22 507.707 80.4867 506.694 79.02V84.2H505.154ZM510.374 79.84C511.414 79.84 512.28 79.48 512.974 78.76C513.667 78.04 514.014 77.0733 514.014 75.86V75.82C514.014 74.6333 513.66 73.6733 512.954 72.94C512.247 72.1933 511.387 71.82 510.374 71.82C509.374 71.82 508.5 72.2 507.754 72.96C507.007 73.7067 506.634 74.6533 506.634 75.8V75.84C506.634 77 507.007 77.96 507.754 78.72C508.5 79.4667 509.374 79.84 510.374 79.84ZM519.355 76.46C519.462 77.5133 519.855 78.3533 520.535 78.98C521.228 79.5933 522.048 79.9 522.995 79.9C524.235 79.9 525.322 79.4133 526.255 78.44L527.215 79.3C526.055 80.5933 524.635 81.24 522.955 81.24C521.502 81.24 520.275 80.74 519.275 79.74C518.288 78.7267 517.795 77.4267 517.795 75.84C517.795 74.3333 518.268 73.06 519.215 72.02C520.162 70.9667 521.342 70.44 522.755 70.44C524.235 70.44 525.408 70.96 526.275 72C527.142 73.04 527.575 74.3467 527.575 75.92C527.575 76.12 527.568 76.3 527.555 76.46H519.355ZM519.355 75.22H526.015C525.922 74.22 525.588 73.3933 525.015 72.74C524.455 72.0733 523.688 71.74 522.715 71.74C521.835 71.74 521.082 72.0667 520.455 72.72C519.828 73.3733 519.462 74.2067 519.355 75.22ZM530.271 81V70.66H531.811V72.46C532.624 71.1133 533.804 70.44 535.351 70.44C536.577 70.44 537.544 70.82 538.251 71.58C538.957 72.3267 539.311 73.3267 539.311 74.58V81H537.771V74.96C537.771 73.9867 537.517 73.2267 537.011 72.68C536.517 72.12 535.817 71.84 534.911 71.84C534.017 71.84 533.277 72.14 532.691 72.74C532.104 73.34 531.811 74.12 531.811 75.08V81H530.271ZM546.935 81.22C545.615 81.22 544.462 80.7333 543.475 79.76C542.488 78.7867 541.995 77.4867 541.995 75.86V75.82C541.995 74.2067 542.488 72.9067 543.475 71.92C544.462 70.9333 545.615 70.44 546.935 70.44C548.562 70.44 549.882 71.1733 550.895 72.64V66.4H552.435V81H550.895V78.92C549.855 80.4533 548.535 81.22 546.935 81.22ZM547.215 79.84C548.215 79.84 549.088 79.4667 549.835 78.72C550.582 77.96 550.955 77 550.955 75.84V75.8C550.955 74.6533 550.582 73.7067 549.835 72.96C549.088 72.2 548.215 71.82 547.215 71.82C546.175 71.82 545.308 72.18 544.615 72.9C543.922 73.62 543.575 74.5867 543.575 75.8V75.84C543.575 77.0267 543.928 77.9933 544.635 78.74C545.342 79.4733 546.202 79.84 547.215 79.84ZM555.916 68.4V66.7H557.676V68.4H555.916ZM556.016 81V70.66H557.556V81H556.016ZM564.55 81.2C563.803 81.2 563.043 81.0667 562.27 80.8C561.51 80.52 560.843 80.1467 560.27 79.68L561.05 78.58C562.223 79.46 563.417 79.9 564.63 79.9C565.257 79.9 565.77 79.7533 566.17 79.46C566.57 79.1533 566.77 78.7533 566.77 78.26V78.22C566.77 77.7533 566.55 77.3933 566.11 77.14C565.683 76.8867 565.043 76.64 564.19 76.4C563.67 76.2533 563.257 76.12 562.95 76C562.643 75.88 562.297 75.7133 561.91 75.5C561.523 75.2733 561.237 74.9933 561.05 74.66C560.863 74.3267 560.77 73.9333 560.77 73.48V73.44C560.77 72.56 561.097 71.8467 561.75 71.3C562.417 70.7533 563.263 70.48 564.29 70.48C565.623 70.48 566.863 70.86 568.01 71.62L567.31 72.78C566.283 72.1133 565.263 71.78 564.25 71.78C563.65 71.78 563.163 71.92 562.79 72.2C562.43 72.48 562.25 72.84 562.25 73.28V73.32C562.25 73.5067 562.303 73.68 562.41 73.84C562.517 74 562.637 74.1333 562.77 74.24C562.903 74.3467 563.11 74.46 563.39 74.58C563.683 74.7 563.917 74.7867 564.09 74.84C564.263 74.8933 564.537 74.98 564.91 75.1C565.297 75.22 565.617 75.3267 565.87 75.42C566.137 75.5133 566.43 75.6467 566.75 75.82C567.083 75.98 567.343 76.16 567.53 76.36C567.73 76.5467 567.897 76.7867 568.03 77.08C568.163 77.3733 568.23 77.7 568.23 78.06V78.1C568.23 79.06 567.883 79.82 567.19 80.38C566.497 80.9267 565.617 81.2 564.55 81.2ZM574.316 81.2C573.569 81.2 572.809 81.0667 572.036 80.8C571.276 80.52 570.609 80.1467 570.036 79.68L570.816 78.58C571.989 79.46 573.182 79.9 574.396 79.9C575.022 79.9 575.536 79.7533 575.936 79.46C576.336 79.1533 576.536 78.7533 576.536 78.26V78.22C576.536 77.7533 576.316 77.3933 575.876 77.14C575.449 76.8867 574.809 76.64 573.956 76.4C573.436 76.2533 573.022 76.12 572.716 76C572.409 75.88 572.062 75.7133 571.676 75.5C571.289 75.2733 571.002 74.9933 570.816 74.66C570.629 74.3267 570.536 73.9333 570.536 73.48V73.44C570.536 72.56 570.862 71.8467 571.516 71.3C572.182 70.7533 573.029 70.48 574.056 70.48C575.389 70.48 576.629 70.86 577.776 71.62L577.076 72.78C576.049 72.1133 575.029 71.78 574.016 71.78C573.416 71.78 572.929 71.92 572.556 72.2C572.196 72.48 572.016 72.84 572.016 73.28V73.32C572.016 73.5067 572.069 73.68 572.176 73.84C572.282 74 572.402 74.1333 572.536 74.24C572.669 74.3467 572.876 74.46 573.156 74.58C573.449 74.7 573.682 74.7867 573.856 74.84C574.029 74.8933 574.302 74.98 574.676 75.1C575.062 75.22 575.382 75.3267 575.636 75.42C575.902 75.5133 576.196 75.6467 576.516 75.82C576.849 75.98 577.109 76.16 577.296 76.36C577.496 76.5467 577.662 76.7867 577.796 77.08C577.929 77.3733 577.996 77.7 577.996 78.06V78.1C577.996 79.06 577.649 79.82 576.956 80.38C576.262 80.9267 575.382 81.2 574.316 81.2ZM581.777 76.46C581.883 77.5133 582.277 78.3533 582.957 78.98C583.65 79.5933 584.47 79.9 585.417 79.9C586.657 79.9 587.743 79.4133 588.677 78.44L589.637 79.3C588.477 80.5933 587.057 81.24 585.377 81.24C583.923 81.24 582.697 80.74 581.697 79.74C580.71 78.7267 580.217 77.4267 580.217 75.84C580.217 74.3333 580.69 73.06 581.637 72.02C582.583 70.9667 583.763 70.44 585.177 70.44C586.657 70.44 587.83 70.96 588.697 72C589.563 73.04 589.997 74.3467 589.997 75.92C589.997 76.12 589.99 76.3 589.977 76.46H581.777ZM581.777 75.22H588.437C588.343 74.22 588.01 73.3933 587.437 72.74C586.877 72.0733 586.11 71.74 585.137 71.74C584.257 71.74 583.503 72.0667 582.877 72.72C582.25 73.3733 581.883 74.2067 581.777 75.22ZM602.109 81.2C601.362 81.2 600.602 81.0667 599.829 80.8C599.069 80.52 598.402 80.1467 597.829 79.68L598.609 78.58C599.782 79.46 600.975 79.9 602.189 79.9C602.815 79.9 603.329 79.7533 603.729 79.46C604.129 79.1533 604.329 78.7533 604.329 78.26V78.22C604.329 77.7533 604.109 77.3933 603.669 77.14C603.242 76.8867 602.602 76.64 601.749 76.4C601.229 76.2533 600.815 76.12 600.509 76C600.202 75.88 599.855 75.7133 599.469 75.5C599.082 75.2733 598.795 74.9933 598.609 74.66C598.422 74.3267 598.329 73.9333 598.329 73.48V73.44C598.329 72.56 598.655 71.8467 599.309 71.3C599.975 70.7533 600.822 70.48 601.849 70.48C603.182 70.48 604.422 70.86 605.569 71.62L604.869 72.78C603.842 72.1133 602.822 71.78 601.809 71.78C601.209 71.78 600.722 71.92 600.349 72.2C599.989 72.48 599.809 72.84 599.809 73.28V73.32C599.809 73.5067 599.862 73.68 599.969 73.84C600.075 74 600.195 74.1333 600.329 74.24C600.462 74.3467 600.669 74.46 600.949 74.58C601.242 74.7 601.475 74.7867 601.649 74.84C601.822 74.8933 602.095 74.98 602.469 75.1C602.855 75.22 603.175 75.3267 603.429 75.42C603.695 75.5133 603.989 75.6467 604.309 75.82C604.642 75.98 604.902 76.16 605.089 76.36C605.289 76.5467 605.455 76.7867 605.589 77.08C605.722 77.3733 605.789 77.7 605.789 78.06V78.1C605.789 79.06 605.442 79.82 604.749 80.38C604.055 80.9267 603.175 81.2 602.109 81.2ZM609.57 76.46C609.676 77.5133 610.07 78.3533 610.75 78.98C611.443 79.5933 612.263 79.9 613.21 79.9C614.45 79.9 615.536 79.4133 616.47 78.44L617.43 79.3C616.27 80.5933 614.85 81.24 613.17 81.24C611.716 81.24 610.49 80.74 609.49 79.74C608.503 78.7267 608.01 77.4267 608.01 75.84C608.01 74.3333 608.483 73.06 609.43 72.02C610.376 70.9667 611.556 70.44 612.97 70.44C614.45 70.44 615.623 70.96 616.49 72C617.356 73.04 617.79 74.3467 617.79 75.92C617.79 76.12 617.783 76.3 617.77 76.46H609.57ZM609.57 75.22H616.23C616.136 74.22 615.803 73.3933 615.23 72.74C614.67 72.0733 613.903 71.74 612.93 71.74C612.05 71.74 611.296 72.0667 610.67 72.72C610.043 73.3733 609.676 74.2067 609.57 75.22ZM620.486 81V70.66H622.026V72.4C622.892 71.0933 624.006 70.44 625.366 70.44C626.912 70.44 628.019 71.1267 628.686 72.5C629.579 71.1267 630.792 70.44 632.326 70.44C633.512 70.44 634.446 70.8133 635.126 71.56C635.819 72.3067 636.166 73.32 636.166 74.6V81H634.626V74.96C634.626 73.96 634.386 73.1933 633.906 72.66C633.439 72.1133 632.786 71.84 631.946 71.84C631.132 71.84 630.452 72.1267 629.906 72.7C629.359 73.2733 629.086 74.0533 629.086 75.04V81H627.566V74.92C627.566 73.96 627.326 73.2067 626.846 72.66C626.379 72.1133 625.732 71.84 624.906 71.84C624.079 71.84 623.392 72.1467 622.846 72.76C622.299 73.3733 622.026 74.1533 622.026 75.1V81H620.486ZM639.509 84.2V70.66H641.049V72.74C642.089 71.2067 643.409 70.44 645.009 70.44C646.329 70.44 647.482 70.9267 648.469 71.9C649.456 72.8733 649.949 74.1733 649.949 75.8V75.84C649.949 77.4533 649.456 78.7533 648.469 79.74C647.482 80.7267 646.329 81.22 645.009 81.22C643.382 81.22 642.062 80.4867 641.049 79.02V84.2H639.509ZM644.729 79.84C645.769 79.84 646.636 79.48 647.329 78.76C648.022 78.04 648.369 77.0733 648.369 75.86V75.82C648.369 74.6333 648.016 73.6733 647.309 72.94C646.602 72.1933 645.742 71.82 644.729 71.82C643.729 71.82 642.856 72.2 642.109 72.96C641.362 73.7067 640.989 74.6533 640.989 75.8V75.84C640.989 77 641.362 77.96 642.109 78.72C642.856 79.4667 643.729 79.84 644.729 79.84ZM653.71 76.46C653.817 77.5133 654.21 78.3533 654.89 78.98C655.584 79.5933 656.404 79.9 657.35 79.9C658.59 79.9 659.677 79.4133 660.61 78.44L661.57 79.3C660.41 80.5933 658.99 81.24 657.31 81.24C655.857 81.24 654.63 80.74 653.63 79.74C652.644 78.7267 652.15 77.4267 652.15 75.84C652.15 74.3333 652.624 73.06 653.57 72.02C654.517 70.9667 655.697 70.44 657.11 70.44C658.59 70.44 659.764 70.96 660.63 72C661.497 73.04 661.93 74.3467 661.93 75.92C661.93 76.12 661.924 76.3 661.91 76.46H653.71ZM653.71 75.22H660.37C660.277 74.22 659.944 73.3933 659.37 72.74C658.81 72.0733 658.044 71.74 657.07 71.74C656.19 71.74 655.437 72.0667 654.81 72.72C654.184 73.3733 653.817 74.2067 653.71 75.22ZM664.626 81V70.66H666.166V73.36C666.566 72.4667 667.133 71.7533 667.866 71.22C668.6 70.6867 669.44 70.44 670.386 70.48V72.14H670.266C669.08 72.14 668.1 72.5533 667.326 73.38C666.553 74.2067 666.166 75.3733 666.166 76.88V81H664.626ZM678.728 81V70.66H680.268V72.4C681.134 71.0933 682.248 70.44 683.608 70.44C685.154 70.44 686.261 71.1267 686.928 72.5C687.821 71.1267 689.034 70.44 690.568 70.44C691.754 70.44 692.688 70.8133 693.368 71.56C694.061 72.3067 694.408 73.32 694.408 74.6V81H692.868V74.96C692.868 73.96 692.628 73.1933 692.148 72.66C691.681 72.1133 691.028 71.84 690.188 71.84C689.374 71.84 688.694 72.1267 688.148 72.7C687.601 73.2733 687.328 74.0533 687.328 75.04V81H685.808V74.92C685.808 73.96 685.568 73.2067 685.088 72.66C684.621 72.1133 683.974 71.84 683.148 71.84C682.321 71.84 681.634 72.1467 681.088 72.76C680.541 73.3733 680.268 74.1533 680.268 75.1V81H678.728ZM706.331 79.66C705.291 80.7133 704.005 81.24 702.471 81.24C700.938 81.24 699.658 80.72 698.631 79.68C697.618 78.6267 697.111 77.36 697.111 75.88V75.84C697.111 74.36 697.625 73.0933 698.651 72.04C699.691 70.9733 700.978 70.44 702.511 70.44C704.045 70.44 705.325 70.9667 706.351 72.02C707.378 73.06 707.891 74.32 707.891 75.8V75.84C707.891 77.32 707.371 78.5933 706.331 79.66ZM702.511 79.86C703.618 79.86 704.525 79.4733 705.231 78.7C705.951 77.9267 706.311 76.9867 706.311 75.88V75.84C706.311 74.72 705.938 73.7667 705.191 72.98C704.458 72.1933 703.551 71.8 702.471 71.8C701.378 71.8 700.471 72.1933 699.751 72.98C699.045 73.7533 698.691 74.6933 698.691 75.8V75.84C698.691 76.96 699.058 77.9133 699.791 78.7C700.525 79.4733 701.431 79.86 702.511 79.86ZM710.821 81V66.4H712.361V81H710.821ZM716.855 76.46C716.962 77.5133 717.355 78.3533 718.035 78.98C718.728 79.5933 719.548 79.9 720.495 79.9C721.735 79.9 722.822 79.4133 723.755 78.44L724.715 79.3C723.555 80.5933 722.135 81.24 720.455 81.24C719.002 81.24 717.775 80.74 716.775 79.74C715.788 78.7267 715.295 77.4267 715.295 75.84C715.295 74.3333 715.768 73.06 716.715 72.02C717.662 70.9667 718.842 70.44 720.255 70.44C721.735 70.44 722.908 70.96 723.775 72C724.642 73.04 725.075 74.3467 725.075 75.92C725.075 76.12 725.068 76.3 725.055 76.46H716.855ZM716.855 75.22H723.515C723.422 74.22 723.088 73.3933 722.515 72.74C721.955 72.0733 721.188 71.74 720.215 71.74C719.335 71.74 718.582 72.0667 717.955 72.72C717.328 73.3733 716.962 74.2067 716.855 75.22ZM731.191 81.2C730.444 81.2 729.684 81.0667 728.911 80.8C728.151 80.52 727.484 80.1467 726.911 79.68L727.691 78.58C728.864 79.46 730.057 79.9 731.271 79.9C731.897 79.9 732.411 79.7533 732.811 79.46C733.211 79.1533 733.411 78.7533 733.411 78.26V78.22C733.411 77.7533 733.191 77.3933 732.751 77.14C732.324 76.8867 731.684 76.64 730.831 76.4C730.311 76.2533 729.897 76.12 729.591 76C729.284 75.88 728.937 75.7133 728.551 75.5C728.164 75.2733 727.877 74.9933 727.691 74.66C727.504 74.3267 727.411 73.9333 727.411 73.48V73.44C727.411 72.56 727.737 71.8467 728.391 71.3C729.057 70.7533 729.904 70.48 730.931 70.48C732.264 70.48 733.504 70.86 734.651 71.62L733.951 72.78C732.924 72.1133 731.904 71.78 730.891 71.78C730.291 71.78 729.804 71.92 729.431 72.2C729.071 72.48 728.891 72.84 728.891 73.28V73.32C728.891 73.5067 728.944 73.68 729.051 73.84C729.157 74 729.277 74.1333 729.411 74.24C729.544 74.3467 729.751 74.46 730.031 74.58C730.324 74.7 730.557 74.7867 730.731 74.84C730.904 74.8933 731.177 74.98 731.551 75.1C731.937 75.22 732.257 75.3267 732.511 75.42C732.777 75.5133 733.071 75.6467 733.391 75.82C733.724 75.98 733.984 76.16 734.171 76.36C734.371 76.5467 734.537 76.7867 734.671 77.08C734.804 77.3733 734.871 77.7 734.871 78.06V78.1C734.871 79.06 734.524 79.82 733.831 80.38C733.137 80.9267 732.257 81.2 731.191 81.2ZM740.996 81.18C740.103 81.18 739.39 80.9467 738.856 80.48C738.336 80 738.076 79.26 738.076 78.26V72.02H736.636V70.66H738.076V67.54H739.616V70.66H742.896V72.02H739.616V78.06C739.616 79.2067 740.196 79.78 741.356 79.78C741.863 79.78 742.363 79.66 742.856 79.42V80.74C742.296 81.0333 741.676 81.18 740.996 81.18ZM745.662 68.4V66.7H747.422V68.4H745.662ZM745.762 81V70.66H747.302V81H745.762ZM751.796 76.46C751.903 77.5133 752.296 78.3533 752.976 78.98C753.67 79.5933 754.49 79.9 755.436 79.9C756.676 79.9 757.763 79.4133 758.696 78.44L759.656 79.3C758.496 80.5933 757.076 81.24 755.396 81.24C753.943 81.24 752.716 80.74 751.716 79.74C750.73 78.7267 750.236 77.4267 750.236 75.84C750.236 74.3333 750.71 73.06 751.656 72.02C752.603 70.9667 753.783 70.44 755.196 70.44C756.676 70.44 757.85 70.96 758.716 72C759.583 73.04 760.016 74.3467 760.016 75.92C760.016 76.12 760.01 76.3 759.996 76.46H751.796ZM751.796 75.22H758.456C758.363 74.22 758.03 73.3933 757.456 72.74C756.896 72.0733 756.13 71.74 755.156 71.74C754.276 71.74 753.523 72.0667 752.896 72.72C752.27 73.3733 751.903 74.2067 751.796 75.22ZM772.508 81.22C771.282 81.22 770.315 80.8467 769.608 80.1C768.902 79.34 768.548 78.3333 768.548 77.08V70.66H770.088V76.7C770.088 77.6733 770.335 78.44 770.828 79C771.335 79.5467 772.042 79.82 772.948 79.82C773.842 79.82 774.582 79.52 775.168 78.92C775.755 78.32 776.048 77.54 776.048 76.58V70.66H777.568V81H776.048V79.2C775.208 80.5467 774.028 81.22 772.508 81.22ZM781.173 81V66.4H782.713V81H781.173ZM789.746 81.18C788.853 81.18 788.14 80.9467 787.606 80.48C787.086 80 786.826 79.26 786.826 78.26V72.02H785.386V70.66H786.826V67.54H788.366V70.66H791.646V72.02H788.366V78.06C788.366 79.2067 788.946 79.78 790.106 79.78C790.613 79.78 791.113 79.66 791.606 79.42V80.74C791.046 81.0333 790.426 81.18 789.746 81.18ZM794.372 81V70.66H795.912V73.36C796.312 72.4667 796.879 71.7533 797.612 71.22C798.346 70.6867 799.186 70.44 800.132 70.48V72.14H800.012C798.826 72.14 797.846 72.5533 797.072 73.38C796.299 74.2067 795.912 75.3733 795.912 76.88V81H794.372ZM802.518 68.4V66.7H804.278V68.4H802.518ZM802.618 81V70.66H804.158V81H802.618ZM812.392 81.24C810.898 81.24 809.638 80.7133 808.612 79.66C807.598 78.6067 807.092 77.3467 807.092 75.88V75.84C807.092 74.36 807.598 73.0933 808.612 72.04C809.638 70.9733 810.898 70.44 812.392 70.44C813.992 70.44 815.372 71.0533 816.532 72.28L815.512 73.36C814.525 72.32 813.478 71.8 812.372 71.8C811.332 71.8 810.452 72.1867 809.732 72.96C809.025 73.7333 808.672 74.68 808.672 75.8V75.84C808.672 76.96 809.032 77.9133 809.752 78.7C810.485 79.4733 811.392 79.86 812.472 79.86C813.618 79.86 814.672 79.3467 815.632 78.32L816.612 79.24C815.412 80.5733 814.005 81.24 812.392 81.24ZM819.198 68.4V66.7H820.958V68.4H819.198ZM819.298 81V70.66H820.838V81H819.298ZM825.331 76.46C825.438 77.5133 825.831 78.3533 826.511 78.98C827.205 79.5933 828.025 79.9 828.971 79.9C830.211 79.9 831.298 79.4133 832.231 78.44L833.191 79.3C832.031 80.5933 830.611 81.24 828.931 81.24C827.478 81.24 826.251 80.74 825.251 79.74C824.265 78.7267 823.771 77.4267 823.771 75.84C823.771 74.3333 824.245 73.06 825.191 72.02C826.138 70.9667 827.318 70.44 828.731 70.44C830.211 70.44 831.385 70.96 832.251 72C833.118 73.04 833.551 74.3467 833.551 75.92C833.551 76.12 833.545 76.3 833.531 76.46H825.331ZM825.331 75.22H831.991C831.898 74.22 831.565 73.3933 830.991 72.74C830.431 72.0733 829.665 71.74 828.691 71.74C827.811 71.74 827.058 72.0667 826.431 72.72C825.805 73.3733 825.438 74.2067 825.331 75.22ZM839.667 81.2C838.921 81.2 838.161 81.0667 837.387 80.8C836.627 80.52 835.961 80.1467 835.387 79.68L836.167 78.58C837.341 79.46 838.534 79.9 839.747 79.9C840.374 79.9 840.887 79.7533 841.287 79.46C841.687 79.1533 841.887 78.7533 841.887 78.26V78.22C841.887 77.7533 841.667 77.3933 841.227 77.14C840.801 76.8867 840.161 76.64 839.307 76.4C838.787 76.2533 838.374 76.12 838.067 76C837.761 75.88 837.414 75.7133 837.027 75.5C836.641 75.2733 836.354 74.9933 836.167 74.66C835.981 74.3267 835.887 73.9333 835.887 73.48V73.44C835.887 72.56 836.214 71.8467 836.867 71.3C837.534 70.7533 838.381 70.48 839.407 70.48C840.741 70.48 841.981 70.86 843.127 71.62L842.427 72.78C841.401 72.1133 840.381 71.78 839.367 71.78C838.767 71.78 838.281 71.92 837.907 72.2C837.547 72.48 837.367 72.84 837.367 73.28V73.32C837.367 73.5067 837.421 73.68 837.527 73.84C837.634 74 837.754 74.1333 837.887 74.24C838.021 74.3467 838.227 74.46 838.507 74.58C838.801 74.7 839.034 74.7867 839.207 74.84C839.381 74.8933 839.654 74.98 840.027 75.1C840.414 75.22 840.734 75.3267 840.987 75.42C841.254 75.5133 841.547 75.6467 841.867 75.82C842.201 75.98 842.461 76.16 842.647 76.36C842.847 76.5467 843.014 76.7867 843.147 77.08C843.281 77.3733 843.347 77.7 843.347 78.06V78.1C843.347 79.06 843.001 79.82 842.307 80.38C841.614 80.9267 840.734 81.2 839.667 81.2ZM846.028 81V78.9H847.868V81H846.028ZM857.367 81V67H862.607C864.193 67 865.46 67.4 866.407 68.2C867.367 68.9867 867.847 70.0667 867.847 71.44V71.48C867.847 72.9333 867.32 74.06 866.267 74.86C865.227 75.66 863.92 76.06 862.347 76.06H858.947V81H857.367ZM858.947 74.62H862.407C863.567 74.62 864.493 74.34 865.187 73.78C865.893 73.2067 866.247 72.46 866.247 71.54V71.5C866.247 70.5267 865.907 69.78 865.227 69.26C864.56 68.7267 863.647 68.46 862.487 68.46H858.947V74.62ZM870.466 81V66.4H872.006V72.46C872.819 71.1133 873.999 70.44 875.546 70.44C876.773 70.44 877.739 70.82 878.446 71.58C879.153 72.3267 879.506 73.3267 879.506 74.58V81H877.966V74.96C877.966 73.9867 877.713 73.2267 877.206 72.68C876.713 72.12 876.013 71.84 875.106 71.84C874.213 71.84 873.473 72.14 872.886 72.74C872.299 73.34 872.006 74.12 872.006 75.08V81H870.466ZM885.87 81.22C884.83 81.22 883.924 80.9333 883.15 80.36C882.39 79.7867 882.01 79 882.01 78V77.96C882.01 76.88 882.41 76.0467 883.21 75.46C884.01 74.8733 885.084 74.58 886.43 74.58C887.497 74.58 888.55 74.7267 889.59 75.02V74.7C889.59 73.7933 889.324 73.1 888.79 72.62C888.257 72.14 887.504 71.9 886.53 71.9C885.517 71.9 884.47 72.1467 883.39 72.64L882.93 71.38C884.21 70.7933 885.464 70.5 886.69 70.5C888.157 70.5 889.27 70.88 890.03 71.64C890.75 72.36 891.11 73.3733 891.11 74.68V81H889.59V79.46C888.67 80.6333 887.43 81.22 885.87 81.22ZM886.17 79.98C887.13 79.98 887.944 79.72 888.61 79.2C889.277 78.68 889.61 78.0133 889.61 77.2V76.24C888.597 75.9467 887.59 75.8 886.59 75.8C885.644 75.8 884.904 75.9933 884.37 76.38C883.837 76.7533 883.57 77.2533 883.57 77.88V77.92C883.57 78.5467 883.817 79.0467 884.31 79.42C884.817 79.7933 885.437 79.98 886.17 79.98ZM897.792 81.2C897.046 81.2 896.286 81.0667 895.512 80.8C894.752 80.52 894.086 80.1467 893.512 79.68L894.292 78.58C895.466 79.46 896.659 79.9 897.872 79.9C898.499 79.9 899.012 79.7533 899.412 79.46C899.812 79.1533 900.012 78.7533 900.012 78.26V78.22C900.012 77.7533 899.792 77.3933 899.352 77.14C898.926 76.8867 898.286 76.64 897.432 76.4C896.912 76.2533 896.499 76.12 896.192 76C895.886 75.88 895.539 75.7133 895.152 75.5C894.766 75.2733 894.479 74.9933 894.292 74.66C894.106 74.3267 894.012 73.9333 894.012 73.48V73.44C894.012 72.56 894.339 71.8467 894.992 71.3C895.659 70.7533 896.506 70.48 897.532 70.48C898.866 70.48 900.106 70.86 901.252 71.62L900.552 72.78C899.526 72.1133 898.506 71.78 897.492 71.78C896.892 71.78 896.406 71.92 896.032 72.2C895.672 72.48 895.492 72.84 895.492 73.28V73.32C895.492 73.5067 895.546 73.68 895.652 73.84C895.759 74 895.879 74.1333 896.012 74.24C896.146 74.3467 896.352 74.46 896.632 74.58C896.926 74.7 897.159 74.7867 897.332 74.84C897.506 74.8933 897.779 74.98 898.152 75.1C898.539 75.22 898.859 75.3267 899.112 75.42C899.379 75.5133 899.672 75.6467 899.992 75.82C900.326 75.98 900.586 76.16 900.772 76.36C900.972 76.5467 901.139 76.7867 901.272 77.08C901.406 77.3733 901.472 77.7 901.472 78.06V78.1C901.472 79.06 901.126 79.82 900.432 80.38C899.739 80.9267 898.859 81.2 897.792 81.2ZM905.253 76.46C905.36 77.5133 905.753 78.3533 906.433 78.98C907.127 79.5933 907.947 79.9 908.893 79.9C910.133 79.9 911.22 79.4133 912.153 78.44L913.113 79.3C911.953 80.5933 910.533 81.24 908.853 81.24C907.4 81.24 906.173 80.74 905.173 79.74C904.187 78.7267 903.693 77.4267 903.693 75.84C903.693 74.3333 904.167 73.06 905.113 72.02C906.06 70.9667 907.24 70.44 908.653 70.44C910.133 70.44 911.307 70.96 912.173 72C913.04 73.04 913.473 74.3467 913.473 75.92C913.473 76.12 913.467 76.3 913.453 76.46H905.253ZM905.253 75.22H911.913C911.82 74.22 911.487 73.3933 910.913 72.74C910.353 72.0733 909.587 71.74 908.613 71.74C907.733 71.74 906.98 72.0667 906.353 72.72C905.727 73.3733 905.36 74.2067 905.253 75.22ZM916.309 81V66.4H917.849V81H916.309ZM921.563 81V66.4H923.103V81H921.563ZM930.477 81.22C929.25 81.22 928.284 80.8467 927.577 80.1C926.87 79.34 926.517 78.3333 926.517 77.08V70.66H928.057V76.7C928.057 77.6733 928.304 78.44 928.797 79C929.304 79.5467 930.01 79.82 930.917 79.82C931.81 79.82 932.55 79.52 933.137 78.92C933.724 78.32 934.017 77.54 934.017 76.58V70.66H935.537V81H934.017V79.2C933.177 80.5467 931.997 81.22 930.477 81.22ZM942.421 81.2C941.675 81.2 940.915 81.0667 940.141 80.8C939.381 80.52 938.715 80.1467 938.141 79.68L938.921 78.58C940.095 79.46 941.288 79.9 942.501 79.9C943.128 79.9 943.641 79.7533 944.041 79.46C944.441 79.1533 944.641 78.7533 944.641 78.26V78.22C944.641 77.7533 944.421 77.3933 943.981 77.14C943.555 76.8867 942.915 76.64 942.061 76.4C941.541 76.2533 941.128 76.12 940.821 76C940.515 75.88 940.168 75.7133 939.781 75.5C939.395 75.2733 939.108 74.9933 938.921 74.66C938.735 74.3267 938.641 73.9333 938.641 73.48V73.44C938.641 72.56 938.968 71.8467 939.621 71.3C940.288 70.7533 941.135 70.48 942.161 70.48C943.495 70.48 944.735 70.86 945.881 71.62L945.181 72.78C944.155 72.1133 943.135 71.78 942.121 71.78C941.521 71.78 941.035 71.92 940.661 72.2C940.301 72.48 940.121 72.84 940.121 73.28V73.32C940.121 73.5067 940.175 73.68 940.281 73.84C940.388 74 940.508 74.1333 940.641 74.24C940.775 74.3467 940.981 74.46 941.261 74.58C941.555 74.7 941.788 74.7867 941.961 74.84C942.135 74.8933 942.408 74.98 942.781 75.1C943.168 75.22 943.488 75.3267 943.741 75.42C944.008 75.5133 944.301 75.6467 944.621 75.82C944.955 75.98 945.215 76.16 945.401 76.36C945.601 76.5467 945.768 76.7867 945.901 77.08C946.035 77.3733 946.101 77.7 946.101 78.06V78.1C946.101 79.06 945.755 79.82 945.061 80.38C944.368 80.9267 943.488 81.2 942.421 81.2Z" fill="#4E4E4E"/>
<path d="M78.8 111V102.02H77.38V100.68H78.8V99.78C78.8 98.6067 79.1 97.72 79.7 97.12C80.2333 96.5867 80.9733 96.32 81.92 96.32C82.5733 96.32 83.14 96.4067 83.62 96.58V97.92C83.0067 97.7467 82.5067 97.66 82.12 97.66C80.92 97.66 80.32 98.3933 80.32 99.86V100.7H83.6V102.02H80.34V111H78.8ZM88.3508 111.22C87.3108 111.22 86.4041 110.933 85.6308 110.36C84.8708 109.787 84.4908 109 84.4908 108V107.96C84.4908 106.88 84.8908 106.047 85.6908 105.46C86.4908 104.873 87.5641 104.58 88.9108 104.58C89.9774 104.58 91.0308 104.727 92.0708 105.02V104.7C92.0708 103.793 91.8041 103.1 91.2708 102.62C90.7374 102.14 89.9841 101.9 89.0108 101.9C87.9974 101.9 86.9508 102.147 85.8708 102.64L85.4108 101.38C86.6908 100.793 87.9441 100.5 89.1708 100.5C90.6374 100.5 91.7508 100.88 92.5108 101.64C93.2308 102.36 93.5908 103.373 93.5908 104.68V111H92.0708V109.46C91.1508 110.633 89.9108 111.22 88.3508 111.22ZM88.6508 109.98C89.6108 109.98 90.4241 109.72 91.0908 109.2C91.7574 108.68 92.0908 108.013 92.0908 107.2V106.24C91.0774 105.947 90.0708 105.8 89.0708 105.8C88.1241 105.8 87.3841 105.993 86.8508 106.38C86.3174 106.753 86.0508 107.253 86.0508 107.88V107.92C86.0508 108.547 86.2974 109.047 86.7908 109.42C87.2974 109.793 87.9174 109.98 88.6508 109.98ZM100.653 111.22C99.4261 111.22 98.4595 110.847 97.7528 110.1C97.0461 109.34 96.6928 108.333 96.6928 107.08V100.66H98.2328V106.7C98.2328 107.673 98.4795 108.44 98.9728 109C99.4795 109.547 100.186 109.82 101.093 109.82C101.986 109.82 102.726 109.52 103.313 108.92C103.899 108.32 104.193 107.54 104.193 106.58V100.66H105.713V111H104.193V109.2C103.353 110.547 102.173 111.22 100.653 111.22ZM113.837 111.24C112.344 111.24 111.084 110.713 110.057 109.66C109.044 108.607 108.537 107.347 108.537 105.88V105.84C108.537 104.36 109.044 103.093 110.057 102.04C111.084 100.973 112.344 100.44 113.837 100.44C115.437 100.44 116.817 101.053 117.977 102.28L116.957 103.36C115.97 102.32 114.924 101.8 113.817 101.8C112.777 101.8 111.897 102.187 111.177 102.96C110.47 103.733 110.117 104.68 110.117 105.8V105.84C110.117 106.96 110.477 107.913 111.197 108.7C111.93 109.473 112.837 109.86 113.917 109.86C115.064 109.86 116.117 109.347 117.077 108.32L118.057 109.24C116.857 110.573 115.45 111.24 113.837 111.24ZM120.643 98.4V96.7H122.403V98.4H120.643ZM120.743 111V100.66H122.283V111H120.743ZM131.357 111.22C129.73 111.22 128.41 110.487 127.397 109.02V111H125.857V96.4H127.397V102.74C128.437 101.207 129.757 100.44 131.357 100.44C132.677 100.44 133.83 100.927 134.817 101.9C135.803 102.873 136.297 104.173 136.297 105.8V105.84C136.297 107.453 135.803 108.753 134.817 109.74C133.83 110.727 132.677 111.22 131.357 111.22ZM131.077 109.84C132.117 109.84 132.983 109.48 133.677 108.76C134.37 108.04 134.717 107.073 134.717 105.86V105.82C134.717 104.633 134.363 103.673 133.657 102.94C132.95 102.193 132.09 101.82 131.077 101.82C130.077 101.82 129.203 102.2 128.457 102.96C127.71 103.707 127.337 104.653 127.337 105.8V105.84C127.337 107 127.71 107.96 128.457 108.72C129.203 109.467 130.077 109.84 131.077 109.84ZM142.938 111.22C141.711 111.22 140.745 110.847 140.038 110.1C139.331 109.34 138.978 108.333 138.978 107.08V100.66H140.518V106.7C140.518 107.673 140.765 108.44 141.258 109C141.765 109.547 142.471 109.82 143.378 109.82C144.271 109.82 145.011 109.52 145.598 108.92C146.185 108.32 146.478 107.54 146.478 106.58V100.66H147.998V111H146.478V109.2C145.638 110.547 144.458 111.22 142.938 111.22ZM154.882 111.2C154.136 111.2 153.376 111.067 152.602 110.8C151.842 110.52 151.176 110.147 150.602 109.68L151.382 108.58C152.556 109.46 153.749 109.9 154.962 109.9C155.589 109.9 156.102 109.753 156.502 109.46C156.902 109.153 157.102 108.753 157.102 108.26V108.22C157.102 107.753 156.882 107.393 156.442 107.14C156.016 106.887 155.376 106.64 154.522 106.4C154.002 106.253 153.589 106.12 153.282 106C152.976 105.88 152.629 105.713 152.242 105.5C151.856 105.273 151.569 104.993 151.382 104.66C151.196 104.327 151.102 103.933 151.102 103.48V103.44C151.102 102.56 151.429 101.847 152.082 101.3C152.749 100.753 153.596 100.48 154.622 100.48C155.956 100.48 157.196 100.86 158.342 101.62L157.642 102.78C156.616 102.113 155.596 101.78 154.582 101.78C153.982 101.78 153.496 101.92 153.122 102.2C152.762 102.48 152.582 102.84 152.582 103.28V103.32C152.582 103.507 152.636 103.68 152.742 103.84C152.849 104 152.969 104.133 153.102 104.24C153.236 104.347 153.442 104.46 153.722 104.58C154.016 104.7 154.249 104.787 154.422 104.84C154.596 104.893 154.869 104.98 155.242 105.1C155.629 105.22 155.949 105.327 156.202 105.42C156.469 105.513 156.762 105.647 157.082 105.82C157.416 105.98 157.676 106.16 157.862 106.36C158.062 106.547 158.229 106.787 158.362 107.08C158.496 107.373 158.562 107.7 158.562 108.06V108.1C158.562 109.06 158.216 109.82 157.522 110.38C156.829 110.927 155.949 111.2 154.882 111.2ZM167.459 98.4V96.7H169.219V98.4H167.459ZM167.559 111V100.66H169.099V111H167.559ZM177.013 111.22C175.693 111.22 174.54 110.733 173.553 109.76C172.566 108.787 172.073 107.487 172.073 105.86V105.82C172.073 104.207 172.566 102.907 173.553 101.92C174.54 100.933 175.693 100.44 177.013 100.44C178.64 100.44 179.96 101.173 180.973 102.64V96.4H182.513V111H180.973V108.92C179.933 110.453 178.613 111.22 177.013 111.22ZM177.293 109.84C178.293 109.84 179.166 109.467 179.913 108.72C180.66 107.96 181.033 107 181.033 105.84V105.8C181.033 104.653 180.66 103.707 179.913 102.96C179.166 102.2 178.293 101.82 177.293 101.82C176.253 101.82 175.386 102.18 174.693 102.9C174 103.62 173.653 104.587 173.653 105.8V105.84C173.653 107.027 174.006 107.993 174.713 108.74C175.42 109.473 176.28 109.84 177.293 109.84ZM192.87 106.46C192.977 107.513 193.37 108.353 194.05 108.98C194.744 109.593 195.564 109.9 196.51 109.9C197.75 109.9 198.837 109.413 199.77 108.44L200.73 109.3C199.57 110.593 198.15 111.24 196.47 111.24C195.017 111.24 193.79 110.74 192.79 109.74C191.804 108.727 191.31 107.427 191.31 105.84C191.31 104.333 191.784 103.06 192.73 102.02C193.677 100.967 194.857 100.44 196.27 100.44C197.75 100.44 198.924 100.96 199.79 102C200.657 103.04 201.09 104.347 201.09 105.92C201.09 106.12 201.084 106.3 201.07 106.46H192.87ZM192.87 105.22H199.53C199.437 104.22 199.104 103.393 198.53 102.74C197.97 102.073 197.204 101.74 196.23 101.74C195.35 101.74 194.597 102.067 193.97 102.72C193.344 103.373 192.977 104.207 192.87 105.22ZM207.206 111.2C206.46 111.2 205.7 111.067 204.926 110.8C204.166 110.52 203.5 110.147 202.926 109.68L203.706 108.58C204.88 109.46 206.073 109.9 207.286 109.9C207.913 109.9 208.426 109.753 208.826 109.46C209.226 109.153 209.426 108.753 209.426 108.26V108.22C209.426 107.753 209.206 107.393 208.766 107.14C208.34 106.887 207.7 106.64 206.846 106.4C206.326 106.253 205.913 106.12 205.606 106C205.3 105.88 204.953 105.713 204.566 105.5C204.18 105.273 203.893 104.993 203.706 104.66C203.52 104.327 203.426 103.933 203.426 103.48V103.44C203.426 102.56 203.753 101.847 204.406 101.3C205.073 100.753 205.92 100.48 206.946 100.48C208.28 100.48 209.52 100.86 210.666 101.62L209.966 102.78C208.94 102.113 207.92 101.78 206.906 101.78C206.306 101.78 205.82 101.92 205.446 102.2C205.086 102.48 204.906 102.84 204.906 103.28V103.32C204.906 103.507 204.96 103.68 205.066 103.84C205.173 104 205.293 104.133 205.426 104.24C205.56 104.347 205.766 104.46 206.046 104.58C206.34 104.7 206.573 104.787 206.746 104.84C206.92 104.893 207.193 104.98 207.566 105.1C207.953 105.22 208.273 105.327 208.526 105.42C208.793 105.513 209.086 105.647 209.406 105.82C209.74 105.98 210 106.16 210.186 106.36C210.386 106.547 210.553 106.787 210.686 107.08C210.82 107.373 210.886 107.7 210.886 108.06V108.1C210.886 109.06 210.54 109.82 209.846 110.38C209.153 110.927 208.273 111.2 207.206 111.2ZM217.012 111.18C216.119 111.18 215.405 110.947 214.872 110.48C214.352 110 214.092 109.26 214.092 108.26V102.02H212.652V100.66H214.092V97.54H215.632V100.66H218.912V102.02H215.632V108.06C215.632 109.207 216.212 109.78 217.372 109.78C217.879 109.78 218.379 109.66 218.872 109.42V110.74C218.312 111.033 217.692 111.18 217.012 111.18ZM228.554 106.46C228.661 107.513 229.054 108.353 229.734 108.98C230.427 109.593 231.247 109.9 232.194 109.9C233.434 109.9 234.521 109.413 235.454 108.44L236.414 109.3C235.254 110.593 233.834 111.24 232.154 111.24C230.701 111.24 229.474 110.74 228.474 109.74C227.487 108.727 226.994 107.427 226.994 105.84C226.994 104.333 227.467 103.06 228.414 102.02C229.361 100.967 230.541 100.44 231.954 100.44C233.434 100.44 234.607 100.96 235.474 102C236.341 103.04 236.774 104.347 236.774 105.92C236.774 106.12 236.767 106.3 236.754 106.46H228.554ZM228.554 105.22H235.214C235.121 104.22 234.787 103.393 234.214 102.74C233.654 102.073 232.887 101.74 231.914 101.74C231.034 101.74 230.281 102.067 229.654 102.72C229.027 103.373 228.661 104.207 228.554 105.22ZM243.27 111.22C242.043 111.22 241.077 110.847 240.37 110.1C239.663 109.34 239.31 108.333 239.31 107.08V100.66H240.85V106.7C240.85 107.673 241.097 108.44 241.59 109C242.097 109.547 242.803 109.82 243.71 109.82C244.603 109.82 245.343 109.52 245.93 108.92C246.517 108.32 246.81 107.54 246.81 106.58V100.66H248.33V111H246.81V109.2C245.97 110.547 244.79 111.22 243.27 111.22ZM262.45 111.24C260.957 111.24 259.697 110.713 258.67 109.66C257.657 108.607 257.15 107.347 257.15 105.88V105.84C257.15 104.36 257.657 103.093 258.67 102.04C259.697 100.973 260.957 100.44 262.45 100.44C264.05 100.44 265.43 101.053 266.59 102.28L265.57 103.36C264.584 102.32 263.537 101.8 262.43 101.8C261.39 101.8 260.51 102.187 259.79 102.96C259.084 103.733 258.73 104.68 258.73 105.8V105.84C258.73 106.96 259.09 107.913 259.81 108.7C260.544 109.473 261.45 109.86 262.53 109.86C263.677 109.86 264.73 109.347 265.69 108.32L266.67 109.24C265.47 110.573 264.064 111.24 262.45 111.24ZM277.503 109.66C276.463 110.713 275.176 111.24 273.643 111.24C272.11 111.24 270.83 110.72 269.803 109.68C268.79 108.627 268.283 107.36 268.283 105.88V105.84C268.283 104.36 268.796 103.093 269.823 102.04C270.863 100.973 272.15 100.44 273.683 100.44C275.216 100.44 276.496 100.967 277.523 102.02C278.55 103.06 279.063 104.32 279.063 105.8V105.84C279.063 107.32 278.543 108.593 277.503 109.66ZM273.683 109.86C274.79 109.86 275.696 109.473 276.403 108.7C277.123 107.927 277.483 106.987 277.483 105.88V105.84C277.483 104.72 277.11 103.767 276.363 102.98C275.63 102.193 274.723 101.8 273.643 101.8C272.55 101.8 271.643 102.193 270.923 102.98C270.216 103.753 269.863 104.693 269.863 105.8V105.84C269.863 106.96 270.23 107.913 270.963 108.7C271.696 109.473 272.603 109.86 273.683 109.86ZM281.853 111V100.66H283.393V102.4C284.259 101.093 285.373 100.44 286.733 100.44C288.279 100.44 289.386 101.127 290.053 102.5C290.946 101.127 292.159 100.44 293.693 100.44C294.879 100.44 295.813 100.813 296.493 101.56C297.186 102.307 297.533 103.32 297.533 104.6V111H295.993V104.96C295.993 103.96 295.753 103.193 295.273 102.66C294.806 102.113 294.153 101.84 293.313 101.84C292.499 101.84 291.819 102.127 291.273 102.7C290.726 103.273 290.453 104.053 290.453 105.04V111H288.933V104.92C288.933 103.96 288.693 103.207 288.213 102.66C287.746 102.113 287.099 101.84 286.273 101.84C285.446 101.84 284.759 102.147 284.213 102.76C283.666 103.373 283.393 104.153 283.393 105.1V111H281.853ZM300.876 111V100.66H302.416V102.4C303.283 101.093 304.396 100.44 305.756 100.44C307.303 100.44 308.41 101.127 309.076 102.5C309.97 101.127 311.183 100.44 312.716 100.44C313.903 100.44 314.836 100.813 315.516 101.56C316.21 102.307 316.556 103.32 316.556 104.6V111H315.016V104.96C315.016 103.96 314.776 103.193 314.296 102.66C313.83 102.113 313.176 101.84 312.336 101.84C311.523 101.84 310.843 102.127 310.296 102.7C309.75 103.273 309.476 104.053 309.476 105.04V111H307.956V104.92C307.956 103.96 307.716 103.207 307.236 102.66C306.77 102.113 306.123 101.84 305.296 101.84C304.47 101.84 303.783 102.147 303.236 102.76C302.69 103.373 302.416 104.153 302.416 105.1V111H300.876ZM328.48 109.66C327.44 110.713 326.153 111.24 324.62 111.24C323.086 111.24 321.806 110.72 320.78 109.68C319.766 108.627 319.26 107.36 319.26 105.88V105.84C319.26 104.36 319.773 103.093 320.8 102.04C321.84 100.973 323.126 100.44 324.66 100.44C326.193 100.44 327.473 100.967 328.5 102.02C329.526 103.06 330.04 104.32 330.04 105.8V105.84C330.04 107.32 329.52 108.593 328.48 109.66ZM324.66 109.86C325.766 109.86 326.673 109.473 327.38 108.7C328.1 107.927 328.46 106.987 328.46 105.88V105.84C328.46 104.72 328.086 103.767 327.34 102.98C326.606 102.193 325.7 101.8 324.62 101.8C323.526 101.8 322.62 102.193 321.9 102.98C321.193 103.753 320.84 104.693 320.84 105.8V105.84C320.84 106.96 321.206 107.913 321.94 108.7C322.673 109.473 323.58 109.86 324.66 109.86ZM337.169 111.22C335.849 111.22 334.696 110.733 333.709 109.76C332.723 108.787 332.229 107.487 332.229 105.86V105.82C332.229 104.207 332.723 102.907 333.709 101.92C334.696 100.933 335.849 100.44 337.169 100.44C338.796 100.44 340.116 101.173 341.129 102.64V96.4H342.669V111H341.129V108.92C340.089 110.453 338.769 111.22 337.169 111.22ZM337.449 109.84C338.449 109.84 339.323 109.467 340.069 108.72C340.816 107.96 341.189 107 341.189 105.84V105.8C341.189 104.653 340.816 103.707 340.069 102.96C339.323 102.2 338.449 101.82 337.449 101.82C336.409 101.82 335.543 102.18 334.849 102.9C334.156 103.62 333.809 104.587 333.809 105.8V105.84C333.809 107.027 334.163 107.993 334.869 108.74C335.576 109.473 336.436 109.84 337.449 109.84ZM354.691 109.66C353.651 110.713 352.364 111.24 350.831 111.24C349.297 111.24 348.017 110.72 346.991 109.68C345.977 108.627 345.471 107.36 345.471 105.88V105.84C345.471 104.36 345.984 103.093 347.011 102.04C348.051 100.973 349.337 100.44 350.871 100.44C352.404 100.44 353.684 100.967 354.711 102.02C355.737 103.06 356.251 104.32 356.251 105.8V105.84C356.251 107.32 355.731 108.593 354.691 109.66ZM350.871 109.86C351.977 109.86 352.884 109.473 353.591 108.7C354.311 107.927 354.671 106.987 354.671 105.88V105.84C354.671 104.72 354.297 103.767 353.551 102.98C352.817 102.193 351.911 101.8 350.831 101.8C349.737 101.8 348.831 102.193 348.111 102.98C347.404 103.753 347.051 104.693 347.051 105.8V105.84C347.051 106.96 347.417 107.913 348.151 108.7C348.884 109.473 349.791 109.86 350.871 109.86ZM358.47 111V108.9H360.31V111H358.47ZM369.808 111V97H379.928V98.44H371.388V103.22H379.028V104.66H371.388V109.56H380.028V111H369.808ZM386.407 111.18C385.513 111.18 384.8 110.947 384.267 110.48C383.747 110 383.487 109.26 383.487 108.26V102.02H382.047V100.66H383.487V97.54H385.027V100.66H388.307V102.02H385.027V108.06C385.027 109.207 385.607 109.78 386.767 109.78C387.273 109.78 387.773 109.66 388.267 109.42V110.74C387.707 111.033 387.087 111.18 386.407 111.18ZM391.073 98.4V96.7H392.833V98.4H391.073ZM391.173 111V100.66H392.713V111H391.173ZM399.366 111.22C398.326 111.22 397.42 110.933 396.646 110.36C395.886 109.787 395.506 109 395.506 108V107.96C395.506 106.88 395.906 106.047 396.706 105.46C397.506 104.873 398.58 104.58 399.926 104.58C400.993 104.58 402.046 104.727 403.086 105.02V104.7C403.086 103.793 402.82 103.1 402.286 102.62C401.753 102.14 401 101.9 400.026 101.9C399.013 101.9 397.966 102.147 396.886 102.64L396.426 101.38C397.706 100.793 398.96 100.5 400.186 100.5C401.653 100.5 402.766 100.88 403.526 101.64C404.246 102.36 404.606 103.373 404.606 104.68V111H403.086V109.46C402.166 110.633 400.926 111.22 399.366 111.22ZM399.666 109.98C400.626 109.98 401.44 109.72 402.106 109.2C402.773 108.68 403.106 108.013 403.106 107.2V106.24C402.093 105.947 401.086 105.8 400.086 105.8C399.14 105.8 398.4 105.993 397.866 106.38C397.333 106.753 397.066 107.253 397.066 107.88V107.92C397.066 108.547 397.313 109.047 397.806 109.42C398.313 109.793 398.933 109.98 399.666 109.98ZM407.868 111V100.66H409.408V102.4C410.275 101.093 411.388 100.44 412.748 100.44C414.295 100.44 415.402 101.127 416.068 102.5C416.962 101.127 418.175 100.44 419.708 100.44C420.895 100.44 421.828 100.813 422.508 101.56C423.202 102.307 423.548 103.32 423.548 104.6V111H422.008V104.96C422.008 103.96 421.768 103.193 421.288 102.66C420.822 102.113 420.168 101.84 419.328 101.84C418.515 101.84 417.835 102.127 417.288 102.7C416.742 103.273 416.468 104.053 416.468 105.04V111H414.948V104.92C414.948 103.96 414.708 103.207 414.228 102.66C413.762 102.113 413.115 101.84 412.288 101.84C411.462 101.84 410.775 102.147 410.228 102.76C409.682 103.373 409.408 104.153 409.408 105.1V111H407.868ZM432.888 114.2V100.66H434.428V102.74C435.468 101.207 436.788 100.44 438.388 100.44C439.708 100.44 440.861 100.927 441.848 101.9C442.835 102.873 443.328 104.173 443.328 105.8V105.84C443.328 107.453 442.835 108.753 441.848 109.74C440.861 110.727 439.708 111.22 438.388 111.22C436.761 111.22 435.441 110.487 434.428 109.02V114.2H432.888ZM438.108 109.84C439.148 109.84 440.015 109.48 440.708 108.76C441.401 108.04 441.748 107.073 441.748 105.86V105.82C441.748 104.633 441.395 103.673 440.688 102.94C439.981 102.193 439.121 101.82 438.108 101.82C437.108 101.82 436.235 102.2 435.488 102.96C434.741 103.707 434.368 104.653 434.368 105.8V105.84C434.368 107 434.741 107.96 435.488 108.72C436.235 109.467 437.108 109.84 438.108 109.84ZM446.169 111V96.4H447.709V102.46C448.523 101.113 449.703 100.44 451.249 100.44C452.476 100.44 453.443 100.82 454.149 101.58C454.856 102.327 455.209 103.327 455.209 104.58V111H453.669V104.96C453.669 103.987 453.416 103.227 452.909 102.68C452.416 102.12 451.716 101.84 450.809 101.84C449.916 101.84 449.176 102.14 448.589 102.74C448.003 103.34 447.709 104.12 447.709 105.08V111H446.169ZM461.573 111.22C460.533 111.22 459.627 110.933 458.853 110.36C458.093 109.787 457.713 109 457.713 108V107.96C457.713 106.88 458.113 106.047 458.913 105.46C459.713 104.873 460.787 104.58 462.133 104.58C463.2 104.58 464.253 104.727 465.293 105.02V104.7C465.293 103.793 465.027 103.1 464.493 102.62C463.96 102.14 463.207 101.9 462.233 101.9C461.22 101.9 460.173 102.147 459.093 102.64L458.633 101.38C459.913 100.793 461.167 100.5 462.393 100.5C463.86 100.5 464.973 100.88 465.733 101.64C466.453 102.36 466.813 103.373 466.813 104.68V111H465.293V109.46C464.373 110.633 463.133 111.22 461.573 111.22ZM461.873 109.98C462.833 109.98 463.647 109.72 464.313 109.2C464.98 108.68 465.313 108.013 465.313 107.2V106.24C464.3 105.947 463.293 105.8 462.293 105.8C461.347 105.8 460.607 105.993 460.073 106.38C459.54 106.753 459.273 107.253 459.273 107.88V107.92C459.273 108.547 459.52 109.047 460.013 109.42C460.52 109.793 461.14 109.98 461.873 109.98ZM470.075 111V100.66H471.615V103.36C472.015 102.467 472.582 101.753 473.315 101.22C474.049 100.687 474.889 100.44 475.835 100.48V102.14H475.715C474.529 102.14 473.549 102.553 472.775 103.38C472.002 104.207 471.615 105.373 471.615 106.88V111H470.075ZM478.652 106.46C478.758 107.513 479.152 108.353 479.832 108.98C480.525 109.593 481.345 109.9 482.292 109.9C483.532 109.9 484.618 109.413 485.552 108.44L486.512 109.3C485.352 110.593 483.932 111.24 482.252 111.24C480.798 111.24 479.572 110.74 478.572 109.74C477.585 108.727 477.092 107.427 477.092 105.84C477.092 104.333 477.565 103.06 478.512 102.02C479.458 100.967 480.638 100.44 482.052 100.44C483.532 100.44 484.705 100.96 485.572 102C486.438 103.04 486.872 104.347 486.872 105.92C486.872 106.12 486.865 106.3 486.852 106.46H478.652ZM478.652 105.22H485.312C485.218 104.22 484.885 103.393 484.312 102.74C483.752 102.073 482.985 101.74 482.012 101.74C481.132 101.74 480.378 102.067 479.752 102.72C479.125 103.373 478.758 104.207 478.652 105.22ZM493.028 111.18C492.134 111.18 491.421 110.947 490.888 110.48C490.368 110 490.108 109.26 490.108 108.26V102.02H488.668V100.66H490.108V97.54H491.648V100.66H494.928V102.02H491.648V108.06C491.648 109.207 492.228 109.78 493.388 109.78C493.894 109.78 494.394 109.66 494.888 109.42V110.74C494.328 111.033 493.708 111.18 493.028 111.18ZM497.654 111V100.66H499.194V103.36C499.594 102.467 500.16 101.753 500.894 101.22C501.627 100.687 502.467 100.44 503.414 100.48V102.14H503.294C502.107 102.14 501.127 102.553 500.354 103.38C499.58 104.207 499.194 105.373 499.194 106.88V111H497.654ZM508.331 111.22C507.291 111.22 506.385 110.933 505.611 110.36C504.851 109.787 504.471 109 504.471 108V107.96C504.471 106.88 504.871 106.047 505.671 105.46C506.471 104.873 507.545 104.58 508.891 104.58C509.958 104.58 511.011 104.727 512.051 105.02V104.7C512.051 103.793 511.785 103.1 511.251 102.62C510.718 102.14 509.965 101.9 508.991 101.9C507.978 101.9 506.931 102.147 505.851 102.64L505.391 101.38C506.671 100.793 507.925 100.5 509.151 100.5C510.618 100.5 511.731 100.88 512.491 101.64C513.211 102.36 513.571 103.373 513.571 104.68V111H512.051V109.46C511.131 110.633 509.891 111.22 508.331 111.22ZM508.631 109.98C509.591 109.98 510.405 109.72 511.071 109.2C511.738 108.68 512.071 108.013 512.071 107.2V106.24C511.058 105.947 510.051 105.8 509.051 105.8C508.105 105.8 507.365 105.993 506.831 106.38C506.298 106.753 506.031 107.253 506.031 107.88V107.92C506.031 108.547 506.278 109.047 506.771 109.42C507.278 109.793 507.898 109.98 508.631 109.98ZM522.969 111V96.4H524.509V111H522.969ZM528.123 98.4V96.7H529.883V98.4H528.123ZM528.223 111V100.66H529.763V111H528.223ZM537.917 114.24C536.171 114.24 534.604 113.76 533.217 112.8L533.917 111.6C535.131 112.48 536.457 112.92 537.897 112.92C539.057 112.92 539.971 112.6 540.637 111.96C541.317 111.333 541.657 110.427 541.657 109.24V108.02C540.564 109.473 539.211 110.2 537.597 110.2C536.291 110.2 535.151 109.753 534.177 108.86C533.217 107.953 532.737 106.787 532.737 105.36V105.32C532.737 103.867 533.224 102.693 534.197 101.8C535.171 100.893 536.304 100.44 537.597 100.44C539.251 100.44 540.597 101.133 541.637 102.52V100.66H543.177V109.2C543.177 110.76 542.737 111.98 541.857 112.86C540.937 113.78 539.624 114.24 537.917 114.24ZM537.897 108.84C538.911 108.84 539.797 108.513 540.557 107.86C541.317 107.193 541.697 106.353 541.697 105.34V105.3C541.697 104.273 541.317 103.433 540.557 102.78C539.811 102.127 538.924 101.8 537.897 101.8C536.897 101.8 536.051 102.12 535.357 102.76C534.664 103.4 534.317 104.24 534.317 105.28V105.32C534.317 106.333 534.664 107.173 535.357 107.84C536.064 108.507 536.911 108.84 537.897 108.84ZM550.418 111.22C549.192 111.22 548.225 110.847 547.518 110.1C546.812 109.34 546.458 108.333 546.458 107.08V100.66H547.998V106.7C547.998 107.673 548.245 108.44 548.738 109C549.245 109.547 549.952 109.82 550.858 109.82C551.752 109.82 552.492 109.52 553.078 108.92C553.665 108.32 553.958 107.54 553.958 106.58V100.66H555.478V111H553.958V109.2C553.118 110.547 551.938 111.22 550.418 111.22ZM559.083 111V96.4H560.623V111H559.083ZM567.277 111.22C566.237 111.22 565.33 110.933 564.557 110.36C563.797 109.787 563.417 109 563.417 108V107.96C563.417 106.88 563.817 106.047 564.617 105.46C565.417 104.873 566.49 104.58 567.837 104.58C568.903 104.58 569.957 104.727 570.997 105.02V104.7C570.997 103.793 570.73 103.1 570.197 102.62C569.663 102.14 568.91 101.9 567.937 101.9C566.923 101.9 565.877 102.147 564.797 102.64L564.337 101.38C565.617 100.793 566.87 100.5 568.097 100.5C569.563 100.5 570.677 100.88 571.437 101.64C572.157 102.36 572.517 103.373 572.517 104.68V111H570.997V109.46C570.077 110.633 568.837 111.22 567.277 111.22ZM567.577 109.98C568.537 109.98 569.35 109.72 570.017 109.2C570.683 108.68 571.017 108.013 571.017 107.2V106.24C570.003 105.947 568.997 105.8 567.997 105.8C567.05 105.8 566.31 105.993 565.777 106.38C565.243 106.753 564.977 107.253 564.977 107.88V107.92C564.977 108.547 565.223 109.047 565.717 109.42C566.223 109.793 566.843 109.98 567.577 109.98ZM584.855 111.22C583.815 111.22 582.908 110.933 582.135 110.36C581.375 109.787 580.995 109 580.995 108V107.96C580.995 106.88 581.395 106.047 582.195 105.46C582.995 104.873 584.068 104.58 585.415 104.58C586.481 104.58 587.535 104.727 588.575 105.02V104.7C588.575 103.793 588.308 103.1 587.775 102.62C587.241 102.14 586.488 101.9 585.515 101.9C584.501 101.9 583.455 102.147 582.375 102.64L581.915 101.38C583.195 100.793 584.448 100.5 585.675 100.5C587.141 100.5 588.255 100.88 589.015 101.64C589.735 102.36 590.095 103.373 590.095 104.68V111H588.575V109.46C587.655 110.633 586.415 111.22 584.855 111.22ZM585.155 109.98C586.115 109.98 586.928 109.72 587.595 109.2C588.261 108.68 588.595 108.013 588.595 107.2V106.24C587.581 105.947 586.575 105.8 585.575 105.8C584.628 105.8 583.888 105.993 583.355 106.38C582.821 106.753 582.555 107.253 582.555 107.88V107.92C582.555 108.547 582.801 109.047 583.295 109.42C583.801 109.793 584.421 109.98 585.155 109.98ZM599.393 98.4V96.7H601.153V98.4H599.393ZM598.513 114.26C598.153 114.26 597.833 114.227 597.553 114.16V112.9C597.793 112.94 598.046 112.96 598.313 112.96C599.099 112.96 599.493 112.5 599.493 111.58V100.66H601.033V111.6C601.033 112.493 600.813 113.16 600.373 113.6C599.933 114.04 599.313 114.26 598.513 114.26ZM608.407 111.22C607.18 111.22 606.213 110.847 605.507 110.1C604.8 109.34 604.447 108.333 604.447 107.08V100.66H605.987V106.7C605.987 107.673 606.233 108.44 606.727 109C607.233 109.547 607.94 109.82 608.847 109.82C609.74 109.82 610.48 109.52 611.067 108.92C611.653 108.32 611.947 107.54 611.947 106.58V100.66H613.467V111H611.947V109.2C611.107 110.547 609.927 111.22 608.407 111.22ZM620.351 111.2C619.604 111.2 618.844 111.067 618.071 110.8C617.311 110.52 616.644 110.147 616.071 109.68L616.851 108.58C618.024 109.46 619.218 109.9 620.431 109.9C621.058 109.9 621.571 109.753 621.971 109.46C622.371 109.153 622.571 108.753 622.571 108.26V108.22C622.571 107.753 622.351 107.393 621.911 107.14C621.484 106.887 620.844 106.64 619.991 106.4C619.471 106.253 619.058 106.12 618.751 106C618.444 105.88 618.098 105.713 617.711 105.5C617.324 105.273 617.038 104.993 616.851 104.66C616.664 104.327 616.571 103.933 616.571 103.48V103.44C616.571 102.56 616.898 101.847 617.551 101.3C618.218 100.753 619.064 100.48 620.091 100.48C621.424 100.48 622.664 100.86 623.811 101.62L623.111 102.78C622.084 102.113 621.064 101.78 620.051 101.78C619.451 101.78 618.964 101.92 618.591 102.2C618.231 102.48 618.051 102.84 618.051 103.28V103.32C618.051 103.507 618.104 103.68 618.211 103.84C618.318 104 618.438 104.133 618.571 104.24C618.704 104.347 618.911 104.46 619.191 104.58C619.484 104.7 619.718 104.787 619.891 104.84C620.064 104.893 620.338 104.98 620.711 105.1C621.098 105.22 621.418 105.327 621.671 105.42C621.938 105.513 622.231 105.647 622.551 105.82C622.884 105.98 623.144 106.16 623.331 106.36C623.531 106.547 623.698 106.787 623.831 107.08C623.964 107.373 624.031 107.7 624.031 108.06V108.1C624.031 109.06 623.684 109.82 622.991 110.38C622.298 110.927 621.418 111.2 620.351 111.2ZM630.157 111.18C629.263 111.18 628.55 110.947 628.017 110.48C627.497 110 627.237 109.26 627.237 108.26V102.02H625.797V100.66H627.237V97.54H628.777V100.66H632.057V102.02H628.777V108.06C628.777 109.207 629.357 109.78 630.517 109.78C631.023 109.78 631.523 109.66 632.017 109.42V110.74C631.457 111.033 630.837 111.18 630.157 111.18ZM643.07 109.66C642.03 110.713 640.743 111.24 639.21 111.24C637.676 111.24 636.396 110.72 635.37 109.68C634.356 108.627 633.85 107.36 633.85 105.88V105.84C633.85 104.36 634.363 103.093 635.39 102.04C636.43 100.973 637.716 100.44 639.25 100.44C640.783 100.44 642.063 100.967 643.09 102.02C644.116 103.06 644.63 104.32 644.63 105.8V105.84C644.63 107.32 644.11 108.593 643.07 109.66ZM639.25 109.86C640.356 109.86 641.263 109.473 641.97 108.7C642.69 107.927 643.05 106.987 643.05 105.88V105.84C643.05 104.72 642.676 103.767 641.93 102.98C641.196 102.193 640.29 101.8 639.21 101.8C638.116 101.8 637.21 102.193 636.49 102.98C635.783 103.753 635.43 104.693 635.43 105.8V105.84C635.43 106.96 635.796 107.913 636.53 108.7C637.263 109.473 638.17 109.86 639.25 109.86ZM654.335 106.46C654.442 107.513 654.835 108.353 655.515 108.98C656.209 109.593 657.029 109.9 657.975 109.9C659.215 109.9 660.302 109.413 661.235 108.44L662.195 109.3C661.035 110.593 659.615 111.24 657.935 111.24C656.482 111.24 655.255 110.74 654.255 109.74C653.269 108.727 652.775 107.427 652.775 105.84C652.775 104.333 653.249 103.06 654.195 102.02C655.142 100.967 656.322 100.44 657.735 100.44C659.215 100.44 660.389 100.96 661.255 102C662.122 103.04 662.555 104.347 662.555 105.92C662.555 106.12 662.549 106.3 662.535 106.46H654.335ZM654.335 105.22H660.995C660.902 104.22 660.569 103.393 659.995 102.74C659.435 102.073 658.669 101.74 657.695 101.74C656.815 101.74 656.062 102.067 655.435 102.72C654.809 103.373 654.442 104.207 654.335 105.22ZM665.391 111V96.4H666.931V111H665.391ZM671.425 106.46C671.532 107.513 671.925 108.353 672.605 108.98C673.298 109.593 674.118 109.9 675.065 109.9C676.305 109.9 677.392 109.413 678.325 108.44L679.285 109.3C678.125 110.593 676.705 111.24 675.025 111.24C673.572 111.24 672.345 110.74 671.345 109.74C670.358 108.727 669.865 107.427 669.865 105.84C669.865 104.333 670.338 103.06 671.285 102.02C672.232 100.967 673.412 100.44 674.825 100.44C676.305 100.44 677.478 100.96 678.345 102C679.212 103.04 679.645 104.347 679.645 105.92C679.645 106.12 679.638 106.3 679.625 106.46H671.425ZM671.425 105.22H678.085C677.992 104.22 677.658 103.393 677.085 102.74C676.525 102.073 675.758 101.74 674.785 101.74C673.905 101.74 673.152 102.067 672.525 102.72C671.898 103.373 671.532 104.207 671.425 105.22ZM682.341 111V100.66H683.881V102.4C684.748 101.093 685.861 100.44 687.221 100.44C688.768 100.44 689.874 101.127 690.541 102.5C691.434 101.127 692.648 100.44 694.181 100.44C695.368 100.44 696.301 100.813 696.981 101.56C697.674 102.307 698.021 103.32 698.021 104.6V111H696.481V104.96C696.481 103.96 696.241 103.193 695.761 102.66C695.294 102.113 694.641 101.84 693.801 101.84C692.988 101.84 692.308 102.127 691.761 102.7C691.214 103.273 690.941 104.053 690.941 105.04V111H689.421V104.92C689.421 103.96 689.181 103.207 688.701 102.66C688.234 102.113 687.588 101.84 686.761 101.84C685.934 101.84 685.248 102.147 684.701 102.76C684.154 103.373 683.881 104.153 683.881 105.1V111H682.341ZM702.285 106.46C702.391 107.513 702.785 108.353 703.465 108.98C704.158 109.593 704.978 109.9 705.925 109.9C707.165 109.9 708.251 109.413 709.185 108.44L710.145 109.3C708.985 110.593 707.565 111.24 705.885 111.24C704.431 111.24 703.205 110.74 702.205 109.74C701.218 108.727 700.725 107.427 700.725 105.84C700.725 104.333 701.198 103.06 702.145 102.02C703.091 100.967 704.271 100.44 705.685 100.44C707.165 100.44 708.338 100.96 709.205 102C710.071 103.04 710.505 104.347 710.505 105.92C710.505 106.12 710.498 106.3 710.485 106.46H702.285ZM702.285 105.22H708.945C708.851 104.22 708.518 103.393 707.945 102.74C707.385 102.073 706.618 101.74 705.645 101.74C704.765 101.74 704.011 102.067 703.385 102.72C702.758 103.373 702.391 104.207 702.285 105.22ZM713.2 111V100.66H714.74V102.46C715.554 101.113 716.734 100.44 718.28 100.44C719.507 100.44 720.474 100.82 721.18 101.58C721.887 102.327 722.24 103.327 722.24 104.58V111H720.7V104.96C720.7 103.987 720.447 103.227 719.94 102.68C719.447 102.12 718.747 101.84 717.84 101.84C716.947 101.84 716.207 102.14 715.62 102.74C715.034 103.34 714.74 104.12 714.74 105.08V111H713.2ZM728.985 111.18C728.091 111.18 727.378 110.947 726.845 110.48C726.325 110 726.065 109.26 726.065 108.26V102.02H724.625V100.66H726.065V97.54H727.605V100.66H730.885V102.02H727.605V108.06C727.605 109.207 728.185 109.78 729.345 109.78C729.851 109.78 730.351 109.66 730.845 109.42V110.74C730.285 111.033 729.665 111.18 728.985 111.18ZM737.411 111.22C736.184 111.22 735.217 110.847 734.511 110.1C733.804 109.34 733.451 108.333 733.451 107.08V100.66H734.991V106.7C734.991 107.673 735.237 108.44 735.731 109C736.237 109.547 736.944 109.82 737.851 109.82C738.744 109.82 739.484 109.52 740.071 108.92C740.657 108.32 740.951 107.54 740.951 106.58V100.66H742.471V111H740.951V109.2C740.111 110.547 738.931 111.22 737.411 111.22ZM745.935 111V100.66H747.475V102.4C748.342 101.093 749.455 100.44 750.815 100.44C752.362 100.44 753.468 101.127 754.135 102.5C755.028 101.127 756.242 100.44 757.775 100.44C758.962 100.44 759.895 100.813 760.575 101.56C761.268 102.307 761.615 103.32 761.615 104.6V111H760.075V104.96C760.075 103.96 759.835 103.193 759.355 102.66C758.888 102.113 758.235 101.84 757.395 101.84C756.582 101.84 755.902 102.127 755.355 102.7C754.808 103.273 754.535 104.053 754.535 105.04V111H753.015V104.92C753.015 103.96 752.775 103.207 752.295 102.66C751.828 102.113 751.182 101.84 750.355 101.84C749.528 101.84 748.842 102.147 748.295 102.76C747.748 103.373 747.475 104.153 747.475 105.1V111H745.935ZM764.398 113.44L764.158 112.74C765.132 112.393 765.578 111.813 765.498 111H764.778V108.9H766.618V110.7C766.618 111.5 766.438 112.113 766.078 112.54C765.732 112.967 765.172 113.267 764.398 113.44ZM775.897 98.4V96.7H777.657V98.4H775.897ZM775.997 111V100.66H777.537V111H775.997ZM781.111 111V100.66H782.651V102.46C783.464 101.113 784.644 100.44 786.191 100.44C787.417 100.44 788.384 100.82 789.091 101.58C789.797 102.327 790.151 103.327 790.151 104.58V111H788.611V104.96C788.611 103.987 788.357 103.227 787.851 102.68C787.357 102.12 786.657 101.84 785.751 101.84C784.857 101.84 784.117 102.14 783.531 102.74C782.944 103.34 782.651 104.12 782.651 105.08V111H781.111ZM803.231 111.22C802.004 111.22 801.038 110.847 800.331 110.1C799.624 109.34 799.271 108.333 799.271 107.08V100.66H800.811V106.7C800.811 107.673 801.058 108.44 801.551 109C802.058 109.547 802.764 109.82 803.671 109.82C804.564 109.82 805.304 109.52 805.891 108.92C806.478 108.32 806.771 107.54 806.771 106.58V100.66H808.291V111H806.771V109.2C805.931 110.547 804.751 111.22 803.231 111.22ZM811.895 111V96.4H813.435V111H811.895ZM820.469 111.18C819.576 111.18 818.862 110.947 818.329 110.48C817.809 110 817.549 109.26 817.549 108.26V102.02H816.109V100.66H817.549V97.54H819.089V100.66H822.369V102.02H819.089V108.06C819.089 109.207 819.669 109.78 820.829 109.78C821.336 109.78 821.836 109.66 822.329 109.42V110.74C821.769 111.033 821.149 111.18 820.469 111.18ZM825.095 111V100.66H826.635V103.36C827.035 102.467 827.602 101.753 828.335 101.22C829.068 100.687 829.908 100.44 830.855 100.48V102.14H830.735C829.548 102.14 828.568 102.553 827.795 103.38C827.022 104.207 826.635 105.373 826.635 106.88V111H825.095ZM833.24 98.4V96.7H835V98.4H833.24ZM833.34 111V100.66H834.88V111H833.34ZM843.114 111.24C841.621 111.24 840.361 110.713 839.334 109.66C838.321 108.607 837.814 107.347 837.814 105.88V105.84C837.814 104.36 838.321 103.093 839.334 102.04C840.361 100.973 841.621 100.44 843.114 100.44C844.714 100.44 846.094 101.053 847.254 102.28L846.234 103.36C845.248 102.32 844.201 101.8 843.094 101.8C842.054 101.8 841.174 102.187 840.454 102.96C839.748 103.733 839.394 104.68 839.394 105.8V105.84C839.394 106.96 839.754 107.913 840.474 108.7C841.208 109.473 842.114 109.86 843.194 109.86C844.341 109.86 845.394 109.347 846.354 108.32L847.334 109.24C846.134 110.573 844.728 111.24 843.114 111.24ZM849.92 98.4V96.7H851.68V98.4H849.92ZM850.02 111V100.66H851.56V111H850.02ZM856.054 106.46C856.161 107.513 856.554 108.353 857.234 108.98C857.927 109.593 858.747 109.9 859.694 109.9C860.934 109.9 862.021 109.413 862.954 108.44L863.914 109.3C862.754 110.593 861.334 111.24 859.654 111.24C858.201 111.24 856.974 110.74 855.974 109.74C854.987 108.727 854.494 107.427 854.494 105.84C854.494 104.333 854.967 103.06 855.914 102.02C856.861 100.967 858.041 100.44 859.454 100.44C860.934 100.44 862.107 100.96 862.974 102C863.841 103.04 864.274 104.347 864.274 105.92C864.274 106.12 864.267 106.3 864.254 106.46H856.054ZM856.054 105.22H862.714C862.621 104.22 862.287 103.393 861.714 102.74C861.154 102.073 860.387 101.74 859.414 101.74C858.534 101.74 857.781 102.067 857.154 102.72C856.527 103.373 856.161 104.207 856.054 105.22ZM870.39 111.2C869.643 111.2 868.883 111.067 868.11 110.8C867.35 110.52 866.683 110.147 866.11 109.68L866.89 108.58C868.063 109.46 869.257 109.9 870.47 109.9C871.097 109.9 871.61 109.753 872.01 109.46C872.41 109.153 872.61 108.753 872.61 108.26V108.22C872.61 107.753 872.39 107.393 871.95 107.14C871.523 106.887 870.883 106.64 870.03 106.4C869.51 106.253 869.097 106.12 868.79 106C868.483 105.88 868.137 105.713 867.75 105.5C867.363 105.273 867.077 104.993 866.89 104.66C866.703 104.327 866.61 103.933 866.61 103.48V103.44C866.61 102.56 866.937 101.847 867.59 101.3C868.257 100.753 869.103 100.48 870.13 100.48C871.463 100.48 872.703 100.86 873.85 101.62L873.15 102.78C872.123 102.113 871.103 101.78 870.09 101.78C869.49 101.78 869.003 101.92 868.63 102.2C868.27 102.48 868.09 102.84 868.09 103.28V103.32C868.09 103.507 868.143 103.68 868.25 103.84C868.357 104 868.477 104.133 868.61 104.24C868.743 104.347 868.95 104.46 869.23 104.58C869.523 104.7 869.757 104.787 869.93 104.84C870.103 104.893 870.377 104.98 870.75 105.1C871.137 105.22 871.457 105.327 871.71 105.42C871.977 105.513 872.27 105.647 872.59 105.82C872.923 105.98 873.183 106.16 873.37 106.36C873.57 106.547 873.737 106.787 873.87 107.08C874.003 107.373 874.07 107.7 874.07 108.06V108.1C874.07 109.06 873.723 109.82 873.03 110.38C872.337 110.927 871.457 111.2 870.39 111.2ZM883.847 106.46C883.954 107.513 884.347 108.353 885.027 108.98C885.72 109.593 886.54 109.9 887.487 109.9C888.727 109.9 889.814 109.413 890.747 108.44L891.707 109.3C890.547 110.593 889.127 111.24 887.447 111.24C885.994 111.24 884.767 110.74 883.767 109.74C882.78 108.727 882.287 107.427 882.287 105.84C882.287 104.333 882.76 103.06 883.707 102.02C884.654 100.967 885.834 100.44 887.247 100.44C888.727 100.44 889.9 100.96 890.767 102C891.634 103.04 892.067 104.347 892.067 105.92C892.067 106.12 892.06 106.3 892.047 106.46H883.847ZM883.847 105.22H890.507C890.414 104.22 890.08 103.393 889.507 102.74C888.947 102.073 888.18 101.74 887.207 101.74C886.327 101.74 885.574 102.067 884.947 102.72C884.32 103.373 883.954 104.207 883.847 105.22ZM894.763 111V100.66H896.303V103.36C896.703 102.467 897.27 101.753 898.003 101.22C898.736 100.687 899.576 100.44 900.523 100.48V102.14H900.403C899.216 102.14 898.236 102.553 897.463 103.38C896.69 104.207 896.303 105.373 896.303 106.88V111H894.763ZM905.441 111.22C904.401 111.22 903.494 110.933 902.721 110.36C901.961 109.787 901.581 109 901.581 108V107.96C901.581 106.88 901.981 106.047 902.781 105.46C903.581 104.873 904.654 104.58 906.001 104.58C907.067 104.58 908.121 104.727 909.161 105.02V104.7C909.161 103.793 908.894 103.1 908.361 102.62C907.827 102.14 907.074 101.9 906.101 101.9C905.087 101.9 904.041 102.147 902.961 102.64L902.501 101.38C903.781 100.793 905.034 100.5 906.261 100.5C907.727 100.5 908.841 100.88 909.601 101.64C910.321 102.36 910.681 103.373 910.681 104.68V111H909.161V109.46C908.241 110.633 907.001 111.22 905.441 111.22ZM905.741 109.98C906.701 109.98 907.514 109.72 908.181 109.2C908.847 108.68 909.181 108.013 909.181 107.2V106.24C908.167 105.947 907.161 105.8 906.161 105.8C905.214 105.8 904.474 105.993 903.941 106.38C903.407 106.753 903.141 107.253 903.141 107.88V107.92C903.141 108.547 903.387 109.047 903.881 109.42C904.387 109.793 905.007 109.98 905.741 109.98ZM917.305 111.18C916.412 111.18 915.698 110.947 915.165 110.48C914.645 110 914.385 109.26 914.385 108.26V102.02H912.945V100.66H914.385V97.54H915.925V100.66H919.205V102.02H915.925V108.06C915.925 109.207 916.505 109.78 917.665 109.78C918.172 109.78 918.672 109.66 919.165 109.42V110.74C918.605 111.033 917.985 111.18 917.305 111.18ZM931.387 111.08L926.907 100.66H928.607L932.087 109.24L935.587 100.66H937.247L932.747 111.08H931.387ZM942.238 111.22C941.198 111.22 940.291 110.933 939.518 110.36C938.758 109.787 938.378 109 938.378 108V107.96C938.378 106.88 938.778 106.047 939.578 105.46C940.378 104.873 941.451 104.58 942.798 104.58C943.864 104.58 944.918 104.727 945.958 105.02V104.7C945.958 103.793 945.691 103.1 945.158 102.62C944.624 102.14 943.871 101.9 942.898 101.9C941.884 101.9 940.838 102.147 939.758 102.64L939.298 101.38C940.578 100.793 941.831 100.5 943.058 100.5C944.524 100.5 945.638 100.88 946.398 101.64C947.118 102.36 947.478 103.373 947.478 104.68V111H945.958V109.46C945.038 110.633 943.798 111.22 942.238 111.22ZM942.538 109.98C943.498 109.98 944.311 109.72 944.978 109.2C945.644 108.68 945.978 108.013 945.978 107.2V106.24C944.964 105.947 943.958 105.8 942.958 105.8C942.011 105.8 941.271 105.993 940.738 106.38C940.204 106.753 939.938 107.253 939.938 107.88V107.92C939.938 108.547 940.184 109.047 940.678 109.42C941.184 109.793 941.804 109.98 942.538 109.98ZM950.74 111V100.66H952.28V103.36C952.68 102.467 953.246 101.753 953.98 101.22C954.713 100.687 955.553 100.44 956.5 100.48V102.14H956.38C955.193 102.14 954.213 102.553 953.44 103.38C952.666 104.207 952.28 105.373 952.28 106.88V111H950.74ZM958.885 98.4V96.7H960.645V98.4H958.885ZM958.985 111V100.66H960.525V111H958.985ZM967.899 111.22C966.672 111.22 965.706 110.847 964.999 110.1C964.292 109.34 963.939 108.333 963.939 107.08V100.66H965.479V106.7C965.479 107.673 965.726 108.44 966.219 109C966.726 109.547 967.432 109.82 968.339 109.82C969.232 109.82 969.972 109.52 970.559 108.92C971.146 108.32 971.439 107.54 971.439 106.58V100.66H972.959V111H971.439V109.2C970.599 110.547 969.419 111.22 967.899 111.22ZM979.843 111.2C979.096 111.2 978.336 111.067 977.563 110.8C976.803 110.52 976.136 110.147 975.563 109.68L976.343 108.58C977.516 109.46 978.71 109.9 979.923 109.9C980.55 109.9 981.063 109.753 981.463 109.46C981.863 109.153 982.063 108.753 982.063 108.26V108.22C982.063 107.753 981.843 107.393 981.403 107.14C980.976 106.887 980.336 106.64 979.483 106.4C978.963 106.253 978.55 106.12 978.243 106C977.936 105.88 977.59 105.713 977.203 105.5C976.816 105.273 976.53 104.993 976.343 104.66C976.156 104.327 976.063 103.933 976.063 103.48V103.44C976.063 102.56 976.39 101.847 977.043 101.3C977.71 100.753 978.556 100.48 979.583 100.48C980.916 100.48 982.156 100.86 983.303 101.62L982.603 102.78C981.576 102.113 980.556 101.78 979.543 101.78C978.943 101.78 978.456 101.92 978.083 102.2C977.723 102.48 977.543 102.84 977.543 103.28V103.32C977.543 103.507 977.596 103.68 977.703 103.84C977.81 104 977.93 104.133 978.063 104.24C978.196 104.347 978.403 104.46 978.683 104.58C978.976 104.7 979.21 104.787 979.383 104.84C979.556 104.893 979.83 104.98 980.203 105.1C980.59 105.22 980.91 105.327 981.163 105.42C981.43 105.513 981.723 105.647 982.043 105.82C982.376 105.98 982.636 106.16 982.823 106.36C983.023 106.547 983.19 106.787 983.323 107.08C983.456 107.373 983.523 107.7 983.523 108.06V108.1C983.523 109.06 983.176 109.82 982.483 110.38C981.79 110.927 980.91 111.2 979.843 111.2ZM986.204 111V108.9H988.044V111H986.204Z" fill="#393939"/>
<defs>
<clipPath id="clip0_930_1833">
<rect width="50.5" height="50.5" fill="white"/>
</clipPath>
</defs>
</svg>
