<svg width="231" height="68" viewBox="0 0 231 68" fill="none" xmlns="http://www.w3.org/2000/svg">
<rect x="0.166016" width="230.667" height="68" rx="34" fill="white"/>
<path d="M71.22 41.5L78.612 24.58H81.348L88.74 41.5H85.62L83.916 37.444H75.972L74.244 41.5H71.22ZM77.052 34.828H82.836L79.932 28.108L77.052 34.828ZM95.6289 41.74C93.8289 41.74 91.8369 41.092 90.2529 39.844L91.5489 37.876C92.9169 38.908 94.4049 39.436 95.7009 39.436C96.9489 39.436 97.6689 38.908 97.6689 38.068V38.02C97.6689 37.036 96.3249 36.7 94.8369 36.244C92.9649 35.716 90.8769 34.948 90.8769 32.524V32.476C90.8769 30.076 92.8689 28.612 95.3889 28.612C96.9729 28.612 98.7009 29.164 100.045 30.052L98.8929 32.116C97.6689 31.372 96.3729 30.916 95.3169 30.916C94.1889 30.916 93.5409 31.444 93.5409 32.188V32.236C93.5409 33.148 94.9089 33.532 96.3969 34.012C98.2449 34.588 100.333 35.428 100.333 37.708V37.756C100.333 40.42 98.2689 41.74 95.6289 41.74ZM103.285 41.5V23.98H106.189V34.444L111.445 28.828H114.973L109.933 33.988L115.141 41.5H111.781L107.965 36.028L106.189 37.876V41.5H103.285ZM131.673 41.764C127.305 41.764 124.521 39.244 124.521 34.372V24.7H127.473V34.252C127.473 37.372 129.081 39.052 131.721 39.052C134.337 39.052 135.945 37.468 135.945 34.372V24.7H138.897V34.228C138.897 39.244 136.065 41.764 131.673 41.764ZM146.957 41.74C145.157 41.74 143.165 41.092 141.581 39.844L142.877 37.876C144.245 38.908 145.733 39.436 147.029 39.436C148.277 39.436 148.997 38.908 148.997 38.068V38.02C148.997 37.036 147.653 36.7 146.165 36.244C144.293 35.716 142.205 34.948 142.205 32.524V32.476C142.205 30.076 144.197 28.612 146.717 28.612C148.301 28.612 150.029 29.164 151.373 30.052L150.221 32.116C148.997 31.372 147.701 30.916 146.645 30.916C145.517 30.916 144.869 31.444 144.869 32.188V32.236C144.869 33.148 146.237 33.532 147.725 34.012C149.573 34.588 151.661 35.428 151.661 37.708V37.756C151.661 40.42 149.597 41.74 146.957 41.74ZM155.621 36.196L154.709 25.54V24.7H158.117V25.54L157.229 36.196H155.621ZM154.829 41.5V38.212H158.021V41.5H154.829Z" fill="#5569C8"/>
</svg>
