<svg width="1437" height="184" viewBox="0 0 1437 184" fill="none" xmlns="http://www.w3.org/2000/svg">
<rect width="1437" height="184" rx="33" fill="#27326D"/>
<path d="M93.406 102.5V77.3H97.834V87.776H109.858V77.3H114.286V102.5H109.858V91.88H97.834V102.5H93.406ZM136.202 102.5H131.882V100.16C130.586 101.708 128.606 102.896 125.726 102.896C122.126 102.896 118.958 100.844 118.958 97.028V96.956C118.958 92.744 122.234 90.728 126.662 90.728C128.966 90.728 130.442 91.052 131.918 91.52V91.16C131.918 88.532 130.262 87.092 127.238 87.092C125.114 87.092 123.53 87.56 121.802 88.28L120.614 84.788C122.702 83.852 124.754 83.204 127.85 83.204C133.466 83.204 136.202 86.156 136.202 91.232V102.5ZM131.99 95.624V94.544C130.874 94.112 129.326 93.788 127.634 93.788C124.898 93.788 123.278 94.904 123.278 96.74V96.812C123.278 98.612 124.898 99.62 126.95 99.62C129.83 99.62 131.99 98 131.99 95.624ZM146.691 102.644L138.879 83.492H143.559L148.671 97.46L153.819 83.492H158.391L150.615 102.644H146.691ZM169.712 102.932C164.204 102.932 159.956 98.936 159.956 93.068V92.996C159.956 87.56 163.808 83.096 169.244 83.096C175.292 83.096 178.352 87.848 178.352 93.32C178.352 93.716 178.316 94.112 178.28 94.544H164.312C164.78 97.64 166.976 99.368 169.784 99.368C171.908 99.368 173.42 98.576 174.932 97.1L177.488 99.368C175.688 101.528 173.204 102.932 169.712 102.932ZM164.276 91.664H174.032C173.744 88.856 172.088 86.66 169.208 86.66C166.544 86.66 164.672 88.712 164.276 91.664ZM193.519 102.5V83.492H197.875V86.372C199.099 84.68 200.755 83.096 203.671 83.096C206.407 83.096 208.315 84.428 209.323 86.444C210.871 84.428 212.887 83.096 215.767 83.096C219.907 83.096 222.427 85.724 222.427 90.368V102.5H218.071V91.7C218.071 88.676 216.667 87.056 214.219 87.056C211.843 87.056 210.151 88.712 210.151 91.772V102.5H205.795V91.664C205.795 88.712 204.355 87.056 201.943 87.056C199.531 87.056 197.875 88.856 197.875 91.808V102.5H193.519ZM236.762 102.932C230.966 102.932 226.682 98.504 226.682 93.104V93.032C226.682 87.596 231.002 83.096 236.834 83.096C242.666 83.096 246.95 87.524 246.95 92.96V93.032C246.95 98.432 242.63 102.932 236.762 102.932ZM236.834 99.152C240.362 99.152 242.594 96.38 242.594 93.104V93.032C242.594 89.684 240.182 86.912 236.762 86.912C233.27 86.912 231.038 89.648 231.038 92.96V93.032C231.038 96.344 233.45 99.152 236.834 99.152ZM251.386 102.5V83.492H255.742V87.776C256.93 84.932 259.126 82.988 262.474 83.132V87.74H262.222C258.406 87.74 255.742 90.224 255.742 95.264V102.5H251.386ZM274.337 102.932C268.829 102.932 264.581 98.936 264.581 93.068V92.996C264.581 87.56 268.433 83.096 273.869 83.096C279.917 83.096 282.977 87.848 282.977 93.32C282.977 93.716 282.941 94.112 282.905 94.544H268.937C269.405 97.64 271.601 99.368 274.409 99.368C276.533 99.368 278.045 98.576 279.557 97.1L282.113 99.368C280.313 101.528 277.829 102.932 274.337 102.932ZM268.901 91.664H278.657C278.369 88.856 276.713 86.66 273.833 86.66C271.169 86.66 269.297 88.712 268.901 91.664ZM312.472 108.26V99.332C311.068 101.312 309.088 102.896 305.992 102.896C301.528 102.896 297.172 99.332 297.172 93.032V92.96C297.172 86.66 301.456 83.096 305.992 83.096C309.124 83.096 311.104 84.68 312.472 86.444V83.492H316.828V108.26H312.472ZM307.036 99.116C309.952 99.116 312.544 96.668 312.544 93.032V92.96C312.544 89.288 309.952 86.876 307.036 86.876C304.048 86.876 301.564 89.18 301.564 92.96V93.032C301.564 96.704 304.084 99.116 307.036 99.116ZM328.813 102.896C324.529 102.896 322.045 100.016 322.045 95.588V83.492H326.401V94.292C326.401 97.244 327.877 98.936 330.469 98.936C332.989 98.936 334.753 97.172 334.753 94.22V83.492H339.109V102.5H334.753V99.548C333.529 101.348 331.765 102.896 328.813 102.896ZM353.298 102.932C347.79 102.932 343.542 98.936 343.542 93.068V92.996C343.542 87.56 347.394 83.096 352.83 83.096C358.878 83.096 361.938 87.848 361.938 93.32C361.938 93.716 361.902 94.112 361.866 94.544H347.898C348.366 97.64 350.562 99.368 353.37 99.368C355.494 99.368 357.006 98.576 358.518 97.1L361.074 99.368C359.274 101.528 356.79 102.932 353.298 102.932ZM347.862 91.664H357.618C357.33 88.856 355.674 86.66 352.794 86.66C350.13 86.66 348.258 88.712 347.862 91.664ZM372.828 102.86C370.128 102.86 367.14 101.888 364.764 100.016L366.708 97.064C368.76 98.612 370.992 99.404 372.936 99.404C374.808 99.404 375.888 98.612 375.888 97.352V97.28C375.888 95.804 373.872 95.3 371.64 94.616C368.832 93.824 365.7 92.672 365.7 89.036V88.964C365.7 85.364 368.688 83.168 372.468 83.168C374.844 83.168 377.436 83.996 379.452 85.328L377.724 88.424C375.888 87.308 373.944 86.624 372.36 86.624C370.668 86.624 369.696 87.416 369.696 88.532V88.604C369.696 89.972 371.748 90.548 373.98 91.268C376.752 92.132 379.884 93.392 379.884 96.812V96.884C379.884 100.88 376.788 102.86 372.828 102.86ZM390.333 102.824C387.129 102.824 384.861 101.42 384.861 97.244V87.236H382.449V83.492H384.861V78.272H389.217V83.492H394.329V87.236H389.217V96.56C389.217 98.252 390.081 98.936 391.557 98.936C392.529 98.936 393.393 98.72 394.257 98.288V101.852C393.177 102.464 391.953 102.824 390.333 102.824ZM398.798 80.576V76.436H403.478V80.576H398.798ZM398.978 102.5V83.492H403.334V102.5H398.978ZM418.063 102.932C412.267 102.932 407.983 98.504 407.983 93.104V93.032C407.983 87.596 412.303 83.096 418.135 83.096C423.967 83.096 428.251 87.524 428.251 92.96V93.032C428.251 98.432 423.931 102.932 418.063 102.932ZM418.135 99.152C421.663 99.152 423.895 96.38 423.895 93.104V93.032C423.895 89.684 421.483 86.912 418.063 86.912C414.571 86.912 412.339 89.648 412.339 92.96V93.032C412.339 96.344 414.751 99.152 418.135 99.152ZM432.687 102.5V83.492H437.043V86.444C438.267 84.644 440.031 83.096 442.983 83.096C447.267 83.096 449.751 85.976 449.751 90.404V102.5H445.395V91.7C445.395 88.748 443.919 87.056 441.327 87.056C438.807 87.056 437.043 88.82 437.043 91.772V102.5H432.687ZM461.527 102.86C458.827 102.86 455.839 101.888 453.463 100.016L455.407 97.064C457.459 98.612 459.691 99.404 461.635 99.404C463.507 99.404 464.587 98.612 464.587 97.352V97.28C464.587 95.804 462.571 95.3 460.339 94.616C457.531 93.824 454.399 92.672 454.399 89.036V88.964C454.399 85.364 457.387 83.168 461.167 83.168C463.543 83.168 466.135 83.996 468.151 85.328L466.423 88.424C464.587 87.308 462.643 86.624 461.059 86.624C459.367 86.624 458.395 87.416 458.395 88.532V88.604C458.395 89.972 460.447 90.548 462.679 91.268C465.451 92.132 468.583 93.392 468.583 96.812V96.884C468.583 100.88 465.487 102.86 461.527 102.86ZM476.462 94.544L475.742 88.712L475.922 88.532C480.494 88.352 482.582 86.876 482.582 84.5V84.428C482.582 82.412 481.034 81.008 478.442 81.008C476.174 81.008 474.302 82.016 472.574 83.852L469.874 80.972C471.962 78.596 474.662 76.976 478.55 76.976C483.59 76.976 486.974 79.784 486.974 84.284V84.356C486.974 88.892 483.734 90.944 479.738 91.628L479.378 94.544H476.462ZM475.418 102.5V97.568H480.242V102.5H475.418Z" fill="white"/>
<rect x="1116.17" y="58" width="230.667" height="68" rx="34" fill="white"/>
<path d="M1187.22 99.5L1194.61 82.58H1197.35L1204.74 99.5H1201.62L1199.92 95.444H1191.97L1190.24 99.5H1187.22ZM1193.05 92.828H1198.84L1195.93 86.108L1193.05 92.828ZM1211.63 99.74C1209.83 99.74 1207.84 99.092 1206.25 97.844L1207.55 95.876C1208.92 96.908 1210.4 97.436 1211.7 97.436C1212.95 97.436 1213.67 96.908 1213.67 96.068V96.02C1213.67 95.036 1212.32 94.7 1210.84 94.244C1208.96 93.716 1206.88 92.948 1206.88 90.524V90.476C1206.88 88.076 1208.87 86.612 1211.39 86.612C1212.97 86.612 1214.7 87.164 1216.04 88.052L1214.89 90.116C1213.67 89.372 1212.37 88.916 1211.32 88.916C1210.19 88.916 1209.54 89.444 1209.54 90.188V90.236C1209.54 91.148 1210.91 91.532 1212.4 92.012C1214.24 92.588 1216.33 93.428 1216.33 95.708V95.756C1216.33 98.42 1214.27 99.74 1211.63 99.74ZM1219.28 99.5V81.98H1222.19V92.444L1227.44 86.828H1230.97L1225.93 91.988L1231.14 99.5H1227.78L1223.96 94.028L1222.19 95.876V99.5H1219.28ZM1247.67 99.764C1243.31 99.764 1240.52 97.244 1240.52 92.372V82.7H1243.47V92.252C1243.47 95.372 1245.08 97.052 1247.72 97.052C1250.34 97.052 1251.95 95.468 1251.95 92.372V82.7H1254.9V92.228C1254.9 97.244 1252.07 99.764 1247.67 99.764ZM1262.96 99.74C1261.16 99.74 1259.17 99.092 1257.58 97.844L1258.88 95.876C1260.25 96.908 1261.73 97.436 1263.03 97.436C1264.28 97.436 1265 96.908 1265 96.068V96.02C1265 95.036 1263.65 94.7 1262.17 94.244C1260.29 93.716 1258.21 92.948 1258.21 90.524V90.476C1258.21 88.076 1260.2 86.612 1262.72 86.612C1264.3 86.612 1266.03 87.164 1267.37 88.052L1266.22 90.116C1265 89.372 1263.7 88.916 1262.65 88.916C1261.52 88.916 1260.87 89.444 1260.87 90.188V90.236C1260.87 91.148 1262.24 91.532 1263.73 92.012C1265.57 92.588 1267.66 93.428 1267.66 95.708V95.756C1267.66 98.42 1265.6 99.74 1262.96 99.74ZM1271.62 94.196L1270.71 83.54V82.7H1274.12V83.54L1273.23 94.196H1271.62ZM1270.83 99.5V96.212H1274.02V99.5H1270.83Z" fill="#5569C8"/>
</svg>
