<svg width="232" height="69" viewBox="0 0 232 69" fill="none" xmlns="http://www.w3.org/2000/svg">
<rect x="0.833984" y="0.670898" width="230.667" height="68" rx="34" fill="white"/>
<path d="M81.208 42.4109C78.64 42.4109 76.216 41.5229 74.2 39.7229L75.976 37.6109C77.584 39.0029 79.192 39.7949 81.28 39.7949C83.104 39.7949 84.256 38.9549 84.256 37.6829V37.6349C84.256 36.4349 83.584 35.7869 80.464 35.0669C76.888 34.2029 74.872 33.1469 74.872 30.0509V30.0029C74.872 27.1229 77.272 25.1309 80.608 25.1309C83.056 25.1309 85 25.8749 86.704 27.2429L85.12 29.4749C83.608 28.3469 82.096 27.7469 80.56 27.7469C78.832 27.7469 77.824 28.6349 77.824 29.7389V29.7869C77.824 31.0829 78.592 31.6589 81.808 32.4269C85.36 33.2909 87.208 34.5629 87.208 37.3469V37.3949C87.208 40.5389 84.736 42.4109 81.208 42.4109ZM94.7115 42.4349C91.8555 42.4349 90.1995 40.5149 90.1995 37.5629V29.4989H93.1035V36.6989C93.1035 38.6669 94.0875 39.7949 95.8155 39.7949C97.4955 39.7949 98.6715 38.6189 98.6715 36.6509V29.4989H101.576V42.1709H98.6715V40.2029C97.8555 41.4029 96.6795 42.4349 94.7115 42.4349ZM112.426 42.4349C110.338 42.4349 109.018 41.3789 108.13 40.2029V42.1709H105.226V24.6509H108.13V31.6109C109.066 30.2909 110.386 29.2349 112.426 29.2349C115.426 29.2349 118.33 31.6109 118.33 35.8109V35.8589C118.33 40.0589 115.45 42.4349 112.426 42.4349ZM111.754 39.9149C113.746 39.9149 115.378 38.3549 115.378 35.8589V35.8109C115.378 33.3629 113.722 31.7549 111.754 31.7549C109.786 31.7549 108.058 33.3869 108.058 35.8109V35.8589C108.058 38.3069 109.786 39.9149 111.754 39.9149ZM121.304 42.1709V29.4989H124.208V31.4189C125.024 30.2909 126.128 29.2349 128.072 29.2349C129.896 29.2349 131.168 30.1229 131.84 31.4669C132.872 30.1229 134.216 29.2349 136.136 29.2349C138.896 29.2349 140.576 30.9869 140.576 34.0829V42.1709H137.672V34.9709C137.672 32.9549 136.736 31.8749 135.104 31.8749C133.52 31.8749 132.392 32.9789 132.392 35.0189V42.1709H129.488V34.9469C129.488 32.9789 128.528 31.8749 126.92 31.8749C125.312 31.8749 124.208 33.0749 124.208 35.0429V42.1709H121.304ZM144.157 27.5549V24.7949H147.277V27.5549H144.157ZM144.277 42.1709V29.4989H147.181V42.1709H144.277ZM155.224 42.3869C153.088 42.3869 151.576 41.4509 151.576 38.6669V31.9949H149.968V29.4989H151.576V26.0189H154.48V29.4989H157.888V31.9949H154.48V38.2109C154.48 39.3389 155.056 39.7949 156.04 39.7949C156.688 39.7949 157.264 39.6509 157.84 39.3629V41.7389C157.12 42.1469 156.304 42.3869 155.224 42.3869Z" fill="#5569C8"/>
</svg>
