<svg width="27" height="26" viewBox="0 0 27 26" fill="none" xmlns="http://www.w3.org/2000/svg">
<path d="M26.0061 6.49079L20.2408 0.726798C20.0491 0.535078 19.8216 0.382996 19.5711 0.279236C19.3206 0.175475 19.0522 0.12207 18.7811 0.12207C18.51 0.12207 18.2416 0.175475 17.9911 0.279236C17.7406 0.382996 17.5131 0.535078 17.3214 0.726798L1.41364 16.6345C1.22114 16.8255 1.06852 17.0529 0.964649 17.3033C0.86078 17.5538 0.807738 17.8224 0.808604 18.0936V23.8589C0.808604 24.4063 1.02607 24.9313 1.41316 25.3184C1.80026 25.7055 2.32527 25.923 2.8727 25.923H24.5457C24.8195 25.923 25.082 25.8143 25.2755 25.6207C25.4691 25.4272 25.5778 25.1647 25.5778 24.8909C25.5778 24.6172 25.4691 24.3547 25.2755 24.1612C25.082 23.9676 24.8195 23.8589 24.5457 23.8589H11.5574L26.0061 9.4102C26.1978 9.21853 26.3499 8.99096 26.4537 8.7405C26.5574 8.49004 26.6108 8.2216 26.6108 7.9505C26.6108 7.6794 26.5574 7.41095 26.4537 7.16049C26.3499 6.91003 26.1978 6.68247 26.0061 6.49079ZM21.4496 11.0473L15.6856 5.28201L18.7817 2.18586L24.5457 7.95114L21.4496 11.0473Z" fill="#5569C8"/>
</svg>
