<svg width="232" height="69" viewBox="0 0 232 69" fill="none" xmlns="http://www.w3.org/2000/svg">
<rect x="0.666016" y="0.170898" width="230.667" height="68" rx="34" fill="#27336E"/>
<path d="M76.704 41.7909L69.72 24.8709H72.984L78.048 37.7829L83.088 24.8709H86.28L79.296 41.7909H76.704ZM88.4033 27.0549V24.2949H91.5233V27.0549H88.4033ZM88.5233 41.6709V28.9989H91.4273V41.6709H88.5233ZM101.03 41.9589C97.3584 41.9589 94.5264 39.2949 94.5264 35.3829V35.3349C94.5264 31.7109 97.0944 28.7349 100.718 28.7349C104.75 28.7349 106.79 31.9029 106.79 35.5509C106.79 35.8149 106.766 36.0789 106.742 36.3669H97.4304C97.7424 38.4309 99.2064 39.5829 101.078 39.5829C102.494 39.5829 103.502 39.0549 104.51 38.0709L106.214 39.5829C105.014 41.0229 103.358 41.9589 101.03 41.9589ZM97.4064 34.4469H103.91C103.718 32.5749 102.614 31.1109 100.694 31.1109C98.9184 31.1109 97.6704 32.4789 97.4064 34.4469ZM112.145 41.7669L108.041 28.9989H111.017L113.561 37.6869L116.369 28.9509H118.841L121.673 37.6869L124.265 28.9989H127.169L123.017 41.7669H120.425L117.593 33.1029L114.737 41.7669H112.145ZM147.597 41.6709H144.717V40.1109C143.853 41.1429 142.533 41.9349 140.613 41.9349C138.213 41.9349 136.101 40.5669 136.101 38.0229V37.9749C136.101 35.1669 138.285 33.8229 141.237 33.8229C142.773 33.8229 143.757 34.0389 144.741 34.3509V34.1109C144.741 32.3589 143.637 31.3989 141.621 31.3989C140.205 31.3989 139.149 31.7109 137.997 32.1909L137.205 29.8629C138.597 29.2389 139.965 28.8069 142.029 28.8069C145.773 28.8069 147.597 30.7749 147.597 34.1589V41.6709ZM144.789 37.0869V36.3669C144.045 36.0789 143.013 35.8629 141.885 35.8629C140.061 35.8629 138.981 36.6069 138.981 37.8309V37.8789C138.981 39.0789 140.061 39.7509 141.429 39.7509C143.349 39.7509 144.789 38.6709 144.789 37.0869ZM151.219 41.6709V24.1509H154.123V41.6709H151.219ZM158.086 41.6709V24.1509H160.99V41.6709H158.086Z" fill="white"/>
</svg>
